<svg width="97" height="96" viewBox="0 0 97 96" fill="none" xmlns="http://www.w3.org/2000/svg">
<path d="M83.8713 68.5797C82.5405 71.6542 80.9652 74.4842 79.1401 77.0861C76.6523 80.6332 74.6153 83.0884 73.0455 84.4518C70.612 86.6898 68.0046 87.8359 65.2126 87.9011C63.2082 87.9011 60.791 87.3307 57.9773 86.1737C55.1543 85.0222 52.56 84.4518 50.1879 84.4518C47.7001 84.4518 45.0319 85.0222 42.178 86.1737C39.3197 87.3307 37.0171 87.9337 35.2567 87.9934C32.5793 88.1075 29.9106 86.9288 27.2467 84.4518C25.5465 82.9689 23.4199 80.4267 20.8724 76.8254C18.139 72.9796 15.8918 68.5199 14.1314 63.4357C12.2459 57.944 11.3008 52.6261 11.3008 47.4777C11.3008 41.5803 12.5751 36.4938 15.1276 32.2314C17.1336 28.8076 19.8023 26.1069 23.1424 24.1242C26.4825 22.1416 30.0914 21.1312 33.978 21.0666C36.1046 21.0666 38.8933 21.7244 42.3589 23.0172C45.8147 24.3143 48.0336 24.9721 49.0065 24.9721C49.7338 24.9721 52.1988 24.203 56.3776 22.6695C60.3293 21.2475 63.6645 20.6586 66.3968 20.8906C73.8005 21.4881 79.3628 24.4067 83.0619 29.6648C76.4404 33.6768 73.165 39.2961 73.2301 46.5049C73.2899 52.1198 75.3269 56.7924 79.3302 60.5024C81.1445 62.2243 83.1706 63.5552 85.4248 64.5003C84.9359 65.918 84.4199 67.276 83.8713 68.5797V68.5797ZM66.8911 1.76148C66.8911 6.16248 65.2832 10.2717 62.0784 14.0751C58.2109 18.5967 53.5329 21.2094 48.46 20.7971C48.3954 20.2692 48.3579 19.7135 48.3579 19.1295C48.3579 14.9046 50.1972 10.383 53.4634 6.68607C55.094 4.81422 57.1679 3.25781 59.6829 2.01623C62.1925 0.793178 64.5662 0.116803 66.7987 0.000976562C66.8639 0.589322 66.8911 1.1777 66.8911 1.76142V1.76148Z" fill="#98A2B3"/>
</svg>
