<svg width="97" height="96" viewBox="0 0 97 96" fill="none" xmlns="http://www.w3.org/2000/svg">
<g clip-path="url(#clip0_104_6)">
<path d="M95.565 49.1057C95.565 45.8428 95.3005 42.5623 94.7361 39.3523H49.4609V57.8362H75.3879C74.312 63.7976 70.8551 69.0712 65.7931 72.4223V84.4157H81.2611C90.3444 76.0556 95.565 63.7094 95.565 49.1057Z" fill="#4285F4"/>
<path d="M49.4604 96.0033C62.4062 96.0033 73.3237 91.7527 81.2782 84.4156L65.8102 72.4222C61.5067 75.35 55.9509 77.0079 49.478 77.0079C36.9555 77.0079 26.3379 68.5596 22.5282 57.2012H6.56641V69.5649C14.7149 85.7736 31.3116 96.0033 49.4604 96.0033V96.0033Z" fill="#34A853"/>
<path d="M22.5111 57.2011C20.5004 51.2397 20.5004 44.7844 22.5111 38.823V26.4592H6.56694C-0.241065 40.0223 -0.241065 56.0018 6.56694 69.5649L22.5111 57.2011V57.2011Z" fill="#FBBC04"/>
<path d="M49.4604 18.9986C56.3037 18.8928 62.9177 21.4679 67.8738 26.1947L81.578 12.4905C72.9004 4.34202 61.3832 -0.137864 49.4604 0.00323466C31.3116 0.00323466 14.7149 10.2329 6.56641 26.4592L22.5106 38.823C26.3026 27.4469 36.9379 18.9986 49.4604 18.9986V18.9986Z" fill="#EA4335"/>
</g>
<defs>
<clipPath id="clip0_104_6">
<rect width="96" height="96" fill="white" transform="translate(0.5)"/>
</clipPath>
</defs>
</svg>
