<svg width="346" height="34" viewBox="0 0 346 34" fill="none" xmlns="http://www.w3.org/2000/svg">
<path d="M322.509 16.5363C322.042 16.5649 321.57 16.5858 321.114 16.6266C320.817 16.6522 320.685 16.5858 320.484 16.5521C320.416 16.5404 320.344 16.5164 320.282 16.52C319.82 16.5486 319.358 16.5802 318.896 16.6118C318.758 16.673 318.674 16.7536 318.458 16.7847C318.247 16.8141 317.996 16.8163 317.76 16.8321C317.449 16.8517 317.138 16.8713 316.827 16.8893C316.671 16.8984 316.545 16.9286 316.497 16.9844C316.488 16.9937 316.594 17.0158 316.651 17.0291C316.844 17.0736 317.032 17.1242 317.242 17.1578C317.443 17.1899 317.686 17.1325 317.902 17.1736C318.386 17.2663 318.391 17.2647 318.754 17.2432C319.065 17.2236 319.377 17.2025 319.688 17.1875C319.749 17.1839 319.822 17.2063 319.889 17.2181C320.09 17.2502 320.223 17.3259 320.515 17.2942C320.736 17.2692 320.981 17.2625 321.212 17.2482C321.409 17.2911 321.593 17.3402 321.803 17.3738C322 17.4059 322.058 17.4315 321.957 17.477C321.865 17.5192 321.734 17.5373 321.559 17.5419C321.403 17.5447 321.248 17.5599 321.092 17.5689C321.012 17.5742 320.936 17.5779 320.861 17.5832C320.564 17.6026 320.564 17.6026 320.013 17.509C319.797 17.4724 319.56 17.5283 319.354 17.4932C319.215 17.4698 319.094 17.4339 318.96 17.4089C318.902 17.3987 318.812 17.3979 318.741 17.4016C318.505 17.4144 318.269 17.4241 318.043 17.446C317.883 17.4612 317.792 17.505 317.813 17.5479C317.819 17.5647 317.934 17.5883 318.001 17.5893C318.153 17.5911 318.312 17.5682 318.459 17.5777C318.602 17.5872 318.751 17.6167 318.857 17.6496C319.075 17.7184 319.312 17.6533 319.517 17.67C319.731 17.6882 319.911 17.7481 320.117 17.7832C320.169 17.792 320.268 17.7758 320.348 17.7705C320.579 17.7577 320.81 17.7465 321.042 17.7338C321.239 17.7767 321.45 17.8148 321.628 17.864C321.951 17.9534 322.295 17.9858 322.703 17.9378C322.934 17.9112 323.161 17.9185 323.35 17.9768C323.543 18.0366 323.761 18.0286 324.001 18.0142C324.223 18 324.448 17.9643 324.678 18.0053C325.177 18.0963 325.182 18.1009 325.761 18.0591C325.936 18.0468 326.068 18.0426 326.203 18.0768C326.328 18.108 326.462 18.1345 326.592 18.1641C326.823 18.1514 327.059 18.1386 327.291 18.1243C327.588 18.1049 327.755 18.1249 327.831 18.2103C327.878 18.2622 327.9 18.3097 328.006 18.3441C328.132 18.386 328.265 18.3834 328.444 18.3695C328.613 18.3573 328.735 18.3394 328.802 18.2835C328.829 18.2602 328.885 18.2382 328.935 18.2193C328.977 18.2051 329.042 18.1831 329.08 18.1858C329.151 18.1913 329.247 18.2074 329.272 18.2272C329.517 18.411 329.517 18.4126 329.757 18.4643C330.021 18.522 330.295 18.5734 330.536 18.639C330.753 18.697 330.964 18.6691 331.196 18.6671C331.371 18.6656 331.488 18.7046 331.476 18.7446C331.468 18.7678 331.404 18.8021 331.348 18.8057C330.886 18.8404 330.419 18.8705 329.952 18.896C329.895 18.8996 329.823 18.8725 329.755 18.8593C329.621 18.8328 329.5 18.7908 329.357 18.7828C329.214 18.7748 329.05 18.7993 328.895 18.8083C328.739 18.8173 328.575 18.8387 328.432 18.8276C328.289 18.8166 328.172 18.773 328.038 18.7449C327.976 18.7316 327.889 18.7124 327.837 18.7175C327.494 18.7573 327.235 18.7088 326.985 18.6433C326.932 18.6299 326.841 18.6215 326.775 18.6251C326.228 18.656 325.685 18.6913 325.138 18.7252C324.917 18.7394 324.733 18.6872 324.68 18.597C324.653 18.5465 324.602 18.4962 324.599 18.4456C324.592 18.3534 324.329 18.305 324.14 18.3173C323.829 18.3354 323.512 18.3504 323.206 18.376C322.957 18.3966 322.743 18.38 322.568 18.3262C322.365 18.2649 322.139 18.2792 321.913 18.298C321.743 18.3118 321.699 18.3629 321.718 18.4903C321.734 18.5931 321.656 18.626 321.349 18.6456C320.962 18.6704 320.571 18.6953 320.179 18.7155C320.118 18.7191 320.045 18.6936 319.983 18.6803C319.849 18.6538 319.727 18.6103 319.585 18.6023C319.442 18.5928 319.278 18.6172 319.122 18.6278C318.967 18.6368 318.802 18.6597 318.66 18.6502C318.517 18.6407 318.395 18.5956 318.266 18.5675C318.203 18.5542 318.126 18.5349 318.065 18.5385C317.753 18.5535 317.442 18.5746 317.131 18.5942C316.782 18.6156 316.782 18.6156 316.279 18.5246C316.048 18.4836 315.824 18.5193 315.602 18.5335C315.366 18.5478 315.144 18.5559 314.955 18.496C314.83 18.4572 314.691 18.4338 314.545 18.4427C314.153 18.4645 313.766 18.4909 313.375 18.5127C313.309 18.5163 313.218 18.5094 313.165 18.496C312.91 18.4337 312.661 18.3851 312.313 18.4204C312.011 18.4506 311.685 18.4549 311.384 18.4836C311.219 18.4989 311.147 18.5487 311.182 18.5868C311.203 18.6066 311.304 18.6288 311.37 18.6282C311.521 18.6285 311.686 18.604 311.828 18.612C312.123 18.6279 312.278 18.7557 312.659 18.7171C312.885 18.6936 313.121 18.6839 313.357 18.6757C313.419 18.6737 313.487 18.7023 313.554 18.7171C313.746 18.7569 313.916 18.8092 314.188 18.7792C314.414 18.7558 314.655 18.7476 314.886 18.7333C315.254 18.7102 315.254 18.7117 315.738 18.8013C315.969 18.8439 316.193 18.8066 316.415 18.794C316.58 18.7849 316.735 18.7682 316.869 18.7885C317.075 18.819 317.227 18.8915 317.477 18.8847C317.714 18.8781 317.944 18.8546 318.18 18.8449C318.327 18.839 318.466 18.8624 318.587 18.9029C318.713 18.9433 318.846 18.9606 319.007 18.95C319.238 18.9357 319.473 18.9183 319.709 18.9086C319.776 18.9065 319.852 18.9197 319.915 18.9314C320.049 18.958 320.179 18.9891 320.309 19.0172C320.54 19.006 320.776 19.0009 321.002 18.9805C321.177 18.9652 321.3 18.9703 321.444 18.9998C321.627 19.0397 321.779 19.1122 322.07 19.0743C322.215 19.0562 322.386 19.0593 322.532 19.0427C322.71 19.0212 322.834 19.0278 322.964 19.0728C323.212 19.1583 323.515 19.1572 323.825 19.1207C324.163 19.0809 324.422 19.1218 324.682 19.1872C324.956 19.2555 324.956 19.254 325.176 19.4227C325.241 19.4713 325.417 19.4928 325.564 19.4823C325.809 19.4649 326.022 19.4707 326.206 19.5275C326.399 19.5889 326.626 19.5793 326.857 19.5604C327.163 19.5347 327.469 19.5121 327.726 19.599C327.852 19.641 327.985 19.6506 328.15 19.6384C328.617 19.6067 329.089 19.5858 329.546 19.5481C329.824 19.5242 329.988 19.5719 330.18 19.6118C330.439 19.6664 330.722 19.7147 330.73 19.8361C330.732 19.856 330.8 19.8785 330.857 19.8934C330.983 19.9246 331.117 19.9511 331.247 19.9807C331.439 20.0251 331.626 20.062 331.885 20.0352C332.111 20.0132 332.352 20.005 332.583 19.9892C332.814 19.9734 333.026 19.9639 333.239 20.0205C333.484 20.0844 333.744 20.1452 334.022 20.192C334.218 20.2257 334.47 20.1636 334.681 20.2094C334.811 20.2375 334.936 20.2702 335.075 20.2936C335.133 20.3039 335.222 20.2954 335.298 20.2917C335.454 20.2842 335.614 20.2783 335.765 20.2616C335.939 20.2432 336.071 20.2451 336.206 20.2793C336.332 20.3105 336.458 20.354 336.6 20.362C336.814 20.374 337.047 20.3105 337.264 20.3794C337.376 20.4138 337.515 20.4464 337.658 20.4559C337.801 20.4654 337.965 20.441 338.116 20.4412C338.183 20.4406 338.265 20.4645 338.304 20.4842C338.328 20.4947 338.297 20.5242 338.265 20.5398C338.224 20.5586 338.164 20.5837 338.102 20.5873C337.636 20.619 337.169 20.6461 336.702 20.6762C336.424 20.6939 336.424 20.6939 335.854 20.602C335.72 20.5801 335.573 20.586 335.409 20.5981C335.187 20.6139 334.962 20.6419 334.728 20.6163C334.418 20.5144 334.043 20.5084 333.649 20.5518C333.484 20.5701 333.332 20.5714 333.207 20.5433C332.943 20.4871 332.665 20.4357 332.429 20.3686C332.245 20.3164 332.16 20.3125 332.089 20.3869C332.067 20.4101 332.045 20.4349 332.051 20.4564C332.084 20.5329 332.142 20.6077 332.175 20.6843C332.186 20.7057 332.15 20.7306 332.128 20.7539C332.056 20.819 331.957 20.8153 331.787 20.7629C331.618 20.7106 331.417 20.677 331.154 20.7038C330.928 20.7273 330.682 20.7263 330.456 20.7513C330.108 20.7881 329.858 20.7411 329.603 20.6772C329.55 20.6638 329.46 20.6569 329.394 20.6605C328.691 20.7019 327.993 20.7478 327.29 20.7892C327.139 20.7982 327 20.7763 326.879 20.7359C326.754 20.6955 326.615 20.6751 326.464 20.6841C325.841 20.7217 325.218 20.7563 324.596 20.8016C324.342 20.8207 324.137 20.8024 323.958 20.7502C323.823 20.7114 323.699 20.7002 323.534 20.7062C323.354 20.7123 323.228 20.7288 323.141 20.7741C323.058 20.8179 323.122 20.8434 323.313 20.8756C323.519 20.9107 323.712 20.9567 323.909 20.9981C324.065 20.9906 324.22 20.9769 324.371 20.9772C324.438 20.9766 324.501 21.0037 324.568 21.0185C324.761 21.0614 324.939 21.1045 325.207 21.0776C325.433 21.0541 325.674 21.0475 325.905 21.0316C326.225 21.012 326.225 21.012 326.753 21.1043C326.887 21.1277 327.029 21.125 327.198 21.1097C327.344 21.0977 327.497 21.1179 327.604 21.163C327.648 21.1811 327.636 21.212 327.553 21.3141C327.558 21.3894 327.655 21.3547 327.685 21.3053C327.732 21.2342 327.631 21.212 327.444 21.252C327.314 21.2808 327.25 21.3213 327.286 21.3533C327.306 21.37 327.397 21.3908 327.553 21.3141C327.963 21.2184 328.28 21.2049 328.581 21.1777C328.76 21.1624 328.874 21.1675 329.018 21.2062C329.192 21.2524 329.366 21.3016 329.643 21.2747C329.945 21.2444 330.266 21.2386 330.572 21.2129C330.855 21.1889 331.006 21.2553 331.189 21.2937C331.409 21.3394 331.647 21.2836 331.848 21.3095C332.058 21.3354 332.209 21.4017 332.451 21.4119C332.799 21.3674 333.027 21.4423 333.295 21.4908C333.506 21.5274 333.75 21.4915 333.971 21.4726C334.221 21.4521 334.43 21.4672 334.609 21.521C334.812 21.5823 335.033 21.5665 335.26 21.5507C335.788 21.5155 335.806 21.5107 336.12 21.5925C336.346 21.6521 336.557 21.6226 336.779 21.613C336.976 21.6528 337.168 21.6957 337.374 21.7308C337.427 21.7396 337.526 21.7234 337.606 21.7181C337.837 21.7038 338.073 21.6895 338.304 21.6752C338.459 21.6662 338.623 21.6417 338.766 21.6497C338.909 21.6593 339.03 21.7028 339.16 21.7309C339.29 21.759 339.424 21.787 339.549 21.8167C339.742 21.8611 339.924 21.898 340.188 21.8727C340.413 21.8508 340.65 21.8426 340.885 21.8267C341.182 21.8073 341.173 21.812 341.733 21.8994C342.035 21.9475 342.338 21.8834 342.641 21.8747C342.792 21.8703 342.94 21.886 343.047 21.9296C343.091 21.9477 343.079 21.9785 343.095 22.0045C342.317 22.0527 341.533 22.0947 340.765 22.152C340.468 22.1746 340.309 22.1206 340.144 22.0759C339.874 22.0045 339.531 22.115 339.274 22.0219C339.119 21.9664 338.899 21.936 338.64 21.9659C338.49 21.9825 338.329 21.9824 338.174 21.9975C337.778 22.0347 337.414 22.0394 337.09 21.9362C336.979 21.9002 336.821 21.8816 336.705 21.8472C336.57 21.81 336.441 21.7896 336.285 21.7986C335.582 21.8415 334.884 21.8844 334.187 21.9303C334.125 21.9339 334.065 21.9575 334.014 21.9748C333.885 22.019 333.93 22.0524 334.144 22.0782C334.216 22.0868 334.274 22.1063 334.342 22.1211C334.471 22.1492 334.593 22.1943 334.735 22.2038C334.878 22.2133 335.042 22.1904 335.198 22.1814C335.354 22.1724 335.518 22.1479 335.66 22.1559C335.803 22.1654 335.924 22.209 336.059 22.2355C336.121 22.2488 336.199 22.2711 336.26 22.2691C336.572 22.2572 336.878 22.2377 337.19 22.2211C337.387 22.261 337.556 22.3194 337.789 22.3313C337.936 22.3392 338.091 22.321 338.243 22.3228C338.309 22.3237 338.396 22.346 338.431 22.3657C338.45 22.3778 338.391 22.4091 338.345 22.4249C338.169 22.4848 337.922 22.4761 337.701 22.4965C337.461 22.5185 337.243 22.5142 337.054 22.4559C336.928 22.417 336.789 22.3967 336.639 22.4057C336.247 22.429 335.86 22.4554 335.469 22.4757C335.403 22.4793 335.321 22.4662 335.259 22.456C334.756 22.3665 334.756 22.3635 334.407 22.3864C333.893 22.42 333.893 22.42 333.542 22.3416C333.475 22.3268 333.402 22.2982 333.345 22.3003C332.797 22.3295 332.255 22.3588 331.713 22.3988C331.534 22.4111 331.411 22.4121 331.276 22.3733C331.16 22.3405 331.025 22.3033 330.882 22.2953C330.735 22.2873 330.575 22.3117 330.42 22.3207C330.264 22.3298 330.1 22.3511 329.962 22.34C329.819 22.329 329.693 22.287 329.568 22.2574C329.438 22.2262 329.301 22.2289 329.126 22.2427C328.589 22.2826 328.584 22.2781 328.043 22.1874C327.98 22.1772 327.899 22.1656 327.833 22.1693C327.442 22.1911 327.055 22.2174 326.663 22.2392C326.513 22.2482 326.364 22.2295 326.257 22.1859C326.213 22.1678 326.226 22.1369 326.193 22.0773C326.159 22.0637 326.199 22.088 326.21 22.111C326.28 22.1073 326.366 22.1096 326.417 22.0969C326.548 22.0666 326.611 22.0276 326.576 21.9956C326.556 21.9789 326.465 21.9582 326.408 21.9586C326.304 21.9595 326.216 21.9941 326.193 22.0773C325.898 22.1305 325.582 22.144 325.276 22.1712C325.097 22.1881 324.983 22.1814 324.838 22.1427C324.665 22.095 324.486 22.0489 324.209 22.0759C323.908 22.1061 323.586 22.1135 323.275 22.1377C322.917 22.1653 322.752 22.0284 322.449 22.0341C322.137 22.0399 321.826 22.0687 321.515 22.0898C321.242 22.1075 321.242 22.1075 320.667 22.0125C320.456 21.9774 320.214 22.0333 320.008 21.9967C319.869 21.9733 319.748 21.9374 319.614 21.9124C319.556 21.9022 319.466 21.9029 319.395 21.9066C319.004 21.9284 318.607 21.9441 318.231 21.9812C317.803 22.0248 317.473 21.9846 317.159 21.8966C316.772 21.9168 316.38 21.9294 315.999 21.9619C315.721 21.9858 315.557 21.9365 315.365 21.8967C315.297 21.8834 315.239 21.8608 315.168 21.8553C315.096 21.8498 315.012 21.8628 314.936 21.868C314.625 21.8876 314.304 21.8981 314.003 21.9283C313.631 21.9669 313.481 21.8421 313.191 21.8292C313.002 21.9062 312.905 22.01 312.522 22.0209C312.21 22.0298 311.899 22.057 311.588 22.0766C311.433 22.0856 311.277 22.0962 311.121 22.1052C310.871 22.1212 310.757 22.1821 310.815 22.2738C310.847 22.3242 310.874 22.3747 310.901 22.4252C310.955 22.5154 310.842 22.5932 310.644 22.6057C310.096 22.6396 309.554 22.675 309.007 22.7058C308.861 22.7147 308.717 22.6898 308.596 22.6494C308.47 22.609 308.332 22.5917 308.181 22.6007C307.634 22.6346 307.091 22.67 306.544 22.7008C306.483 22.7044 306.401 22.6897 306.339 22.678C306.205 22.6515 306.075 22.6203 305.945 22.5922C305.633 22.6087 305.326 22.6206 305.02 22.6416C304.525 22.6736 304.525 22.6751 304.155 22.5937C304.088 22.579 304.019 22.5504 303.958 22.5524C303.722 22.5606 303.491 22.5779 303.255 22.5938C302.562 22.6397 302.562 22.6397 302.355 22.5954C302.168 22.5539 301.999 22.5031 301.721 22.5301C301.42 22.5604 301.099 22.5723 300.787 22.5904C300.556 22.6031 300.325 22.6174 300.093 22.6225C300.032 22.6245 299.964 22.5959 299.897 22.5811C299.704 22.5351 299.517 22.4983 299.258 22.5266C299.108 22.5433 298.947 22.5478 298.791 22.5568C298.386 22.5818 298.386 22.5818 297.712 22.4953C297.645 22.4867 297.564 22.4766 297.498 22.4818C296.951 22.5142 296.409 22.5496 295.862 22.5804C295.796 22.584 295.715 22.5755 295.648 22.5684C294.894 22.4857 294.894 22.4857 294.102 22.5356C293.8 22.5535 293.791 22.5597 293.468 22.481C293.324 22.4469 293.204 22.4311 293.039 22.4432C292.417 22.4855 291.789 22.5154 291.172 22.5638C290.894 22.5846 290.73 22.5399 290.538 22.5C290.471 22.4868 290.398 22.4567 290.341 22.4587C289.718 22.4933 289.096 22.5339 288.473 22.5685C288.417 22.572 288.344 22.5419 288.276 22.5287C288.147 22.5021 288.021 22.4617 287.878 22.4537C287.731 22.4458 287.572 22.4702 287.411 22.4792C287.02 22.5026 287.019 22.501 286.559 22.4143C286.497 22.4026 286.415 22.3863 286.354 22.3899C285.731 22.426 285.103 22.4575 284.486 22.5074C284.133 22.535 283.889 22.4926 283.633 22.4302C283.58 22.4168 283.49 22.4114 283.424 22.4151C282.721 22.4565 282.023 22.5024 281.321 22.5438C281.174 22.5527 281.031 22.5278 280.91 22.4889C280.716 22.4276 280.494 22.4371 280.258 22.453C279.716 22.4899 279.711 22.4884 279.385 22.4175C279.317 22.4027 279.259 22.3832 279.188 22.3761C279.121 22.369 279.036 22.3744 278.965 22.378C278.654 22.3961 278.343 22.4157 278.032 22.4352C277.72 22.4548 277.404 22.4668 277.098 22.4955C276.721 22.531 276.535 22.4327 276.267 22.3889C275.88 22.4122 275.483 22.4279 275.102 22.4634C274.81 22.4905 274.668 22.4241 274.472 22.3905C274.405 22.3787 274.332 22.3532 274.271 22.3568C273.568 22.3967 272.865 22.4396 272.167 22.4871C271.998 22.4978 271.883 22.4864 271.739 22.4508C271.416 22.3706 271.402 22.3738 270.874 22.409C270.643 22.4249 270.421 22.4391 270.218 22.3778C270.039 22.3225 269.826 22.3105 269.576 22.331C269.27 22.3567 268.954 22.3717 268.642 22.3898C268.331 22.4094 268.02 22.4351 267.708 22.4454C267.458 22.4553 267.302 22.3844 267.1 22.3492C267.038 22.339 266.953 22.3382 266.882 22.3419C266.571 22.3584 266.25 22.3719 265.948 22.4006C265.581 22.436 265.372 22.3533 265.109 22.3064C265.051 22.2961 264.957 22.3031 264.886 22.3083C264.339 22.3406 263.797 22.376 263.25 22.4099C263.053 22.3701 262.851 22.3319 262.654 22.2921C262.343 22.3101 262.032 22.3297 261.72 22.3477C261.485 22.3621 261.244 22.3687 261.023 22.3937C260.736 22.4269 260.589 22.3559 260.393 22.3222C260.326 22.3105 260.253 22.285 260.192 22.2886C259.8 22.3089 259.408 22.3307 259.022 22.3601C258.655 22.3894 258.499 22.2524 258.196 22.2566C257.883 22.2608 257.563 22.2835 257.262 22.3138C256.914 22.349 256.664 22.302 256.409 22.2381C256.356 22.2247 256.266 22.2178 256.2 22.2214C255.808 22.2432 255.422 22.2696 255.03 22.2914C254.964 22.2951 254.883 22.2881 254.816 22.2794C254.062 22.1952 254.062 22.1937 253.737 22.2149C253.506 22.2292 253.27 22.2466 253.034 22.2563C252.968 22.2599 252.886 22.2468 252.824 22.235C252.325 22.1456 252.325 22.144 251.972 22.1655C251.66 22.1851 251.349 22.2047 251.038 22.2242C250.841 22.1844 250.64 22.1462 250.443 22.1064C250.056 22.1297 249.659 22.1485 249.278 22.1794C249.099 22.1932 248.98 22.1896 248.84 22.1524C248.667 22.1078 248.493 22.0555 248.211 22.0841C247.91 22.1143 247.588 22.1201 247.282 22.1458C246.915 22.1766 246.754 22.0382 246.456 22.0423C246.143 22.0465 245.823 22.0692 245.522 22.0994C245.174 22.1347 244.924 22.0877 244.669 22.0238C244.616 22.0104 244.526 22.0035 244.46 22.0071C243.601 22.0591 242.748 22.111 241.889 22.166C241.361 22.1997 241.361 22.2012 240.348 22.1254C240.276 22.1199 240.2 22.1144 240.129 22.1181C239.818 22.1346 239.497 22.1481 239.195 22.1768C238.828 22.2122 238.619 22.131 238.356 22.0826C238.298 22.0723 238.209 22.0792 238.133 22.0829C237.897 22.0957 237.666 22.1115 237.43 22.1259C237.119 22.1454 236.808 22.165 236.497 22.1846C236.3 22.1463 236.098 22.1065 235.902 22.0683C235.515 22.0916 235.118 22.1057 234.737 22.1413C234.445 22.1684 234.303 22.105 234.107 22.0698C234.04 22.0581 233.967 22.0326 233.906 22.0347C233.203 22.0745 232.5 22.1159 231.802 22.1649C231.515 22.1858 231.378 22.1178 231.181 22.0842C231.114 22.074 231.037 22.0547 230.976 22.0583C230.509 22.0838 230.042 22.1139 229.575 22.1441C229.311 22.1617 229.311 22.1617 228.727 22.0714C228.66 22.0612 228.584 22.0511 228.518 22.0548C227.037 22.1443 225.561 22.2385 224.08 22.328C223.929 22.337 223.79 22.3151 223.669 22.2747C223.543 22.2343 223.404 22.2139 223.253 22.2229C222.631 22.2605 222.003 22.2951 221.386 22.3404C221.132 22.3595 220.927 22.3412 220.748 22.289C220.613 22.2502 220.489 22.2359 220.324 22.2465C220.013 22.2676 219.701 22.2857 219.39 22.3052C219.079 22.3248 218.767 22.3444 218.456 22.364C218.145 22.3835 217.829 22.3955 217.523 22.4242C217.146 22.4597 216.955 22.3661 216.692 22.3207C216.225 22.3478 215.758 22.3748 215.295 22.4034C214.673 22.441 214.05 22.4817 213.428 22.5178C213.371 22.5213 213.298 22.4943 213.231 22.481C213.035 22.4443 212.889 22.3918 212.601 22.4111C211.206 22.5046 209.8 22.5858 208.4 22.6777C208.108 22.6971 207.975 22.6322 207.774 22.5986C207.707 22.5884 207.63 22.5675 207.569 22.5711C206.79 22.6162 206.012 22.6659 205.234 22.7141C204.918 22.7337 204.918 22.7337 204.382 22.643C204.319 22.6328 204.238 22.6197 204.172 22.6233C203.158 22.6843 202.149 22.7483 201.135 22.8107C200.984 22.8197 200.845 22.7994 200.719 22.759C200.598 22.7185 200.455 22.6967 200.308 22.7057C199.375 22.7628 198.436 22.8185 197.507 22.8803C197.257 22.8978 197.048 22.8858 196.865 22.832C196.734 22.7932 196.605 22.7774 196.445 22.788C195.044 22.8753 193.643 22.9596 192.243 23.0515C191.974 23.0692 191.783 23.0416 191.609 22.9924C191.469 22.9536 191.35 22.947 191.18 22.9546C191.001 22.9638 190.893 22.9816 190.797 23.0285C190.673 23.0895 190.598 23.1655 190.295 23.1727C189.983 23.18 189.667 23.2012 189.362 23.2299C189.07 23.2585 188.928 23.1906 188.741 23.1507C188.601 23.1227 188.473 23.1192 188.299 23.1345C188.139 23.1482 188.041 23.1751 187.95 23.2251C187.749 23.3313 187.73 23.3315 187.47 23.2676C187.33 23.2335 187.205 23.2069 187.054 23.2143C186.432 23.2504 185.809 23.2896 185.187 23.3303C184.828 23.3533 184.824 23.3564 184.549 23.282C184.414 23.2447 184.285 23.2273 184.129 23.2379C182.417 23.3448 180.705 23.4486 178.994 23.5601C178.73 23.5778 178.548 23.5471 178.355 23.5026C178.293 23.4878 178.23 23.4668 178.158 23.4613C178.087 23.4557 178.007 23.4626 177.931 23.4663C176.686 23.5431 175.436 23.6168 174.196 23.7012C173.914 23.7205 173.759 23.6727 173.562 23.6344C173.495 23.6212 173.437 23.6002 173.365 23.5946C173.294 23.5906 173.21 23.6021 173.134 23.6074C171.889 23.6841 170.639 23.7579 169.399 23.8423C169.102 23.8617 168.97 23.7983 168.774 23.7662C168.707 23.7545 168.634 23.732 168.573 23.7356C168.181 23.7559 167.795 23.7823 167.403 23.8056C166.469 23.8643 165.535 23.92 164.602 23.9803C164.243 24.0033 164.078 23.8679 163.776 23.8767C163.383 23.8877 162.997 23.9218 162.606 23.9467C162.295 23.9662 161.983 23.9843 161.672 24.0054C161.366 24.0249 161.366 24.0249 160.593 23.9424C160.526 23.9353 160.445 23.9252 160.379 23.9289C159.289 23.9951 158.195 24.0614 157.111 24.1321C156.861 24.1481 156.652 24.1422 156.468 24.0869C156.338 24.0481 156.204 24.0293 156.048 24.0398C154.412 24.1415 152.78 24.2431 151.144 24.3432C151.082 24.3468 151.001 24.3321 150.939 24.3203C150.804 24.2938 150.674 24.2627 150.544 24.2346C150.452 24.2707 150.331 24.304 150.272 24.3445C150.191 24.399 150.078 24.4153 149.899 24.4261C149.72 24.4368 149.606 24.4347 149.461 24.396C149.288 24.3483 149.11 24.3114 148.832 24.3292C147.12 24.4407 145.408 24.543 143.696 24.653C143.413 24.6708 143.276 24.6043 143.075 24.5707C143.008 24.5605 142.931 24.5443 142.87 24.5479C142.167 24.5893 141.469 24.6337 140.767 24.6766C138.819 24.7978 136.871 24.9144 134.928 25.0417C134.575 25.0647 134.331 25.0284 134.076 24.9645C134.023 24.9511 133.932 24.9442 133.866 24.9479C131.14 25.1157 128.414 25.2851 125.693 25.4545C125.547 25.4634 125.403 25.44 125.282 25.4011C125.156 25.3607 125.018 25.3419 124.867 25.3509C123.622 25.4277 122.377 25.5044 121.132 25.5828C120.821 25.6023 120.816 25.6039 120.489 25.5329C120.422 25.5181 120.349 25.4896 120.297 25.4931C120.189 25.5017 120.087 25.541 120.015 25.5939C119.943 25.6498 119.826 25.6662 119.651 25.6784C119.472 25.6907 119.354 25.6871 119.214 25.6515C119.036 25.6069 118.872 25.5637 118.589 25.5815C115.01 25.8089 111.43 26.0287 107.851 26.2546C107.563 26.2724 107.426 26.209 107.225 26.1754C107.158 26.1652 107.091 26.1504 107.02 26.148C106.944 26.1456 106.864 26.1555 106.789 26.1607C100.95 26.5228 95.1119 26.8864 89.2735 27.2485C88.9245 27.2699 88.9292 27.2699 88.5554 27.4145C88.5092 27.4318 88.4492 27.4554 88.3831 27.459C86.5959 27.5727 84.8039 27.6834 83.0118 27.794C82.2336 27.8422 81.4556 27.8919 80.6774 27.9385C80.3991 27.9548 80.3991 27.9548 79.7429 28.1264C79.687 28.1407 79.6219 28.1597 79.5559 28.1633C76.4434 28.3576 73.3309 28.5518 70.2135 28.743C69.9682 28.7574 69.7713 28.7867 69.6627 28.8614C69.5858 28.9143 69.4837 28.9459 69.3282 28.9565C67.1494 29.092 64.9708 29.229 62.7871 29.3615C62.5277 29.3776 62.3744 29.4219 62.2509 29.4875C62.2098 29.5094 62.1735 29.5343 62.1131 29.5502C62.0572 29.5645 61.9723 29.5698 61.9017 29.575C60.0341 29.6909 58.1669 29.8099 56.2943 29.9213C56.016 29.9375 55.9062 29.9953 55.7729 30.0564C55.727 30.0768 55.6957 30.1047 55.6351 30.1191C55.5744 30.1319 55.4845 30.1326 55.4089 30.1364C53.8527 30.2327 52.2965 30.3306 50.7402 30.4269C50.4368 30.4219 50.3765 30.5115 50.2334 30.5665C50.1826 30.5854 50.1465 30.6103 50.0858 30.6231C50.0203 30.636 49.9349 30.6352 49.8547 30.6389C48.6096 30.7157 47.3649 30.7971 46.1148 30.8693C45.827 30.8856 45.7755 30.9644 45.6229 31.0195C45.572 31.0368 45.5218 31.0634 45.4606 31.0685C44.6826 31.1198 43.9045 31.1679 43.1262 31.2146C42.8669 31.2306 42.8668 31.2291 42.4179 31.3851C42.367 31.4025 42.3066 31.4214 42.2407 31.4266C41.076 31.5011 39.9064 31.5726 38.7369 31.6457C38.5859 31.6547 38.4843 31.6924 38.4121 31.7453C38.3399 31.7982 38.2333 31.8329 38.0824 31.8419C37.1487 31.9006 36.215 31.9609 35.281 32.015C35.0215 32.0295 34.8537 32.0694 34.7448 32.1395C34.6631 32.1924 34.5608 32.2194 34.3957 32.2301C33.4619 32.2872 32.5284 32.3491 31.5895 32.4001C31.3158 32.4148 31.1773 32.4682 31.068 32.5337C30.9816 32.5867 30.8787 32.606 30.7042 32.6167C28.9922 32.7206 27.2754 32.8244 25.5687 32.9374C25.2811 32.9568 25.1308 32.9043 24.9389 32.8675C24.6655 32.8161 24.4107 32.7599 24.4027 32.6401C24.4014 32.6216 24.3195 32.6008 24.2617 32.586C23.8327 32.4744 23.8327 32.4744 23.7581 32.3521C23.7152 32.2771 23.6674 32.2007 23.6291 32.1242C23.5591 31.9988 23.4054 31.9678 22.9715 31.9946C22.8158 32.0036 22.6604 32.0157 22.5046 32.0232C22.2734 32.0359 22.0949 31.9867 22.0461 31.8949C22.019 31.8445 21.9872 31.794 21.9601 31.7435C22.196 31.7292 22.1911 31.7277 22.595 31.5383C22.7649 31.4585 22.765 31.4585 22.4236 31.383C22.2939 31.3549 22.1686 31.3237 22.0295 31.2972C21.9671 31.2855 21.8862 31.2785 21.8201 31.2821C21.4285 31.3039 21.0419 31.3288 20.6552 31.3536C20.0328 31.3928 20.0327 31.3928 19.3879 31.2415C19.335 31.2297 19.253 31.2074 19.2616 31.195C19.3099 31.1377 19.436 31.112 19.5965 31.1045C19.8325 31.0933 20.0634 31.0759 20.2945 31.0616C20.4502 31.0526 20.6057 31.0421 20.7614 31.033C20.9042 30.9734 21.0519 30.9153 21.1851 30.8542C21.3966 30.7602 21.3963 30.7571 21.0938 30.6952C20.9016 30.6538 20.6955 30.6171 20.4987 30.5788C20.2676 30.5931 20.0319 30.609 19.8007 30.6217C19.5082 30.6381 19.3879 30.6099 19.3055 30.5107C19.2333 30.4237 19.3087 30.3478 19.5346 30.3274C19.7653 30.307 19.9823 30.2928 20.0953 30.2135C20.2038 30.1372 20.4006 30.1063 20.6463 30.0981C20.8022 30.0921 20.9577 30.0801 21.1132 30.0695C21.3159 30.0555 21.4195 29.9762 21.371 29.889C21.3435 29.8324 21.293 29.7852 21.1076 29.7745C20.2851 29.7277 20.2757 29.7293 19.8616 29.6284C19.8232 29.6195 19.793 29.5921 19.8062 29.5782C19.8283 29.5549 19.8781 29.5207 19.9346 29.5156C20.4766 29.4771 21.0188 29.4417 21.5616 29.414C21.7409 29.4048 21.8727 29.3929 21.9304 29.3355C22.0103 29.2565 21.9676 29.1846 21.7983 29.1323C21.7451 29.1158 21.6584 29.0951 21.6017 29.0971C20.9788 29.1301 20.3612 29.1707 19.7383 29.2037C19.6817 29.2073 19.5759 29.1821 19.5509 29.1623C19.5011 29.1259 19.5687 29.0761 19.7332 29.0578C19.9494 29.0329 20.1717 29.0294 20.3133 28.9514C20.5094 28.8406 20.7535 28.7386 20.9737 28.6322C21.0103 28.6134 21.0695 28.5776 21.0551 28.5746C20.9345 28.5418 20.7955 28.5169 20.6702 28.4857C20.4584 28.4337 20.4532 28.3585 20.4957 28.2859C20.5296 28.2272 20.6701 28.2029 20.8452 28.2014C20.9209 28.2008 21.0156 28.2 21.0762 28.1856C21.2348 28.1505 21.284 28.107 21.2014 28.0754C21.1528 28.0574 21.0659 28.032 21.0093 28.0356C19.9998 28.095 18.9855 28.1528 17.9816 28.2245C17.6847 28.2455 17.5436 28.1883 17.3609 28.1483C17.2215 28.1173 17.0928 28.1061 16.924 28.1306C16.7645 28.1535 16.6075 28.1425 16.5047 28.0927C16.4215 28.0519 16.5611 28.0154 16.9417 27.9721C17.0122 27.9638 17.0923 27.9585 17.1434 27.9427C17.6812 27.7721 17.6811 27.7706 18.0583 27.7459C18.4261 27.7227 18.4261 27.7212 18.6141 27.6304C18.7012 27.5882 18.7978 27.5459 18.8801 27.5021C18.9121 27.4849 18.9668 27.4537 18.9473 27.4447C18.84 27.398 18.6972 27.3884 18.5323 27.4006C18.1648 27.4299 17.728 27.4121 17.5438 27.5597C17.4718 27.6156 17.3545 27.632 17.1848 27.6427C15.4774 27.7465 13.7705 27.8564 12.0582 27.9572C11.7799 27.9734 11.656 28.0313 11.5514 28.0952C11.4602 28.1483 11.3571 28.1645 11.1779 28.1753C10.9987 28.186 10.8569 28.1919 10.7494 28.1421C10.6858 28.1119 10.7349 28.0684 10.874 28.0242C11.0734 27.961 11.0304 27.8845 10.9592 27.8129C10.9087 27.7657 10.7597 27.7332 10.6037 27.7376C10.3722 27.7457 10.151 27.7645 9.95276 27.7048C9.83679 27.6704 9.69312 27.647 9.56326 27.6174C9.3129 27.5566 9.06242 27.4942 8.71971 27.5386C8.48203 27.5253 8.31265 27.4714 8.12043 27.43C7.79856 27.3621 7.76943 27.3516 7.99154 27.2744C8.24143 27.1877 8.03515 27.0788 8.17155 26.9946C8.317 26.9042 8.52004 26.8241 8.69903 26.7396C8.74491 26.7177 8.78618 26.6974 8.83206 26.6755C8.72113 26.6457 8.61917 26.6081 8.48993 26.5877C8.32241 26.5615 8.23493 26.5284 8.23798 26.4331C8.20391 26.4196 8.2204 26.4548 8.25888 26.4637C8.3021 26.4725 8.40579 26.464 8.45713 26.4528C8.58768 26.4224 8.65128 26.3835 8.61598 26.3515C8.59591 26.3348 8.5046 26.314 8.44781 26.3145C8.34368 26.3154 8.25605 26.35 8.23324 26.4332C7.70739 26.5007 7.16035 26.5361 6.61298 26.5654C6.5564 26.569 6.48337 26.5389 6.41608 26.5241C6.19484 26.4737 6.19491 26.4752 5.55493 26.4654C5.48856 26.4644 5.39723 26.4437 5.36265 26.4225C5.21908 26.3299 5.21691 26.227 5.14392 26.1277C5.26263 26.0621 5.38134 25.9981 5.50489 25.934C5.75187 25.8044 6.07569 25.6894 6.26505 25.5479C6.21738 25.473 6.1555 25.3983 6.35961 25.335C6.94606 25.2532 6.94136 25.2532 7.09731 25.1781C7.54232 24.9653 7.98247 24.7509 8.44663 24.541C8.57079 24.4861 8.56884 24.457 8.34011 24.4359C8.2687 24.4303 8.19277 24.4295 8.11725 24.4332C7.88132 24.446 7.64654 24.4756 7.41421 24.4715C7.18199 24.4689 7.00704 24.4027 6.81493 24.3629C6.61798 24.3216 6.42093 24.2787 6.22388 24.2358C6.00174 24.2423 5.78223 24.2872 5.55512 24.22C5.38111 24.1677 5.16555 24.1311 4.9685 24.0883C5.10735 23.9703 5.3759 23.8788 5.58194 23.7741C5.76968 23.6787 5.77441 23.6802 6.29017 23.6036C6.534 23.5677 6.6075 23.3934 6.39583 23.3445C6.14084 23.2852 5.87202 23.2306 5.6125 23.1745C5.39037 23.181 5.16603 23.2244 4.94838 23.1571C4.77921 23.1063 4.58747 23.0726 4.3143 23.0949C3.85275 23.1327 3.38061 23.1537 2.91391 23.1853C2.75361 23.1959 2.57802 23.1913 2.50351 23.1397C2.45369 23.1032 2.58754 23.0514 2.743 23.0393C2.97862 23.0219 3.19034 23.0016 3.30348 22.9238C3.4119 22.846 3.61857 22.8212 3.86396 22.8083C3.93001 22.8047 4.00455 22.7856 4.03644 22.7669C4.20082 22.6763 4.38498 22.5979 4.74962 22.5979C4.89901 22.5659 4.97683 22.5268 4.92701 22.4903C4.89727 22.4706 4.79617 22.4453 4.73958 22.4489C4.34778 22.4676 3.95599 22.4863 3.57448 22.5173C3.39546 22.5311 3.25834 22.5354 3.14164 22.4903C3.05911 22.4602 3.0989 22.4184 3.24735 22.3725C3.37729 22.333 3.41219 22.2881 3.3992 22.236C3.36736 22.1149 3.22296 22.0808 2.76911 22.0923C2.44295 22.1013 2.36114 22.082 2.28311 21.9782C2.26252 21.9537 2.21299 21.9204 2.24498 21.9032C2.44146 21.797 2.56529 21.6668 2.94535 21.6144C3.09556 21.5947 3.25642 21.5933 3.34839 21.5525C3.44035 21.5118 3.52248 21.465 3.61928 21.4257C3.73923 21.3786 3.82145 21.3349 3.76268 21.3062C3.6645 21.2548 3.51279 21.2514 3.33891 21.2714C3.18849 21.288 3.02768 21.2909 2.87211 21.3015C2.59401 21.3208 2.36418 21.2828 2.32649 21.2155C2.22456 21.0381 2.11796 20.8623 2.02549 20.6848C2.01457 20.6634 2.03631 20.6355 2.07293 20.6168C2.2011 20.5511 2.33901 20.4885 2.47202 20.4243C2.62807 20.3508 2.88462 20.3624 3.10141 20.3467C3.4077 20.3241 3.4077 20.3256 3.80953 20.1746C3.96651 20.1149 4.24733 20.1355 4.40946 20.0819C4.46038 20.0645 4.53898 20.0362 4.52375 20.021C4.50347 20.0012 4.40782 19.9866 4.33621 19.978C4.26932 19.9694 4.18857 19.9654 4.11789 19.9707C3.25949 20.0226 2.40606 20.0776 1.54756 20.128C1.40135 20.1369 1.23815 20.1045 1.18288 20.0573C1.12781 20.0132 1.13834 19.9593 1.12545 19.9087C1.25847 19.8446 1.41066 19.7849 1.52443 19.7163C1.61083 19.6633 1.71342 19.6393 1.89307 19.6347C2.12941 19.6281 2.3601 19.6077 2.62422 19.5916C3.10133 19.3631 3.56821 19.124 4.08319 18.8952C4.29006 18.8027 4.23187 18.711 4.26794 18.6139C4.30453 18.5244 4.62255 18.5355 4.83378 18.5076C5.00271 18.4846 5.05612 18.435 4.98758 18.4018C4.94837 18.3821 4.86167 18.3598 4.79541 18.3604C4.63922 18.3617 4.48397 18.3769 4.3283 18.3859C4.17263 18.3949 3.99248 18.3919 3.86645 18.4191C3.74505 18.4447 3.66806 18.4976 3.5906 18.5428C3.50399 18.5928 3.38689 18.6107 3.20724 18.6153C2.97553 18.6204 2.74456 18.6362 2.51337 18.6489C2.25375 18.5912 1.98472 18.5351 1.73436 18.4742C1.6862 18.4624 1.6743 18.4271 1.67748 18.404C1.68291 18.3441 1.60945 18.3078 1.45129 18.2799C1.31711 18.2565 1.20586 18.2221 1.08073 18.1925C1.1726 18.1502 1.27407 18.1093 1.34679 18.0641C1.50613 17.969 1.70985 17.8997 2.06976 17.8997C2.20771 17.8385 2.3163 17.7638 2.49809 17.7208C2.67051 17.6793 2.9714 17.7167 3.09781 17.6249C3.16107 17.5798 3.2571 17.5283 3.38365 17.5088C3.5852 17.4778 3.85128 17.4909 3.9638 17.4039C4.03148 17.3541 4.13256 17.3087 4.26899 17.2952C4.42424 17.2801 4.58492 17.2756 4.69654 17.2455C4.75703 17.2296 4.82165 17.2044 4.8202 17.1829C4.81927 17.1691 4.72323 17.1484 4.65635 17.1398C4.59409 17.1295 4.51302 17.1226 4.44224 17.1262C4.20621 17.1375 3.97544 17.1564 3.73941 17.1676C3.67336 17.1713 3.59693 17.1612 3.52531 17.1525C3.3154 17.1298 3.3275 17.0989 3.48943 17.0422C3.65146 16.987 3.76519 16.9169 3.8982 16.8527C4.04893 16.8407 4.23853 16.8437 4.34069 16.8136C4.5126 16.7645 4.63096 16.6943 4.76891 16.6332C4.92448 16.6226 5.08518 16.6182 5.23077 16.6C5.29188 16.5933 5.31802 16.5593 5.36874 16.5389C5.46081 16.4997 5.53761 16.4437 5.66416 16.4242C5.87054 16.3947 6.12684 16.4033 6.2442 16.3178C6.31188 16.268 6.41718 16.2149 6.5495 16.2106C6.91825 16.2013 7.06875 16.1155 7.25268 16.034C7.39063 15.9729 7.69563 16.001 7.84777 15.9398C7.94931 15.9005 8.02187 15.8522 8.12351 15.8144C8.16508 15.7987 8.25445 15.7903 8.32514 15.7851C8.71169 15.7587 9.10337 15.7384 9.48982 15.7105C9.55103 15.7054 9.60632 15.6819 9.65241 15.663C9.74911 15.6222 9.80684 15.5664 9.92814 15.5392C10.0494 15.5121 10.2245 15.5106 10.3755 15.5016C10.8614 15.4744 10.8997 15.4802 11.1134 15.3477C11.2861 15.2402 11.7314 15.3117 11.8702 15.1937C11.9509 15.1254 12.1033 15.0687 12.382 15.0587C12.7741 15.0445 13.1602 15.012 13.5517 14.9887C13.9007 14.9673 13.896 14.9673 14.265 14.8212C14.431 14.7552 14.6826 14.7623 14.9042 14.7481C15.14 14.7338 15.3564 14.7135 15.4649 14.6357C15.5734 14.5595 15.7799 14.5331 16.0206 14.5203C16.2423 14.5076 16.4937 14.5132 16.6647 14.4502C17.0807 14.2991 17.0759 14.2976 17.3731 14.2797C17.84 14.2511 18.3069 14.2225 18.7737 14.1924C19.0849 14.1728 19.4113 14.1669 19.7024 14.1306C19.9137 14.1042 20.0026 14.0174 20.1358 13.9563C20.5223 13.9299 20.9089 13.9035 21.2955 13.8787C21.8378 13.8433 22.3849 13.811 22.932 13.7771C23.1647 13.7167 23.1892 13.5874 23.5863 13.5778C23.8228 13.5727 24.0533 13.5508 24.2892 13.5364C24.6805 13.5116 25.0668 13.4806 25.4589 13.4665C25.7565 13.4562 25.8029 13.3728 25.9556 13.3193C26.0064 13.3004 26.052 13.2739 26.1132 13.2687C26.7256 13.2205 27.3592 13.2058 27.956 13.1377C28.0171 13.131 28.0718 13.0982 28.0844 13.0751C28.0931 13.0627 28.011 13.0404 27.9583 13.0301C27.8959 13.0183 27.8146 13.0067 27.7486 13.0104C25.8008 13.13 23.8532 13.2513 21.9054 13.3709C21.6319 13.3887 21.6318 13.3871 20.9759 13.5618C20.92 13.5761 20.8547 13.592 20.784 13.5972C20.4729 13.6184 20.1565 13.6318 19.8504 13.6575C19.6008 13.6781 19.3914 13.6614 19.2078 13.6077C19.0773 13.5689 18.9439 13.5577 18.7832 13.5622C18.6037 13.5683 18.4865 13.5862 18.3852 13.6286C18.2518 13.6866 18.1857 13.7609 17.8981 13.7788C16.5726 13.8562 15.2475 13.9414 13.927 14.0234C13.741 14.0035 13.6489 13.972 13.6936 13.9332C13.7205 13.9099 13.7752 13.8787 13.8318 13.8751C14.3739 13.8382 14.9211 13.8059 15.4633 13.7705C15.5387 13.7652 15.643 13.7674 15.6846 13.7517C15.8882 13.6807 15.9564 13.568 16.3487 13.5569C16.5756 13.5504 16.806 13.5253 17.0222 13.502C17.0833 13.4953 17.138 13.4626 17.1506 13.4394C17.1545 13.4271 17.0772 13.4047 17.0197 13.3944C16.8085 13.3516 16.5707 13.4075 16.3604 13.3786C16.2887 13.3684 16.1882 13.3539 16.1728 13.3356C16.1622 13.3188 16.2408 13.2904 16.2964 13.2731C16.3475 13.2573 16.4175 13.2428 16.4882 13.2376C17.1105 13.1969 17.7329 13.1547 18.3558 13.1217C18.6106 13.1087 18.7879 13.0688 18.8967 12.9972C18.9784 12.9442 19.0806 12.9157 19.241 12.9066C20.3305 12.8404 21.4195 12.768 22.5141 12.7064C22.7878 12.6918 22.9264 12.6399 23.0355 12.5728C23.1219 12.5198 23.2248 12.5005 23.3993 12.4898C24.9605 12.3965 26.5116 12.294 28.0731 12.2038C28.3609 12.1875 28.4416 12.1207 28.5845 12.0626C28.6353 12.0422 28.6666 12.0174 28.7321 12.0045C28.7975 11.9916 28.8828 11.9924 28.9631 11.9887C30.2081 11.9119 31.4529 11.8305 32.703 11.7583C32.9955 11.742 33.0471 11.6647 33.1949 11.6096C33.2458 11.5923 33.2913 11.5643 33.3525 11.5591C34.2862 11.4989 35.2199 11.4417 36.1536 11.3829C36.7761 11.3438 37.3986 11.3046 38.0212 11.267C38.3278 11.249 38.3277 11.2475 38.7343 11.098C38.7805 11.0807 38.8455 11.0601 38.9067 11.055C40.6986 10.9413 42.486 10.8322 44.278 10.72C44.429 10.711 44.5354 10.6747 44.6076 10.6219C44.6799 10.569 44.7864 10.5327 44.9326 10.5238C46.3331 10.4349 47.7337 10.3476 49.1393 10.2633C49.394 10.2488 49.5714 10.2104 49.6803 10.1403C49.762 10.0874 49.8642 10.0589 50.0246 10.0498C51.4253 9.96401 52.8258 9.8736 54.2315 9.79085C54.5003 9.77471 54.6293 9.72135 54.7577 9.65878C54.8035 9.63687 54.839 9.60121 54.8956 9.59766C55.5932 9.54864 56.2859 9.49812 56.9892 9.46289C57.2818 9.44808 57.3769 9.38272 57.4911 9.32026C57.5824 9.2703 57.6901 9.25247 57.8696 9.24479C58.2615 9.22759 58.6478 9.19816 59.0294 9.16876C59.0859 9.16366 59.1546 9.12926 59.1579 9.10772C59.1647 9.0677 59.0539 9.04098 58.8732 9.0287C57.0056 9.14462 55.1334 9.26058 53.2659 9.3765C52.9594 9.39603 52.9594 9.39604 52.5527 9.54553C52.5065 9.56283 52.4415 9.58337 52.3756 9.58855C50.5836 9.70075 48.7963 9.81137 47.0043 9.92357C46.8533 9.93255 46.7469 9.96881 46.6747 10.0217C46.6025 10.0746 46.4959 10.1108 46.3497 10.1198C44.6378 10.2267 42.9261 10.3351 41.2092 10.4374C40.9545 10.4519 40.777 10.4888 40.6682 10.5604C40.5865 10.6133 40.4843 10.6419 40.3239 10.651C38.6873 10.7511 37.0558 10.8557 35.4143 10.9528C35.2492 10.9619 35.1232 10.9184 35.1298 10.8769C35.1331 10.8553 35.2016 10.8194 35.2582 10.8158C36.1115 10.7578 36.96 10.6983 37.8188 10.6525C38.1067 10.6377 38.1872 10.5694 38.3301 10.5113C38.3761 10.4909 38.4122 10.4645 38.473 10.4532C38.5385 10.4404 38.6238 10.4412 38.704 10.4374C40.7271 10.3109 42.7502 10.1829 44.7784 10.0625C45.0708 10.0447 45.1224 9.96891 45.2703 9.91385C45.3211 9.89497 45.3666 9.86693 45.4279 9.86333C46.0502 9.82111 46.6727 9.78348 47.2953 9.74587C48.3847 9.67812 49.4741 9.61037 50.5682 9.54258C50.8841 9.52296 50.8841 9.52296 51.2815 9.37508C51.3276 9.35778 51.3925 9.33572 51.4538 9.33212C54.3352 9.15218 57.2166 8.97223 60.0981 8.79382C60.2491 8.78484 60.3555 8.74858 60.4277 8.6957C60.5 8.64437 60.6064 8.60657 60.7525 8.5961C64.6478 8.35366 68.5385 8.11125 72.434 7.87189C72.6887 7.85587 72.8663 7.82207 72.975 7.74891C73.052 7.69599 73.1589 7.66742 73.3193 7.65682C77.6014 7.39109 81.8835 7.12535 86.1702 6.85804C89.0517 6.67963 91.933 6.49815 94.8147 6.32281C95.0788 6.30671 95.2175 6.25787 95.3458 6.19376C95.387 6.17189 95.4272 6.1362 95.4838 6.13264C96.1012 6.08892 96.7188 6.04828 97.3365 6.00763C97.5333 6.04743 97.73 6.08571 97.9269 6.12552C98.0697 6.06589 98.2077 6.00477 98.3505 5.94514C99.2846 5.89256 100.203 5.81552 101.148 5.78589C101.209 5.78383 101.278 5.81245 101.345 5.82724C101.792 5.92023 102.042 5.91039 102.312 5.77898C102.409 5.73204 102.491 5.68984 102.642 5.68086C103.109 5.6492 103.581 5.6267 104.043 5.59047C104.292 5.57142 104.502 5.58499 104.685 5.63874C104.816 5.67758 104.949 5.69334 105.105 5.68279C105.963 5.62932 106.817 5.57742 107.675 5.52088C107.736 5.51728 107.791 5.49067 107.837 5.47183C107.934 5.43104 108.016 5.38732 108.108 5.34503C108.238 5.37005 108.381 5.3888 108.487 5.4217C108.623 5.46049 108.746 5.45943 108.925 5.44713C112.348 5.2318 115.777 5.02103 119.201 4.80416C119.493 4.78628 119.625 4.8497 119.826 4.88179C119.893 4.89351 119.961 4.90829 120.032 4.91075C120.108 4.91317 120.188 4.90328 120.263 4.89802C122.833 4.73765 125.403 4.5788 127.974 4.41843C128.313 4.39708 128.313 4.39708 128.826 4.48796C128.888 4.49972 128.97 4.51286 129.036 4.50768C130.205 4.43771 131.375 4.36313 132.54 4.29166C132.691 4.28268 132.82 4.30615 132.96 4.3403C133.234 4.40711 133.253 4.40695 133.445 4.30387C133.536 4.25544 133.634 4.22539 133.789 4.21023C133.958 4.19341 134.096 4.19686 134.231 4.22337C134.422 4.26014 134.564 4.32346 134.852 4.30409C136.096 4.22118 137.346 4.15052 138.586 4.06611C138.869 4.04678 139.024 4.0977 139.216 4.13447C139.283 4.14773 139.346 4.16871 139.417 4.1727C139.489 4.1767 139.573 4.16521 139.649 4.15995C141.205 4.06361 142.766 3.96877 144.317 3.86633C144.609 3.84691 144.742 3.91185 144.943 3.94394C145.01 3.95566 145.087 3.97652 145.148 3.97292C146.082 3.91726 147.021 3.85848 147.954 3.79975C148.289 3.77844 148.289 3.77997 148.807 3.86928C148.869 3.88104 148.95 3.89264 149.017 3.889C150.106 3.82279 151.2 3.755 152.289 3.68725C152.624 3.66594 152.624 3.66594 153.6 3.73748C153.671 3.74302 153.748 3.7516 153.818 3.74792C155.064 3.67115 156.313 3.59587 157.558 3.51449C157.808 3.49851 158.017 3.50901 158.201 3.56276C158.331 3.6016 158.465 3.61737 158.62 3.60681C160.021 3.51949 161.427 3.4352 162.822 3.34331C163.091 3.32563 163.268 3.35791 163.461 3.40083C163.523 3.41566 163.586 3.43664 163.658 3.44217C163.729 3.44771 163.809 3.44087 163.884 3.43561C165.285 3.34829 166.691 3.26553 168.086 3.1721C168.369 3.15277 168.524 3.20369 168.716 3.24047C168.783 3.25372 168.856 3.28076 168.913 3.27874C169.46 3.24792 170.007 3.22017 170.549 3.1771C170.841 3.15308 170.974 3.22263 171.175 3.25471C171.242 3.2649 171.319 3.2873 171.38 3.2837C172.55 3.21372 173.72 3.14068 174.884 3.06614C175.049 3.0555 175.173 3.06826 175.308 3.10705C175.487 3.15931 175.692 3.17907 175.947 3.15998C176.489 3.11998 177.036 3.0907 177.583 3.05681C177.904 3.03715 177.904 3.03716 178.894 3.10858C178.965 3.11411 179.041 3.12267 179.112 3.11899C180.046 3.0618 180.985 3.00611 181.913 2.94435C182.163 2.92683 182.372 2.93887 182.556 2.99262C182.686 3.03146 182.815 3.04727 182.976 3.03667C183.834 2.9832 184.688 2.92976 185.546 2.87629C185.857 2.85672 186.167 2.82485 186.48 2.82217C186.707 2.82175 186.878 2.89405 187.084 2.92917C187.141 2.93944 187.235 2.92635 187.311 2.92263C188.4 2.85488 189.494 2.79169 190.578 2.71631C190.861 2.69698 191.016 2.74789 191.208 2.78467C191.275 2.79792 191.348 2.82496 191.405 2.82294C191.797 2.80267 192.183 2.7763 192.575 2.75296C193.042 2.72437 193.514 2.70188 193.975 2.6641C194.352 2.63321 194.503 2.76561 194.806 2.76762C195.038 2.77024 195.273 2.7421 195.504 2.72783C195.971 2.69923 196.438 2.66756 196.905 2.64204C197.07 2.63294 197.196 2.60726 197.245 2.55151C197.254 2.54068 197.171 2.51834 197.119 2.50497C196.478 2.3537 196.478 2.35369 195.846 2.39293C195.455 2.4178 195.068 2.44264 194.677 2.46444C194.611 2.46808 194.534 2.45644 194.467 2.4478C194.276 2.42331 194.293 2.39243 194.45 2.33575C194.608 2.27908 194.726 2.21045 194.859 2.14629C195.056 2.18456 195.248 2.22286 195.445 2.26113C195.6 2.25211 195.756 2.24157 195.911 2.23255C196.69 2.18591 197.468 2.13774 198.246 2.09417C198.303 2.09061 198.376 2.12073 198.443 2.13552C198.636 2.17844 198.809 2.21536 199.082 2.19611C199.779 2.14556 200.482 2.10725 201.18 2.06284C201.487 2.04331 201.487 2.04331 202.033 2.13391C202.095 2.14413 202.176 2.15573 202.242 2.15209C202.945 2.11071 203.643 2.06631 204.346 2.02339C204.497 2.01441 204.645 2.03312 204.757 2.07673C204.801 2.09479 204.793 2.12559 204.99 2.37594C205.562 2.57544 205.944 2.55065 206.331 2.52889C206.496 2.51979 206.642 2.51084 206.749 2.47919C206.805 2.46181 206.874 2.43662 206.873 2.41665C206.872 2.40129 206.766 2.3776 206.7 2.3751C206.229 2.3484 205.788 2.41674 205.33 2.4345C205.118 2.44247 204.929 2.3903 204.886 2.30307C204.874 2.27858 204.858 2.25259 204.843 2.22814C204.827 2.20368 204.816 2.17766 204.8 2.1532C204.615 2.14711 204.508 2.17568 204.431 2.2286C204.367 2.27217 204.276 2.32214 204.15 2.34627C204.024 2.37194 203.848 2.36885 203.693 2.37787C203.542 2.38685 203.377 2.40823 203.235 2.3987C203.092 2.38763 202.975 2.34405 202.841 2.31754C202.778 2.30425 202.701 2.28494 202.64 2.28854C202.097 2.31932 201.56 2.35005 201.022 2.38847C200.74 2.40934 200.593 2.34606 200.411 2.30767C200.267 2.27816 200.125 2.28705 200.106 2.35791C200.056 2.5274 200.279 2.59618 200.759 2.55978C201.155 2.52872 201.514 2.52104 201.834 2.62281C201.877 2.63626 201.977 2.64155 202.038 2.63795C202.425 2.61619 202.807 2.58986 203.194 2.5681C203.265 2.56442 203.341 2.5699 203.408 2.57548C204.379 2.65013 204.379 2.65168 204.704 2.63044C204.86 2.61989 205.011 2.61091 204.981 2.37756C205.262 2.12464 205.734 2.10369 206.191 2.06289C206.487 2.03729 206.62 2.10378 206.816 2.13744C206.883 2.14916 206.956 2.17312 207.017 2.16952C208.031 2.1101 209.041 2.04764 210.05 1.98212C210.219 1.97144 210.343 1.97961 210.478 2.0184C210.652 2.06763 210.844 2.09827 211.112 2.07752C211.649 2.03603 212.197 2.00828 212.744 1.97285C213.022 1.9551 213.022 1.95508 213.591 2.04548C213.654 2.0557 213.735 2.0673 213.801 2.06366C214.348 2.03284 214.89 1.99592 215.433 1.9636C215.584 1.95462 215.722 1.97495 215.844 2.0154C215.965 2.05586 216.108 2.07614 216.254 2.0672C216.802 2.03484 217.344 1.99946 217.886 1.96714C217.952 1.9635 218.033 1.97357 218.096 1.98379C218.679 2.07406 218.679 2.07405 218.943 2.05641C219.33 2.03004 219.727 2.01589 220.108 1.98188C220.48 1.94796 220.68 2.03537 220.939 2.08233C221.637 2.04099 222.34 2.00576 223.033 1.95679C223.316 1.93592 223.471 1.9853 223.663 2.02361C223.73 2.03687 223.798 2.06548 223.86 2.06342C224.096 2.05525 224.327 2.03636 224.558 2.02208C224.789 2.00781 225.025 1.99349 225.256 1.97921C225.524 2.02148 225.706 2.12442 226.082 2.08585C226.308 2.06239 226.549 2.05571 226.78 2.04144C227.011 2.02716 227.247 2.01284 227.478 1.99856C227.634 1.98954 227.794 1.98355 227.945 1.96843C228.223 1.94299 228.365 2.01708 228.566 2.04917C228.633 2.05935 228.71 2.07712 228.771 2.07352C229.238 2.048 229.71 2.02551 230.167 1.98624C230.52 1.95555 230.765 1.99956 231.02 2.06192C231.073 2.0753 231.163 2.0822 231.229 2.07856C231.777 2.04774 232.319 2.01081 232.861 1.97849C233.007 1.96955 233.151 1.9929 233.272 2.03182C233.398 2.07224 233.536 2.09105 233.687 2.08207C234.23 2.04975 234.777 2.01431 235.319 1.98199C235.385 1.97835 235.467 1.98995 235.529 2.00171C236.066 2.09239 236.066 2.09393 236.377 2.07282C236.452 2.06756 236.532 2.06378 236.608 2.05853C236.994 2.03369 237.396 2.02257 237.772 1.98246C238.205 1.93725 238.526 1.98676 238.839 2.07167C239.226 2.0499 239.623 2.03574 239.999 2.00177C240.282 1.97629 240.437 2.03336 240.629 2.07013C240.696 2.08339 240.769 2.11043 240.826 2.10687C241.373 2.07604 241.921 2.0483 242.458 2.00527C242.75 1.98125 242.882 2.04926 243.083 2.08288C243.15 2.0946 243.223 2.11551 243.284 2.11191C243.596 2.09694 243.907 2.07582 244.218 2.05624C244.581 2.03315 244.581 2.03468 245.07 2.12423C245.3 2.16683 245.525 2.12955 245.747 2.11689C245.983 2.10257 246.205 2.09145 246.398 2.1528C246.519 2.19172 246.663 2.21507 246.809 2.20767C247.121 2.19117 247.437 2.17463 247.743 2.14895C247.988 2.12841 248.201 2.13886 248.385 2.19415C248.516 2.23299 248.65 2.25183 248.805 2.24127C249.503 2.1984 250.206 2.15393 250.904 2.1126C250.965 2.109 251.051 2.1221 251.109 2.13543C251.243 2.16194 251.373 2.19156 251.503 2.22118C251.81 2.20472 252.126 2.19587 252.428 2.17177C252.748 2.1475 253.041 2.1373 253.298 2.21963C253.351 2.23761 253.429 2.26306 253.49 2.26099C253.726 2.25282 253.957 2.23547 254.188 2.2212C254.419 2.20692 254.655 2.1926 254.886 2.17832C255.159 2.21441 255.337 2.32353 255.713 2.28496C255.938 2.2615 256.18 2.25483 256.411 2.24055C256.642 2.22627 256.877 2.21042 257.109 2.19768C257.184 2.19395 257.269 2.18554 257.335 2.19111C257.407 2.19665 257.47 2.21763 257.532 2.23246C257.725 2.27538 257.903 2.31842 258.171 2.29C258.397 2.26655 258.638 2.25986 258.869 2.24405C259.185 2.22443 259.185 2.22444 259.717 2.31669C259.932 2.3548 260.17 2.30051 260.376 2.33256C260.515 2.35442 260.636 2.39179 260.77 2.41677C260.827 2.42703 260.918 2.43086 260.984 2.42722C261.295 2.41072 261.611 2.39418 261.917 2.3685C262.167 2.34792 262.377 2.36456 262.555 2.41835C262.686 2.45719 262.815 2.473 262.975 2.4624C263.753 2.41269 264.532 2.36912 265.305 2.31484C265.568 2.29567 265.783 2.31996 265.934 2.374C266.191 2.46707 266.538 2.3519 266.804 2.42647C266.968 2.4727 267.133 2.52662 267.424 2.50106C267.961 2.4565 268.509 2.43027 269.051 2.39795C269.248 2.43776 269.445 2.47757 269.647 2.51734C269.958 2.49776 270.269 2.47818 270.58 2.46014C270.812 2.44586 271.047 2.43001 271.278 2.41727C271.354 2.41354 271.434 2.40671 271.505 2.41378C271.577 2.42085 271.635 2.44033 271.702 2.45512C272.034 2.52758 272.034 2.52913 272.572 2.49378C272.803 2.47797 273.025 2.46684 273.223 2.52661C273.406 2.5819 273.62 2.59082 273.865 2.57181C274.327 2.53711 274.794 2.51005 275.266 2.48449C275.412 2.47555 275.551 2.50048 275.677 2.53936C275.865 2.60075 276.092 2.59266 276.323 2.57378C276.629 2.54963 276.931 2.52554 277.197 2.60932C277.25 2.6273 277.332 2.65271 277.389 2.65068C277.776 2.63507 278.169 2.62249 278.545 2.59005C278.922 2.55762 279.113 2.65126 279.376 2.69511C279.763 2.67181 280.155 2.64847 280.541 2.62517C280.617 2.61992 280.706 2.60533 280.772 2.61244C281.054 2.6423 281.223 2.75611 281.604 2.7175C281.825 2.69562 282.066 2.68741 282.297 2.68081C282.359 2.67875 282.441 2.70416 282.485 2.72376C282.509 2.73431 282.488 2.76369 282.46 2.7793C282.378 2.82303 282.276 2.86387 282.204 2.90907C282.195 2.91529 282.286 2.94216 282.339 2.954C282.469 2.98055 282.615 2.97469 282.785 2.96094C282.931 2.94893 283.084 2.96913 283.191 3.01432C283.235 3.03239 283.223 3.06323 283.14 3.16537C283.145 3.24063 283.242 3.20598 283.272 3.15655C283.319 3.08544 283.218 3.06326 283.031 3.10328C282.901 3.13207 282.837 3.17258 282.872 3.20455C282.893 3.22128 282.984 3.24201 283.14 3.16537C283.55 3.06964 283.861 3.05007 284.173 3.03049C284.253 3.0252 284.346 3.00901 284.404 3.01774C284.61 3.05286 284.802 3.09578 285.004 3.13555C285.23 3.12438 285.442 3.09951 285.668 3.1575C285.986 3.2393 286 3.2315 286.302 3.212C286.457 3.20145 286.613 3.19244 286.768 3.18342C286.924 3.1744 287.049 3.19638 287.188 3.23053C287.472 3.30032 287.496 3.30011 287.674 3.20023C287.779 3.13939 287.853 3.11878 287.992 3.14525C288.453 3.23504 288.458 3.24114 288.844 3.21016C289.165 3.18436 289.467 3.17562 289.71 3.26114C289.875 3.3212 289.926 3.30693 290.049 3.24132C290.379 3.06791 290.535 3.06963 291.182 3.18703C291.484 3.24284 291.788 3.17723 292.09 3.16695C292.345 3.15861 292.528 3.19392 292.553 3.29053C292.572 3.35031 292.617 3.39296 292.789 3.41146C292.856 3.41857 292.937 3.42863 293.003 3.42499C293.394 3.40319 293.781 3.37835 294.172 3.35348C294.37 3.34102 294.474 3.26791 294.43 3.173C294.381 3.072 294.454 3.03447 294.736 3.00285C294.905 2.98449 295.043 2.9864 295.182 3.01287C295.335 3.04229 295.295 3.0703 295.166 3.12673C294.858 3.26462 294.901 3.34722 295.315 3.43742C295.459 3.46846 295.574 3.49668 295.611 3.54401C295.631 3.56842 295.615 3.60084 295.658 3.61891C295.897 3.71983 296.223 3.78312 296.586 3.82918C296.929 3.78475 297.171 3.85182 297.439 3.90484C297.65 3.94606 297.894 3.9071 298.115 3.88983C298.365 3.87078 298.574 3.88127 298.758 3.93656C298.888 3.9754 299.022 3.99269 299.178 3.98367C299.489 3.96409 299.805 3.95063 300.111 3.92341C300.375 3.89963 300.576 3.92865 300.745 3.97945C300.958 4.04371 301.187 3.99717 301.405 4.00452C301.699 4.01275 301.855 4.14819 302.236 4.10803C302.462 4.08458 302.698 4.07487 302.934 4.0667C302.996 4.06464 303.073 4.0901 303.126 4.10809C303.383 4.19041 303.676 4.18328 303.996 4.15595C304.218 4.13714 304.434 4.11992 304.656 4.17642C305.022 4.27164 305.426 4.35424 305.81 4.44162C305.867 4.51182 305.835 4.59508 306.107 4.63423C306.251 4.65452 306.386 4.68565 306.497 4.72004C306.632 4.76037 306.756 4.77007 306.926 4.75786C307.232 4.73372 307.553 4.72633 307.854 4.69608C308.132 4.66911 308.31 4.71831 308.484 4.76447C308.624 4.80169 308.753 4.81901 308.917 4.78994C309.085 4.76237 309.21 4.77821 309.35 4.8185C309.548 4.87366 309.561 4.86741 310.206 4.87878C310.273 4.87975 310.354 4.90208 310.394 4.92173C310.413 4.93232 310.373 4.96342 310.341 4.97906C310.299 4.99786 310.235 5.01992 310.173 5.02505C309.476 5.071 308.773 5.11238 308.075 5.15832C308.004 5.16354 307.929 5.17495 307.878 5.19076C307.823 5.20814 307.753 5.23178 307.755 5.25328C307.756 5.26864 307.852 5.28627 307.918 5.29645C308.129 5.32999 308.372 5.27412 308.578 5.31231C308.717 5.33724 308.833 5.37312 308.972 5.39652C309.029 5.40679 309.119 5.40448 309.19 5.4008C309.426 5.38802 309.657 5.37067 309.893 5.35943C309.959 5.35732 310.036 5.37204 310.098 5.3838C310.559 5.47206 310.559 5.47205 310.95 5.44872C311.106 5.4397 311.27 5.41523 311.417 5.42319C311.56 5.43119 311.686 5.4716 311.815 5.49662C312.084 5.54964 312.339 5.60124 312.366 5.72088C312.378 5.76688 312.537 5.80547 312.693 5.8072C312.845 5.80897 313.005 5.79071 313.16 5.78016C313.528 5.75856 313.528 5.75856 314.013 5.84815C314.147 5.87312 314.289 5.87497 314.458 5.85815C314.524 5.85144 314.605 5.8569 314.677 5.86397C314.91 5.88502 314.912 5.91419 314.764 5.97079C314.557 6.05402 314.576 6.06154 315.177 6.12555C315.406 6.14971 315.585 6.19736 315.777 6.23874C316.089 6.30522 316.085 6.30525 315.887 6.39761C315.841 6.41799 315.8 6.43986 315.754 6.46177C315.621 6.52285 315.516 6.58829 315.233 6.59687C314.921 6.6057 314.61 6.63296 314.299 6.65254C313.997 6.67203 313.919 6.70957 313.955 6.81378C313.996 6.93944 314.059 6.95274 314.603 6.94653C314.759 6.94519 314.897 6.9563 315.018 6.99676C314.965 7.04639 314.863 7.08569 314.712 7.0962C314.326 7.12257 313.934 7.14591 313.548 7.16921C313.236 7.18879 312.925 7.20836 312.614 7.22793C312.421 7.24035 312.303 7.32128 312.361 7.40992C312.393 7.46037 312.42 7.51085 312.447 7.56133C312.506 7.66226 312.607 7.68753 312.924 7.6802C313.004 7.67797 313.079 7.66502 313.155 7.66744C313.463 7.67556 313.619 7.80178 313.986 7.7725C314.292 7.74836 314.614 7.74099 314.915 7.71074C315.193 7.68377 315.352 7.73774 315.549 7.77755C315.616 7.7908 315.689 7.81936 315.746 7.81734C316.138 7.79707 316.53 7.77682 316.911 7.74435C317.09 7.73051 317.199 7.73879 317.344 7.77444C317.691 7.8606 317.7 7.85591 318.204 7.82391C318.572 7.79924 318.577 7.80227 319.057 7.89191C319.191 7.91688 319.333 7.91566 319.503 7.90191C319.724 7.88464 319.954 7.85808 320.188 7.87913C320.259 7.88466 320.35 7.90233 320.375 7.92209C320.39 7.93579 320.326 7.97015 320.27 7.98139C319.859 8.06484 319.371 8.0552 318.919 8.09135C318.777 8.10179 318.633 8.07382 318.512 8.03336C318.386 7.99295 318.253 7.97719 318.092 7.98625C317.781 8.00583 317.465 8.0193 317.159 8.04651C316.895 8.07029 316.708 8.03654 316.52 7.99051C316.458 7.97568 316.385 7.9471 316.323 7.94917C315.625 7.9859 314.922 8.02268 314.229 8.07165C313.951 8.09248 313.787 8.04471 313.595 8.00487C313.527 7.99161 313.459 7.963 313.398 7.96506C313.162 7.97323 312.931 7.99212 312.695 8.00643C311.837 8.05991 310.983 8.11334 310.124 8.16373C310.068 8.16729 309.995 8.13564 309.928 8.12239C309.798 8.09584 309.664 8.07086 309.529 8.04589C309.293 8.0602 309.063 8.07755 308.827 8.0888C308.657 8.0964 308.507 8.11922 308.487 8.17779C308.475 8.21631 308.634 8.25029 308.799 8.24579C308.96 8.24134 309.12 8.22153 309.254 8.24036C309.918 8.33301 309.918 8.33455 310.329 8.31105C310.687 8.28954 310.648 8.27449 310.971 8.35625C311.111 8.39194 311.235 8.41239 311.391 8.40184C311.777 8.377 312.169 8.35213 312.56 8.33032C312.622 8.32672 312.703 8.3414 312.766 8.35316C313.236 8.44134 313.236 8.4444 313.618 8.41807C314.117 8.38612 314.136 8.37828 314.478 8.46909C314.715 8.53161 314.925 8.48524 315.147 8.48026C315.406 8.53797 315.689 8.58934 315.926 8.65493C316.206 8.73245 316.493 8.71613 316.804 8.69041C317.035 8.67152 317.262 8.66343 317.455 8.72478C317.639 8.78161 317.857 8.78589 318.102 8.76842C318.324 8.75269 318.549 8.72155 318.783 8.75335C318.845 8.76204 318.942 8.78427 318.938 8.79813C318.935 8.81968 318.875 8.85093 318.814 8.86067C318.383 8.92738 317.905 8.92994 317.448 8.96307C317.386 8.9682 317.305 8.95199 317.243 8.94023C317.108 8.91372 316.978 8.88257 316.848 8.85448C316.617 8.86569 316.381 8.87079 316.155 8.89117C315.981 8.90649 315.848 8.90611 315.718 8.87034C315.597 8.83757 315.466 8.79718 315.324 8.78765C315.181 8.77811 315.017 8.80258 314.861 8.81313C314.706 8.82369 314.526 8.82062 314.404 8.84625C314.283 8.87188 314.211 8.92629 314.133 8.96999C314.046 9.01838 313.924 9.0348 313.745 9.04095C313.58 9.04698 313.447 9.04197 313.321 9.00002C313.267 8.98203 313.195 8.96881 313.124 8.95714C313.057 8.94695 312.98 8.9307 312.918 8.9343C312.216 8.97568 311.518 9.0201 310.815 9.06302C310.466 9.08446 310.471 9.0844 309.736 9.00003C309.669 8.99292 309.588 8.98286 309.522 8.9865C309.13 9.00831 308.743 9.03314 308.352 9.05802C307.956 9.08293 307.96 9.07982 307.277 8.98886C307.153 8.97149 306.975 8.99761 306.828 8.99579C306.52 8.99075 306.359 8.86304 306.001 8.8907C305.695 8.91484 305.374 8.92221 305.068 8.95249C304.79 8.97947 304.626 8.92709 304.434 8.88725C304.366 8.87399 304.293 8.84388 304.237 8.84744C303.534 8.88728 302.836 8.93169 301.899 8.94434C301.667 8.94633 301.773 8.9777 301.926 8.98715C302.145 9.00218 302.213 8.96931 302.091 8.90889C302.003 8.86661 301.878 8.84615 301.78 8.85775C301.728 8.86434 301.664 8.89411 301.899 8.94434C302.149 9.00059 302.137 9.03297 302.181 9.05103C302.288 9.09468 302.436 9.11185 302.587 9.10441C302.823 9.09163 303.054 9.07428 303.29 9.06303C303.356 9.05939 303.437 9.06946 303.5 9.08122C304.027 9.17198 304.032 9.17809 304.583 9.13647C304.757 9.12422 304.885 9.12312 305.024 9.15113C305.216 9.18944 305.358 9.25583 305.646 9.23185C306.027 9.19938 306.419 9.17913 306.81 9.15886C306.872 9.15526 306.94 9.18234 307.012 9.19402C307.208 9.22921 307.355 9.29711 307.642 9.26545C307.862 9.2405 308.103 9.23227 308.34 9.22564C308.401 9.22357 308.497 9.24734 308.527 9.26706C308.586 9.3019 308.518 9.34399 308.359 9.37456C308.294 9.38741 308.204 9.38511 308.128 9.39037C307.817 9.40994 307.506 9.43105 307.194 9.44755C307.029 9.45665 306.875 9.48104 306.86 9.53803C306.848 9.57656 307.021 9.60888 307.181 9.60442C307.418 9.59779 307.653 9.58347 307.879 9.56155C308.279 9.52431 308.63 9.53051 308.963 9.62448C309.2 9.69007 309.184 9.66563 309.443 9.86319C309.508 9.91335 309.693 9.91637 309.854 9.91192C310.242 9.90091 310.423 9.92241 310.393 9.97031C310.354 10.029 310.218 10.0486 310.044 10.0578C309.732 10.0728 309.421 10.0954 309.11 10.115C309.035 10.1203 308.95 10.1302 308.879 10.1278C308.808 10.1253 308.74 10.1074 308.678 10.0941C308.543 10.0661 308.427 10.0225 308.284 10.013C308.141 10.0034 307.977 10.0279 307.821 10.0385C307.666 10.0475 307.502 10.072 307.359 10.0624C307.216 10.0529 307.095 10.0078 306.965 9.98128C306.903 9.96799 306.826 9.94712 306.764 9.94918C306.453 9.96415 306.142 9.98681 305.83 10.0048C305.448 10.0281 305.448 10.0281 304.978 9.93685C304.844 9.91034 304.706 9.91306 304.532 9.92685C304.155 9.95468 304.15 9.9501 303.453 9.86694C303.386 9.8583 303.305 9.84824 303.239 9.85342C302.536 9.89479 301.838 9.9392 301.14 9.98207C300.541 10.0195 300.541 10.0195 300.22 10.1759C299.982 10.2917 299.977 10.2917 300.222 10.3419C300.419 10.3832 300.598 10.4447 300.813 10.4659C301.013 10.4857 301.255 10.4145 301.477 10.4833C301.588 10.5177 301.733 10.5549 301.871 10.5598C302.089 10.5656 302.318 10.5191 302.531 10.5849C302.637 10.6178 302.796 10.6518 302.928 10.6522C303.16 10.6533 303.395 10.6266 303.627 10.6139C303.697 10.6102 303.778 10.6095 303.845 10.6166C303.916 10.6253 303.979 10.6432 304.042 10.658C304.234 10.7086 304.44 10.7314 304.684 10.7032C305.083 10.6567 305.444 10.6751 305.764 10.7708C305.807 10.7842 305.911 10.7849 305.977 10.7782C306.146 10.7613 306.293 10.7585 306.423 10.7866C306.476 10.7985 306.553 10.8193 306.544 10.8332C306.532 10.8564 306.477 10.8876 306.416 10.8958C305.975 10.9518 305.497 10.9621 305.04 10.9937C304.978 10.9973 304.901 10.978 304.839 10.9647C304.705 10.9381 304.588 10.8931 304.445 10.8835C304.302 10.874 304.138 10.8954 303.982 10.9044C303.827 10.9134 303.663 10.9379 303.52 10.9299C303.377 10.9203 303.242 10.8831 303.126 10.8503C302.991 10.813 302.863 10.8095 302.689 10.8264C302.463 10.8483 302.227 10.8534 301.996 10.8661C301.866 10.838 301.736 10.8069 301.601 10.7803C301.539 10.7671 301.462 10.7508 301.396 10.7529C301.084 10.7679 300.773 10.789 300.462 10.8086C300.151 10.8281 300.151 10.8282 299.614 10.7375C299.552 10.7273 299.471 10.7157 299.405 10.7193C299.013 10.7411 298.627 10.7675 298.235 10.7893C298.084 10.7982 297.945 10.7779 297.819 10.7375C297.698 10.697 297.555 10.6752 297.409 10.6842C296.786 10.7218 296.163 10.7579 295.541 10.8016C295.291 10.8191 295.077 10.8071 294.903 10.7533C294.7 10.692 294.479 10.7093 294.248 10.7236C293.725 10.7588 293.72 10.7573 293.378 10.6819C293.311 10.6671 293.243 10.6384 293.181 10.6405C292.639 10.6682 292.091 10.6944 291.554 10.7359C291.271 10.7583 291.116 10.7059 290.924 10.6676C290.857 10.6543 290.784 10.6257 290.728 10.6293C290.336 10.6496 289.944 10.6683 289.563 10.7023C289.181 10.7363 289.025 10.5947 288.736 10.5988C288.344 10.6037 287.958 10.6423 287.571 10.6672C287.26 10.6867 286.949 10.7063 286.638 10.7259C286.326 10.7454 286.015 10.7619 285.704 10.7846C285.539 10.7968 285.415 10.784 285.275 10.7468C285.097 10.6976 284.886 10.6595 284.693 10.615C284.4 10.5514 284.4 10.5514 284.051 10.5729C283.976 10.5781 283.895 10.5819 283.82 10.5871C283.25 10.6258 283.249 10.6228 282.514 10.5323C282.481 10.5279 282.397 10.5456 282.364 10.5581C282.267 10.5989 282.181 10.6427 282.093 10.6849C281.964 10.6615 281.807 10.649 281.719 10.6144C281.471 10.5166 281.102 10.6566 280.849 10.5604C280.757 10.5243 280.598 10.4934 280.456 10.4854C280.308 10.4774 280.144 10.5003 279.993 10.5109C279.602 10.5373 279.602 10.5357 279.275 10.6753C279.109 10.7444 278.862 10.7342 278.641 10.7515C278.41 10.7703 278.188 10.7815 277.99 10.7202C277.811 10.6648 277.597 10.6528 277.347 10.6734C277.041 10.6991 276.725 10.7156 276.414 10.7321C276.348 10.7358 276.267 10.7288 276.2 10.7202C275.469 10.6357 275.469 10.6342 275.12 10.6572C274.965 10.6677 274.804 10.6722 274.654 10.6873C274.4 10.7141 274.204 10.6835 274.016 10.6359C273.953 10.6211 273.88 10.5925 273.819 10.5946C273.507 10.605 273.2 10.6214 272.893 10.6379C272.658 10.6507 272.421 10.6588 272.196 10.6823C271.819 10.7209 271.628 10.6226 271.365 10.5787C270.978 10.602 270.586 10.6192 270.2 10.6502C270.021 10.6641 269.902 10.6605 269.762 10.6248C269.584 10.5802 269.42 10.5294 269.137 10.5548C268.761 10.5888 268.364 10.603 267.977 10.6247C267.713 10.5794 267.518 10.4842 267.146 10.5227C266.92 10.5462 266.679 10.5529 266.448 10.5671C266.137 10.5867 265.826 10.6048 265.514 10.6259C265.18 10.6472 265.184 10.6426 264.662 10.5564C264.36 10.5052 264.057 10.5677 263.754 10.5795C263.518 10.5892 263.405 10.6609 263.468 10.751C263.53 10.8412 263.407 10.9129 263.19 10.9271C262.648 10.9609 262.101 10.9963 261.559 11.0271C261.493 11.0308 261.412 11.0207 261.349 11.0105C260.761 10.9187 260.761 10.9203 260.501 10.9363C260.115 10.9627 259.718 10.9784 259.337 11.0108C259.073 11.0331 258.877 11.0025 258.703 10.9518C258.568 10.913 258.444 10.9048 258.274 10.9155C256.407 11.0345 254.539 11.1458 252.677 11.2678C252.398 11.2855 252.234 11.2424 252.042 11.2025C251.975 11.1893 251.912 11.1606 251.845 11.1612C251.689 11.1625 251.534 11.1777 251.378 11.1883C250.68 11.2311 249.983 11.2817 249.28 11.3154C248.982 11.3302 248.906 11.4016 248.783 11.461C248.686 11.5064 248.574 11.5258 248.399 11.5335C248.229 11.5411 248.106 11.5345 247.97 11.4957C247.796 11.4449 247.6 11.4143 247.337 11.4381C247.031 11.4653 246.719 11.4787 246.403 11.4984C246.243 11.5074 246.121 11.5361 246.073 11.5919C246.064 11.6012 246.165 11.6234 246.223 11.6367C246.415 11.6811 246.599 11.7334 246.814 11.7638C247.034 11.7942 247.268 11.7553 247.495 11.7441C247.575 11.7403 247.65 11.7305 247.726 11.7314C247.797 11.7323 247.883 11.7392 247.936 11.7526C248.186 11.8196 248.45 11.865 248.788 11.8206C249.083 11.8381 249.243 11.9643 249.614 11.9273C249.84 11.9053 250.076 11.8941 250.312 11.8844C250.374 11.8823 250.442 11.9094 250.509 11.9227C250.701 11.9594 250.857 12.0196 251.139 11.991C251.44 11.9608 251.761 11.9534 252.068 11.9293C252.237 11.9155 252.361 11.9252 252.496 11.964C252.67 12.0132 252.867 12.0499 253.13 12.0231C253.356 11.9996 253.597 11.993 253.828 11.9772C254.13 11.9577 254.13 11.9592 254.676 12.0498C254.738 12.06 254.819 12.0716 254.885 12.068C255.277 12.0462 255.663 12.0198 256.055 11.998C256.206 11.989 256.354 12.0077 256.461 12.0514C256.505 12.0694 256.493 12.1003 256.509 12.1263C255.731 12.1745 254.952 12.2165 254.179 12.2738C253.887 12.2963 253.75 12.2345 253.554 12.2008C253.487 12.1891 253.414 12.1636 253.353 12.1672C252.806 12.198 252.263 12.2303 251.721 12.2688C251.551 12.281 251.423 12.276 251.293 12.2325C250.958 12.117 250.565 12.185 250.197 12.205C249.914 12.2198 249.827 12.2681 249.867 12.3692C249.918 12.4887 250.09 12.5241 250.524 12.4988C250.68 12.4898 250.835 12.4777 250.991 12.4702C251.142 12.4628 251.281 12.4816 251.407 12.522C251.528 12.5625 251.671 12.5827 251.818 12.5753C252.129 12.5588 252.445 12.5423 252.747 12.5167C252.996 12.4961 253.205 12.5096 253.384 12.565C253.583 12.6263 253.809 12.6105 254.035 12.5947C254.563 12.5595 254.568 12.561 254.905 12.6349C254.972 12.6497 255.04 12.6783 255.102 12.6763C255.644 12.6486 256.192 12.6239 256.724 12.5824C257.002 12.5616 257.167 12.6094 257.354 12.6477C257.421 12.661 257.489 12.6911 257.551 12.6875C257.942 12.6673 258.334 12.647 258.715 12.6145C258.894 12.5991 259.004 12.6074 259.153 12.643C259.509 12.7306 259.519 12.7275 260.014 12.694C260.164 12.6835 260.329 12.6652 260.472 12.6763C260.615 12.6873 260.731 12.7309 260.866 12.7574C260.928 12.7692 261.005 12.7854 261.071 12.7818C261.382 12.7668 261.693 12.7457 262.005 12.7261C262.297 12.7067 262.297 12.7083 262.853 12.7988C263.078 12.8368 263.307 12.801 263.529 12.7868C263.77 12.7709 263.987 12.7691 264.176 12.8274C264.364 12.8857 264.587 12.8807 264.823 12.8664C265.044 12.8522 265.269 12.8165 265.499 12.856C266.026 12.9468 266.026 12.9483 266.347 12.9271C266.814 12.897 267.276 12.8684 267.747 12.8413C267.809 12.8377 267.89 12.8554 267.953 12.8672C268.087 12.8937 268.204 12.9388 268.347 12.9483C268.489 12.9594 268.654 12.9396 268.805 12.929C269.29 12.8957 269.323 12.8847 269.656 12.9832C269.936 13.0638 270.269 12.9411 270.531 13.0341C270.681 13.0866 270.883 13.1279 271.156 13.0994C271.381 13.076 271.618 13.0678 271.853 13.0535C272.226 13.0303 272.226 13.0319 272.706 13.12C272.768 13.1317 272.849 13.1464 272.911 13.1428C273.222 13.1278 273.539 13.1144 273.84 13.0841C274.193 13.0488 274.424 13.1052 274.692 13.1598C274.904 13.2025 275.147 13.1636 275.369 13.1463C275.609 13.1289 275.827 13.1316 276.011 13.1899C276.205 13.2498 276.427 13.2402 276.662 13.2259C276.884 13.2132 277.109 13.1759 277.339 13.217C277.833 13.308 277.833 13.308 278.187 13.2865C278.498 13.267 278.809 13.2459 279.121 13.2309C279.182 13.2273 279.259 13.2466 279.321 13.2599C279.456 13.2864 279.572 13.3315 279.715 13.3411C279.858 13.3506 280.022 13.3292 280.178 13.3202C280.334 13.3112 280.498 13.2867 280.64 13.2947C280.783 13.3027 280.918 13.34 281.034 13.3728C281.169 13.4116 281.292 13.4151 281.471 13.3982C281.697 13.3763 281.933 13.3697 282.165 13.3569C282.294 13.385 282.429 13.4131 282.554 13.4443C282.684 13.4769 282.821 13.4727 282.996 13.4604C283.575 13.4186 283.58 13.4232 284.074 13.5142C284.3 13.5553 284.529 13.518 284.751 13.5053C284.987 13.491 285.209 13.483 285.397 13.5428C285.581 13.5996 285.804 13.6054 286.04 13.5849C286.19 13.5713 286.351 13.5623 286.506 13.5563C286.577 13.5542 286.663 13.5596 286.716 13.5715C286.971 13.6338 287.221 13.6901 287.564 13.6456C287.868 13.6553 288.027 13.78 288.39 13.7523C288.696 13.7281 289.018 13.7207 289.319 13.6905C289.597 13.6635 289.798 13.7048 289.944 13.7574C290.206 13.8504 290.557 13.7183 290.819 13.8098C290.969 13.8623 291.161 13.9037 291.444 13.8782C291.754 13.851 291.856 13.8824 291.953 13.9783C292.008 14.0332 292.002 14.0778 291.91 14.1216C291.819 14.167 291.714 14.1602 291.559 14.1108C291.38 14.0555 291.171 14.0465 290.921 14.061C290.676 14.0754 290.519 13.9968 290.313 13.9678C290.108 13.9373 289.87 13.9932 289.654 13.9535C289.146 13.8611 289.146 13.8611 288.806 13.8824C288.575 13.8967 288.334 13.9049 288.109 13.9284C287.841 13.9568 287.662 13.9107 287.475 13.8692C287.407 13.8544 287.339 13.8258 287.282 13.8279C286.74 13.8556 286.192 13.8818 285.655 13.9248C285.373 13.9472 285.217 13.8932 285.026 13.8564C284.958 13.8432 284.885 13.8162 284.829 13.8197C284.362 13.8452 283.9 13.8769 283.433 13.907C283.346 13.9492 283.249 13.99 283.167 14.0353C283.08 14.0821 282.958 14.1032 282.778 14.1032C282.48 14.1057 282.191 14.1728 281.887 14.0939C281.574 14.0136 281.551 14.0184 281.254 14.041C280.877 14.0703 280.474 14.0676 280.124 14.1306C280.063 14.1419 279.998 14.1716 280 14.1931C279.996 14.207 280.097 14.2261 280.159 14.2378C280.37 14.2729 280.608 14.2171 280.819 14.2537C280.957 14.2771 281.074 14.313 281.213 14.3379C281.27 14.3482 281.355 14.3459 281.431 14.3437C281.511 14.3415 281.586 14.3301 281.662 14.331C281.733 14.3319 281.809 14.3405 281.867 14.3538C282.131 14.4099 282.41 14.4614 282.646 14.5285C282.878 14.5941 283.088 14.5462 283.315 14.5412C284.231 14.6409 284.231 14.6424 284.839 14.6034C284.99 14.5944 285.146 14.5839 285.302 14.5841C285.368 14.5835 285.432 14.6106 285.499 14.6254C285.691 14.6699 285.874 14.7098 286.137 14.6829C286.363 14.6595 286.604 14.6528 286.835 14.637C287.146 14.6174 287.146 14.6174 287.683 14.7096C287.817 14.7331 287.959 14.7288 288.128 14.7151C288.274 14.703 288.427 14.7248 288.535 14.7684C288.578 14.7865 288.566 14.8173 288.582 14.8433C288.115 14.8719 287.643 14.8929 287.191 14.9336C286.899 14.9592 286.762 14.8943 286.566 14.8606C286.499 14.8489 286.426 14.8234 286.365 14.827C285.903 14.854 285.441 14.8841 284.979 14.9188C284.922 14.9224 284.854 14.9583 284.85 14.9798C284.843 15.0199 284.964 15.0572 285.135 15.0542C285.362 15.0508 285.582 15.0227 285.79 15.084C285.964 15.1378 286.179 15.1606 286.428 15.1338C286.579 15.1187 286.74 15.1173 286.89 15.1037C287.29 15.0634 287.655 15.068 287.965 15.1698C288.199 15.1955 288.424 15.1674 288.646 15.1517C288.811 15.1395 288.971 15.1274 289.091 15.1555C289.346 15.2148 289.596 15.2742 289.939 15.2297C290.316 15.2695 290.606 15.3577 290.923 15.4287C291.072 15.4628 291.187 15.4818 291.356 15.4573C291.426 15.4475 291.512 15.4468 291.587 15.4415C291.743 15.4325 291.907 15.408 292.049 15.416C292.192 15.4255 292.314 15.4691 292.443 15.4956C292.506 15.5089 292.578 15.5313 292.64 15.5293C292.876 15.5196 293.107 15.5022 293.338 15.4879C293.569 15.4752 293.8 15.4625 294.031 15.4497C294.228 15.488 294.429 15.5262 294.626 15.5645C294.937 15.5449 295.249 15.5253 295.555 15.5073C295.9 15.4859 295.9 15.4875 296.403 15.5784C296.628 15.6195 296.863 15.5899 297.075 15.5681C297.428 15.5328 297.668 15.5891 297.923 15.6484C297.976 15.6602 298.071 15.6671 298.132 15.6604C298.377 15.6368 298.591 15.6519 298.775 15.7072C298.905 15.746 299.034 15.7634 299.19 15.7543C299.732 15.7205 300.275 15.6851 300.817 15.6543C300.883 15.6507 300.96 15.6638 301.022 15.6756C301.511 15.7651 301.516 15.7697 301.87 15.7421C302.185 15.7179 302.478 15.7061 302.735 15.7885C302.788 15.8064 302.87 15.8319 302.927 15.8298C303.314 15.8112 303.706 15.7909 304.087 15.7615C304.262 15.7477 304.385 15.7513 304.525 15.7854C304.703 15.8284 304.863 15.8809 305.15 15.8584C305.946 15.7947 305.951 15.8039 306.905 15.9017C306.972 15.9088 307.061 15.8958 307.136 15.889C307.296 15.8723 307.416 15.8928 307.56 15.9269C307.883 16.004 307.892 15.9993 308.194 15.9798C308.425 15.964 308.666 15.9589 308.891 15.9339C309.239 15.8971 309.475 15.955 309.739 16.0096C309.951 16.0524 310.19 16.0134 310.411 15.9977C310.651 15.9803 310.87 15.983 311.053 16.0398C311.179 16.0787 311.313 16.0991 311.469 16.09C312.011 16.0577 312.553 16.0223 313.096 15.99C313.162 15.9864 313.243 15.998 313.305 16.0082C313.851 16.0988 313.852 16.1034 314.384 16.0635C314.554 16.0513 314.696 16.047 314.825 16.0781C314.951 16.1078 315.085 16.1358 315.215 16.1639C315.446 16.1512 315.683 16.1461 315.908 16.1257C316.083 16.1104 316.206 16.1155 316.346 16.1466C316.528 16.1865 316.685 16.2574 316.966 16.2196C317.112 16.2014 317.282 16.2046 317.428 16.188C317.602 16.1665 317.721 16.1778 317.861 16.2165C318.035 16.2627 318.213 16.3103 318.486 16.2834C318.787 16.2532 319.108 16.2458 319.415 16.2216C319.584 16.2079 319.703 16.2192 319.843 16.2579C320.017 16.3072 320.213 16.3377 320.477 16.3155C321.014 16.2725 321.019 16.2801 321.551 16.3724C321.685 16.3958 321.827 16.3915 321.997 16.3778C322.143 16.3658 322.296 16.3875 322.403 16.4311C322.505 16.4794 322.498 16.5102 322.509 16.5363ZM279.4 3.04531C279.244 3.05433 279.089 3.06489 278.852 2.93321C278.837 2.91029 278.844 2.88257 278.81 2.86288C278.731 2.82206 278.611 2.7939 278.469 2.79051C278.213 2.78656 277.909 2.84141 277.916 2.8813C277.923 2.91506 278.005 2.94354 278.163 2.96985C278.23 2.98003 278.284 2.99802 278.346 3.00978C278.528 3.04356 278.675 3.11148 278.933 3.07391C278.879 2.97909 278.906 3.0265 278.933 3.07391C278.913 3.13248 278.987 3.17335 279.159 3.18878C279.206 3.19298 279.277 3.18929 279.314 3.17975C279.459 3.1447 279.479 3.09843 279.362 2.97802C279.345 2.99815 279.361 3.03335 279.404 3.0422C279.448 3.05105 279.551 3.04249 279.603 3.03129C279.733 3.00097 279.797 2.96199 279.762 2.93002C279.741 2.91329 279.65 2.89256 279.593 2.89305C279.494 2.8939 279.406 2.92846 279.4 3.04531ZM318.872 20.5295C318.528 20.5616 318.13 20.5543 317.788 20.6172C317.728 20.6284 317.668 20.6566 317.665 20.6782C317.661 20.692 317.757 20.7112 317.814 20.7215C317.944 20.7449 318.085 20.736 318.25 20.7269C318.5 20.714 318.652 20.7834 318.848 20.8171C318.911 20.8273 318.992 20.8343 319.058 20.8307C319.44 20.8089 319.817 20.7857 320.199 20.7609C320.265 20.7558 320.335 20.7444 320.391 20.7301C320.577 20.6839 320.556 20.6549 320.37 20.6227C320.164 20.5876 319.999 20.5275 319.788 20.5001C319.487 20.4612 319.188 20.5191 318.872 20.5295ZM292.069 21.8814C291.838 21.8957 291.611 21.9099 291.38 21.9242C291.305 21.9294 291.224 21.9317 291.154 21.9384C291.008 21.9504 290.901 21.9836 290.833 22.0349C290.945 22.0739 291.079 22.0958 291.226 22.0899C291.457 22.0787 291.683 22.0568 291.914 22.0502C292.165 22.0419 292.316 22.1098 292.513 22.1435C292.575 22.1537 292.651 22.1546 292.722 22.1555C293.072 22.1586 293.28 22.0769 293.206 21.9654C293.153 21.8782 292.97 21.8276 292.753 21.8402C292.526 21.8529 292.295 21.8672 292.069 21.8814ZM320.337 18.2454C320.392 18.2188 320.453 18.1999 320.479 18.1766C320.559 18.0975 320.522 18.0395 320.362 17.9794C320.167 17.9057 319.939 17.9584 319.727 17.9679C319.675 17.9699 319.62 18.0026 319.593 18.0228C319.575 18.0368 319.577 18.066 319.606 18.0735C319.842 18.1329 320.092 18.1876 320.337 18.2454ZM278.973 14.0605C278.746 14.0748 278.515 14.086 278.289 14.1048C278.233 14.1099 278.183 14.1395 278.151 14.1598C278.092 14.1972 278.161 14.2473 278.356 14.2502C278.579 14.2545 278.809 14.2264 279.04 14.2121C279.332 14.1942 279.503 14.1359 279.391 14.0877C279.284 14.0409 279.141 14.033 278.973 14.0605ZM29.6128 12.916C29.7637 12.907 29.9195 12.8995 30.0702 12.8875C30.2115 12.8755 30.3182 12.8408 30.3857 12.7895C30.2647 12.7505 30.1307 12.7302 29.9843 12.736C29.753 12.7473 29.5267 12.7615 29.3005 12.7788C29.1591 12.7892 29.0242 12.8242 28.9946 12.8767C28.9642 12.9169 29.2827 12.9373 29.6128 12.916ZM258.72 10.7134C258.782 10.7267 258.846 10.7538 258.907 10.7533C259.059 10.752 259.214 10.7414 259.355 10.7248C259.416 10.7182 259.462 10.6901 259.489 10.6684C259.507 10.6544 259.5 10.6298 259.471 10.6178C259.329 10.5453 258.782 10.5761 258.697 10.6613C258.689 10.6768 258.714 10.6965 258.72 10.7134ZM243.22 2.43057C243.236 2.45503 243.243 2.47956 243.263 2.50397C243.304 2.54973 243.41 2.58263 243.563 2.60437C243.679 2.56496 243.738 2.52143 243.73 2.47539C243.724 2.45085 243.708 2.42639 243.687 2.40197C243.646 2.35622 243.54 2.32333 243.387 2.30159C243.271 2.33947 243.217 2.38296 243.22 2.43057ZM331.522 21.8103C331.48 21.8306 331.439 21.8509 331.393 21.8698C331.524 21.9132 331.643 21.926 331.732 21.9007C331.787 21.8848 331.819 21.8615 331.86 21.8412C331.729 21.7977 331.615 21.7864 331.522 21.8103ZM328.592 22.0444C328.654 22.0577 328.712 22.0757 328.779 22.0843C328.889 22.0987 328.987 22.0718 329.059 22.0158C328.996 22.0025 328.938 21.9846 328.871 21.9759C328.762 21.9615 328.664 21.9885 328.592 22.0444ZM330.438 21.7473C330.407 21.7845 330.475 21.8146 330.652 21.8392C330.694 21.8189 330.749 21.8 330.776 21.7782C330.821 21.7425 330.738 21.7109 330.566 21.6878C330.52 21.7067 330.479 21.727 330.438 21.7473ZM320.335 20.1773C320.304 20.2144 320.373 20.2446 320.549 20.2692C320.591 20.2489 320.646 20.2299 320.673 20.2082C320.718 20.1725 320.635 20.1409 320.463 20.1178C320.417 20.1366 320.376 20.157 320.335 20.1773ZM305.99 9.42562C305.949 9.44595 305.908 9.46628 305.861 9.48512C305.992 9.52857 306.112 9.54137 306.2 9.51602C306.256 9.50018 306.287 9.47685 306.328 9.45652C306.198 9.41307 306.083 9.40176 305.99 9.42562ZM292.562 3.77149C292.676 3.78127 292.77 3.75896 292.846 3.70144C292.784 3.68814 292.726 3.67019 292.659 3.66155C292.549 3.64712 292.451 3.67409 292.379 3.73004C292.442 3.74487 292.504 3.75815 292.562 3.77149ZM285.613 3.46996C285.572 3.49029 285.531 3.51062 285.485 3.52946C285.616 3.57291 285.735 3.58571 285.823 3.56036C285.879 3.54452 285.91 3.52119 285.952 3.50086C285.821 3.45741 285.707 3.44764 285.613 3.46996ZM238.563 2.469C238.522 2.48933 238.48 2.50967 238.434 2.5285C238.565 2.57195 238.684 2.58475 238.773 2.55941C238.828 2.54356 238.86 2.52024 238.901 2.4999C238.77 2.45646 238.656 2.44668 238.563 2.469ZM5.60153 16.9718C5.53907 16.9585 5.47667 16.9452 5.41883 16.9304C5.28438 16.973 5.24438 17.0118 5.32208 17.0403C5.37065 17.0583 5.44231 17.0685 5.50477 17.0818C5.64397 17.0391 5.6746 17.0019 5.60153 16.9718Z" fill="#FFE492"/>
<path d="M32.3917 9.73329C31.8493 9.76709 31.3123 9.80851 30.7692 9.83158C30.481 9.84326 30.3814 9.9101 30.2672 9.97247C30.1759 10.0224 30.068 10.0386 29.8935 10.0493C28.4217 10.1371 26.955 10.2295 25.4882 10.3203C25.3022 10.302 25.2101 10.2705 25.2502 10.2318C25.2723 10.2086 25.3269 10.1759 25.3835 10.1724C26.3879 10.107 27.3874 10.0401 28.3973 9.98695C28.6853 9.97221 28.7612 9.90403 28.9042 9.84755C28.9503 9.82874 28.9864 9.80081 29.0472 9.78955C29.1079 9.77675 29.1979 9.77752 29.2782 9.77376C30.9006 9.67239 32.5231 9.57256 34.1455 9.47118C34.3314 9.48954 34.4235 9.52098 34.3835 9.55969C34.3614 9.5829 34.3067 9.61559 34.2502 9.61915C33.6275 9.65671 33.0095 9.69423 32.3917 9.73329Z" fill="#FFE492"/>
<path d="M331.893 18.1695C331.648 18.19 331.337 18.2187 331.076 18.132C330.95 18.0901 330.816 18.0774 330.656 18.088C330.425 18.1053 330.189 18.1196 329.953 18.1308C329.892 18.1329 329.81 18.1167 329.748 18.1034C329.613 18.0769 329.497 18.0319 329.354 18.0208C329.211 18.0098 329.043 18.045 328.896 18.0386C328.701 18.0295 328.617 17.9888 328.667 17.95C328.694 17.9283 328.749 17.8971 328.81 17.892C329.682 17.8277 329.686 17.8277 329.936 17.8808C330.129 17.9221 330.307 17.9682 330.575 17.9398C330.801 17.9163 331.042 17.9097 331.273 17.8939C331.593 17.8727 331.594 17.8742 332.121 17.9664C332.255 17.9898 332.397 17.9871 332.566 17.9718C332.712 17.9598 332.856 17.9832 332.977 18.0236C332.905 18.0764 332.798 18.1111 332.652 18.1215C332.416 18.1389 332.185 18.1516 331.893 18.1695Z" fill="#FFE492"/>
<path d="M323.129 17.7072C323.723 17.6696 324.322 17.6367 324.916 17.5945C325.161 17.5769 325.356 17.5922 325.53 17.6432C325.719 17.6987 325.926 17.6923 326.153 17.6795C326.294 17.6721 326.433 17.6956 326.531 17.738C326.57 17.7547 326.562 17.7856 326.578 17.8102C326.06 17.8425 325.536 17.8763 325.013 17.9056C324.952 17.9092 324.875 17.8944 324.817 17.8826C324.688 17.8574 324.576 17.8121 324.438 17.804C324.143 17.7849 323.853 17.8291 323.555 17.8394C323.413 17.8437 323.275 17.8218 323.177 17.7809C323.138 17.7612 323.145 17.7317 323.129 17.7072Z" fill="#FFE492"/>
<path d="M106.438 3.68368C107.056 3.64459 107.674 3.60705 108.291 3.56796C108.477 3.58787 108.565 3.61784 108.529 3.65654C108.507 3.67977 108.453 3.7125 108.396 3.71606C107.161 3.79577 105.925 3.87241 104.694 3.94901C104.508 3.9291 104.421 3.89914 104.456 3.86043C104.478 3.8372 104.533 3.80448 104.589 3.80092C105.202 3.76033 105.82 3.72277 106.438 3.68368Z" fill="#FFE492"/>
<path d="M10.6217 13.0523C10.3438 13.058 10.0555 13.1194 9.74142 13.0777C9.67961 13.0703 9.59302 13.0456 9.59677 13.0312C9.60459 13.0073 9.65912 12.9766 9.71976 12.9665C9.98577 12.9243 10.3202 12.9165 10.4494 12.8039C10.5115 12.7461 10.6328 12.7259 10.797 12.7133C10.9706 12.699 11.0934 12.7026 11.2324 12.7348C11.4144 12.7761 11.5706 12.8543 11.8507 12.8104C11.8665 12.8357 11.9014 12.8641 11.8888 12.888C11.8763 12.912 11.8166 12.9349 11.7612 12.9529C11.7105 12.9692 11.6406 12.9842 11.575 12.9896C11.2651 13.0114 10.9551 13.0302 10.6217 13.0523Z" fill="#FFE492"/>
<path d="M257.854 12.3969C258.085 12.3825 258.325 12.3742 258.551 12.3505C258.73 12.3318 258.844 12.3417 258.988 12.3777C259.234 12.4409 259.247 12.4345 259.839 12.4387C259.906 12.4397 259.988 12.4623 260.027 12.4821C260.051 12.4928 260.02 12.5226 259.993 12.5384C259.951 12.5589 259.892 12.5859 259.835 12.5864C259.462 12.5943 259.09 12.6892 258.718 12.5868C258.53 12.5356 258.325 12.5125 258.076 12.538C257.926 12.5533 257.765 12.5609 257.61 12.5685C257.459 12.576 257.302 12.5603 257.204 12.5145C257.062 12.4473 257.141 12.4202 257.387 12.4228C257.543 12.4245 257.698 12.4061 257.854 12.3969Z" fill="#FFE492"/>
<path d="M344.19 23.7465C344.486 23.7279 344.781 23.7061 345.082 23.6907C345.143 23.6869 345.22 23.7038 345.277 23.7144C345.507 23.7601 345.479 23.8416 345.493 23.9131C345.503 23.9879 344.984 24.0531 344.759 24.0041C344.51 23.9491 344.284 23.8858 343.947 23.9239C343.816 23.9378 343.658 23.9106 343.57 23.8652C343.439 23.7995 343.508 23.7718 343.748 23.7744C343.89 23.7763 344.04 23.7574 344.19 23.7465Z" fill="#FFE492"/>
<path d="M192.904 1.29618C193.21 1.27631 193.515 1.24707 193.823 1.24282C194.002 1.23968 194.095 1.29041 194.055 1.32827C194.033 1.3519 193.979 1.38519 193.922 1.38881C193.31 1.43169 192.698 1.46832 192.086 1.50807C191.905 1.48778 191.813 1.45578 191.853 1.41793C191.875 1.39429 191.93 1.36256 191.986 1.35738C192.292 1.33282 192.598 1.31605 192.904 1.29618Z" fill="#FFE492"/>
<path d="M338.182 18.3349C338.478 18.3167 338.779 18.2905 339.076 18.2801C339.232 18.2756 339.357 18.3105 339.379 18.351C339.39 18.3697 339.316 18.4032 339.255 18.4116C338.834 18.4685 338.376 18.4788 337.933 18.5093C337.792 18.5184 337.639 18.4947 337.551 18.4516C337.419 18.3855 337.488 18.3598 337.73 18.3624C337.881 18.3626 338.031 18.3441 338.182 18.3349Z" fill="#FFE492"/>
<path d="M265.713 12.6036C265.863 12.5942 266.017 12.5719 266.163 12.577C266.319 12.5836 266.421 12.6293 266.471 12.6755C266.526 12.7281 266.525 12.7781 266.481 12.8235C266.411 12.9014 266.335 12.8989 266.158 12.849C265.884 12.771 265.866 12.7809 265.335 12.7889C265.274 12.7895 265.198 12.7661 265.149 12.7456C265.076 12.7141 265.111 12.6639 265.273 12.6334C265.394 12.6114 265.563 12.613 265.713 12.6036Z" fill="#FFE492"/>
<path d="M327.028 17.804C327.249 17.7894 327.47 17.7669 327.692 17.7649C327.847 17.7619 327.972 17.7971 327.989 17.8365C327.995 17.8554 327.927 17.8876 327.871 17.8975C327.604 17.9425 327.303 17.9484 327.011 17.9652C326.874 17.9727 326.722 17.9488 326.634 17.9054C326.502 17.8402 326.575 17.8096 326.807 17.817C326.878 17.8195 326.953 17.8094 327.028 17.804Z" fill="#FFE492"/>
<path d="M291.845 15.8004C291.516 15.8223 291.203 15.8014 291.223 15.7602C291.253 15.7063 291.387 15.6703 291.528 15.6596C291.754 15.6418 291.98 15.6272 292.21 15.6157C292.356 15.6081 292.49 15.6305 292.611 15.6705C292.543 15.7216 292.437 15.7588 292.296 15.7711C292.151 15.7835 291.995 15.7912 291.845 15.8004Z" fill="#FFE492"/>
<path d="M289.657 15.5994C289.878 15.5848 290.099 15.5623 290.321 15.5603C290.476 15.5573 290.602 15.5925 290.618 15.6319C290.624 15.6508 290.556 15.683 290.5 15.6929C290.234 15.7379 289.932 15.7438 289.64 15.7606C289.503 15.7681 289.351 15.7442 289.263 15.7008C289.131 15.6356 289.204 15.605 289.436 15.6124C289.507 15.6149 289.582 15.6048 289.657 15.5994Z" fill="#FFE492"/>
<path d="M263.008 12.5937C263.229 12.579 263.45 12.5565 263.672 12.553C263.827 12.55 263.952 12.5852 263.969 12.6246C263.975 12.6435 263.907 12.6741 263.851 12.6856C263.584 12.7306 263.283 12.7365 262.991 12.7533C262.854 12.7608 262.702 12.7369 262.614 12.6935C262.482 12.6283 262.555 12.5977 262.787 12.6051C262.858 12.6076 262.933 12.5975 263.008 12.5937Z" fill="#FFE492"/>
<path d="M261.75 12.4962C261.985 12.4814 262.06 12.4729 262.136 12.4722C262.277 12.4709 262.425 12.4886 262.513 12.5336C262.645 12.5988 262.571 12.6184 262.34 12.6236C262.043 12.6294 261.752 12.6652 261.455 12.6742C261.3 12.6787 261.174 12.6419 261.162 12.6025C261.156 12.5836 261.225 12.5498 261.281 12.543C261.478 12.5176 261.694 12.5014 261.75 12.4962Z" fill="#FFE492"/>
<path d="M287.528 2.66052C287.378 2.66983 287.219 2.69352 287.077 2.68685C286.888 2.67742 286.809 2.63519 286.854 2.59503C286.88 2.57253 286.93 2.54027 286.986 2.535C287.287 2.51003 287.592 2.49296 287.893 2.47435C288.074 2.49658 288.156 2.52923 288.112 2.56939C288.085 2.5919 288.035 2.62256 287.979 2.62943C287.834 2.64663 287.678 2.65122 287.528 2.66052Z" fill="#FFE492"/>
<path d="M103.026 3.88141C103.172 3.87848 103.305 3.89806 103.42 3.93698C103.353 3.98875 103.252 4.02325 103.112 4.03891C103.041 4.04594 102.962 4.05145 102.886 4.05373C102.741 4.05825 102.607 4.03708 102.492 3.99816C102.559 3.94639 102.665 3.91185 102.8 3.89623C102.871 3.8892 102.951 3.88688 103.026 3.88141Z" fill="#FFE492"/>
<path d="M336.564 18.3274C336.556 18.2812 336.839 18.2259 337.099 18.2251C337.235 18.2255 337.378 18.2466 337.461 18.2889C337.588 18.3533 337.519 18.3795 337.288 18.3768C337.146 18.3749 336.997 18.4034 336.856 18.3999C336.696 18.3997 336.599 18.3654 336.564 18.3274Z" fill="#FFE492"/>
<path d="M267.101 12.7991C267.095 12.7814 267.071 12.7607 267.084 12.7445C267.167 12.6552 267.705 12.6228 267.852 12.6988C267.876 12.7131 267.887 12.7371 267.869 12.7518C267.843 12.7746 267.793 12.804 267.737 12.811C267.592 12.8284 267.443 12.8379 267.292 12.8408C267.227 12.8414 267.164 12.8146 267.101 12.7991Z" fill="#FFE492"/>
<path d="M12.3052 12.7862C11.7523 12.8249 11.7427 12.8218 11.8361 12.7408C11.9206 12.6678 12.0824 12.623 12.3224 12.6209C12.393 12.6202 12.468 12.6163 12.5296 12.6222C12.596 12.6296 12.6912 12.6448 12.7066 12.6639C12.7374 12.7005 12.66 12.7413 12.5207 12.7698C12.4604 12.7832 12.3802 12.7807 12.3052 12.7862Z" fill="#FFE492"/>
<path d="M110.06 3.63173C109.897 3.6606 109.755 3.65225 109.649 3.60169C109.542 3.55113 109.702 3.48845 109.988 3.47133C110.063 3.46742 110.142 3.45382 110.213 3.45962C110.283 3.4638 110.355 3.48245 110.399 3.50138C110.476 3.53288 110.432 3.57678 110.284 3.61518C110.224 3.63023 110.134 3.62782 110.06 3.63173Z" fill="#FFE492"/>
<path d="M335.564 18.2022C335.605 18.1806 335.645 18.1589 335.69 18.1388C335.862 18.165 335.938 18.197 335.895 18.2351C335.869 18.2583 335.814 18.2784 335.774 18.3001C335.601 18.2739 335.53 18.2402 335.564 18.2022Z" fill="#FFE492"/>
<path d="M20.1345 31.7301C20.1332 31.7106 20.1963 31.6792 20.2471 31.6722C20.3441 31.66 20.4666 31.6815 20.5535 31.7262C20.6742 31.79 20.6067 31.8247 20.3914 31.8089C20.2415 31.7973 20.1369 31.7658 20.1345 31.7301Z" fill="#FFE492"/>
<path d="M268.996 11.2463C269.057 11.2603 269.119 11.2743 269.176 11.2899C269.101 11.3505 269.004 11.3772 268.901 11.362C268.835 11.3529 268.777 11.334 268.716 11.32C268.791 11.2595 268.883 11.236 268.996 11.2463Z" fill="#FFE492"/>
<path d="M267.364 11.1754C267.456 11.1502 267.569 11.1622 267.702 11.2078C267.662 11.2292 267.626 11.2538 267.576 11.2705C267.489 11.2971 267.371 11.2853 267.242 11.2379C267.278 11.2182 267.319 11.1968 267.364 11.1754Z" fill="#FFE492"/>
<path d="M266.097 11.2493C266.159 11.2633 266.22 11.2773 266.277 11.2929C266.202 11.3535 266.11 11.3802 266.002 11.365C265.936 11.3559 265.879 11.337 265.817 11.323C265.893 11.2625 265.984 11.2374 266.097 11.2493Z" fill="#FFE492"/>
<path d="M265.165 11.16C265.236 11.1921 265.202 11.2317 265.071 11.2771C265.01 11.263 264.94 11.2522 264.892 11.233C264.816 11.2026 264.851 11.1614 264.986 11.1159C265.043 11.1317 265.104 11.1459 265.165 11.16Z" fill="#FFE492"/>
</svg>
