<svg width="230" height="30" viewBox="0 0 230 30" fill="none" xmlns="http://www.w3.org/2000/svg">
<path d="M215.568 12.849C215.255 12.8779 214.938 12.9001 214.631 12.9397C214.432 12.9647 214.345 12.9068 214.211 12.8785C214.167 12.8687 214.119 12.848 214.078 12.8516C213.767 12.8804 213.457 12.912 213.147 12.9435C213.053 12.9987 212.995 13.0708 212.85 13.1C212.708 13.1277 212.54 13.1315 212.381 13.1474C212.173 13.1671 211.964 13.1868 211.755 13.2052C211.65 13.2143 211.565 13.2421 211.532 13.2919C211.526 13.3002 211.596 13.319 211.634 13.3304C211.762 13.3683 211.886 13.4117 212.027 13.4398C212.16 13.4667 212.324 13.414 212.468 13.4488C212.79 13.5273 212.793 13.5258 213.037 13.504C213.246 13.4842 213.454 13.4632 213.663 13.4475C213.704 13.4439 213.752 13.4632 213.797 13.4731C213.931 13.5 214.018 13.566 214.214 13.5357C214.362 13.5119 214.527 13.5041 214.682 13.4897C214.813 13.5262 214.935 13.5683 215.075 13.5964C215.205 13.6234 215.244 13.6457 215.175 13.6867C215.113 13.7248 215.024 13.7418 214.907 13.7472C214.802 13.751 214.698 13.7656 214.594 13.7747C214.54 13.78 214.489 13.7839 214.439 13.7892C214.239 13.8087 214.239 13.8087 213.873 13.7299C213.729 13.6991 213.569 13.7504 213.432 13.7209C213.339 13.7012 213.259 13.6704 213.17 13.6493C213.132 13.6406 213.072 13.6406 213.024 13.6444C212.866 13.6575 212.707 13.6679 212.556 13.6891C212.448 13.7038 212.386 13.7433 212.399 13.7811C212.403 13.796 212.479 13.816 212.524 13.8164C212.625 13.8168 212.733 13.7953 212.831 13.8026C212.926 13.8099 213.025 13.8349 213.096 13.8632C213.24 13.9225 213.4 13.8631 213.537 13.8763C213.68 13.8908 213.798 13.9425 213.935 13.9721C213.97 13.9794 214.037 13.9643 214.09 13.959C214.246 13.9459 214.401 13.9343 214.556 13.9212C214.687 13.9577 214.827 13.9899 214.945 14.0321C215.16 14.1089 215.388 14.135 215.663 14.0893C215.818 14.064 215.97 14.0687 216.095 14.1189C216.223 14.1704 216.369 14.1617 216.53 14.1471C216.679 14.1328 216.831 14.0995 216.984 14.1341C217.315 14.2109 217.318 14.2149 217.708 14.1734C217.825 14.1612 217.913 14.1565 218.003 14.1858C218.086 14.2125 218.175 14.2349 218.261 14.2602C218.416 14.2471 218.575 14.234 218.73 14.2196C218.929 14.2001 219.04 14.2166 219.09 14.2917C219.119 14.3373 219.133 14.3792 219.204 14.4089C219.287 14.4451 219.375 14.4417 219.496 14.4281C219.61 14.4159 219.692 14.3991 219.738 14.3491C219.757 14.3282 219.794 14.3083 219.829 14.2912C219.857 14.2783 219.901 14.2583 219.926 14.2604C219.974 14.2648 220.038 14.2783 220.054 14.2956C220.213 14.4567 220.213 14.458 220.373 14.502C220.548 14.5511 220.73 14.5946 220.89 14.6508C221.034 14.7006 221.176 14.6743 221.331 14.6708C221.448 14.6681 221.525 14.7017 221.517 14.7373C221.511 14.7578 221.467 14.7888 221.429 14.7923C221.119 14.8266 220.806 14.8569 220.493 14.883C220.455 14.8866 220.406 14.8632 220.362 14.852C220.272 14.8295 220.192 14.7932 220.097 14.7872C220.002 14.7812 219.891 14.8042 219.787 14.8133C219.682 14.8225 219.572 14.8427 219.477 14.834C219.381 14.8253 219.304 14.7876 219.215 14.7638C219.173 14.7525 219.116 14.7361 219.081 14.7409C218.851 14.7788 218.678 14.7379 218.512 14.6818C218.477 14.6703 218.417 14.6635 218.372 14.6672C218.005 14.6987 217.641 14.7342 217.274 14.7684C217.125 14.7827 217.004 14.7378 216.97 14.6583C216.953 14.6138 216.921 14.5696 216.92 14.5247C216.918 14.4431 216.742 14.4022 216.616 14.4146C216.407 14.433 216.195 14.4487 215.989 14.4737C215.822 14.4939 215.679 14.4808 215.563 14.4344C215.429 14.3817 215.277 14.396 215.125 14.4145C215.012 14.4279 214.981 14.4735 214.99 14.5863C214.998 14.6773 214.945 14.707 214.739 14.7267C214.48 14.7516 214.217 14.7767 213.954 14.7976C213.913 14.8013 213.865 14.7792 213.824 14.7679C213.734 14.7455 213.654 14.7078 213.559 14.7018C213.464 14.6945 213.353 14.7174 213.249 14.7279C213.144 14.7371 213.034 14.7587 212.939 14.7513C212.843 14.7439 212.763 14.7049 212.677 14.681C212.635 14.6697 212.584 14.6532 212.543 14.6569C212.334 14.6725 212.125 14.6936 211.917 14.7133C211.682 14.735 211.682 14.735 211.348 14.6582C211.195 14.6236 211.043 14.657 210.894 14.6712C210.736 14.6857 210.587 14.6945 210.462 14.6429C210.379 14.6094 210.287 14.5898 210.189 14.5988C209.926 14.6211 209.667 14.6474 209.404 14.6697C209.36 14.6734 209.299 14.668 209.264 14.6566C209.095 14.6033 208.929 14.5621 208.695 14.596C208.493 14.6251 208.274 14.6314 208.072 14.6592C207.961 14.6739 207.911 14.7186 207.934 14.7521C207.947 14.7695 208.014 14.7884 208.059 14.7874C208.16 14.7864 208.271 14.7635 208.366 14.7695C208.563 14.7814 208.664 14.8934 208.92 14.8563C209.072 14.8338 209.23 14.8234 209.388 14.8143C209.429 14.812 209.474 14.8368 209.519 14.8494C209.647 14.8833 209.759 14.9284 209.942 14.8997C210.094 14.8772 210.255 14.8681 210.41 14.8537C210.657 14.8304 210.657 14.8317 210.979 14.9074C211.132 14.9434 211.284 14.9087 211.432 14.8958C211.543 14.8864 211.647 14.8705 211.737 14.8875C211.874 14.9129 211.973 14.976 212.141 14.9681C212.3 14.9604 212.455 14.9378 212.613 14.9274C212.711 14.9211 212.803 14.9408 212.884 14.9757C212.967 15.0106 213.056 15.0249 213.163 15.0143C213.319 14.9998 213.477 14.9826 213.635 14.9722C213.679 14.9699 213.73 14.981 213.772 14.9909C213.861 15.0134 213.947 15.04 214.034 15.0639C214.189 15.0522 214.347 15.0459 214.499 15.0261C214.616 15.0112 214.698 15.0148 214.794 15.0398C214.915 15.0738 215.015 15.1368 215.211 15.1011C215.309 15.0839 215.423 15.0854 215.521 15.0695C215.641 15.0491 215.724 15.054 215.81 15.0929C215.974 15.1667 216.177 15.1635 216.385 15.1288C216.612 15.091 216.785 15.1252 216.957 15.1811C217.139 15.2396 217.139 15.2382 217.282 15.386C217.324 15.4286 217.442 15.4463 217.54 15.436C217.705 15.4186 217.847 15.4222 217.969 15.4711C218.097 15.524 218.249 15.5137 218.404 15.4952C218.61 15.4701 218.815 15.4478 218.985 15.5229C219.068 15.5591 219.157 15.5666 219.268 15.5545C219.581 15.5229 219.898 15.5007 220.205 15.4638C220.391 15.4405 220.5 15.4816 220.628 15.5155C220.8 15.5619 220.988 15.6025 220.99 15.71C220.991 15.7276 221.036 15.747 221.074 15.7598C221.157 15.7865 221.246 15.8089 221.333 15.8342C221.46 15.8721 221.585 15.9033 221.759 15.8776C221.91 15.8564 222.072 15.8473 222.227 15.8315C222.382 15.8158 222.524 15.8057 222.665 15.8542C222.828 15.909 223.001 15.9609 223.185 16.0003C223.316 16.0286 223.486 15.9717 223.626 16.0106C223.713 16.0345 223.796 16.0626 223.888 16.0823C223.926 16.0909 223.986 16.0827 224.037 16.0789C224.142 16.071 224.249 16.0645 224.35 16.0486C224.467 16.031 224.556 16.0317 224.646 16.061C224.729 16.0877 224.812 16.1252 224.907 16.1312C225.05 16.1402 225.207 16.0822 225.351 16.1415C225.425 16.1712 225.518 16.199 225.613 16.2063C225.708 16.2137 225.819 16.1908 225.92 16.1898C225.965 16.1888 226.019 16.2094 226.045 16.2265C226.061 16.2356 226.039 16.262 226.017 16.2761C225.989 16.293 225.949 16.3157 225.907 16.3194C225.594 16.351 225.281 16.3786 224.968 16.4088C224.781 16.4267 224.781 16.4267 224.402 16.3495C224.312 16.3312 224.214 16.3375 224.104 16.3495C223.955 16.3651 223.803 16.3917 223.647 16.3708C223.442 16.2829 223.192 16.2804 222.926 16.3218C222.816 16.3393 222.714 16.3416 222.631 16.3177C222.456 16.2699 222.271 16.2265 222.114 16.1689C221.993 16.124 221.936 16.1212 221.886 16.1876C221.871 16.2084 221.856 16.2305 221.859 16.2495C221.88 16.3171 221.916 16.3829 221.937 16.4505C221.944 16.4694 221.919 16.4917 221.903 16.5125C221.854 16.5708 221.787 16.5682 221.675 16.5231C221.563 16.478 221.429 16.4498 221.252 16.4756C221.101 16.4981 220.936 16.4991 220.784 16.523C220.55 16.5582 220.384 16.5184 220.215 16.4638C220.18 16.4523 220.12 16.4469 220.075 16.4506C219.604 16.4926 219.135 16.5387 218.664 16.5807C218.563 16.5898 218.47 16.5715 218.39 16.5365C218.307 16.5017 218.214 16.4847 218.113 16.4939C217.695 16.5319 217.278 16.5673 216.86 16.6122C216.689 16.631 216.553 16.6164 216.434 16.5715C216.345 16.5381 216.262 16.5291 216.151 16.5357C216.031 16.5425 215.946 16.5581 215.886 16.5989C215.83 16.6383 215.872 16.6605 215.999 16.6875C216.136 16.717 216.264 16.7563 216.395 16.7915C216.499 16.7836 216.604 16.7704 216.705 16.7694C216.75 16.7684 216.791 16.792 216.836 16.8046C216.964 16.8411 217.082 16.8779 217.262 16.852C217.414 16.8295 217.575 16.8218 217.73 16.806C217.946 16.7861 217.946 16.7861 218.296 16.8639C218.385 16.8836 218.48 16.8801 218.594 16.8653C218.692 16.8535 218.794 16.8703 218.865 16.9095C218.894 16.9252 218.885 16.9526 218.827 17.0437C218.828 17.1104 218.894 17.0789 218.915 17.0349C218.949 16.9715 218.882 16.9527 218.756 16.9895C218.668 17.016 218.624 17.0524 218.647 17.0805C218.66 17.0951 218.721 17.1128 218.827 17.0437C219.104 16.9558 219.316 16.9414 219.518 16.915C219.638 16.9001 219.715 16.9038 219.811 16.937C219.926 16.9765 220.041 17.0188 220.227 16.9928C220.43 16.9637 220.645 16.9561 220.851 16.931C221.04 16.9077 221.14 16.9653 221.261 16.9979C221.408 17.0367 221.569 16.9855 221.702 17.0069C221.842 17.0282 221.942 17.0858 222.104 17.093C222.338 17.051 222.488 17.1156 222.667 17.1565C222.807 17.1873 222.971 17.1536 223.12 17.1353C223.287 17.1151 223.427 17.1269 223.545 17.1732C223.68 17.226 223.829 17.2103 223.98 17.1946C224.335 17.1594 224.347 17.155 224.555 17.2251C224.705 17.2761 224.847 17.2484 224.996 17.2382C225.127 17.272 225.255 17.3085 225.392 17.3381C225.427 17.3455 225.493 17.3303 225.547 17.325C225.702 17.3106 225.86 17.2961 226.015 17.2817C226.12 17.2726 226.23 17.2496 226.325 17.2556C226.421 17.263 226.501 17.3006 226.587 17.3245C226.673 17.3484 226.763 17.3722 226.846 17.3976C226.973 17.4355 227.095 17.4668 227.272 17.4423C227.423 17.4212 227.582 17.4121 227.74 17.3963C227.939 17.3768 227.933 17.381 228.306 17.4542C228.506 17.4945 228.711 17.4355 228.914 17.4254C229.015 17.4204 229.114 17.4331 229.185 17.471C229.213 17.4866 229.205 17.5141 229.215 17.537C228.693 17.5856 228.167 17.6288 227.651 17.6854C227.452 17.7077 227.346 17.6611 227.238 17.6227C227.059 17.5615 226.826 17.662 226.656 17.5815C226.554 17.5335 226.407 17.5082 226.234 17.5367C226.132 17.5526 226.025 17.5537 225.92 17.5683C225.655 17.6043 225.411 17.6112 225.196 17.5222C225.123 17.4912 225.018 17.4759 224.941 17.4463C224.851 17.4143 224.765 17.3972 224.661 17.4064C224.189 17.4498 223.721 17.4931 223.253 17.5391C223.212 17.5428 223.171 17.5641 223.136 17.5799C223.048 17.62 223.078 17.6492 223.221 17.6705C223.269 17.6776 223.307 17.6944 223.352 17.707C223.438 17.7309 223.518 17.7699 223.613 17.7772C223.709 17.7846 223.819 17.763 223.924 17.7538C224.028 17.7447 224.139 17.7217 224.234 17.7277C224.329 17.7351 224.409 17.7727 224.499 17.7952C224.54 17.8065 224.591 17.8258 224.632 17.8235C224.841 17.8105 225.047 17.7909 225.256 17.7739C225.387 17.8077 225.499 17.8582 225.655 17.8669C225.753 17.8728 225.857 17.8555 225.959 17.8559C226.003 17.8563 226.061 17.8754 226.083 17.8925C226.096 17.9031 226.056 17.9313 226.024 17.9456C225.905 18 225.74 17.9942 225.591 18.0139C225.43 18.0353 225.284 18.0332 225.159 17.9829C225.076 17.9495 224.984 17.9325 224.882 17.9416C224.62 17.9653 224.36 17.9916 224.098 18.0125C224.053 18.0163 223.999 18.0052 223.958 17.9966C223.623 17.9212 223.623 17.9185 223.389 17.9415C223.044 17.9752 223.044 17.9752 222.811 17.9084C222.766 17.8958 222.718 17.8711 222.68 17.8733C222.313 17.9034 221.949 17.9334 221.585 17.973C221.465 17.9853 221.382 17.9871 221.293 17.9538C221.216 17.9256 221.127 17.8936 221.031 17.8876C220.933 17.8817 220.826 17.9046 220.721 17.9137C220.617 17.9229 220.506 17.9431 220.414 17.9343C220.319 17.9256 220.235 17.8894 220.152 17.8641C220.066 17.8375 219.974 17.8409 219.857 17.8544C219.497 17.8939 219.493 17.8899 219.133 17.8137C219.092 17.8052 219.038 17.7955 218.993 17.7992C218.731 17.8215 218.471 17.8478 218.208 17.8701C218.107 17.8793 218.009 17.8638 217.938 17.826C217.909 17.8103 217.918 17.7829 217.898 17.7302C217.875 17.7185 217.901 17.7397 217.908 17.76C217.955 17.7562 218.012 17.7576 218.047 17.7459C218.135 17.718 218.179 17.683 218.156 17.655C218.143 17.6403 218.082 17.6226 218.044 17.6235C217.974 17.6251 217.915 17.6564 217.898 17.7302C217.699 17.7797 217.487 17.794 217.281 17.8205C217.161 17.8368 217.085 17.8317 216.989 17.7985C216.874 17.7576 216.756 17.7181 216.569 17.7441C216.367 17.7732 216.151 17.7822 215.943 17.806C215.702 17.8332 215.595 17.7132 215.392 17.7205C215.183 17.728 214.974 17.7559 214.765 17.777C214.582 17.7947 214.582 17.7947 214.199 17.715C214.059 17.6855 213.896 17.7368 213.759 17.7059C213.666 17.6863 213.586 17.6554 213.497 17.6343C213.459 17.6257 213.398 17.627 213.351 17.6308C213.088 17.6531 212.822 17.6701 212.569 17.7058C212.282 17.7477 212.062 17.7146 211.854 17.639C211.595 17.6599 211.332 17.674 211.076 17.7057C210.889 17.729 210.78 17.6866 210.653 17.6527C210.608 17.6415 210.569 17.622 210.522 17.6176C210.474 17.6132 210.417 17.6254 210.367 17.6306C210.158 17.6504 209.942 17.6621 209.74 17.6912C209.49 17.7281 209.393 17.6188 209.199 17.6096C209.071 17.6792 209.003 17.7719 208.746 17.7845C208.537 17.7947 208.329 17.8212 208.12 17.8409C208.015 17.8501 207.911 17.8606 207.807 17.8698C207.639 17.8859 207.561 17.9407 207.598 18.0215C207.618 18.066 207.635 18.1105 207.651 18.155C207.685 18.2345 207.607 18.3044 207.474 18.3169C207.107 18.3511 206.743 18.3866 206.376 18.4181C206.278 18.4271 206.183 18.4061 206.102 18.3712C206.019 18.3364 205.927 18.3221 205.826 18.3312C205.459 18.3654 205.095 18.4009 204.728 18.4324C204.686 18.4361 204.632 18.4237 204.591 18.4137C204.502 18.3913 204.415 18.3647 204.329 18.3408C204.12 18.3578 203.914 18.3706 203.709 18.3916C203.376 18.4237 203.376 18.425 203.131 18.3558C203.086 18.3432 203.041 18.3183 203 18.3206C202.841 18.3297 202.687 18.3468 202.528 18.3627C202.063 18.4086 202.063 18.4086 201.926 18.3709C201.801 18.3356 201.689 18.2919 201.503 18.3179C201.301 18.347 201.085 18.3601 200.876 18.3784C200.721 18.3915 200.566 18.4059 200.411 18.4121C200.37 18.4144 200.325 18.3896 200.28 18.377C200.152 18.3377 200.028 18.3065 199.854 18.3336C199.753 18.3495 199.645 18.3547 199.541 18.3639C199.269 18.3891 199.269 18.3891 198.82 18.3177C198.775 18.3105 198.721 18.3022 198.677 18.3073C198.31 18.3402 197.946 18.3756 197.579 18.4071C197.535 18.4109 197.481 18.4039 197.436 18.3981C196.933 18.3306 196.933 18.3306 196.402 18.3808C196.199 18.399 196.193 18.4046 195.979 18.3373C195.883 18.3082 195.804 18.2951 195.693 18.3071C195.275 18.3493 194.854 18.3806 194.44 18.4281C194.253 18.4487 194.144 18.4103 194.017 18.3765C193.972 18.3653 193.924 18.3392 193.886 18.3414C193.468 18.3767 193.051 18.4175 192.633 18.4529C192.595 18.4565 192.547 18.4303 192.502 18.4191C192.416 18.3966 192.333 18.3617 192.237 18.3557C192.139 18.3498 192.032 18.3727 191.924 18.3819C191.661 18.4056 191.661 18.4042 191.355 18.3309C191.314 18.3209 191.259 18.3072 191.218 18.3109C190.8 18.3476 190.379 18.3803 189.965 18.4292C189.728 18.4563 189.565 18.4205 189.396 18.3672C189.361 18.3558 189.301 18.3517 189.256 18.3554C188.785 18.3975 188.316 18.4435 187.845 18.4855C187.747 18.4945 187.651 18.4736 187.571 18.44C187.443 18.3871 187.294 18.3973 187.136 18.4132C186.772 18.45 186.769 18.4487 186.552 18.3884C186.507 18.3758 186.469 18.3589 186.421 18.3532C186.377 18.3474 186.32 18.3528 186.272 18.3566C186.063 18.375 185.854 18.3947 185.646 18.4144C185.437 18.4341 185.224 18.4471 185.019 18.4749C184.766 18.5092 184.644 18.4236 184.465 18.3868C184.206 18.4104 183.94 18.4273 183.684 18.4617C183.488 18.4879 183.394 18.4302 183.264 18.4019C183.219 18.392 183.171 18.3699 183.13 18.3736C182.658 18.4143 182.187 18.4576 181.718 18.505C181.604 18.5158 181.528 18.5066 181.432 18.4761C181.218 18.4075 181.209 18.4105 180.854 18.4457C180.699 18.4615 180.551 18.4758 180.416 18.423C180.298 18.3754 180.155 18.3664 179.987 18.3865C179.782 18.4116 179.57 18.4273 179.361 18.4457C179.152 18.4654 178.943 18.4905 178.734 18.5021C178.566 18.5127 178.463 18.4511 178.33 18.4215C178.288 18.4129 178.231 18.4128 178.184 18.4166C177.975 18.4336 177.759 18.448 177.557 18.4758C177.31 18.51 177.172 18.4383 176.997 18.3987C176.959 18.3901 176.895 18.3969 176.848 18.4021C176.481 18.4349 176.117 18.4704 175.75 18.5046C175.619 18.4708 175.485 18.4385 175.354 18.4048C175.146 18.4231 174.937 18.4428 174.728 18.4612C174.57 18.4757 174.408 18.4834 174.26 18.5072C174.067 18.5388 173.97 18.477 173.84 18.4487C173.795 18.4388 173.747 18.4168 173.706 18.4205C173.443 18.4414 173.18 18.4637 172.921 18.4927C172.674 18.5215 172.573 18.4013 172.37 18.4073C172.161 18.4134 171.946 18.436 171.744 18.4651C171.51 18.4989 171.344 18.4592 171.175 18.4045C171.14 18.3931 171.079 18.3876 171.035 18.3913C170.772 18.4136 170.513 18.44 170.25 18.4623C170.206 18.466 170.152 18.4604 170.107 18.4533C169.604 18.3844 169.604 18.383 169.386 18.4043C169.231 18.4188 169.073 18.436 168.915 18.4464C168.87 18.4501 168.816 18.4391 168.775 18.4291C168.443 18.3537 168.443 18.3523 168.206 18.374C167.997 18.3937 167.788 18.4134 167.579 18.4332C167.448 18.3994 167.314 18.3671 167.184 18.3333C166.924 18.3569 166.658 18.3765 166.402 18.4068C166.282 18.4205 166.202 18.4182 166.11 18.3863C165.995 18.3481 165.879 18.3031 165.69 18.3305C165.487 18.3596 165.272 18.3672 165.066 18.3923C164.82 18.4224 164.716 18.3009 164.516 18.3068C164.307 18.313 164.092 18.3355 163.889 18.3646C163.655 18.3985 163.49 18.3588 163.32 18.3041C163.285 18.2926 163.225 18.2872 163.18 18.2909C162.604 18.3435 162.032 18.396 161.456 18.4512C161.101 18.4851 161.101 18.4865 160.425 18.4271C160.377 18.4227 160.326 18.4184 160.278 18.4222C160.07 18.4392 159.854 18.4536 159.652 18.4814C159.405 18.5155 159.267 18.4452 159.092 18.4043C159.054 18.3956 158.994 18.4024 158.943 18.4063C158.785 18.4194 158.63 18.4352 158.471 18.4497C158.263 18.4694 158.054 18.4891 157.845 18.5088C157.714 18.4764 157.58 18.4427 157.449 18.4103C157.19 18.4339 156.924 18.4495 156.668 18.4839C156.472 18.5101 156.379 18.4551 156.248 18.4254C156.203 18.4155 156.155 18.3935 156.114 18.3958C155.642 18.4364 155.171 18.4784 154.703 18.5272C154.51 18.5479 154.42 18.4887 154.289 18.4604C154.244 18.4519 154.193 18.4354 154.152 18.439C153.839 18.4652 153.525 18.4954 153.212 18.5257C153.035 18.5433 153.035 18.5433 152.646 18.4678C152.602 18.4593 152.551 18.4509 152.506 18.4546C151.513 18.5453 150.522 18.6399 149.529 18.7305C149.427 18.7396 149.335 18.7213 149.255 18.6864C149.172 18.6516 149.079 18.6346 148.978 18.6437C148.56 18.6818 148.139 18.7172 147.725 18.762C147.554 18.7809 147.417 18.7663 147.299 18.7213C147.209 18.688 147.127 18.6763 147.016 18.687C146.807 18.708 146.598 18.7264 146.389 18.7461C146.181 18.7658 145.972 18.7855 145.763 18.8053C145.554 18.825 145.342 18.838 145.136 18.8658C144.883 18.9001 144.758 18.8186 144.583 18.7804C144.269 18.8079 143.956 18.8354 143.646 18.8643C143.228 18.9023 142.81 18.9431 142.393 18.9798C142.355 18.9834 142.307 18.96 142.262 18.9488C142.131 18.9177 142.035 18.8723 141.842 18.8917C140.905 18.9851 139.962 19.0677 139.023 19.1599C138.826 19.1793 138.739 19.1227 138.606 19.0945C138.561 19.086 138.51 19.0681 138.469 19.0718C137.947 19.1176 137.424 19.1676 136.902 19.2162C136.69 19.236 136.69 19.236 136.333 19.1597C136.292 19.1512 136.238 19.1401 136.193 19.1439C135.513 19.2056 134.836 19.27 134.155 19.3331C134.054 19.3422 133.962 19.3252 133.879 19.2904C133.798 19.2555 133.703 19.2372 133.605 19.2463C132.978 19.3041 132.348 19.3606 131.725 19.4224C131.557 19.4398 131.418 19.4307 131.296 19.3845C131.21 19.3511 131.124 19.338 131.016 19.3486C130.076 19.4367 129.136 19.522 128.197 19.6141C128.016 19.6319 127.889 19.6089 127.774 19.5666C127.681 19.5333 127.602 19.5283 127.488 19.5364C127.367 19.5459 127.295 19.5625 127.229 19.6048C127.145 19.6598 127.093 19.7277 126.89 19.7364C126.681 19.7452 126.469 19.7664 126.263 19.7942C126.067 19.8218 125.974 19.7626 125.849 19.7287C125.757 19.705 125.671 19.7028 125.554 19.7178C125.447 19.7311 125.381 19.7557 125.318 19.8007C125.181 19.8963 125.168 19.8966 124.996 19.842C124.903 19.8128 124.82 19.7902 124.719 19.798C124.301 19.8347 123.883 19.8741 123.466 19.9149C123.225 19.9381 123.222 19.9409 123.04 19.877C122.95 19.845 122.864 19.8306 122.76 19.8411C121.611 19.9489 120.463 20.0539 119.314 20.1658C119.137 20.1834 119.016 20.1576 118.888 20.1197C118.846 20.107 118.805 20.0889 118.757 20.0845C118.709 20.0802 118.656 20.0868 118.605 20.0907C117.77 20.1682 116.931 20.2431 116.099 20.3273C115.909 20.3466 115.807 20.3054 115.676 20.273C115.631 20.2617 115.593 20.2436 115.545 20.2392C115.497 20.2362 115.441 20.247 115.39 20.2522C114.554 20.3298 113.716 20.4046 112.884 20.4888C112.684 20.5083 112.597 20.4532 112.467 20.4262C112.422 20.4163 112.374 20.397 112.333 20.4007C112.07 20.4216 111.811 20.4479 111.548 20.4716C110.922 20.5307 110.295 20.5872 109.668 20.6477C109.428 20.6708 109.321 20.5521 109.118 20.5622C108.855 20.575 108.596 20.6081 108.333 20.6331C108.124 20.6528 107.915 20.6712 107.707 20.6923C107.501 20.7119 107.501 20.7119 106.986 20.6447C106.941 20.6389 106.887 20.6306 106.843 20.6343C106.112 20.7013 105.377 20.7683 104.65 20.8393C104.482 20.8554 104.342 20.8517 104.221 20.8042C104.134 20.7707 104.045 20.7551 103.941 20.7656C102.843 20.8681 101.748 20.9706 100.65 21.0718C100.608 21.0754 100.554 21.063 100.513 21.0531C100.424 21.0306 100.337 21.004 100.251 20.9801C100.188 21.0128 100.107 21.0433 100.066 21.0796C100.01 21.1285 99.9346 21.1438 99.8144 21.1547C99.6941 21.1656 99.618 21.1646 99.5221 21.1314C99.407 21.0905 99.2889 21.0591 99.1022 21.077C97.9536 21.1888 96.8048 21.2925 95.6562 21.403C95.4663 21.4209 95.3762 21.3631 95.2424 21.3348C95.1978 21.3263 95.1467 21.3125 95.1055 21.3162C94.634 21.3582 94.1657 21.4028 93.6941 21.4462C92.3872 21.5685 91.0803 21.6866 89.7766 21.8142C89.5393 21.8373 89.3769 21.807 89.2075 21.7523C89.1724 21.7409 89.112 21.7354 89.0677 21.7392C87.2386 21.9087 85.4095 22.0795 83.5836 22.2503C83.4855 22.2593 83.3899 22.2397 83.3099 22.2062C83.2266 22.1713 83.1343 22.1557 83.033 22.1648C82.1976 22.2423 81.3622 22.3199 80.5268 22.3987C80.318 22.4184 80.3148 22.4198 80.0977 22.3595C80.053 22.3469 80.0049 22.3221 79.9701 22.3256C79.8974 22.3341 79.8284 22.3697 79.7788 22.4171C79.7292 22.4672 79.6502 22.4826 79.5332 22.4948C79.413 22.507 79.3337 22.5048 79.241 22.4742C79.1228 22.4361 79.0141 22.3991 78.8242 22.417C76.4225 22.6458 74.0206 22.8677 71.6188 23.0951C71.4258 23.1131 71.3357 23.058 71.2019 23.0298C71.1573 23.0213 71.1126 23.0087 71.065 23.007C71.0142 23.0055 70.9605 23.0149 70.9099 23.0201C66.9923 23.3854 63.0747 23.752 59.1571 24.1173C58.923 24.139 58.9261 24.1389 58.6723 24.2699C58.6409 24.2856 58.6001 24.3069 58.5558 24.3106C57.3565 24.425 56.1541 24.5367 54.9516 24.6484C54.4294 24.697 53.9073 24.747 53.3852 24.7942C53.1984 24.8107 53.1984 24.8107 52.7549 24.9677C52.7172 24.9809 52.6731 24.9982 52.6288 25.0019C50.5403 25.1977 48.4517 25.3935 46.36 25.5867C46.1954 25.6013 46.0629 25.6288 45.9883 25.6958C45.9355 25.7433 45.8664 25.772 45.762 25.7826C44.3 25.9192 42.8381 26.0573 41.3729 26.1913C41.1988 26.2075 41.0951 26.2479 41.0108 26.307C40.9827 26.3267 40.9579 26.349 40.917 26.3635C40.8792 26.3767 40.8223 26.382 40.7748 26.3872C39.5217 26.5041 38.2687 26.6238 37.0123 26.7367C36.8255 26.7532 36.7506 26.8053 36.6599 26.8604C36.6286 26.8788 36.607 26.9038 36.5661 26.917C36.5251 26.9288 36.4649 26.9301 36.4142 26.934C35.37 27.0312 34.3257 27.1298 33.2815 27.227C33.0784 27.2248 33.0359 27.3047 32.9387 27.3546C32.9042 27.3717 32.8794 27.394 32.8385 27.4058C32.7943 27.4177 32.7372 27.4177 32.6834 27.4216C31.8479 27.4991 31.0126 27.5807 30.1739 27.6542C29.9809 27.6708 29.9444 27.741 29.8409 27.791C29.8064 27.8068 29.7721 27.8307 29.731 27.8357C29.2089 27.887 28.6868 27.9357 28.1646 27.9829C27.9906 27.9991 27.9905 27.9978 27.6862 28.1394C27.6517 28.1551 27.6108 28.1724 27.5665 28.1775C26.785 28.2524 26.0002 28.3247 25.2154 28.3983C25.1141 28.4074 25.0452 28.4416 24.9955 28.489C24.9459 28.5364 24.8737 28.568 24.7724 28.5771C24.1458 28.6363 23.5193 28.6968 22.8926 28.7518C22.7185 28.7667 22.6053 28.8033 22.5306 28.8662C22.4746 28.9137 22.4054 28.9384 22.2947 28.9491C21.6681 29.0069 21.0416 29.0688 20.4117 29.1212C20.2282 29.1363 20.1341 29.1847 20.0593 29.2435C20.0002 29.2911 19.9308 29.309 19.8137 29.3199C18.665 29.4249 17.5131 29.53 16.3677 29.6431C16.1747 29.6625 16.0753 29.6171 15.9478 29.586C15.766 29.5425 15.5969 29.4946 15.5944 29.3885C15.594 29.3722 15.5397 29.3544 15.5013 29.3417C15.2169 29.2461 15.2169 29.2461 15.17 29.1383C15.1431 29.0722 15.113 29.0049 15.0892 28.9374C15.0454 28.8268 14.9433 28.8005 14.6522 28.8276C14.5477 28.8367 14.4434 28.8486 14.3389 28.8565C14.1838 28.8695 14.0655 28.8273 14.0351 28.7463C14.0182 28.7018 13.9982 28.6574 13.9813 28.6128C14.1395 28.5984 14.1363 28.5971 14.4114 28.4262C14.5271 28.3541 14.5271 28.3541 14.3005 28.2899C14.2143 28.266 14.1312 28.2393 14.0387 28.2169C13.9973 28.207 13.9433 28.2014 13.8989 28.2051C13.6362 28.2274 13.3768 28.2524 13.1173 28.2773C12.6996 28.3168 12.6996 28.3167 12.2716 28.1877C12.2365 28.1776 12.1821 28.1584 12.1882 28.1474C12.2219 28.0963 12.307 28.0726 12.4146 28.0647C12.5729 28.0529 12.7279 28.0358 12.883 28.0214C12.9874 28.0122 13.0918 28.0017 13.1963 27.9925C13.2933 27.9386 13.3937 27.8859 13.4844 27.8308C13.6283 27.7459 13.6282 27.7432 13.4271 27.6906C13.2995 27.6554 13.1624 27.6245 13.0316 27.5921C12.8766 27.6065 12.7184 27.6223 12.5633 27.6354C12.3671 27.6521 12.2872 27.628 12.2345 27.5408C12.1883 27.4643 12.2406 27.3964 12.3924 27.3766C12.5473 27.3568 12.6929 27.3426 12.7706 27.2714C12.8451 27.2031 12.9776 27.1742 13.1423 27.165C13.2468 27.1585 13.3512 27.1467 13.4556 27.1361C13.5916 27.1221 13.663 27.0511 13.6326 26.9742C13.6156 26.9243 13.5829 26.8828 13.4591 26.8748C12.9096 26.8396 12.9033 26.8411 12.6286 26.7548C12.603 26.7473 12.5835 26.7232 12.5927 26.7108C12.6081 26.69 12.6423 26.6593 12.6802 26.6543C13.044 26.6161 13.4079 26.5806 13.7719 26.552C13.8922 26.5424 13.9808 26.5309 14.0208 26.4796C14.0762 26.4089 14.0494 26.3456 13.9374 26.3005C13.9022 26.2864 13.8446 26.2686 13.8066 26.2708C13.3888 26.3048 12.9743 26.3455 12.5565 26.3795C12.5185 26.3831 12.4483 26.3616 12.432 26.3443C12.3996 26.3124 12.4461 26.2678 12.5567 26.2503C12.702 26.2266 12.8509 26.2218 12.9476 26.1516C13.0817 26.0519 13.2476 25.9597 13.3976 25.8638C13.4226 25.8469 13.4631 25.8146 13.4536 25.8121C13.3736 25.784 13.2812 25.763 13.1981 25.7363C13.0575 25.6918 13.056 25.6252 13.0862 25.5606C13.1103 25.5083 13.205 25.4857 13.3222 25.4831C13.373 25.4819 13.4363 25.4805 13.4773 25.4673C13.5843 25.4349 13.6183 25.3961 13.5638 25.3687C13.5317 25.3531 13.4742 25.3313 13.4362 25.3349C12.7589 25.3952 12.0784 25.4542 11.4046 25.5253C11.2053 25.5462 11.1122 25.4966 10.9909 25.4626C10.8983 25.4361 10.8124 25.4272 10.6988 25.4502C10.5915 25.4717 10.4867 25.4632 10.4191 25.4198C10.3643 25.3843 10.4587 25.3509 10.7146 25.3097C10.762 25.3018 10.8158 25.2965 10.8503 25.2821C11.2146 25.1268 11.2146 25.1255 11.4677 25.1007C11.7145 25.0774 11.7145 25.076 11.8427 24.9942C11.902 24.9561 11.9677 24.9178 12.0239 24.8785C12.0457 24.863 12.0832 24.8349 12.0703 24.8271C11.9996 24.7865 11.9042 24.7791 11.7935 24.7912C11.5468 24.8199 11.2548 24.8075 11.1279 24.9397C11.0783 24.9898 10.9993 25.0052 10.8854 25.0159C9.73985 25.1209 8.59436 25.2313 7.44554 25.3336C7.25882 25.3501 7.17445 25.4024 7.10284 25.4598C7.04051 25.5075 6.97108 25.5227 6.85082 25.5336C6.73057 25.5445 6.63552 25.5507 6.56476 25.5074C6.52292 25.4812 6.55692 25.4423 6.65113 25.402C6.78616 25.3445 6.75922 25.2771 6.71337 25.2142C6.6807 25.1728 6.58175 25.1451 6.47722 25.1502C6.32203 25.1591 6.17344 25.1775 6.04223 25.126C5.96544 25.0965 5.86983 25.0769 5.78362 25.0516C5.61751 24.9996 5.45136 24.9462 5.22083 24.9882C5.06203 24.9782 4.94996 24.9318 4.8223 24.8966C4.60849 24.8388 4.58925 24.8297 4.73985 24.7596C4.90928 24.681 4.77387 24.586 4.86726 24.5104C4.96686 24.4293 5.10477 24.3567 5.22669 24.2805C5.25794 24.2607 5.28607 24.2424 5.31733 24.2226C5.2438 24.1971 5.17647 24.1646 5.09045 24.1475C4.97894 24.1255 4.92119 24.0969 4.92558 24.0124C4.90311 24.0007 4.91328 24.0318 4.93883 24.0394C4.96754 24.0469 5.03717 24.0385 5.07182 24.0282C5.15997 24.0003 5.20351 23.9653 5.18066 23.9372C5.16764 23.9226 5.10702 23.9049 5.06899 23.9058C4.99925 23.9074 4.93973 23.9386 4.92241 24.0125C4.5687 24.0763 4.2016 24.1119 3.83442 24.142C3.79645 24.1456 3.7483 24.1195 3.70361 24.1069C3.55674 24.064 3.55676 24.0653 3.12854 24.0615C3.08414 24.0611 3.0235 24.0434 3.00088 24.0249C2.90704 23.944 2.90813 23.8528 2.86171 23.7654C2.9428 23.7064 3.02386 23.6488 3.10815 23.5911C3.2767 23.4743 3.49633 23.37 3.62659 23.2432C3.59652 23.1772 3.55694 23.1114 3.69515 23.0539C4.08978 22.9768 4.08663 22.9769 4.19289 22.9092C4.49607 22.7172 4.79603 22.524 5.11195 22.3345C5.19643 22.2849 5.19584 22.2591 5.04323 22.2421C4.99556 22.2378 4.94475 22.2376 4.89409 22.2414C4.73583 22.2546 4.57792 22.2826 4.42248 22.2807C4.26708 22.2802 4.15159 22.2229 4.02395 22.1891C3.89312 22.154 3.76226 22.1175 3.63139 22.081C3.48251 22.0885 3.33445 22.1299 3.18406 22.0721C3.06885 22.0271 2.92544 21.9963 2.79458 21.9598C2.89045 21.8542 3.07249 21.7712 3.21302 21.6768C3.34105 21.5909 3.34418 21.5922 3.69137 21.5203C3.8555 21.4867 3.909 21.3317 3.7685 21.29C3.59925 21.2394 3.42063 21.1931 3.24827 21.1453C3.09939 21.1528 2.94813 21.193 2.80408 21.135C2.69208 21.0913 2.56454 21.0629 2.38111 21.0847C2.07118 21.1217 1.75457 21.1439 1.44135 21.1755C1.33377 21.1861 1.21633 21.1833 1.16772 21.1382C1.13527 21.1063 1.22616 21.0593 1.33053 21.0474C1.4887 21.0302 1.63094 21.0106 1.70861 20.9408C1.78311 20.8711 1.92209 20.8475 2.08669 20.8342C2.131 20.8305 2.18137 20.813 2.20318 20.7962C2.31547 20.7147 2.44069 20.6439 2.68481 20.641C2.78561 20.6115 2.83868 20.5763 2.80622 20.5444C2.7868 20.5271 2.71974 20.5055 2.68176 20.5091C2.419 20.5287 2.15624 20.5483 1.90007 20.5786C1.77987 20.5922 1.68797 20.597 1.61095 20.5579C1.55644 20.532 1.58412 20.4946 1.68463 20.4528C1.7726 20.4168 1.79707 20.3768 1.78966 20.3307C1.77133 20.2236 1.6755 20.1945 1.37137 20.2082C1.15279 20.2186 1.0985 20.2022 1.04882 20.1108C1.03564 20.0893 1.0033 20.0601 1.02514 20.0446C1.1593 19.9491 1.24542 19.8328 1.50115 19.7834C1.6022 19.7648 1.70992 19.7624 1.7725 19.7256C1.83508 19.6888 1.89121 19.6467 1.95699 19.6111C2.03846 19.5685 2.09457 19.5291 2.05594 19.5041C1.99148 19.4593 1.88999 19.4575 1.77309 19.4765C1.67198 19.4924 1.56425 19.4962 1.45984 19.5068C1.27317 19.526 1.12025 19.4941 1.09668 19.4347C1.03281 19.2784 0.965783 19.1234 0.908252 18.9668C0.901473 18.948 0.916712 18.9231 0.941692 18.9062C1.02912 18.8471 1.12299 18.7905 1.21362 18.7327C1.31991 18.6663 1.49138 18.6746 1.6369 18.6591C1.84252 18.6367 1.84248 18.6381 2.11522 18.5012C2.22179 18.4471 2.40928 18.4633 2.51915 18.4145C2.55367 18.3987 2.60698 18.373 2.59716 18.3596C2.58407 18.3423 2.5204 18.3301 2.47267 18.323C2.42811 18.3159 2.37414 18.313 2.32669 18.3182C1.75073 18.3707 1.17802 18.4259 0.602024 18.4771C0.503923 18.4862 0.395461 18.4587 0.35962 18.4173C0.323843 18.3787 0.33222 18.3308 0.324843 18.2861C0.415474 18.2283 0.518837 18.1742 0.596694 18.1126C0.655848 18.0649 0.725121 18.043 0.845504 18.0375C1.00389 18.0298 1.15884 18.01 1.33606 17.9937C1.66111 17.7876 1.97958 17.5722 2.32999 17.3656C2.47077 17.2821 2.43407 17.2012 2.46062 17.1149C2.48732 17.0354 2.69996 17.0428 2.84205 17.0164C2.95572 16.9948 2.9927 16.9504 2.94763 16.9215C2.92187 16.9044 2.86437 16.8853 2.82 16.8863C2.7154 16.8887 2.61109 16.9033 2.50665 16.9125C2.40221 16.9217 2.28168 16.9203 2.19663 16.9454C2.11472 16.969 2.06188 17.0165 2.0089 17.0571C1.94969 17.102 1.87085 17.1188 1.75047 17.1243C1.59522 17.1305 1.4402 17.1463 1.28511 17.1593C1.11272 17.1102 0.933988 17.0625 0.767879 17.0105C0.735931 17.0004 0.728835 16.9692 0.731533 16.9488C0.736646 16.8956 0.688359 16.864 0.583164 16.8405C0.493912 16.8208 0.420281 16.7912 0.337242 16.7658C0.399786 16.7277 0.468725 16.6907 0.518527 16.6501C0.627547 16.5646 0.765643 16.5016 1.0066 16.4989C1.10046 16.4437 1.175 16.3767 1.29777 16.3371C1.41423 16.2991 1.61474 16.3299 1.70163 16.2477C1.7451 16.2072 1.81066 16.1608 1.89586 16.1426C2.03156 16.1136 2.20937 16.1232 2.28685 16.0452C2.33339 16.0006 2.40218 15.9596 2.49385 15.9466C2.59816 15.932 2.70584 15.9268 2.78131 15.8993C2.8222 15.8847 2.86608 15.862 2.86564 15.8429C2.86536 15.8307 2.80158 15.8131 2.75701 15.8059C2.71559 15.7973 2.66148 15.7918 2.614 15.7956C2.45571 15.8073 2.30075 15.8258 2.14245 15.8376C2.09814 15.8413 2.04722 15.8329 1.99949 15.8259C1.85952 15.8073 1.86839 15.7799 1.97819 15.7284C2.08803 15.6783 2.1659 15.6152 2.25653 15.5574C2.35774 15.5456 2.4846 15.5468 2.55373 15.5193C2.67003 15.4745 2.75101 15.4114 2.84487 15.3562C2.94928 15.3457 3.05698 15.3405 3.15489 15.3233C3.19597 15.317 3.21431 15.2866 3.24877 15.2681C3.31137 15.2327 3.36417 15.1825 3.44937 15.1642C3.58827 15.1366 3.75965 15.1422 3.84033 15.0655C3.88687 15.0209 3.95867 14.973 4.04736 14.9683C4.29446 14.9572 4.39733 14.88 4.52249 14.8064C4.61635 14.7512 4.81984 14.7738 4.92321 14.7184C4.99216 14.6828 5.04193 14.6395 5.1109 14.6053C5.13912 14.591 5.19916 14.5829 5.24661 14.5777C5.50605 14.5514 5.76877 14.5305 6.02818 14.5028C6.06929 14.4978 6.10689 14.4765 6.1382 14.4595C6.20395 14.4226 6.24398 14.3727 6.32585 14.3477C6.40773 14.3227 6.52499 14.32 6.62626 14.3109C6.95226 14.2831 6.97777 14.288 7.12407 14.169C7.24234 14.0724 7.5387 14.1323 7.63457 14.0267C7.69024 13.9656 7.79366 13.9143 7.98051 13.9032C8.24337 13.8877 8.50267 13.856 8.76534 13.8323C8.99952 13.8107 8.99636 13.8107 9.247 13.6785C9.35979 13.6188 9.528 13.6231 9.67672 13.6088C9.83495 13.5944 9.98036 13.5747 10.0549 13.505C10.1294 13.4366 10.2683 13.4117 10.4298 13.3985C10.5785 13.3856 10.7467 13.3886 10.8627 13.3315C11.145 13.1944 11.1418 13.1932 11.3411 13.175C11.6544 13.1461 11.9677 13.1172 12.281 13.087C12.4898 13.0673 12.7085 13.0596 12.9043 13.0252C13.0464 13.0002 13.108 12.9226 13.1987 12.8674C13.4582 12.8411 13.7176 12.8148 13.9771 12.7899C14.3409 12.7544 14.708 12.7215 15.0751 12.6873C15.2324 12.6321 15.252 12.5173 15.5181 12.5058C15.6765 12.4995 15.8314 12.4783 15.9897 12.4638C16.2523 12.4388 16.5116 12.4084 16.7745 12.3929C16.974 12.3816 17.0071 12.3073 17.1107 12.2587C17.1452 12.2416 17.1764 12.2177 17.2175 12.2127C17.6286 12.1653 18.0531 12.1475 18.4544 12.0826C18.4955 12.0762 18.5329 12.0467 18.5419 12.0261C18.548 12.0151 18.4936 11.9959 18.4585 11.9872C18.4171 11.9773 18.363 11.9676 18.3187 11.9713C17.0117 12.0922 15.7048 12.2145 14.3979 12.3353C14.2144 12.3531 14.2143 12.3518 13.7709 12.5115C13.7331 12.5246 13.689 12.5392 13.6416 12.5444C13.4327 12.5655 13.2206 12.5798 13.015 12.6049C12.8474 12.6251 12.7076 12.6119 12.5861 12.5657C12.4997 12.5322 12.4106 12.5234 12.3029 12.5286C12.1826 12.5354 12.1037 12.5521 12.0348 12.5904C11.9441 12.6429 11.898 12.7092 11.705 12.7272C10.8157 12.8059 9.92647 12.8915 9.04042 12.9742C8.91636 12.958 8.85548 12.9308 8.88639 12.8961C8.90494 12.8752 8.94236 12.8472 8.98034 12.8436C9.34418 12.8067 9.71128 12.7739 10.0752 12.7384C10.1258 12.7332 10.1956 12.7343 10.2238 12.7201C10.3618 12.6557 10.4103 12.5552 10.6732 12.5425C10.8253 12.5349 10.9801 12.511 11.1255 12.4886C11.1665 12.4823 11.2039 12.4528 11.213 12.4322C11.2159 12.4213 11.1647 12.402 11.1264 12.3934C10.986 12.3571 10.8255 12.4084 10.6854 12.3843C10.6377 12.3759 10.5708 12.3638 10.5609 12.3477C10.5542 12.3329 10.6075 12.3072 10.6452 12.2914C10.6797 12.277 10.727 12.2637 10.7744 12.2585C11.1921 12.2177 11.6098 12.1755 12.0276 12.1416C12.1986 12.1281 12.3182 12.0914 12.3928 12.0271C12.4488 11.9796 12.518 11.9535 12.6256 11.9443C13.3566 11.8773 14.0875 11.8049 14.8218 11.7419C15.0054 11.7269 15.0994 11.6798 15.1742 11.6196C15.2333 11.572 15.3027 11.5541 15.4198 11.5433C16.4673 11.4487 17.5082 11.3461 18.5558 11.2543C18.7489 11.2376 18.8046 11.1778 18.9017 11.1253C18.9362 11.1068 18.9578 11.0846 19.0019 11.0727C19.046 11.0608 19.1031 11.0608 19.1569 11.0569C19.9924 10.9794 20.8278 10.8978 21.6665 10.8243C21.8627 10.8076 21.8991 10.7387 21.9994 10.6888C22.0339 10.6731 22.0651 10.6479 22.1062 10.6429C22.7327 10.5823 23.3593 10.5246 23.9858 10.4654C24.4035 10.426 24.8212 10.3865 25.239 10.3485C25.4447 10.3302 25.4446 10.3288 25.7206 10.1933C25.7519 10.1776 25.7959 10.1589 25.837 10.1539C27.0395 10.0395 28.2388 9.92921 29.4413 9.81615C29.5426 9.80704 29.6147 9.77409 29.6644 9.72669C29.714 9.6793 29.7863 9.64636 29.8844 9.63733C30.8242 9.54792 31.764 9.45989 32.7071 9.3745C32.878 9.35972 32.9976 9.32434 33.0723 9.26141C33.1283 9.21387 33.1974 9.18781 33.3051 9.17856C34.2449 9.09188 35.1848 9.00111 36.1279 8.91708C36.3082 8.90073 36.3959 8.85248 36.4834 8.79606C36.5146 8.77629 36.5393 8.74443 36.5773 8.74085C37.0455 8.6921 37.5105 8.64207 37.9822 8.60549C38.1784 8.59015 38.2437 8.53151 38.3217 8.4753C38.3841 8.43034 38.4566 8.41373 38.577 8.40555C38.8398 8.38733 39.0991 8.35831 39.3553 8.32935C39.3933 8.32441 39.4401 8.2934 39.4429 8.27429C39.4484 8.23878 39.3749 8.21596 39.2542 8.20645C38.001 8.32339 36.7448 8.44039 35.4916 8.55733C35.286 8.57697 35.2859 8.57698 35.01 8.71252C34.9787 8.7282 34.9346 8.7469 34.8904 8.75199C33.6879 8.86505 32.4886 8.97668 31.2861 9.08974C31.1848 9.09885 31.1127 9.13179 31.063 9.17918C31.0134 9.22657 30.9411 9.25951 30.843 9.26855C29.6943 9.37631 28.5457 9.48543 27.3938 9.58918C27.2229 9.60395 27.1032 9.63795 27.0285 9.70224C26.9726 9.74978 26.9034 9.77586 26.7958 9.78511C25.6977 9.88627 24.6028 9.99144 23.5015 10.09C23.3907 10.0993 23.3074 10.0617 23.3129 10.0248C23.3156 10.0057 23.3624 9.97338 23.4004 9.9698C23.973 9.91187 24.5425 9.85266 25.1186 9.80554C25.3117 9.79026 25.3673 9.72912 25.4644 9.67657C25.4957 9.65817 25.5206 9.63447 25.5616 9.62401C25.6057 9.61212 25.6628 9.61219 25.7166 9.60825C27.0741 9.48077 28.4317 9.35194 29.7925 9.22984C29.9887 9.21177 30.0251 9.14425 30.1255 9.09435C30.16 9.07723 30.1911 9.05204 30.2323 9.04838C30.6499 9.00623 31.0676 8.96815 31.4853 8.93008C32.2163 8.86176 32.9473 8.79343 33.6815 8.72503C33.8935 8.70524 33.8935 8.70524 34.1631 8.5712C34.1945 8.55551 34.2384 8.53548 34.2796 8.53182C36.2131 8.35043 38.1465 8.16904 40.08 7.98901C40.1813 7.97991 40.2535 7.94697 40.3031 7.89957C40.3528 7.85354 40.4249 7.81924 40.523 7.80885C43.1368 7.56437 45.7475 7.31995 48.3614 7.07819C48.5323 7.06206 48.6521 7.03076 48.7266 6.9651C48.7795 6.91764 48.8518 6.8915 48.9594 6.88089C51.8327 6.61282 54.706 6.34476 57.5825 6.07526C59.516 5.89523 61.4495 5.71248 63.383 5.53517C63.5603 5.51889 63.6543 5.47456 63.7418 5.41678C63.7699 5.3971 63.7977 5.36516 63.8357 5.36158C64.2501 5.31814 64.6646 5.27742 65.0791 5.2367C65.2099 5.27047 65.3407 5.30289 65.4715 5.33665C65.5685 5.28274 65.6624 5.22753 65.7595 5.17361C66.3862 5.11991 67.0028 5.04465 67.6363 5.0112C67.6775 5.00891 67.7224 5.03374 67.7671 5.04634C68.0639 5.12532 68.2317 5.1147 68.4161 4.9962C68.4817 4.95389 68.5379 4.91587 68.6392 4.90676C68.9524 4.87515 69.2691 4.85162 69.579 4.816C69.7467 4.79722 69.8864 4.80765 70.008 4.85387C70.0944 4.88729 70.1835 4.90024 70.2879 4.8897C70.8638 4.83579 71.4366 4.7833 72.0125 4.72666C72.0536 4.72301 72.0911 4.69901 72.1224 4.68197C72.1881 4.6451 72.2443 4.60573 72.3069 4.56757C72.393 4.58874 72.4885 4.60426 72.5589 4.6326C72.6485 4.66594 72.7309 4.66406 72.8511 4.6518C75.1485 4.43493 77.4491 4.22206 79.7464 4.00383C79.9426 3.98576 80.0295 4.04094 80.1633 4.06784C80.208 4.07771 80.2526 4.0903 80.3002 4.09193C80.351 4.0935 80.4047 4.08412 80.4553 4.07889C82.1799 3.91722 83.9046 3.7569 85.6292 3.59522C85.8571 3.57372 85.8571 3.57372 86.1982 3.65033C86.2396 3.66027 86.2938 3.67129 86.3381 3.6662C87.1229 3.59529 87.9076 3.52031 88.6893 3.44811C88.7905 3.439 88.8767 3.45881 88.9693 3.48801C89.1514 3.5451 89.164 3.54482 89.2951 3.45203C89.3575 3.40843 89.4234 3.38106 89.5278 3.36644C89.6416 3.35025 89.7336 3.35225 89.8229 3.37472C89.9505 3.40584 90.0438 3.46086 90.2368 3.4415C91.0721 3.35856 91.9108 3.28643 92.7429 3.2022C92.9327 3.18291 93.0352 3.22685 93.1628 3.25797C93.2075 3.2692 93.2491 3.2873 93.2967 3.2903C93.3443 3.2933 93.4012 3.28248 93.4518 3.27724C94.4961 3.18002 95.5435 3.08411 96.5845 2.98152C96.7807 2.96209 96.8676 3.01862 97.0014 3.04551C97.0461 3.05538 97.0972 3.07328 97.1383 3.06963C97.765 3.0132 98.3947 2.95396 99.0213 2.89482C99.246 2.87338 99.2459 2.87474 99.5902 2.94992C99.6316 2.95987 99.6858 2.96952 99.7301 2.9658C100.461 2.89883 101.195 2.83043 101.926 2.76211C102.151 2.74067 102.151 2.74067 102.802 2.79663C102.85 2.80099 102.901 2.808 102.948 2.8042C103.784 2.7267 104.622 2.65048 105.458 2.56889C105.625 2.55283 105.765 2.56054 105.887 2.60676C105.973 2.64018 106.062 2.65313 106.167 2.64259C107.107 2.55455 108.05 2.46916 108.986 2.37711C109.167 2.3594 109.284 2.38665 109.412 2.42321C109.454 2.43587 109.495 2.45398 109.543 2.45834C109.591 2.4627 109.644 2.45603 109.695 2.45079C110.635 2.36275 111.578 2.27872 112.515 2.18531C112.704 2.16603 112.807 2.20996 112.934 2.24108C112.979 2.25231 113.027 2.27572 113.065 2.27349C113.432 2.24201 113.8 2.21326 114.163 2.17097C114.359 2.14747 114.446 2.20807 114.58 2.23497C114.625 2.24348 114.676 2.26274 114.717 2.25908C115.502 2.18817 116.287 2.11454 117.068 2.03962C117.179 2.02894 117.262 2.0393 117.351 2.07264C117.47 2.11758 117.606 2.13352 117.777 2.11467C118.141 2.0751 118.508 2.04499 118.875 2.01079C119.091 1.99093 119.091 1.99094 119.751 2.04667C119.799 2.05103 119.85 2.05803 119.897 2.05423C120.524 1.99645 121.154 1.93995 121.777 1.87815C121.945 1.86073 122.085 1.8698 122.206 1.91602C122.293 1.94944 122.378 1.96246 122.486 1.95185C123.062 1.89794 123.635 1.84409 124.211 1.79018C124.42 1.77046 124.628 1.73986 124.837 1.7351C124.99 1.733 125.102 1.79576 125.239 1.82531C125.277 1.83396 125.34 1.82165 125.391 1.81778C126.122 1.74945 126.856 1.68513 127.584 1.61008C127.774 1.5908 127.876 1.63473 128.004 1.66585C128.049 1.67708 128.097 1.70048 128.135 1.69826C128.397 1.67732 128.657 1.65101 128.919 1.62735C129.233 1.59845 129.549 1.57493 129.859 1.53794C130.112 1.5077 130.21 1.62386 130.413 1.62333C130.568 1.62388 130.726 1.59716 130.881 1.58275C131.195 1.55385 131.508 1.52224 131.821 1.49607C131.932 1.48675 132.017 1.46303 132.051 1.41327C132.057 1.40361 132.003 1.38444 131.968 1.37299C131.543 1.24385 131.543 1.24385 131.119 1.28342C130.856 1.30844 130.597 1.33339 130.334 1.3557C130.29 1.35942 130.239 1.3497 130.194 1.34255C130.067 1.32231 130.079 1.29482 130.185 1.24341C130.292 1.192 130.373 1.13029 130.464 1.07243C130.594 1.10484 130.722 1.13731 130.853 1.16971C130.957 1.16054 131.062 1.15001 131.166 1.14083C131.688 1.09358 132.21 1.04497 132.733 1.00044C132.771 0.996857 132.819 1.02298 132.864 1.03557C132.991 1.07213 133.106 1.10353 133.29 1.08439C133.758 1.03429 134.229 0.99499 134.698 0.950325C134.903 0.930681 134.903 0.930682 135.267 1.00679C135.308 1.01538 135.362 1.02503 135.407 1.0213C135.878 0.979287 136.346 0.934627 136.818 0.89125C136.919 0.882144 137.018 0.89759 137.092 0.935374C137.121 0.951047 137.115 0.978387 137.241 1.1987C137.619 1.37108 137.875 1.34622 138.135 1.32399C138.245 1.31467 138.343 1.30563 138.416 1.27677C138.453 1.26094 138.5 1.2381 138.5 1.22042C138.5 1.20682 138.43 1.18663 138.385 1.18492C138.071 1.16486 137.774 1.22876 137.467 1.24799C137.324 1.25667 137.2 1.21188 137.172 1.13493C137.166 1.11331 137.156 1.09041 137.146 1.06887C137.136 1.04732 137.129 1.02435 137.119 1.0028C136.995 0.99881 136.923 1.02494 136.87 1.07241C136.826 1.1115 136.764 1.15647 136.679 1.17881C136.594 1.20252 136.476 1.20111 136.372 1.21029C136.271 1.21939 136.16 1.23959 136.065 1.23224C135.969 1.22352 135.892 1.1858 135.803 1.16333C135.762 1.15203 135.711 1.13551 135.669 1.13917C135.305 1.17057 134.945 1.2019 134.584 1.24003C134.394 1.26068 134.298 1.20572 134.177 1.1731C134.081 1.14806 133.986 1.15702 133.971 1.21994C133.934 1.37048 134.081 1.42973 134.404 1.39382C134.669 1.36328 134.91 1.35374 135.121 1.44147C135.15 1.45306 135.217 1.45698 135.258 1.45333C135.518 1.4311 135.774 1.40486 136.033 1.38263C136.081 1.37883 136.132 1.38311 136.176 1.38754C136.825 1.44629 136.825 1.44765 137.043 1.42636C137.147 1.41582 137.248 1.40672 137.234 1.2002C137.429 0.973975 137.745 0.951812 138.052 0.912182C138.251 0.887241 138.338 0.945143 138.469 0.97347C138.514 0.983342 138.562 1.00402 138.603 1.00036C139.283 0.939987 139.96 0.876961 140.638 0.81122C140.751 0.800466 140.834 0.806755 140.924 0.840099C141.039 0.882387 141.166 0.908072 141.346 0.887644C141.707 0.846789 142.074 0.818035 142.441 0.782476C142.628 0.764625 142.628 0.764611 143.007 0.84036C143.049 0.848944 143.103 0.858601 143.147 0.854872C143.514 0.823393 143.878 0.786554 144.242 0.753787C144.343 0.744681 144.436 0.761631 144.516 0.796551C144.596 0.831472 144.691 0.848349 144.789 0.839315C145.157 0.806476 145.52 0.770998 145.884 0.738231C145.929 0.734502 145.983 0.742797 146.024 0.751381C146.413 0.826915 146.413 0.826901 146.59 0.809265C146.849 0.782956 147.115 0.767394 147.372 0.734357C147.621 0.701464 147.753 0.777387 147.925 0.817018C148.394 0.775074 148.865 0.738504 149.33 0.689831C149.52 0.669188 149.623 0.711759 149.75 0.744239C149.795 0.75547 149.84 0.780306 149.881 0.77801C150.039 0.768967 150.194 0.750477 150.35 0.736066C150.505 0.721655 150.663 0.707174 150.818 0.692763C150.996 0.72817 151.116 0.817987 151.369 0.780941C151.52 0.758442 151.682 0.750687 151.837 0.736276C151.992 0.721865 152.15 0.707384 152.305 0.692973C152.41 0.683795 152.517 0.677259 152.618 0.662713C152.805 0.638061 152.898 0.702622 153.032 0.729518C153.077 0.738029 153.128 0.753187 153.169 0.74953C153.482 0.723357 153.799 0.699833 154.106 0.661563C154.343 0.631678 154.505 0.66881 154.675 0.722114C154.71 0.733562 154.77 0.738993 154.815 0.735264C155.182 0.703785 155.546 0.666931 155.91 0.634164C156.008 0.62513 156.103 0.644728 156.183 0.678288C156.267 0.713136 156.359 0.728742 156.46 0.719636C156.824 0.686869 157.191 0.651301 157.555 0.618534C157.599 0.614805 157.654 0.624463 157.695 0.634407C158.052 0.710661 158.052 0.712022 158.261 0.690946C158.311 0.685714 158.365 0.681758 158.416 0.676525C158.675 0.651576 158.945 0.638661 159.197 0.600255C159.488 0.556905 159.702 0.598322 159.909 0.671162C160.169 0.648934 160.435 0.633359 160.688 0.600394C160.878 0.57567 160.98 0.625043 161.108 0.656163C161.153 0.667395 161.201 0.690796 161.239 0.687211C161.606 0.655733 161.973 0.626981 162.333 0.584766C162.53 0.561258 162.617 0.620504 162.75 0.648759C162.795 0.658631 162.843 0.676601 162.884 0.672944C163.093 0.657309 163.302 0.636223 163.511 0.616507C163.754 0.593279 163.754 0.594639 164.08 0.670253C164.233 0.706237 164.384 0.671494 164.533 0.658588C164.691 0.644105 164.84 0.632562 164.968 0.685442C165.048 0.719002 165.144 0.738601 165.242 0.730928C165.451 0.713932 165.663 0.69687 165.868 0.671786C166.033 0.651719 166.176 0.659352 166.297 0.706936C166.384 0.740352 166.473 0.756025 166.577 0.745487C167.046 0.702183 167.517 0.657434 167.985 0.615489C168.027 0.611832 168.084 0.622781 168.122 0.634157C168.212 0.65662 168.298 0.68187 168.384 0.707126C168.59 0.690202 168.802 0.679948 169.004 0.656297C169.219 0.632356 169.416 0.621087 169.586 0.692071C169.621 0.7076 169.672 0.729556 169.713 0.727259C169.872 0.718216 170.027 0.701089 170.182 0.686678C170.337 0.672267 170.495 0.657786 170.65 0.643375C170.831 0.67327 170.948 0.768597 171.201 0.731552C171.352 0.709053 171.514 0.701298 171.669 0.686887C171.824 0.672476 171.982 0.656635 172.137 0.643584C172.188 0.639711 172.245 0.63161 172.289 0.636041C172.337 0.640401 172.379 0.65851 172.42 0.671174C172.548 0.707733 172.666 0.744513 172.846 0.717285C172.998 0.694786 173.159 0.68703 173.314 0.671259C173.527 0.651471 173.527 0.651474 173.88 0.72916C174.024 0.761279 174.184 0.711365 174.321 0.738188C174.414 0.7565 174.494 0.788692 174.583 0.809796C174.621 0.818452 174.682 0.821158 174.726 0.817429C174.935 0.800433 175.147 0.783371 175.352 0.758287C175.52 0.738147 175.66 0.751296 175.778 0.797592C175.865 0.831008 175.951 0.844032 176.058 0.833422C176.58 0.783452 177.103 0.738911 177.621 0.684933C177.799 0.665937 177.942 0.685823 178.041 0.732551C178.211 0.813056 178.447 0.70837 178.622 0.77241C178.731 0.812122 178.84 0.858637 179.036 0.833769C179.397 0.790194 179.764 0.762785 180.128 0.730018C180.259 0.763786 180.389 0.797561 180.523 0.831257C180.732 0.811541 180.941 0.791816 181.15 0.77346C181.305 0.759049 181.463 0.743208 181.618 0.730157C181.669 0.726284 181.723 0.719617 181.77 0.725337C181.818 0.731056 181.857 0.747875 181.901 0.760467C182.122 0.822139 182.122 0.823507 182.482 0.788092C182.637 0.772321 182.786 0.760773 182.917 0.812222C183.039 0.859806 183.182 0.866079 183.346 0.847372C183.656 0.81311 183.97 0.785576 184.286 0.75933C184.384 0.750296 184.477 0.771329 184.56 0.804818C184.685 0.85777 184.837 0.848872 184.992 0.830381C185.197 0.806657 185.4 0.78301 185.576 0.85521C185.611 0.870739 185.665 0.892621 185.703 0.890396C185.963 0.873608 186.226 0.859474 186.479 0.827869C186.732 0.796263 186.858 0.877774 187.033 0.914614C187.292 0.891025 187.555 0.867362 187.814 0.843773C187.865 0.83854 187.925 0.824938 187.97 0.83073C188.157 0.85504 188.267 0.954592 188.523 0.917475C188.672 0.896408 188.833 0.8873 188.989 0.879689C189.03 0.877393 189.084 0.899276 189.113 0.916309C189.129 0.925469 189.114 0.951668 189.095 0.965702C189.039 1.00508 188.97 1.04204 188.92 1.08263C188.914 1.08822 188.975 1.11132 189.01 1.12141C189.096 1.14394 189.194 1.13764 189.308 1.12416C189.406 1.11241 189.508 1.12914 189.579 1.16836C189.608 1.18403 189.599 1.21145 189.541 1.30258C189.542 1.36922 189.608 1.33778 189.629 1.29376C189.663 1.2304 189.596 1.21152 189.47 1.2484C189.382 1.2749 189.338 1.31127 189.361 1.33933C189.374 1.354 189.434 1.37167 189.541 1.30258C189.818 1.21464 190.027 1.19493 190.236 1.17521C190.289 1.16991 190.352 1.15486 190.391 1.16215C190.528 1.19169 190.655 1.22826 190.789 1.26196C190.941 1.25034 191.083 1.22669 191.234 1.27634C191.445 1.34639 191.454 1.33937 191.656 1.3198C191.761 1.30926 191.865 1.3001 191.97 1.29092C192.074 1.28174 192.157 1.30027 192.25 1.32946C192.438 1.38913 192.454 1.38876 192.576 1.29891C192.647 1.24421 192.698 1.22538 192.79 1.24777C193.096 1.32382 193.1 1.32918 193.359 1.29879C193.574 1.27349 193.777 1.26344 193.937 1.33736C194.046 1.38932 194.081 1.37629 194.165 1.31722C194.39 1.16106 194.494 1.1614 194.925 1.26048C195.125 1.30762 195.33 1.24718 195.533 1.23577C195.704 1.22644 195.825 1.25634 195.84 1.34173C195.851 1.39456 195.88 1.432 195.994 1.44709C196.039 1.45288 196.093 1.46117 196.137 1.45744C196.4 1.43514 196.66 1.41019 196.922 1.38517C197.055 1.37262 197.127 1.30705 197.099 1.2233C197.069 1.13419 197.119 1.10038 197.308 1.07022C197.422 1.05267 197.514 1.05331 197.606 1.0757C197.709 1.10059 197.681 1.12572 197.593 1.1767C197.383 1.30121 197.41 1.37407 197.685 1.45084C197.781 1.47724 197.857 1.50136 197.88 1.54302C197.894 1.56449 197.882 1.59334 197.911 1.60901C198.068 1.6966 198.285 1.75019 198.527 1.78824C198.757 1.74626 198.917 1.80385 199.096 1.84877C199.236 1.88368 199.4 1.84731 199.549 1.83032C199.716 1.81154 199.856 1.81924 199.978 1.86683C200.064 1.90024 200.153 1.91454 200.258 1.90537C200.467 1.88565 200.679 1.87131 200.884 1.84486C201.061 1.82179 201.195 1.84596 201.307 1.88968C201.448 1.945 201.602 1.90202 201.748 1.90686C201.945 1.91192 202.046 2.03072 202.302 1.99225C202.454 1.96975 202.612 1.95935 202.771 1.9503C202.812 1.94801 202.863 1.96998 202.898 1.98551C203.068 2.05649 203.264 2.04794 203.479 2.02128C203.628 2.00294 203.773 1.98603 203.92 2.0344C204.163 2.11596 204.431 2.18608 204.687 2.26056C204.723 2.32233 204.699 2.39634 204.881 2.42895C204.976 2.44583 205.066 2.47238 205.14 2.50201C205.229 2.53671 205.312 2.54436 205.426 2.53225C205.631 2.50852 205.847 2.49953 206.049 2.47044C206.235 2.44443 206.354 2.48666 206.469 2.52623C206.562 2.55814 206.648 2.5725 206.758 2.5455C206.871 2.51979 206.954 2.53287 207.047 2.5675C207.178 2.61487 207.187 2.60922 207.619 2.61438C207.663 2.61473 207.718 2.6339 207.743 2.651C207.756 2.66024 207.728 2.6881 207.707 2.70221C207.678 2.71917 207.634 2.73921 207.593 2.74423C207.125 2.79026 206.654 2.83227 206.185 2.8783C206.138 2.88346 206.087 2.89414 206.053 2.90853C206.015 2.92436 205.968 2.94583 205.968 2.96487C205.969 2.97847 206.032 2.99335 206.077 3.00187C206.217 3.02998 206.381 2.97863 206.518 3.01089C206.611 3.03193 206.687 3.06283 206.78 3.0825C206.818 3.09116 206.878 3.08843 206.926 3.08463C207.084 3.07151 207.239 3.05438 207.397 3.04262C207.442 3.04025 207.493 3.0527 207.534 3.06265C207.84 3.13733 207.84 3.13733 208.103 3.11367C208.207 3.10449 208.318 3.08157 208.416 3.08749C208.512 3.09349 208.595 3.12834 208.681 3.14952C208.86 3.19444 209.029 3.23823 209.044 3.34402C209.051 3.38468 209.156 3.41766 209.261 3.418C209.363 3.41841 209.47 3.40102 209.574 3.39048C209.821 3.36854 209.821 3.36854 210.143 3.44422C210.233 3.46533 210.328 3.46588 210.442 3.44969C210.486 3.44324 210.54 3.44746 210.588 3.45318C210.743 3.47005 210.744 3.49589 210.644 3.54715C210.503 3.62248 210.515 3.62899 210.916 3.68112C211.069 3.70078 211.187 3.74164 211.315 3.77684C211.522 3.83336 211.519 3.83342 211.385 3.91676C211.354 3.93516 211.325 3.95486 211.294 3.97462C211.203 4.02975 211.132 4.08853 210.942 4.09829C210.733 4.10848 210.524 4.13501 210.315 4.15472C210.113 4.1743 210.06 4.20815 210.081 4.3002C210.105 4.41122 210.147 4.42253 210.511 4.41288C210.616 4.41051 210.708 4.41929 210.788 4.45421C210.751 4.4986 210.682 4.53419 210.581 4.54465C210.322 4.57096 210.059 4.59463 209.799 4.61822C209.591 4.63793 209.382 4.65764 209.173 4.67736C209.043 4.68983 208.962 4.76244 208.999 4.84053C209.019 4.88498 209.036 4.9295 209.053 4.97402C209.09 5.06299 209.157 5.0846 209.369 5.0757C209.423 5.07311 209.474 5.06107 209.524 5.06264C209.731 5.06747 209.831 5.17812 210.078 5.14938C210.284 5.12566 210.499 5.11668 210.701 5.08759C210.888 5.06158 210.994 5.10817 211.124 5.14194C211.169 5.15317 211.217 5.17792 211.255 5.17569C211.518 5.15475 211.781 5.13382 212.037 5.10215C212.157 5.08853 212.23 5.09503 212.326 5.12551C212.556 5.1992 212.562 5.19498 212.901 5.16279C213.148 5.13813 213.151 5.14078 213.47 5.21653C213.559 5.23764 213.654 5.23547 213.768 5.222C213.917 5.20501 214.071 5.17972 214.227 5.19659C214.275 5.20095 214.336 5.21591 214.352 5.23323C214.362 5.24525 214.318 5.27618 214.28 5.28657C214.003 5.36363 213.676 5.35881 213.372 5.39429C213.278 5.40461 213.182 5.38093 213.102 5.34601C213.018 5.31116 212.929 5.29823 212.822 5.30748C212.613 5.32719 212.401 5.34153 212.195 5.36798C212.018 5.39105 211.894 5.36258 211.769 5.32323C211.728 5.31056 211.68 5.2858 211.638 5.2881C211.17 5.32596 210.698 5.3639 210.233 5.41258C210.047 5.43315 209.938 5.39208 209.81 5.35824C209.766 5.34701 209.721 5.32217 209.679 5.32447C209.521 5.33351 209.366 5.352 209.208 5.36648C208.632 5.4204 208.059 5.47424 207.483 5.52544C207.445 5.52902 207.397 5.50154 207.352 5.49031C207.266 5.46777 207.177 5.44666 207.088 5.42556C206.929 5.44004 206.774 5.45717 206.616 5.46894C206.502 5.47697 206.401 5.49832 206.387 5.55037C206.378 5.58458 206.483 5.61348 206.594 5.60824C206.702 5.60307 206.809 5.5843 206.898 5.59996C207.341 5.67699 207.341 5.67835 207.616 5.65441C207.857 5.63261 207.831 5.61958 208.045 5.68956C208.138 5.72011 208.221 5.73728 208.325 5.72674C208.585 5.7018 208.847 5.67677 209.11 5.65447C209.151 5.65081 209.205 5.6632 209.247 5.67314C209.559 5.74768 209.559 5.7504 209.816 5.72416C210.151 5.69204 210.163 5.68495 210.39 5.7628C210.547 5.81639 210.689 5.77371 210.838 5.7676C211.01 5.81675 211.198 5.86011 211.355 5.91642C211.54 5.98297 211.733 5.96632 211.942 5.94116C212.097 5.92267 212.249 5.91378 212.377 5.96666C212.499 6.0156 212.645 6.01774 212.809 6.00039C212.958 5.98476 213.11 5.95545 213.266 5.98184C213.307 5.98907 213.371 6.00804 213.368 6.02035C213.365 6.03946 213.325 6.0676 213.284 6.0767C212.993 6.13909 212.673 6.145 212.366 6.17783C212.325 6.18285 212.271 6.16911 212.229 6.15916C212.14 6.1367 212.054 6.11009 211.968 6.0862C211.813 6.09789 211.654 6.1042 211.502 6.12398C211.385 6.13889 211.297 6.13956 211.21 6.10886C211.13 6.08074 211.044 6.04596 210.949 6.0386C210.853 6.03124 210.743 6.05416 210.638 6.0647C210.534 6.07524 210.414 6.07389 210.332 6.09752C210.25 6.12116 210.2 6.16992 210.147 6.20922C210.088 6.25276 210.006 6.26824 209.885 6.27506C209.774 6.28166 209.686 6.27823 209.602 6.24202C209.567 6.22649 209.519 6.21533 209.471 6.20553C209.427 6.19702 209.376 6.1832 209.335 6.18686C208.863 6.22888 208.395 6.27356 207.923 6.31693C207.689 6.33858 207.692 6.3385 207.202 6.26935C207.158 6.26356 207.104 6.25527 207.059 6.259C206.797 6.2813 206.537 6.30625 206.275 6.33127C206.009 6.35636 206.012 6.35357 205.557 6.27819C205.474 6.26374 205.354 6.28824 205.256 6.28776C205.049 6.28564 204.945 6.1737 204.705 6.20094C204.499 6.22466 204.284 6.23364 204.078 6.26281C203.892 6.28882 203.783 6.24367 203.655 6.20983C203.611 6.1986 203.563 6.17248 203.525 6.17606C203.053 6.21672 202.585 6.26138 201.957 6.27973C201.802 6.28326 201.872 6.31024 201.974 6.31745C202.12 6.3291 202.167 6.29946 202.087 6.24686C202.029 6.21007 201.946 6.19289 201.879 6.20392C201.845 6.21016 201.801 6.23702 201.957 6.27973C202.123 6.32766 202.114 6.35644 202.143 6.37211C202.214 6.40996 202.313 6.42405 202.414 6.4163C202.572 6.40318 202.727 6.38605 202.885 6.37429C202.93 6.37056 202.984 6.37886 203.025 6.3888C203.376 6.4652 203.379 6.47057 203.749 6.4295C203.866 6.41732 203.952 6.41537 204.044 6.43912C204.172 6.4716 204.265 6.52935 204.458 6.50591C204.714 6.47423 204.977 6.4533 205.24 6.43236C205.281 6.42871 205.326 6.45218 205.374 6.46198C205.504 6.49167 205.601 6.55071 205.794 6.52047C205.942 6.49668 206.104 6.48756 206.262 6.47987C206.303 6.47758 206.367 6.4979 206.387 6.51515C206.425 6.54557 206.379 6.58338 206.272 6.61167C206.227 6.62356 206.167 6.6222 206.116 6.62743C205.908 6.64715 205.699 6.66822 205.49 6.68521C205.379 6.69454 205.275 6.71732 205.264 6.76793C205.255 6.80215 205.37 6.82947 205.477 6.8243C205.636 6.81662 205.794 6.80214 205.946 6.781C206.214 6.74495 206.449 6.74778 206.67 6.82849C206.826 6.8848 206.816 6.86327 206.985 7.03633C207.028 7.08027 207.151 7.08154 207.259 7.07637C207.519 7.06366 207.64 7.08133 207.618 7.124C207.591 7.17633 207.5 7.19473 207.382 7.20419C207.174 7.21983 206.965 7.24227 206.756 7.26199C206.705 7.26722 206.648 7.27667 206.601 7.27503C206.553 7.27339 206.508 7.25808 206.467 7.24678C206.378 7.22296 206.301 7.18524 206.205 7.17788C206.11 7.17052 206 7.19344 205.895 7.20398C205.791 7.21316 205.68 7.23608 205.585 7.22872C205.49 7.22137 205.409 7.18238 205.323 7.15984C205.282 7.14854 205.231 7.13063 205.189 7.13293C204.981 7.14857 204.772 7.17101 204.563 7.18937C204.307 7.21288 204.307 7.21288 203.994 7.13562C203.905 7.11316 203.813 7.11661 203.696 7.13016C203.443 7.15768 203.439 7.15367 202.975 7.0853C202.93 7.07815 202.876 7.06986 202.832 7.07495C202.36 7.11697 201.892 7.16163 201.424 7.20493C201.022 7.24264 201.022 7.24265 200.803 7.3837C200.641 7.48809 200.637 7.48816 200.8 7.53073C200.931 7.56585 201.049 7.61895 201.193 7.6361C201.326 7.65212 201.49 7.58717 201.637 7.64642C201.71 7.67605 201.806 7.70789 201.898 7.71124C202.044 7.71473 202.199 7.67175 202.34 7.72842C202.41 7.75675 202.515 7.78567 202.604 7.78501C202.759 7.7842 202.917 7.75883 203.073 7.74578C203.12 7.74198 203.174 7.74075 203.218 7.74655C203.266 7.75363 203.308 7.76901 203.349 7.78168C203.477 7.82504 203.614 7.84369 203.778 7.81683C204.047 7.77262 204.288 7.78619 204.499 7.86847C204.528 7.88007 204.598 7.87985 204.642 7.8734C204.756 7.85721 204.854 7.85361 204.94 7.8775C204.975 7.88759 205.027 7.90547 205.02 7.91785C205.011 7.93847 204.974 7.96654 204.933 7.97428C204.636 8.02729 204.316 8.04002 204.009 8.07149C203.968 8.07514 203.917 8.05861 203.876 8.0473C203.786 8.02484 203.709 7.98578 203.614 7.97842C203.519 7.97106 203.408 7.99126 203.304 8.00044C203.199 8.00961 203.089 8.03254 202.993 8.02654C202.898 8.01918 202.809 7.98719 202.732 7.959C202.642 7.92702 202.557 7.92489 202.44 7.94116C202.288 7.9623 202.129 7.96861 201.974 7.98167C201.888 7.95777 201.802 7.93114 201.713 7.90868C201.671 7.89738 201.62 7.88357 201.576 7.88594C201.367 7.90158 201.158 7.92265 200.949 7.94236C200.74 7.96208 200.74 7.9621 200.383 7.88584C200.342 7.87726 200.288 7.8676 200.243 7.87133C199.981 7.89363 199.721 7.91992 199.459 7.94223C199.357 7.95133 199.265 7.93438 199.182 7.89953C199.102 7.86461 199.006 7.84637 198.908 7.85541C198.49 7.89348 198.072 7.9302 197.655 7.97371C197.487 7.99113 197.344 7.98213 197.229 7.93577C197.095 7.88303 196.946 7.90002 196.791 7.91443C196.44 7.94963 196.437 7.94833 196.21 7.88408C196.165 7.87149 196.12 7.84665 196.079 7.84895C195.715 7.87764 195.348 7.90504 194.987 7.9459C194.797 7.9679 194.695 7.92261 194.567 7.89013C194.523 7.87889 194.475 7.85413 194.437 7.85772C194.174 7.87866 193.911 7.89824 193.655 7.93128C193.399 7.96432 193.298 7.84007 193.104 7.84583C192.841 7.85317 192.582 7.89036 192.323 7.91531C192.114 7.93502 191.905 7.95473 191.696 7.97445C191.487 7.99416 191.278 8.01115 191.069 8.03359C190.959 8.04563 190.876 8.03526 190.783 8.00335C190.665 7.96113 190.525 7.92896 190.397 7.89104C190.202 7.83695 190.202 7.83694 189.968 7.85859C189.918 7.86383 189.864 7.86776 189.813 7.873C189.43 7.91164 189.43 7.90893 188.94 7.83434C188.918 7.83076 188.861 7.84703 188.839 7.85841C188.773 7.89528 188.714 7.93472 188.655 7.97282C188.569 7.953 188.464 7.94314 188.406 7.91316C188.242 7.82843 187.992 7.95523 187.825 7.87194C187.764 7.84066 187.658 7.81448 187.563 7.80848C187.465 7.80255 187.354 7.82412 187.253 7.83458C186.99 7.86096 186.99 7.85961 186.768 7.98577C186.655 8.04821 186.49 8.04106 186.342 8.05805C186.187 8.07654 186.038 8.08809 185.907 8.03528C185.788 7.98763 185.645 7.97863 185.478 7.99877C185.272 8.02386 185.06 8.04092 184.851 8.05791C184.807 8.06164 184.753 8.05607 184.708 8.04892C184.221 7.9797 184.221 7.97835 183.987 8.00136C183.883 8.0119 183.775 8.01706 183.674 8.0316C183.503 8.05725 183.373 8.03165 183.248 7.99093C183.207 7.97827 183.158 7.95352 183.117 7.95582C182.908 7.96738 182.702 7.9843 182.497 8.00122C182.338 8.01434 182.18 8.02339 182.028 8.04588C181.776 8.08293 181.65 7.99732 181.475 7.96048C181.215 7.98407 180.952 8.0023 180.693 8.03269C180.573 8.0463 180.493 8.04403 180.401 8.01348C180.283 7.97535 180.174 7.93156 179.984 7.95628C179.731 7.98924 179.465 8.00482 179.206 8.02705C179.03 7.98885 178.901 7.90603 178.652 7.94301C178.5 7.96551 178.339 7.97326 178.183 7.98767C177.975 8.00739 177.766 8.02575 177.557 8.04683C177.332 8.06827 177.335 8.06412 176.988 7.99173C176.787 7.94866 176.582 8.00639 176.38 8.01916C176.221 8.02956 176.144 8.09392 176.184 8.1733C176.223 8.25268 176.139 8.31719 175.994 8.33138C175.63 8.36551 175.263 8.40106 174.899 8.43247C174.854 8.43619 174.8 8.4279 174.759 8.41931C174.367 8.34249 174.367 8.34387 174.193 8.36007C173.934 8.38638 173.668 8.4033 173.411 8.43498C173.234 8.45669 173.104 8.4311 172.989 8.38745C172.899 8.3541 172.816 8.34782 172.703 8.35857C171.449 8.47823 170.196 8.59108 168.946 8.71338C168.76 8.73123 168.651 8.69425 168.523 8.66041C168.479 8.64918 168.437 8.62427 168.393 8.62528C168.288 8.62765 168.184 8.64228 168.079 8.65281C167.611 8.69612 167.143 8.74622 166.671 8.78143C166.472 8.79685 166.419 8.86065 166.335 8.91428C166.269 8.95523 166.193 8.97327 166.076 8.98138C165.962 8.98941 165.88 8.98448 165.79 8.95114C165.675 8.90749 165.544 8.88188 165.367 8.90495C165.162 8.9314 164.953 8.94569 164.741 8.96547C164.633 8.97472 164.551 9.00107 164.518 9.05083C164.511 9.05913 164.578 9.07803 164.617 9.0894C164.744 9.12732 164.866 9.17219 165.009 9.1975C165.156 9.22275 165.313 9.1865 165.465 9.17488C165.519 9.17093 165.57 9.16163 165.621 9.16183C165.668 9.16211 165.725 9.16762 165.761 9.17907C165.927 9.23652 166.102 9.27472 166.329 9.23281C166.526 9.24603 166.63 9.3566 166.88 9.32099C167.032 9.29985 167.19 9.28809 167.348 9.27769C167.39 9.27539 167.435 9.29886 167.479 9.3101C167.607 9.34121 167.709 9.39331 167.899 9.36586C168.101 9.33677 168.317 9.3278 168.522 9.30407C168.636 9.2906 168.719 9.29825 168.808 9.33159C168.924 9.37388 169.054 9.40491 169.231 9.37912C169.383 9.35662 169.545 9.34886 169.7 9.33309C169.902 9.31352 169.902 9.31488 170.265 9.39099C170.307 9.39958 170.361 9.40923 170.405 9.4055C170.668 9.3832 170.927 9.35689 171.19 9.33459C171.291 9.32549 171.39 9.34093 171.461 9.37879C171.49 9.39446 171.481 9.42189 171.491 9.4448C170.969 9.49341 170.446 9.53657 169.928 9.59327C169.732 9.61542 169.641 9.56167 169.511 9.53334C169.466 9.52347 169.418 9.50144 169.377 9.50509C169.01 9.53657 168.646 9.56933 168.282 9.60754C168.168 9.61965 168.083 9.61615 167.996 9.57866C167.775 9.4789 167.51 9.54208 167.263 9.56266C167.073 9.57786 167.014 9.6214 167.038 9.71066C167.069 9.8161 167.184 9.84615 167.475 9.82048C167.58 9.8113 167.684 9.7994 167.788 9.79158C167.89 9.78383 167.982 9.79942 168.065 9.83427C168.145 9.86919 168.241 9.88607 168.339 9.8784C168.548 9.8614 168.76 9.84434 168.962 9.81933C169.13 9.79919 169.27 9.80961 169.388 9.85727C169.52 9.91008 169.671 9.89438 169.823 9.87868C170.178 9.84341 170.181 9.8447 170.404 9.90766C170.449 9.92026 170.494 9.94509 170.535 9.94279C170.899 9.91411 171.266 9.88807 171.624 9.84728C171.81 9.82671 171.919 9.86778 172.044 9.90033C172.088 9.91156 172.133 9.93776 172.174 9.9341C172.437 9.91316 172.7 9.89221 172.956 9.86054C173.076 9.84556 173.149 9.85206 173.248 9.88246C173.485 9.95738 173.491 9.95451 173.823 9.92111C173.924 9.91064 174.035 9.89316 174.13 9.90188C174.226 9.9106 174.303 9.94832 174.392 9.97078C174.433 9.98073 174.485 9.99452 174.529 9.9908C174.738 9.97516 174.947 9.95409 175.155 9.93438C175.352 9.91495 175.352 9.91631 175.721 9.99228C175.871 10.0243 176.026 9.99079 176.174 9.97653C176.336 9.96061 176.482 9.95731 176.606 10.0075C176.731 10.0578 176.88 10.0517 177.038 10.0372C177.187 10.0229 177.339 9.98954 177.492 10.0228C177.842 10.0992 177.842 10.1005 178.057 10.0793C178.371 10.0491 178.681 10.0202 178.997 9.99264C179.038 9.98899 179.093 10.0041 179.134 10.014C179.223 10.0365 179.3 10.0756 179.396 10.0829C179.491 10.0916 179.602 10.0728 179.703 10.0623C180.029 10.0291 180.051 10.019 180.272 10.1038C180.457 10.1731 180.683 10.0618 180.856 10.1423C180.955 10.1876 181.089 10.2227 181.273 10.1954C181.424 10.1729 181.583 10.1638 181.741 10.1494C181.991 10.126 181.991 10.1274 182.31 10.2018C182.351 10.2117 182.405 10.2241 182.447 10.2204C182.655 10.2048 182.868 10.1904 183.07 10.1613C183.307 10.1274 183.46 10.1756 183.639 10.2219C183.779 10.2582 183.943 10.2218 184.092 10.2048C184.253 10.1875 184.399 10.1883 184.521 10.2386C184.649 10.2901 184.798 10.2799 184.956 10.2654C185.105 10.2525 185.256 10.2178 185.409 10.2524C185.738 10.3293 185.738 10.3293 185.975 10.3076C186.184 10.2879 186.393 10.2668 186.602 10.2512C186.643 10.2475 186.694 10.264 186.735 10.2753C186.825 10.2978 186.902 10.3369 186.997 10.3442C187.092 10.3516 187.203 10.3314 187.307 10.3222C187.412 10.313 187.522 10.2901 187.617 10.2961C187.713 10.3021 187.802 10.3341 187.879 10.3623C187.969 10.3956 188.051 10.3978 188.171 10.3815C188.323 10.3603 188.481 10.3527 188.636 10.3396C188.723 10.3635 188.812 10.3873 188.895 10.414C188.981 10.442 189.073 10.4372 189.19 10.425C189.579 10.3835 189.583 10.3875 189.911 10.4644C190.061 10.4991 190.216 10.4643 190.364 10.4514C190.523 10.4369 190.671 10.4281 190.796 10.4797C190.918 10.5286 191.067 10.532 191.225 10.5121C191.326 10.4989 191.434 10.4897 191.538 10.4832C191.586 10.4808 191.643 10.4849 191.678 10.495C191.847 10.5483 192.014 10.5962 192.244 10.5543C192.447 10.5605 192.551 10.6698 192.795 10.6424C193 10.6187 193.216 10.6097 193.418 10.5806C193.605 10.5546 193.739 10.5897 193.835 10.6351C194.008 10.7156 194.246 10.5958 194.419 10.6749C194.519 10.7203 194.646 10.7555 194.836 10.7308C195.045 10.7042 195.112 10.7313 195.174 10.8156C195.21 10.8638 195.205 10.9034 195.142 10.9429C195.08 10.9838 195.01 10.9786 194.907 10.936C194.789 10.8883 194.649 10.882 194.481 10.8967C194.317 10.9113 194.214 10.8429 194.077 10.8188C193.94 10.7933 193.779 10.8446 193.636 10.8111C193.298 10.7331 193.298 10.7331 193.07 10.7546C192.915 10.769 192.753 10.7781 192.602 10.8006C192.422 10.8278 192.303 10.7883 192.179 10.7531C192.134 10.7405 192.089 10.7156 192.051 10.7179C191.687 10.7465 191.32 10.7739 190.959 10.8162C190.77 10.8382 190.667 10.7915 190.54 10.7604C190.495 10.7492 190.447 10.7258 190.409 10.7293C190.095 10.7555 189.785 10.7871 189.472 10.8173C189.413 10.8554 189.347 10.8923 189.291 10.933C189.232 10.9752 189.15 10.9947 189.029 10.9961C188.829 11.0007 188.634 11.0622 188.433 10.9947C188.225 10.9259 188.209 10.9304 188.01 10.9526C187.757 10.9815 187.487 10.9822 187.251 11.0406C187.21 11.0511 187.166 11.0779 187.167 11.097C187.164 11.1093 187.231 11.1254 187.272 11.1354C187.412 11.1649 187.573 11.1136 187.713 11.1444C187.806 11.1641 187.882 11.195 187.975 11.216C188.013 11.2247 188.07 11.222 188.121 11.2195C188.175 11.2169 188.225 11.2063 188.276 11.2065C188.324 11.2067 188.375 11.2137 188.413 11.2251C188.588 11.2728 188.773 11.3163 188.93 11.3739C189.083 11.4303 189.225 11.3863 189.377 11.3801C189.988 11.4615 189.988 11.4628 190.396 11.4236C190.498 11.4145 190.602 11.404 190.707 11.403C190.751 11.4019 190.793 11.4255 190.837 11.4381C190.965 11.476 191.086 11.51 191.263 11.4842C191.415 11.4617 191.577 11.4539 191.732 11.4382C191.941 11.4184 191.941 11.4184 192.298 11.4961C192.387 11.5158 192.482 11.5109 192.596 11.4975C192.694 11.4857 192.796 11.5038 192.866 11.5417C192.895 11.5573 192.886 11.5847 192.896 11.6076C192.583 11.6365 192.266 11.6587 191.963 11.6983C191.767 11.7231 191.677 11.6667 191.546 11.6383C191.501 11.6285 191.453 11.6064 191.412 11.6101C191.102 11.6375 190.792 11.6677 190.482 11.702C190.444 11.7056 190.397 11.7379 190.394 11.757C190.389 11.7925 190.469 11.8247 190.583 11.8208C190.735 11.816 190.884 11.7895 191.021 11.8421C191.136 11.8885 191.279 11.907 191.447 11.8814C191.548 11.8669 191.656 11.8644 191.757 11.8513C192.026 11.8125 192.27 11.8137 192.475 11.9016C192.631 11.9226 192.782 11.896 192.931 11.8804C193.042 11.8683 193.149 11.8563 193.229 11.8804C193.399 11.931 193.565 11.9816 193.795 11.9396C194.046 11.972 194.238 12.048 194.449 12.1085C194.548 12.1375 194.625 12.1535 194.738 12.1305C194.786 12.1213 194.843 12.1199 194.893 12.1147C194.998 12.1055 195.108 12.0826 195.203 12.0886C195.299 12.096 195.379 12.1336 195.465 12.1562C195.507 12.1675 195.555 12.1868 195.596 12.1845C195.754 12.1741 195.909 12.1569 196.064 12.1425C196.219 12.1295 196.374 12.1164 196.529 12.1034C196.66 12.1358 196.794 12.1681 196.925 12.2005C197.134 12.1808 197.343 12.1611 197.548 12.1428C197.779 12.1212 197.779 12.1226 198.114 12.1994C198.264 12.2341 198.422 12.206 198.564 12.185C198.801 12.1511 198.961 12.1992 199.13 12.2497C199.165 12.2598 199.229 12.2652 199.27 12.2588C199.434 12.236 199.577 12.2477 199.699 12.2953C199.785 12.3287 199.871 12.3431 199.976 12.334C200.339 12.2998 200.703 12.2643 201.067 12.2329C201.112 12.2292 201.163 12.2403 201.204 12.2502C201.529 12.3258 201.533 12.3298 201.77 12.3027C201.982 12.2788 202.178 12.2662 202.348 12.3372C202.383 12.3527 202.437 12.3746 202.475 12.3724C202.735 12.3529 202.998 12.3319 203.254 12.303C203.371 12.2894 203.454 12.2916 203.546 12.3208C203.664 12.3576 203.77 12.4028 203.963 12.3808C204.497 12.3183 204.501 12.3263 205.137 12.4058C205.181 12.4115 205.241 12.3993 205.292 12.3927C205.399 12.3767 205.479 12.3939 205.575 12.423C205.789 12.4889 205.795 12.4847 205.998 12.4651C206.153 12.4494 206.314 12.443 206.466 12.4191C206.7 12.3838 206.856 12.4334 207.032 12.4797C207.172 12.516 207.333 12.4797 207.482 12.464C207.643 12.4468 207.789 12.4475 207.911 12.4965C207.994 12.53 208.083 12.547 208.188 12.5378C208.551 12.5051 208.915 12.4696 209.279 12.4368C209.324 12.4331 209.378 12.4427 209.419 12.4513C209.783 12.5274 209.783 12.5315 210.14 12.4921C210.254 12.48 210.349 12.4751 210.435 12.5017C210.518 12.527 210.608 12.5508 210.694 12.5747C210.849 12.5617 211.007 12.5554 211.159 12.5356C211.276 12.5207 211.359 12.5243 211.451 12.5507C211.572 12.5847 211.675 12.6463 211.865 12.6107C211.963 12.5935 212.077 12.595 212.175 12.5792C212.292 12.5588 212.371 12.5679 212.464 12.6012C212.579 12.6407 212.697 12.6816 212.881 12.6557C213.083 12.6266 213.298 12.6176 213.504 12.5939C213.618 12.5804 213.697 12.5895 213.79 12.6227C213.905 12.665 214.036 12.6906 214.213 12.6689C214.573 12.6267 214.577 12.6334 214.931 12.7111C215.02 12.7309 215.115 12.726 215.229 12.7125C215.327 12.7008 215.429 12.7189 215.499 12.7567C215.567 12.7987 215.561 12.8261 215.568 12.849ZM187.04 1.22471C186.936 1.23389 186.831 1.24443 186.676 1.12956C186.666 1.10937 186.672 1.08475 186.649 1.06758C186.598 1.03201 186.518 1.00797 186.423 1.00605C186.252 1.0045 186.047 1.05542 186.051 1.09071C186.054 1.12056 186.109 1.14517 186.214 1.16727C186.259 1.17578 186.294 1.19131 186.335 1.20126C186.457 1.2298 186.553 1.28885 186.727 1.25361C186.693 1.17001 186.71 1.21181 186.727 1.25361C186.712 1.30565 186.76 1.34129 186.875 1.35366C186.907 1.35702 186.954 1.35321 186.979 1.34448C187.077 1.31232 187.092 1.27117 187.016 1.16538C187.004 1.18335 187.014 1.2144 187.043 1.22192C187.072 1.22943 187.141 1.22105 187.176 1.21074C187.264 1.18288 187.308 1.14787 187.285 1.11981C187.272 1.10514 187.211 1.08747 187.173 1.08833C187.107 1.08984 187.047 1.12113 187.04 1.22471ZM213.034 16.4147C212.803 16.4458 212.537 16.4423 212.307 16.5006C212.266 16.5111 212.225 16.5365 212.222 16.5556C212.22 16.5679 212.283 16.5842 212.322 16.5928C212.408 16.6127 212.503 16.6037 212.613 16.5944C212.781 16.581 212.881 16.6414 213.012 16.6697C213.053 16.6783 213.107 16.6838 213.151 16.6801C213.408 16.658 213.661 16.6345 213.917 16.6097C213.961 16.6046 214.009 16.594 214.046 16.5808C214.172 16.5385 214.159 16.513 214.035 16.4859C213.898 16.4563 213.789 16.4044 213.649 16.3817C213.448 16.3495 213.246 16.4031 213.034 16.4147ZM195.057 17.8167C194.902 17.8311 194.75 17.8455 194.595 17.8599C194.544 17.8651 194.49 17.8677 194.443 17.8742C194.345 17.886 194.273 17.9162 194.226 17.9622C194.3 17.9959 194.389 18.0142 194.487 18.0079C194.642 17.9962 194.794 17.9751 194.949 17.9675C195.117 17.9582 195.217 18.0172 195.347 18.0455C195.389 18.0541 195.44 18.0543 195.487 18.0546C195.722 18.0547 195.863 17.9807 195.816 17.8825C195.783 17.8057 195.661 17.7622 195.516 17.775C195.364 17.788 195.209 17.8024 195.057 17.8167ZM214.072 14.3799C214.109 14.3559 214.15 14.3387 214.169 14.3178C214.224 14.2472 214.201 14.196 214.095 14.144C213.966 14.0802 213.812 14.1286 213.67 14.1387C213.635 14.1408 213.597 14.1702 213.579 14.1883C213.566 14.2009 213.567 14.2267 213.586 14.2331C213.743 14.284 213.909 14.3305 214.072 14.3799ZM186.482 10.9873C186.33 11.0017 186.175 11.0134 186.024 11.0318C185.986 11.0367 185.951 11.0634 185.93 11.0815C185.889 11.1151 185.934 11.159 186.065 11.1601C186.214 11.1622 186.368 11.1355 186.523 11.1211C186.72 11.103 186.836 11.05 186.762 11.0082C186.691 10.9676 186.596 10.9616 186.482 10.9873ZM19.569 11.8735C19.6703 11.8644 19.7748 11.8566 19.876 11.8448C19.9709 11.8331 20.0431 11.8015 20.0896 11.7555C20.0096 11.722 19.9204 11.705 19.8222 11.7113C19.6671 11.723 19.5152 11.7373 19.3634 11.7544C19.2685 11.7647 19.1773 11.7967 19.1561 11.8434C19.1348 11.8793 19.3476 11.8949 19.569 11.8735ZM173.006 8.17613C173.047 8.18743 173.089 8.21098 173.13 8.21004C173.232 8.20774 173.336 8.19719 173.431 8.18143C173.472 8.17505 173.503 8.14986 173.522 8.13038C173.534 8.11785 173.531 8.09617 173.511 8.08572C173.418 8.02253 173.051 8.05401 172.992 8.13018C172.986 8.14392 173.002 8.16124 173.006 8.17613ZM162.834 0.955766C162.844 0.977311 162.847 0.998996 162.86 1.02047C162.887 1.06069 162.957 1.08904 163.059 1.10713C163.138 1.07133 163.178 1.03232 163.174 0.991587C163.17 0.969898 163.16 0.94834 163.147 0.926867C163.121 0.886642 163.05 0.858315 162.948 0.84022C162.87 0.874663 162.833 0.913604 162.834 0.955766ZM221.472 17.4531C221.443 17.4714 221.415 17.4897 221.384 17.5068C221.47 17.5443 221.55 17.5547 221.61 17.5316C221.648 17.5171 221.669 17.4962 221.697 17.4779C221.611 17.4404 221.534 17.4312 221.472 17.4531ZM219.504 17.6828C219.546 17.6941 219.584 17.7096 219.629 17.7168C219.702 17.7287 219.768 17.7041 219.818 17.6539C219.776 17.6426 219.738 17.6272 219.693 17.62C219.62 17.6081 219.554 17.6327 219.504 17.6828ZM220.747 17.4056C220.726 17.4387 220.771 17.4649 220.889 17.4854C220.917 17.467 220.955 17.4498 220.973 17.4304C221.004 17.3984 220.95 17.371 220.835 17.3519C220.804 17.3689 220.776 17.3872 220.747 17.4056ZM214.022 16.0915C214.001 16.1247 214.046 16.1509 214.164 16.1713C214.192 16.153 214.23 16.1358 214.248 16.1163C214.279 16.0843 214.225 16.057 214.11 16.0378C214.079 16.0549 214.051 16.0732 214.022 16.0915ZM204.684 6.67496C204.656 6.69329 204.628 6.71162 204.597 6.72866C204.683 6.76615 204.763 6.77659 204.822 6.75346C204.86 6.739 204.882 6.71809 204.91 6.69976C204.823 6.66226 204.747 6.65312 204.684 6.67496ZM195.834 1.76779C195.91 1.77558 195.973 1.75511 196.026 1.70356C195.984 1.69226 195.946 1.6768 195.901 1.66965C195.828 1.65771 195.762 1.68235 195.713 1.73246C195.754 1.74512 195.795 1.75642 195.834 1.76779ZM191.189 1.55359C191.161 1.57192 191.133 1.59025 191.102 1.60729C191.188 1.64479 191.268 1.65522 191.327 1.63209C191.365 1.61763 191.387 1.59672 191.415 1.57839C191.329 1.5409 191.252 1.53311 191.189 1.55359ZM159.715 1.0253C159.687 1.04363 159.658 1.06196 159.627 1.079C159.714 1.1165 159.793 1.12693 159.853 1.1038C159.891 1.08934 159.912 1.06843 159.94 1.0501C159.854 1.01261 159.778 1.00482 159.715 1.0253ZM3.39394 15.6499C3.35245 15.6386 3.311 15.6273 3.27265 15.6146C3.18158 15.6534 3.15385 15.688 3.20516 15.7127C3.23723 15.7283 3.28496 15.7368 3.32645 15.7481C3.42069 15.7092 3.44211 15.676 3.39394 15.6499Z" fill="#FFE492"/>
</svg>
