<svg width="304" height="42" viewBox="0 0 304 42" fill="none" xmlns="http://www.w3.org/2000/svg">
<path d="M286.02 22.1511C285.604 22.1853 285.182 22.2088 284.774 22.2601C284.509 22.2922 284.395 22.1981 284.218 22.149C284.159 22.1319 284.096 22.0976 284.041 22.1019C283.628 22.1361 283.216 22.1746 282.803 22.2131C282.676 22.2965 282.596 22.4076 282.403 22.4482C282.213 22.4867 281.99 22.4867 281.779 22.5059C281.501 22.5295 281.223 22.553 280.946 22.5744C280.807 22.5851 280.693 22.6257 280.647 22.7026C280.638 22.7154 280.731 22.7475 280.781 22.7667C280.95 22.8309 281.114 22.9035 281.299 22.9527C281.476 22.9997 281.695 22.9228 281.885 22.9826C282.31 23.1173 282.314 23.1152 282.639 23.0895C282.917 23.066 283.195 23.0404 283.473 23.0233C283.527 23.019 283.59 23.0511 283.649 23.0682C283.826 23.1152 283.94 23.2221 284.201 23.1815C284.399 23.1494 284.618 23.143 284.824 23.1259C284.997 23.1879 285.157 23.2584 285.342 23.3076C285.515 23.3546 285.566 23.391 285.473 23.4529C285.389 23.5107 285.271 23.5342 285.115 23.5385C284.976 23.5406 284.837 23.5598 284.698 23.5705C284.626 23.5769 284.559 23.5812 284.492 23.5876C284.226 23.6111 284.226 23.6111 283.742 23.4743C283.552 23.4209 283.338 23.4957 283.157 23.4444C283.034 23.4102 282.929 23.3589 282.811 23.3225C282.761 23.3076 282.681 23.3054 282.618 23.3097C282.407 23.3247 282.196 23.3354 281.994 23.3632C281.851 23.3824 281.767 23.4422 281.784 23.5021C281.788 23.5256 281.889 23.5598 281.948 23.562C282.083 23.5662 282.226 23.5363 282.356 23.5513C282.483 23.5662 282.613 23.609 282.706 23.656C282.895 23.7543 283.11 23.6667 283.291 23.6924C283.481 23.7201 283.637 23.8057 283.818 23.857C283.864 23.8698 283.953 23.8484 284.024 23.842C284.231 23.827 284.437 23.8142 284.643 23.7992C284.816 23.8612 285.001 23.9168 285.157 23.9874C285.439 24.1156 285.743 24.1648 286.109 24.1028C286.315 24.0686 286.517 24.0814 286.682 24.1648C286.85 24.2503 287.044 24.2417 287.259 24.2246C287.457 24.2075 287.659 24.1605 287.861 24.2204C288.299 24.3529 288.303 24.3593 288.821 24.308C288.977 24.293 289.095 24.2888 289.213 24.3379C289.322 24.3828 289.44 24.4213 289.554 24.4641C289.76 24.4491 289.971 24.4341 290.177 24.417C290.443 24.3935 290.59 24.4234 290.653 24.5431C290.691 24.6158 290.708 24.6821 290.801 24.7313C290.91 24.7911 291.028 24.789 291.188 24.7719C291.34 24.7569 291.449 24.7334 291.512 24.6565C291.538 24.6244 291.588 24.5945 291.635 24.5688C291.673 24.5496 291.732 24.5196 291.765 24.5239C291.828 24.5325 291.913 24.556 291.934 24.5838C292.14 24.8424 292.14 24.8446 292.351 24.9194C292.582 25.0027 292.822 25.0776 293.033 25.1716C293.222 25.255 293.412 25.2187 293.618 25.2187C293.774 25.2187 293.875 25.2742 293.863 25.3298C293.854 25.3619 293.795 25.4089 293.745 25.4132C293.332 25.4559 292.915 25.4923 292.498 25.5222C292.447 25.5265 292.384 25.488 292.325 25.4688C292.207 25.4303 292.102 25.3704 291.976 25.3576C291.849 25.3448 291.702 25.3768 291.563 25.3875C291.424 25.3982 291.277 25.426 291.15 25.4089C291.024 25.3918 290.923 25.3298 290.805 25.2892C290.75 25.27 290.674 25.2422 290.628 25.2486C290.321 25.2999 290.093 25.2293 289.874 25.1353C289.828 25.116 289.748 25.1032 289.689 25.1075C289.2 25.1438 288.716 25.1866 288.227 25.2272C288.03 25.2443 287.869 25.1695 287.827 25.0434C287.806 24.9728 287.764 24.9023 287.764 24.8317C287.764 24.7035 287.533 24.6329 287.364 24.6479C287.086 24.6693 286.804 24.6864 286.53 24.7184C286.307 24.7441 286.117 24.7184 285.966 24.6415C285.789 24.5538 285.587 24.5709 285.385 24.5944C285.233 24.6116 285.191 24.6821 285.199 24.8595C285.208 25.0027 285.136 25.0476 284.862 25.0711C284.517 25.1011 284.167 25.131 283.818 25.1545C283.763 25.1588 283.7 25.1225 283.645 25.1032C283.527 25.0647 283.422 25.0027 283.296 24.9899C283.169 24.975 283.022 25.007 282.883 25.0198C282.744 25.0305 282.596 25.0605 282.47 25.0455C282.344 25.0305 282.238 24.9664 282.125 24.9258C282.07 24.9066 282.003 24.8788 281.948 24.883C281.67 24.9001 281.392 24.9258 281.114 24.9493C280.802 24.975 280.802 24.975 280.36 24.8424C280.158 24.7826 279.956 24.8296 279.758 24.8467C279.547 24.8638 279.349 24.8724 279.185 24.7868C279.075 24.7313 278.953 24.6971 278.823 24.7078C278.473 24.7334 278.128 24.7655 277.778 24.7911C277.719 24.7954 277.639 24.7847 277.593 24.7655C277.37 24.6757 277.151 24.6051 276.839 24.65C276.57 24.6885 276.279 24.6906 276.009 24.727C275.862 24.7462 275.795 24.8146 275.824 24.8681C275.841 24.8959 275.929 24.9279 275.988 24.9279C276.123 24.9301 276.271 24.898 276.397 24.9108C276.658 24.9365 276.789 25.116 277.13 25.0669C277.332 25.0369 277.542 25.0263 277.753 25.0177C277.808 25.0156 277.867 25.0562 277.926 25.0776C278.094 25.1353 278.242 25.2101 278.486 25.1716C278.688 25.1417 278.903 25.1332 279.109 25.1161C279.438 25.0883 279.438 25.0904 279.863 25.2208C280.065 25.2828 280.267 25.2336 280.465 25.2187C280.613 25.208 280.752 25.1866 280.87 25.2165C281.051 25.2614 281.181 25.364 281.405 25.3576C281.615 25.3512 281.821 25.3213 282.032 25.3106C282.163 25.3042 282.285 25.3384 282.39 25.3961C282.5 25.4538 282.617 25.4794 282.761 25.4666C282.967 25.4495 283.178 25.4281 283.388 25.4174C283.447 25.4153 283.515 25.4346 283.569 25.4517C283.687 25.4901 283.801 25.535 283.915 25.5756C284.121 25.5628 284.332 25.5585 284.534 25.5329C284.69 25.5137 284.799 25.5222 284.926 25.565C285.086 25.6227 285.216 25.7253 285.477 25.6761C285.608 25.6526 285.759 25.659 285.89 25.6376C286.05 25.6098 286.159 25.6205 286.273 25.6847C286.488 25.8065 286.758 25.8086 287.036 25.7616C287.339 25.7103 287.566 25.7702 287.794 25.8642C288.034 25.9626 288.034 25.9604 288.219 26.1977C288.274 26.2661 288.43 26.2982 288.56 26.2854C288.779 26.264 288.969 26.2747 289.129 26.3559C289.297 26.4435 289.499 26.4328 289.706 26.4093C289.979 26.3773 290.253 26.3495 290.476 26.4735C290.586 26.5333 290.704 26.5483 290.851 26.5333C291.268 26.4948 291.689 26.4713 292.098 26.4243C292.346 26.3944 292.49 26.4628 292.658 26.5205C292.885 26.5996 293.134 26.6701 293.134 26.839C293.134 26.8668 293.193 26.8989 293.243 26.9202C293.353 26.9651 293.471 27.0036 293.585 27.0464C293.753 27.1105 293.917 27.1639 294.149 27.1297C294.351 27.1019 294.566 27.0934 294.772 27.0741C294.979 27.0549 295.168 27.0442 295.354 27.1254C295.568 27.2174 295.796 27.305 296.04 27.3734C296.213 27.4226 296.44 27.3392 296.625 27.4055C296.739 27.4461 296.849 27.4931 296.971 27.5273C297.021 27.5423 297.101 27.5316 297.169 27.5273C297.308 27.5188 297.451 27.5124 297.586 27.491C297.742 27.4675 297.859 27.4718 297.977 27.5209C298.087 27.5658 298.196 27.6278 298.323 27.6406C298.512 27.6599 298.723 27.5744 298.912 27.6727C299.009 27.7219 299.131 27.7689 299.258 27.7839C299.384 27.7988 299.531 27.7667 299.666 27.7689C299.725 27.7689 299.797 27.8031 299.83 27.8309C299.851 27.8458 299.822 27.8865 299.793 27.9078C299.755 27.9335 299.7 27.9677 299.645 27.972C299.228 28.0105 298.811 28.0425 298.394 28.0789C298.146 28.1002 298.146 28.1002 297.645 27.9656C297.527 27.9335 297.396 27.9399 297.249 27.9549C297.051 27.9741 296.849 28.0105 296.642 27.972C296.373 27.8266 296.04 27.8138 295.686 27.8693C295.539 27.8929 295.404 27.8929 295.294 27.8523C295.063 27.771 294.819 27.6962 294.612 27.6C294.452 27.5252 294.376 27.5188 294.309 27.6214C294.288 27.6535 294.267 27.6877 294.271 27.7176C294.296 27.8245 294.343 27.9292 294.368 28.0361C294.376 28.066 294.343 28.1002 294.322 28.1323C294.254 28.2221 294.166 28.2157 294.018 28.1408C293.871 28.066 293.694 28.0169 293.458 28.0511C293.256 28.081 293.037 28.0767 292.835 28.1088C292.523 28.1558 292.304 28.0874 292.081 27.9955C292.035 27.9762 291.955 27.9656 291.896 27.9698C291.268 28.019 290.645 28.0746 290.017 28.1237C289.883 28.1344 289.76 28.1024 289.655 28.0447C289.546 27.9869 289.423 27.957 289.289 27.9677C288.733 28.0126 288.177 28.0532 287.621 28.1088C287.393 28.1323 287.212 28.1045 287.057 28.0297C286.939 27.9741 286.829 27.957 286.682 27.9634C286.522 27.9698 286.408 27.9912 286.328 28.0532C286.252 28.1131 286.307 28.1494 286.475 28.1964C286.656 28.2477 286.825 28.314 286.998 28.3739C287.137 28.3653 287.276 28.3482 287.41 28.3503C287.469 28.3503 287.524 28.3888 287.583 28.4102C287.752 28.4722 287.907 28.5342 288.147 28.5C288.35 28.47 288.564 28.4636 288.771 28.4444C289.057 28.4209 289.057 28.4209 289.52 28.5556C289.638 28.5898 289.765 28.5876 289.916 28.5684C290.047 28.5534 290.182 28.5833 290.274 28.6475C290.312 28.6731 290.3 28.7159 290.22 28.857C290.22 28.9617 290.308 28.9147 290.337 28.8463C290.384 28.7479 290.295 28.7159 290.127 28.7693C290.009 28.8078 289.95 28.8634 289.979 28.9083C289.996 28.9318 290.076 28.9617 290.22 28.857C290.59 28.7287 290.872 28.7137 291.142 28.6795C291.302 28.6603 291.403 28.6688 291.529 28.7244C291.681 28.7907 291.833 28.8612 292.081 28.827C292.351 28.7886 292.637 28.7843 292.911 28.7522C293.163 28.7223 293.294 28.8163 293.454 28.8719C293.648 28.9382 293.863 28.8634 294.039 28.9019C294.225 28.9403 294.355 29.0344 294.57 29.0515C294.882 28.9938 295.08 29.1007 295.316 29.1712C295.501 29.2246 295.72 29.1776 295.918 29.1541C296.141 29.1284 296.326 29.152 296.482 29.2289C296.659 29.3166 296.857 29.2973 297.059 29.2781C297.531 29.2353 297.548 29.2289 297.821 29.3465C298.019 29.432 298.209 29.3935 298.407 29.3828C298.58 29.4405 298.748 29.5025 298.929 29.5538C298.976 29.5667 299.064 29.5453 299.136 29.5389C299.342 29.5218 299.552 29.5047 299.759 29.4876C299.898 29.4769 300.045 29.4448 300.172 29.4576C300.298 29.4726 300.403 29.5346 300.517 29.5752C300.631 29.6158 300.749 29.6565 300.858 29.6992C301.027 29.7633 301.187 29.8168 301.422 29.7847C301.625 29.7569 301.835 29.7484 302.046 29.7291C302.311 29.7056 302.303 29.712 302.795 29.8403C303.061 29.9108 303.335 29.8253 303.604 29.8168C303.739 29.8125 303.869 29.836 303.962 29.898C304 29.9237 303.987 29.9664 304 30.0028C303.305 30.0605 302.606 30.1096 301.919 30.1802C301.654 30.208 301.515 30.131 301.372 30.0669C301.136 29.9643 300.824 30.1139 300.601 29.9814C300.466 29.9023 300.273 29.8574 300.041 29.8959C299.906 29.9173 299.763 29.9151 299.624 29.9343C299.27 29.9814 298.946 29.9835 298.664 29.836C298.567 29.7847 298.428 29.7569 298.327 29.7078C298.209 29.6543 298.095 29.6244 297.956 29.6351C297.329 29.6864 296.705 29.7377 296.082 29.7932C296.027 29.7975 295.973 29.8296 295.926 29.8531C295.808 29.913 295.846 29.96 296.036 29.9985C296.099 30.0113 296.15 30.0391 296.208 30.0605C296.322 30.1011 296.427 30.1652 296.554 30.1802C296.68 30.1951 296.828 30.1652 296.967 30.1545C297.106 30.1438 297.253 30.1118 297.379 30.1246C297.506 30.1396 297.611 30.2016 297.729 30.24C297.784 30.2593 297.851 30.2913 297.906 30.2892C298.184 30.2764 298.457 30.2529 298.735 30.2336C298.908 30.2913 299.056 30.3747 299.262 30.3939C299.392 30.4068 299.531 30.3833 299.666 30.3875C299.725 30.3897 299.801 30.4217 299.83 30.4495C299.847 30.4666 299.793 30.5094 299.75 30.5308C299.59 30.612 299.371 30.597 299.173 30.6227C298.959 30.6505 298.765 30.6419 298.601 30.5585C298.491 30.503 298.369 30.473 298.234 30.4837C297.885 30.5115 297.539 30.5436 297.19 30.5671C297.131 30.5714 297.059 30.5521 297.004 30.5372C296.562 30.4068 296.562 30.4025 296.251 30.4303C295.791 30.4709 295.792 30.4709 295.484 30.3576C295.425 30.3362 295.362 30.2956 295.311 30.2978C294.823 30.332 294.338 30.3662 293.854 30.4153C293.694 30.4303 293.585 30.4303 293.467 30.3747C293.366 30.3277 293.248 30.2742 293.121 30.2614C292.991 30.2486 292.848 30.2807 292.709 30.2913C292.57 30.302 292.422 30.3298 292.3 30.3127C292.174 30.2956 292.064 30.2358 291.955 30.193C291.841 30.1481 291.719 30.1502 291.563 30.1673C291.083 30.2165 291.079 30.2101 290.603 30.0776C290.548 30.0626 290.476 30.0455 290.417 30.0498C290.068 30.0754 289.723 30.1075 289.373 30.1332C289.238 30.1438 289.108 30.1161 289.015 30.0541C288.977 30.0284 288.99 29.9856 288.965 29.9023C288.935 29.883 288.969 29.9173 288.977 29.9493C289.04 29.945 289.116 29.9493 289.162 29.9322C289.28 29.8916 289.339 29.8381 289.31 29.7932C289.293 29.7697 289.213 29.7398 289.162 29.7398C289.07 29.7398 288.99 29.7868 288.965 29.9023C288.699 29.9728 288.417 29.9878 288.143 30.022C287.983 30.0434 287.882 30.0327 287.756 29.9771C287.604 29.9087 287.448 29.8424 287.2 29.8766C286.93 29.9151 286.644 29.9215 286.366 29.9515C286.046 29.9857 285.907 29.7933 285.637 29.7975C285.359 29.8018 285.081 29.8382 284.803 29.8638C284.559 29.8852 284.559 29.8852 284.054 29.7462C283.868 29.6949 283.649 29.7697 283.468 29.7163C283.346 29.6821 283.241 29.6308 283.123 29.5945C283.072 29.5795 282.992 29.5795 282.929 29.5838C282.58 29.6094 282.226 29.6265 281.889 29.6736C281.506 29.7291 281.215 29.6693 280.941 29.5432C280.596 29.5667 280.246 29.5795 279.905 29.6201C279.657 29.65 279.514 29.5795 279.345 29.5218C279.286 29.5025 279.236 29.4705 279.172 29.4619C279.109 29.4534 279.033 29.4705 278.966 29.4769C278.688 29.5004 278.402 29.5111 278.132 29.5496C277.799 29.5987 277.673 29.4234 277.416 29.4021C277.243 29.5068 277.151 29.65 276.81 29.6607C276.532 29.6693 276.254 29.7035 275.976 29.727C275.837 29.7377 275.698 29.7505 275.559 29.7612C275.336 29.7804 275.23 29.8638 275.277 29.9921C275.302 30.0626 275.323 30.1331 275.344 30.2037C275.386 30.3298 275.281 30.4367 275.104 30.4517C274.615 30.4923 274.131 30.535 273.643 30.5714C273.512 30.5821 273.386 30.5457 273.28 30.488C273.171 30.4303 273.049 30.4046 272.914 30.4153C272.425 30.4559 271.941 30.4987 271.452 30.535C271.398 30.5393 271.326 30.5179 271.271 30.5008C271.153 30.4624 271.04 30.4175 270.926 30.3769C270.648 30.3961 270.374 30.4089 270.101 30.4345C269.658 30.473 269.658 30.4752 269.334 30.3576C269.275 30.3362 269.216 30.2956 269.161 30.2978C268.951 30.3063 268.744 30.3277 268.534 30.3469C267.915 30.4025 267.915 30.4025 267.734 30.3384C267.569 30.2785 267.422 30.2058 267.173 30.24C266.904 30.2785 266.617 30.2913 266.34 30.3127C266.133 30.3277 265.927 30.3448 265.72 30.3491C265.666 30.3512 265.607 30.3106 265.548 30.2892C265.379 30.2229 265.215 30.1695 264.983 30.2058C264.849 30.2272 264.705 30.2315 264.566 30.2422C264.204 30.2721 264.204 30.2721 263.61 30.1438C263.551 30.131 263.48 30.116 263.421 30.1225C262.932 30.1609 262.448 30.2037 261.959 30.24C261.9 30.2443 261.829 30.2315 261.77 30.2208C261.104 30.0968 261.104 30.0968 260.397 30.1567C260.127 30.178 260.119 30.1866 259.837 30.0733C259.71 30.0241 259.605 30.0006 259.458 30.0156C258.902 30.0669 258.342 30.1011 257.79 30.1609C257.541 30.1866 257.398 30.1225 257.23 30.0647C257.171 30.0455 257.108 30.0028 257.057 30.0049C256.501 30.0455 255.945 30.0947 255.389 30.1353C255.339 30.1396 255.276 30.0968 255.217 30.0776C255.103 30.0391 254.993 29.9814 254.867 29.9686C254.736 29.9557 254.593 29.9878 254.45 29.9985C254.1 30.0263 254.1 30.0241 253.696 29.898C253.641 29.8809 253.57 29.8574 253.515 29.8617C252.959 29.9044 252.399 29.9408 251.847 30.0028C251.531 30.037 251.317 29.975 251.093 29.8852C251.047 29.8659 250.967 29.8574 250.908 29.8617C250.281 29.9108 249.657 29.9664 249.03 30.0156C248.899 30.0263 248.773 29.9899 248.667 29.9343C248.499 29.8467 248.301 29.8574 248.091 29.8766C247.606 29.9215 247.602 29.9194 247.316 29.8168C247.257 29.7954 247.206 29.7676 247.143 29.7569C247.084 29.7462 247.008 29.7526 246.945 29.7569C246.667 29.7783 246.389 29.8018 246.111 29.8253C245.833 29.8488 245.551 29.8617 245.277 29.898C244.94 29.9429 244.78 29.8039 244.544 29.7398C244.199 29.7676 243.845 29.7847 243.504 29.8296C243.243 29.8638 243.121 29.7697 242.948 29.7206C242.889 29.7035 242.826 29.6671 242.771 29.6714C242.144 29.7184 241.516 29.7697 240.893 29.8275C240.741 29.8403 240.64 29.8232 240.514 29.7719C240.232 29.6564 240.219 29.6607 239.747 29.7035C239.541 29.7227 239.343 29.7398 239.166 29.6522C239.01 29.5731 238.821 29.5538 238.598 29.5795C238.324 29.6115 238.042 29.6287 237.764 29.65C237.486 29.6736 237.208 29.7056 236.93 29.7163C236.707 29.727 236.572 29.6265 236.395 29.5752C236.34 29.5603 236.264 29.5581 236.201 29.5624C235.923 29.5816 235.637 29.5966 235.367 29.6329C235.039 29.6778 234.858 29.5603 234.626 29.4919C234.575 29.4769 234.491 29.4854 234.428 29.4919C233.939 29.5303 233.455 29.5731 232.967 29.6137C232.794 29.556 232.617 29.5004 232.444 29.4427C232.166 29.4641 231.888 29.4876 231.61 29.5089C231.4 29.526 231.185 29.5325 230.987 29.5645C230.73 29.6073 230.604 29.5068 230.431 29.4576C230.372 29.4405 230.309 29.4042 230.254 29.4085C229.905 29.432 229.555 29.4577 229.21 29.494C228.881 29.5303 228.751 29.3379 228.481 29.3401C228.203 29.3422 227.917 29.37 227.647 29.4085C227.336 29.4534 227.117 29.385 226.893 29.293C226.847 29.2738 226.767 29.2631 226.708 29.2674C226.359 29.293 226.013 29.3251 225.664 29.3508C225.605 29.355 225.533 29.3444 225.474 29.3315C224.809 29.2054 224.809 29.2033 224.518 29.2289C224.312 29.246 224.101 29.2674 223.891 29.2781C223.832 29.2824 223.76 29.2631 223.705 29.246C223.267 29.1156 223.267 29.1135 222.951 29.1391C222.673 29.1626 222.395 29.1862 222.117 29.2097C221.945 29.152 221.768 29.0964 221.595 29.0387C221.25 29.0665 220.896 29.0878 220.555 29.1263C220.395 29.1434 220.29 29.137 220.167 29.0836C220.016 29.0194 219.864 28.9446 219.611 28.9809C219.342 29.0194 219.056 29.0237 218.782 29.0558C218.453 29.0942 218.318 28.8997 218.053 28.9019C217.775 28.904 217.489 28.9318 217.219 28.9703C216.908 29.0151 216.689 28.9468 216.465 28.8548C216.419 28.8356 216.339 28.8249 216.28 28.8292C215.514 28.8912 214.751 28.9531 213.985 29.0194C213.513 29.06 213.513 29.0622 212.616 28.9446C212.553 28.9361 212.485 28.9275 212.422 28.9318C212.144 28.951 211.858 28.966 211.588 29.0023C211.26 29.0472 211.079 28.9318 210.847 28.8612C210.796 28.8463 210.716 28.8548 210.649 28.8591C210.438 28.8741 210.232 28.8933 210.022 28.9104C209.744 28.9339 209.466 28.9574 209.188 28.9809C209.015 28.9254 208.838 28.8676 208.665 28.8121C208.32 28.8399 207.966 28.8548 207.625 28.8997C207.364 28.9339 207.242 28.8441 207.069 28.7928C207.01 28.7757 206.947 28.7394 206.892 28.7415C206.265 28.7886 205.637 28.8377 205.014 28.8976C204.757 28.9232 204.639 28.827 204.466 28.7779C204.407 28.7629 204.34 28.7351 204.285 28.7394C203.868 28.7693 203.451 28.8057 203.035 28.842C202.799 28.8634 202.799 28.8634 202.285 28.7308C202.226 28.7159 202.158 28.7009 202.1 28.7052C200.777 28.8121 199.459 28.9254 198.136 29.0323C198.002 29.0429 197.879 29.0109 197.774 28.9532C197.665 28.8954 197.542 28.8655 197.408 28.8762C196.852 28.9211 196.292 28.9617 195.74 29.0173C195.512 29.0408 195.331 29.013 195.176 28.9382C195.058 28.8826 194.948 28.8612 194.801 28.8741C194.523 28.8997 194.245 28.9211 193.967 28.9446C193.689 28.9681 193.411 28.9916 193.133 29.0152C192.855 29.0387 192.573 29.0515 192.299 29.0878C191.962 29.1327 191.798 29.0002 191.566 28.9339C191.149 28.966 190.732 28.998 190.32 29.0323C189.764 29.0771 189.208 29.1263 188.652 29.1691C188.601 29.1733 188.538 29.1349 188.479 29.1156C188.306 29.0622 188.18 28.9874 187.923 29.0109C186.676 29.1242 185.421 29.2204 184.171 29.3315C183.909 29.355 183.796 29.2631 183.619 29.2139C183.56 29.199 183.493 29.1691 183.438 29.1733C182.743 29.2268 182.048 29.2866 181.353 29.3443C181.071 29.3679 181.071 29.3679 180.599 29.2353C180.544 29.2204 180.473 29.2011 180.414 29.2054C179.508 29.2781 178.607 29.355 177.701 29.4299C177.567 29.4405 177.445 29.4106 177.335 29.3529C177.23 29.2952 177.103 29.2631 176.973 29.2738C176.139 29.3422 175.301 29.4085 174.471 29.4833C174.248 29.5047 174.063 29.4854 173.903 29.4085C173.789 29.3529 173.675 29.3294 173.532 29.3422C172.281 29.4469 171.03 29.5474 169.779 29.6586C169.539 29.68 169.371 29.6394 169.219 29.5688C169.097 29.5132 168.992 29.5025 168.84 29.5111C168.68 29.5218 168.583 29.5453 168.495 29.6094C168.381 29.6928 168.31 29.7975 168.04 29.8039C167.762 29.8104 167.48 29.836 167.206 29.8724C166.945 29.9087 166.823 29.8125 166.659 29.7548C166.536 29.7142 166.423 29.7078 166.267 29.727C166.124 29.7441 166.035 29.7804 165.951 29.8488C165.766 29.9942 165.749 29.9942 165.521 29.9023C165.399 29.8531 165.29 29.8146 165.155 29.8232C164.599 29.8659 164.043 29.913 163.487 29.9621C163.167 29.9899 163.163 29.9942 162.923 29.8873C162.805 29.8339 162.691 29.8082 162.552 29.821C161.023 29.9493 159.495 30.0733 157.966 30.208C157.73 30.2293 157.57 30.1844 157.401 30.1203C157.347 30.0989 157.292 30.069 157.229 30.0605C157.166 30.0519 157.094 30.0605 157.027 30.0647C155.915 30.1567 154.799 30.2443 153.691 30.3469C153.438 30.3704 153.304 30.302 153.131 30.2465C153.072 30.2272 153.021 30.1973 152.958 30.1887C152.895 30.1823 152.819 30.1973 152.752 30.2037C151.64 30.2956 150.524 30.3833 149.416 30.4859C149.151 30.5094 149.037 30.4196 148.864 30.3726C148.805 30.3555 148.742 30.3234 148.688 30.3277C148.338 30.3512 147.993 30.3832 147.643 30.411C146.809 30.4816 145.975 30.5479 145.141 30.6206C144.821 30.6483 144.682 30.4581 144.413 30.4666C144.063 30.4773 143.718 30.5201 143.368 30.55C143.09 30.5735 142.812 30.5949 142.534 30.6206C142.261 30.6441 142.261 30.644 141.578 30.5201C141.519 30.5094 141.448 30.4944 141.389 30.4987C140.416 30.5778 139.439 30.6569 138.47 30.7424C138.247 30.7616 138.062 30.7509 137.902 30.6719C137.788 30.6163 137.67 30.5885 137.531 30.6013C136.07 30.7231 134.612 30.845 133.151 30.9647C133.096 30.969 133.024 30.9476 132.97 30.9305C132.852 30.892 132.738 30.8471 132.624 30.8065C132.54 30.8557 132.431 30.9006 132.376 30.9562C132.3 31.031 132.199 31.0524 132.039 31.0652C131.879 31.078 131.778 31.0737 131.652 31.0182C131.5 30.9497 131.344 30.8963 131.096 30.9177C129.567 31.0523 128.038 31.1742 126.509 31.3067C126.256 31.3281 126.138 31.234 125.962 31.1849C125.903 31.1699 125.835 31.1464 125.78 31.1507C125.153 31.1999 124.53 31.2533 123.902 31.3046C122.163 31.45 120.423 31.5889 118.688 31.7428C118.372 31.7706 118.157 31.7172 117.934 31.6252C117.888 31.606 117.808 31.5953 117.749 31.5996C115.315 31.8005 112.88 32.0036 110.45 32.2067C110.32 32.2174 110.193 32.1832 110.088 32.1276C109.978 32.0699 109.856 32.0421 109.722 32.0528C108.61 32.1447 107.498 32.2366 106.386 32.3307C106.108 32.3542 106.104 32.3563 105.817 32.2537C105.758 32.2323 105.695 32.1917 105.649 32.196C105.552 32.2067 105.459 32.2601 105.392 32.3328C105.325 32.4098 105.219 32.4311 105.063 32.4461C104.903 32.4611 104.798 32.4547 104.676 32.4034C104.52 32.3392 104.377 32.2772 104.124 32.2986C100.928 32.5722 97.731 32.8352 94.5343 33.1066C94.2774 33.128 94.1595 33.0382 93.9826 32.9891C93.9236 32.9741 93.8647 32.9527 93.8015 32.9484C93.7341 32.9442 93.6625 32.957 93.5951 32.9634C88.3811 33.3974 83.1672 33.8335 77.9532 34.2674C77.6415 34.2931 77.6457 34.2931 77.3046 34.4897C77.2625 34.5132 77.2076 34.5453 77.1487 34.5496C75.5525 34.6864 73.9521 34.8189 72.3517 34.9514C71.6568 35.0092 70.9619 35.069 70.2669 35.1246C70.0185 35.1438 70.0185 35.1439 69.4246 35.3747C69.3741 35.394 69.3151 35.4196 69.2561 35.4239C66.4764 35.6569 63.6967 35.8899 60.9128 36.1186C60.6938 36.1357 60.517 36.1742 60.4159 36.2768C60.3443 36.3495 60.2516 36.3922 60.1126 36.4051C58.1669 36.5675 56.2212 36.7321 54.2712 36.8903C54.0395 36.9096 53.9005 36.9694 53.7868 37.0592C53.7489 37.0891 53.7151 37.1233 53.6604 37.1447C53.6099 37.1639 53.5341 37.1703 53.4709 37.1768C51.8031 37.3157 50.1353 37.459 48.4633 37.5915C48.2148 37.6107 48.1137 37.6898 47.9916 37.7732C47.9494 37.801 47.9199 37.8395 47.8652 37.8587C47.8104 37.8758 47.7304 37.8758 47.663 37.8801C46.2732 37.9955 44.8834 38.1131 43.4936 38.2285C43.224 38.2178 43.165 38.3418 43.0345 38.4166C42.9881 38.4423 42.9545 38.4765 42.8998 38.4936C42.8408 38.5107 42.7649 38.5085 42.6933 38.5128C41.5814 38.6047 40.4696 38.7031 39.3535 38.7886C39.0966 38.8078 39.046 38.9168 38.907 38.9916C38.8607 39.0152 38.8144 39.0515 38.7597 39.0579C38.0648 39.1199 37.3699 39.1776 36.6749 39.2332C36.4433 39.2524 36.4433 39.2503 36.0348 39.4619C35.9884 39.4855 35.9336 39.5111 35.8747 39.5175C34.8344 39.6073 33.7899 39.6928 32.7455 39.7805C32.6107 39.7911 32.5181 39.8424 32.4507 39.9151C32.3833 39.9878 32.2864 40.0348 32.1517 40.0455C31.3178 40.1161 30.4838 40.1887 29.6499 40.2529C29.4182 40.27 29.2666 40.3234 29.1656 40.4196C29.0898 40.4923 28.9971 40.5286 28.8497 40.5415C28.0158 40.6099 27.1819 40.6847 26.3438 40.7445C26.0995 40.7616 25.9731 40.8343 25.872 40.9241C25.792 40.9968 25.6994 41.0224 25.5435 41.0353C24.0147 41.1593 22.4817 41.2832 20.9571 41.42C20.7002 41.4435 20.5696 41.3687 20.4011 41.3153C20.1611 41.2405 19.9379 41.1592 19.9379 40.9925C19.9379 40.9668 19.8663 40.9369 19.8158 40.9155C19.4409 40.7552 19.4409 40.7552 19.382 40.5842C19.3483 40.4795 19.3104 40.3726 19.2809 40.2657C19.2261 40.0904 19.0913 40.0455 18.7038 40.0776C18.5648 40.0883 18.4259 40.1032 18.2869 40.1118C18.0805 40.1267 17.9247 40.0562 17.8868 39.9279C17.8657 39.8574 17.8405 39.7869 17.8195 39.7163C18.03 39.6992 18.0258 39.6971 18.3964 39.4384C18.5522 39.3294 18.5523 39.3294 18.2533 39.2204C18.1395 39.1798 18.03 39.1349 17.9079 39.0964C17.8531 39.0793 17.7816 39.0686 17.7226 39.0729C17.373 39.0985 17.0277 39.1285 16.6823 39.1584C16.1264 39.2054 16.1263 39.2054 15.562 38.9874C15.5156 38.9703 15.444 38.9382 15.4525 38.9211C15.4988 38.842 15.6125 38.8078 15.7557 38.7992C15.9663 38.7864 16.1726 38.765 16.379 38.7479C16.518 38.7373 16.657 38.7244 16.7959 38.7138C16.9265 38.6325 17.0614 38.5534 17.1835 38.4701C17.3772 38.3418 17.3772 38.3375 17.1118 38.2477C16.9434 38.1879 16.7623 38.1344 16.5896 38.0789C16.3832 38.096 16.1726 38.1152 15.9663 38.1302C15.7051 38.1494 15.5998 38.1088 15.5325 37.9698C15.4735 37.848 15.5451 37.7433 15.7473 37.7176C15.9536 37.6919 16.1474 37.6749 16.2527 37.5658C16.3538 37.4611 16.5307 37.4205 16.7497 37.4119C16.8887 37.4055 17.0276 37.3905 17.1666 37.3777C17.3477 37.3606 17.4446 37.2516 17.4067 37.1297C17.3857 37.0506 17.3435 36.9844 17.1793 36.9673C16.4507 36.8925 16.4422 36.8946 16.08 36.7492C16.0463 36.7364 16.0211 36.6979 16.0337 36.6787C16.0548 36.6466 16.1011 36.5996 16.1517 36.5932C16.636 36.5462 17.1203 36.5034 17.6047 36.4713C17.7647 36.4607 17.8826 36.4457 17.9374 36.3666C18.0132 36.2576 17.9795 36.1571 17.8321 36.0823C17.7858 36.0588 17.7099 36.0288 17.6594 36.031C17.1034 36.0695 16.5517 36.1186 15.9958 36.1571C15.9452 36.1614 15.8526 36.125 15.8316 36.0973C15.7895 36.046 15.8526 35.9775 16 35.954C16.1937 35.922 16.3917 35.9198 16.5222 35.8129C16.7033 35.6612 16.9265 35.5222 17.1287 35.3769C17.1624 35.3512 17.2172 35.302 17.2046 35.2977C17.0993 35.2507 16.9771 35.2144 16.8676 35.1695C16.6823 35.0947 16.6823 34.9899 16.7244 34.8895C16.7581 34.8082 16.8844 34.7762 17.0403 34.7762C17.1076 34.7762 17.1919 34.7762 17.2466 34.7569C17.3898 34.7099 17.4362 34.65 17.3646 34.6051C17.3224 34.5795 17.2467 34.5432 17.1961 34.5474C16.2948 34.618 15.3893 34.6864 14.4922 34.774C14.2269 34.7997 14.1048 34.7184 13.9448 34.6607C13.8226 34.6158 13.7088 34.5987 13.5572 34.6308C13.414 34.6607 13.2751 34.6436 13.1867 34.5731C13.1151 34.5154 13.2414 34.4662 13.5825 34.4106C13.6457 34.3999 13.7173 34.3935 13.7636 34.3721C14.2521 34.1413 14.2521 34.1391 14.5891 34.1092C14.9176 34.0814 14.9176 34.0793 15.0903 33.9553C15.1703 33.8976 15.2587 33.8399 15.3345 33.78C15.364 33.7565 15.4146 33.7137 15.3978 33.7009C15.3051 33.6346 15.1787 33.6197 15.0313 33.6347C14.7028 33.671 14.3154 33.6411 14.1427 33.8441C14.0753 33.9211 13.97 33.9425 13.8184 33.9553C12.2938 34.0793 10.7691 34.2118 9.2403 34.3315C8.99181 34.3508 8.87817 34.4299 8.7813 34.5175C8.69707 34.5902 8.60439 34.6116 8.44435 34.6244C8.28431 34.6372 8.1579 34.6436 8.06524 34.5731C8.01049 34.5303 8.05683 34.4705 8.18318 34.4106C8.36428 34.3251 8.33057 34.2182 8.2716 34.1178C8.22949 34.0515 8.09893 34.0045 7.95995 34.0088C7.75358 34.0173 7.55568 34.0408 7.38301 33.9553C7.28193 33.9061 7.15555 33.8719 7.04184 33.8292C6.82284 33.7415 6.60382 33.6518 6.29637 33.7095C6.08579 33.6881 5.93838 33.6111 5.76992 33.5513C5.48774 33.453 5.46247 33.438 5.66463 33.3332C5.89206 33.2157 5.71513 33.0617 5.84148 32.9463C5.97626 32.8223 6.16163 32.7133 6.32588 32.5979C6.368 32.568 6.40592 32.5402 6.44804 32.5102C6.35117 32.4675 6.26274 32.4141 6.14903 32.3841C6.00162 32.3456 5.92581 32.2986 5.93423 32.1661C5.90475 32.1468 5.9173 32.196 5.95099 32.2088C5.98889 32.2217 6.08162 32.211 6.12795 32.196C6.24587 32.1554 6.30478 32.1019 6.27529 32.0571C6.25845 32.0335 6.17849 32.0036 6.12795 32.0036C6.03529 32.0036 5.95528 32.0506 5.93001 32.1661C5.45831 32.2537 4.96968 32.2965 4.48113 32.3307C4.43059 32.335 4.36746 32.2922 4.30849 32.2708C4.11476 32.1981 4.11473 32.2003 3.54616 32.1789C3.4872 32.1768 3.40722 32.1468 3.37774 32.1169C3.2556 31.9865 3.25985 31.8433 3.20088 31.7043C3.31039 31.6146 3.4198 31.5269 3.53352 31.4393C3.76094 31.2618 4.05582 31.1058 4.23271 30.9113C4.19481 30.8065 4.14426 30.7018 4.32957 30.6163C4.85603 30.5094 4.85185 30.5094 4.99504 30.4068C5.40357 30.1161 5.80786 29.8232 6.23324 29.5367C6.34695 29.4619 6.34697 29.4213 6.14481 29.3893C6.08164 29.3807 6.01416 29.3786 5.94677 29.3828C5.73619 29.3978 5.52562 29.4363 5.31924 29.4277C5.11287 29.4213 4.96126 29.3272 4.79279 29.2695C4.62011 29.2097 4.44744 29.1477 4.27477 29.0857C4.07682 29.0921 3.87891 29.152 3.68096 29.0558C3.52935 28.9809 3.33983 28.9275 3.16716 28.8655C3.29772 28.703 3.54203 28.5791 3.73155 28.4358C3.90423 28.3054 3.90835 28.3076 4.37163 28.2071C4.59063 28.1601 4.66645 27.9185 4.48113 27.848C4.25792 27.7625 4.02211 27.6834 3.79469 27.6021C3.59674 27.6086 3.39462 27.6663 3.2051 27.5701C3.05769 27.4974 2.88919 27.4482 2.64492 27.476C2.23218 27.5231 1.81103 27.5466 1.39408 27.585C1.25088 27.5979 1.095 27.5893 1.03183 27.5167C0.989713 27.4653 1.11186 27.3948 1.25084 27.3798C1.46142 27.3585 1.65093 27.3328 1.75622 27.2259C1.8573 27.119 2.04259 27.087 2.26159 27.072C2.32056 27.0677 2.38799 27.0421 2.41747 27.0164C2.56909 26.8924 2.73757 26.7856 3.06187 26.7898C3.19664 26.7471 3.26819 26.6936 3.22607 26.6423C3.20081 26.6145 3.11241 26.5782 3.06187 26.5825C2.7123 26.6039 2.36275 26.6252 2.02161 26.6637C1.86156 26.6808 1.73936 26.6851 1.63828 26.621C1.56668 26.5782 1.60458 26.5205 1.73936 26.4585C1.85728 26.405 1.89101 26.3431 1.88259 26.2704C1.86153 26.1015 1.73516 26.0523 1.33084 26.063C1.04024 26.0716 0.968635 26.0438 0.90546 25.8984C0.888614 25.8642 0.846571 25.8172 0.876053 25.7937C1.05715 25.6483 1.17509 25.4688 1.51623 25.4004C1.651 25.3747 1.79414 25.3747 1.87837 25.3191C1.96261 25.2635 2.03845 25.1994 2.1269 25.146C2.2364 25.0818 2.31213 25.022 2.26159 24.9814C2.17736 24.9087 2.04263 24.9023 1.8868 24.9279C1.75203 24.9493 1.60884 24.9514 1.46986 24.9643C1.22137 24.9878 1.01926 24.9322 0.989775 24.8381C0.909754 24.5902 0.825497 24.3444 0.753899 24.0964C0.745476 24.0665 0.766476 24.028 0.800169 24.0023C0.918095 23.9125 1.04449 23.827 1.16663 23.7394C1.30983 23.6389 1.53729 23.6582 1.73103 23.6389C2.00478 23.6111 2.00469 23.6133 2.3711 23.408C2.5143 23.3268 2.7628 23.3589 2.9102 23.2862C2.95653 23.2627 3.02813 23.2242 3.01549 23.2028C2.99865 23.175 2.91446 23.1537 2.85128 23.1408C2.79232 23.128 2.72074 23.1216 2.65757 23.128C1.89105 23.19 1.12876 23.2563 0.362246 23.3161C0.231685 23.3268 0.0884854 23.2798 0.0421575 23.2135C-0.0041705 23.1515 0.00842327 23.0767 0 23.0062C0.122137 22.9185 0.261068 22.8373 0.366359 22.7432C0.44638 22.6705 0.539052 22.6385 0.699094 22.6342C0.909676 22.6278 1.11607 22.6021 1.35192 22.5829C1.78993 22.2708 2.21949 21.9437 2.69119 21.6316C2.88071 21.5055 2.83446 21.3772 2.87236 21.2426C2.91027 21.1186 3.19243 21.1378 3.38195 21.1015C3.53357 21.0716 3.58405 21.0032 3.52508 20.9561C3.49139 20.9283 3.41562 20.8963 3.35666 20.8963C3.21768 20.8963 3.0787 20.9155 2.93971 20.9262C2.80073 20.9369 2.64069 20.9305 2.52698 20.9668C2.41748 21.001 2.34584 21.0737 2.27424 21.1357C2.19422 21.2041 2.089 21.2276 1.92896 21.2319C1.72259 21.2362 1.51623 21.2554 1.30986 21.2704C1.08244 21.187 0.846534 21.1058 0.627529 21.0181C0.585413 21.001 0.576945 20.9519 0.581156 20.9198C0.589579 20.8364 0.526421 20.7851 0.387437 20.7445C0.269512 20.7103 0.172636 20.6611 0.0631334 20.6184C0.147366 20.5607 0.240055 20.5051 0.307441 20.4431C0.454848 20.3127 0.640181 20.2187 0.960265 20.2229C1.08661 20.1396 1.18766 20.0369 1.35192 19.9792C1.50775 19.9237 1.77309 19.9792 1.89102 19.8531C1.94998 19.7911 2.03848 19.7206 2.15219 19.6949C2.33329 19.6543 2.56914 19.6757 2.67443 19.556C2.7376 19.4876 2.83022 19.4256 2.95236 19.4085C3.09134 19.3892 3.2345 19.385 3.33558 19.3444C3.39033 19.323 3.4493 19.2888 3.4493 19.2588C3.4493 19.2396 3.36514 19.2097 3.30617 19.1968C3.25142 19.1819 3.17974 19.1712 3.11657 19.1755C2.90599 19.1883 2.69962 19.2118 2.48904 19.2246C2.43008 19.2289 2.36271 19.2139 2.29954 19.2011C2.11422 19.1669 2.12683 19.1242 2.27424 19.0472C2.42165 18.9724 2.527 18.8762 2.64913 18.7885C2.78391 18.7736 2.95235 18.78 3.045 18.7394C3.20083 18.6731 3.31031 18.5769 3.43666 18.4935C3.57564 18.4807 3.71883 18.4764 3.84939 18.4529C3.90414 18.4444 3.92943 18.3974 3.97576 18.3696C4.05999 18.3161 4.13165 18.2392 4.24536 18.2135C4.43067 18.175 4.6581 18.19 4.7676 18.0724C4.83077 18.004 4.9276 17.9314 5.04553 17.9271C5.37404 17.9185 5.51303 17.8009 5.68149 17.6898C5.80784 17.6064 6.07739 17.6492 6.21638 17.5658C6.30903 17.5124 6.37646 17.4461 6.46912 17.3948C6.50702 17.3734 6.58701 17.3627 6.65019 17.3563C6.99554 17.3242 7.34509 17.3007 7.69045 17.2665C7.7452 17.2601 7.79578 17.2281 7.8379 17.2024C7.92634 17.1468 7.98103 17.0699 8.09053 17.0335C8.20004 16.9972 8.35585 16.9972 8.49062 16.9865C8.92442 16.9544 8.95814 16.963 9.15609 16.7813C9.31613 16.6338 9.70786 16.7385 9.83842 16.5761C9.91423 16.482 10.0532 16.405 10.3016 16.3944C10.6512 16.3794 10.9966 16.3388 11.3461 16.311C11.6578 16.2853 11.6536 16.2853 11.9905 16.0865C12.1421 15.9967 12.3654 16.0096 12.5633 15.9925C12.7739 15.9754 12.9676 15.9497 13.0687 15.8428C13.1698 15.7381 13.3551 15.7039 13.5699 15.6889C13.7678 15.674 13.9911 15.6847 14.1469 15.5992C14.526 15.3939 14.5218 15.3918 14.7871 15.3704C15.204 15.3362 15.621 15.302 16.0379 15.2657C16.3159 15.2421 16.6065 15.2379 16.8676 15.1908C17.0571 15.1566 17.1413 15.0369 17.2635 14.9536C17.6088 14.9215 17.9542 14.8894 18.2995 14.8595C18.7839 14.8167 19.2724 14.7783 19.761 14.7377C19.9715 14.6564 20.0011 14.4769 20.3549 14.4683C20.5654 14.464 20.7718 14.4363 20.9824 14.4192C21.332 14.3892 21.6773 14.3507 22.0269 14.3358C22.2922 14.3251 22.3385 14.2096 22.4774 14.137C22.5238 14.1113 22.5659 14.075 22.6207 14.0686C23.1682 14.0087 23.7325 13.9959 24.2674 13.9082C24.3221 13.8997 24.3727 13.8548 24.3853 13.8227C24.3937 13.8056 24.3221 13.7736 24.2758 13.7586C24.2211 13.7415 24.1495 13.7244 24.0905 13.7287C22.3511 13.8719 20.6118 14.0173 18.8724 14.1605C18.6281 14.1819 18.6281 14.1797 18.0342 14.4149C17.9837 14.4341 17.9247 14.4555 17.8615 14.4619C17.5835 14.4875 17.3014 14.5025 17.0276 14.5346C16.8044 14.5602 16.6191 14.5346 16.4591 14.4576C16.3454 14.402 16.2274 14.3849 16.0842 14.3892C15.9242 14.3956 15.8189 14.4192 15.7263 14.4769C15.6041 14.556 15.5409 14.6586 15.284 14.6799C14.1006 14.7719 12.917 14.8745 11.7378 14.9728C11.5735 14.9429 11.4935 14.898 11.5356 14.8445C11.5609 14.8125 11.6115 14.7697 11.662 14.7655C12.1463 14.7206 12.6349 14.6821 13.1192 14.6393C13.1866 14.6329 13.2792 14.6372 13.3171 14.6158C13.5024 14.5196 13.5699 14.3636 13.9195 14.3529C14.1216 14.3465 14.328 14.3144 14.5217 14.2845C14.5765 14.2759 14.627 14.231 14.6396 14.199C14.6439 14.1819 14.5765 14.1498 14.5259 14.1348C14.3406 14.0728 14.1259 14.1477 13.9406 14.1049C13.8774 14.09 13.7889 14.0686 13.7762 14.0429C13.7678 14.0194 13.8394 13.9809 13.89 13.9574C13.9363 13.936 13.9994 13.9168 14.0626 13.9104C14.6185 13.8612 15.1746 13.8099 15.7305 13.7714C15.9579 13.7565 16.1179 13.703 16.219 13.6047C16.2948 13.532 16.3875 13.4935 16.5307 13.4829C17.5036 13.4038 18.4764 13.3161 19.4535 13.2434C19.6978 13.2263 19.8242 13.1558 19.9253 13.0639C20.0053 12.9912 20.098 12.9655 20.2538 12.9527C21.6478 12.8416 23.0334 12.7176 24.4275 12.6107C24.6844 12.5915 24.7602 12.4995 24.8908 12.4204C24.9371 12.3927 24.9665 12.3584 25.0255 12.3413C25.0845 12.3242 25.1603 12.3264 25.2319 12.3221C26.3437 12.2302 27.4557 12.1319 28.5718 12.0463C28.8329 12.0271 28.8833 11.9202 29.0181 11.8454C29.0644 11.8219 29.1066 11.7834 29.1614 11.777C29.9953 11.7043 30.8291 11.6359 31.663 11.5654C32.219 11.5183 32.7749 11.4713 33.3308 11.4264C33.6046 11.405 33.6046 11.4029 33.9752 11.1998C34.0173 11.1763 34.0764 11.1485 34.1311 11.1421C35.7315 11.0053 37.3277 10.8749 38.9281 10.7402C39.0629 10.7295 39.1597 10.6804 39.2271 10.6077C39.2945 10.535 39.3915 10.4858 39.522 10.4751C40.7729 10.3683 42.0237 10.2635 43.2788 10.163C43.5062 10.1459 43.6662 10.0946 43.7673 9.99844C43.8431 9.92576 43.9357 9.8873 44.0789 9.87661C45.3298 9.774 46.5807 9.66496 47.8358 9.56663C48.0758 9.54739 48.1937 9.47472 48.3116 9.38921C48.3538 9.35929 48.3875 9.31012 48.438 9.30584C49.0613 9.24599 49.6804 9.18399 50.308 9.14338C50.5691 9.12628 50.6576 9.03649 50.7628 8.95098C50.8471 8.88258 50.944 8.85907 51.104 8.85052C51.4536 8.83128 51.7989 8.79495 52.1401 8.75861C52.1906 8.7522 52.2538 8.70517 52.258 8.67524C52.2664 8.61966 52.1695 8.58118 52.0095 8.56194C50.3417 8.70089 48.6697 8.83982 47.0019 8.97877C46.7281 9.00229 46.7281 9.0023 46.3575 9.20538C46.3154 9.22889 46.2564 9.25669 46.1974 9.2631C44.597 9.39777 43.0008 9.53031 41.4004 9.66498C41.2656 9.67567 41.1688 9.72484 41.1014 9.79752C41.034 9.8702 40.937 9.91936 40.8065 9.93005C39.2777 10.0583 37.7489 10.1887 36.2158 10.3106C35.9884 10.3277 35.8284 10.3768 35.7273 10.4751C35.6515 10.5478 35.5589 10.5863 35.4157 10.597C33.9542 10.7167 32.4969 10.8428 31.0313 10.9583C30.8839 10.9689 30.7745 10.9069 30.7829 10.8492C30.7871 10.8193 30.8502 10.7702 30.9007 10.7659C31.663 10.6953 32.4212 10.6227 33.1877 10.5692C33.4446 10.5521 33.5204 10.458 33.6509 10.379C33.693 10.3512 33.7268 10.3148 33.7815 10.2999C33.8405 10.2828 33.9163 10.2849 33.9879 10.2806C35.7947 10.1289 37.6015 9.97495 39.4125 9.83173C39.6736 9.81035 39.7241 9.70559 39.8589 9.63077C39.9052 9.60512 39.9473 9.56665 40.0021 9.56238C40.558 9.51107 41.1139 9.46618 41.6699 9.42128C42.6428 9.34005 43.6156 9.25882 44.5927 9.17759C44.8749 9.15407 44.8749 9.15406 45.2371 8.95312C45.2792 8.92961 45.3383 8.8997 45.393 8.89543C47.9663 8.67952 50.5397 8.46361 53.113 8.24985C53.2477 8.23916 53.3446 8.18999 53.412 8.11731C53.4794 8.04677 53.5762 7.99546 53.7068 7.98264C57.1856 7.69192 60.6602 7.40118 64.139 7.11473C64.3664 7.09549 64.5264 7.0506 64.6275 6.95013C64.6991 6.87745 64.796 6.83898 64.9392 6.82615C68.7633 6.50764 72.5875 6.18913 76.4159 5.86848C78.9892 5.65471 81.5625 5.43667 84.1358 5.22718C84.3717 5.20794 84.498 5.14166 84.6159 5.05402C84.6538 5.02409 84.6917 4.97492 84.7423 4.97064C85.294 4.9172 85.8457 4.86804 86.3974 4.81888C86.5701 4.8766 86.7428 4.93219 86.9154 4.9899C87.046 4.90867 87.1724 4.8253 87.303 4.74407C88.1369 4.68207 88.9581 4.58588 89.8005 4.55595C89.8552 4.55381 89.9141 4.59443 89.9731 4.61581C90.3648 4.75048 90.588 4.73979 90.8365 4.56023C90.9249 4.4961 91.0007 4.43838 91.1355 4.42769C91.5525 4.38922 91.9737 4.36356 92.3865 4.31867C92.6097 4.29516 92.7949 4.31653 92.955 4.39348C93.0687 4.44906 93.1867 4.47259 93.3256 4.45976C94.0922 4.39563 94.8544 4.33364 95.621 4.26523C95.6757 4.26095 95.7262 4.2246 95.7683 4.19895C95.8568 4.14337 95.9326 4.08353 96.0168 4.02581C96.1305 4.06215 96.2569 4.08995 96.3496 4.13697C96.4675 4.19255 96.577 4.19254 96.737 4.17758C99.7947 3.91892 102.857 3.66668 105.914 3.40588C106.175 3.38451 106.289 3.4743 106.466 3.52133C106.525 3.53843 106.584 3.55979 106.647 3.56407C106.714 3.56834 106.786 3.55553 106.853 3.54912C109.149 3.35673 111.444 3.16646 113.739 2.97407C114.043 2.94842 114.043 2.94842 114.493 3.08095C114.548 3.09805 114.62 3.1173 114.679 3.11088C115.723 3.02751 116.768 2.93774 117.808 2.85223C117.943 2.84155 118.056 2.87574 118.179 2.92491C118.419 3.0211 118.435 3.02111 118.612 2.88002C118.696 2.81376 118.785 2.77312 118.924 2.75388C119.075 2.73251 119.198 2.73894 119.316 2.77742C119.484 2.83086 119.606 2.92063 119.863 2.89712C120.975 2.79665 122.091 2.71328 123.199 2.61068C123.451 2.58716 123.586 2.65984 123.755 2.71328C123.814 2.73252 123.868 2.76245 123.932 2.76886C123.995 2.77527 124.071 2.7603 124.138 2.75388C125.528 2.63845 126.922 2.52517 128.307 2.40119C128.569 2.37767 128.682 2.46958 128.859 2.51661C128.918 2.53371 128.985 2.56365 129.04 2.55937C129.874 2.49311 130.712 2.42254 131.546 2.352C131.845 2.32635 131.845 2.32849 132.3 2.45888C132.355 2.47599 132.426 2.49309 132.485 2.48881C133.458 2.40972 134.435 2.32849 135.408 2.24726C135.707 2.22161 135.707 2.22161 136.571 2.33277C136.634 2.34132 136.701 2.35416 136.764 2.34989C137.876 2.25797 138.992 2.16817 140.104 2.06984C140.327 2.0506 140.513 2.0677 140.673 2.14465C140.787 2.20023 140.904 2.22376 141.043 2.21093C142.294 2.10619 143.549 2.00572 144.796 1.89456C145.036 1.87319 145.192 1.9202 145.36 1.98219C145.415 2.00356 145.47 2.0335 145.533 2.04205C145.596 2.0506 145.668 2.04204 145.735 2.03563C146.986 1.93088 148.241 1.83256 149.488 1.71926C149.74 1.69574 149.875 1.76842 150.044 1.82186C150.103 1.8411 150.166 1.87958 150.216 1.87744C150.705 1.8411 151.193 1.80905 151.678 1.75561C151.939 1.72568 152.053 1.824 152.23 1.87103C152.288 1.88599 152.356 1.91807 152.411 1.91379C153.455 1.83043 154.5 1.74279 155.54 1.65301C155.687 1.64018 155.797 1.6594 155.915 1.71498C156.071 1.7898 156.252 1.81973 156.479 1.79621C156.963 1.74705 157.452 1.71285 157.941 1.67224C158.227 1.64872 158.227 1.64873 159.103 1.75989C159.166 1.76844 159.233 1.78126 159.297 1.77698C160.131 1.70858 160.969 1.64231 161.798 1.56749C162.022 1.54612 162.207 1.56535 162.367 1.64231C162.481 1.69789 162.594 1.72141 162.738 1.70859C163.504 1.64446 164.266 1.58032 165.033 1.51619C165.311 1.49268 165.589 1.45205 165.867 1.45205C166.069 1.45419 166.216 1.55679 166.398 1.6081C166.448 1.62306 166.532 1.60598 166.6 1.6017C167.573 1.52047 168.55 1.44565 169.518 1.35373C169.771 1.33021 169.906 1.40289 170.074 1.45633C170.133 1.47557 170.196 1.51405 170.247 1.51191C170.596 1.4884 170.942 1.45633 171.291 1.42854C171.708 1.39434 172.129 1.36868 172.542 1.32166C172.879 1.28318 173.005 1.46915 173.275 1.47556C173.481 1.48197 173.692 1.44564 173.898 1.42854C174.315 1.39434 174.732 1.35586 175.149 1.32594C175.297 1.31525 175.41 1.28103 175.457 1.20407C175.465 1.18911 175.394 1.15706 175.347 1.13782C174.787 0.919777 174.787 0.919767 174.223 0.966796C173.873 0.996723 173.528 1.02666 173.178 1.05231C173.119 1.05658 173.052 1.03948 172.993 1.02666C172.824 0.990316 172.841 0.947567 172.984 0.870611C173.128 0.793655 173.237 0.699606 173.359 0.611962C173.532 0.667541 173.7 0.7231 173.873 0.77868C174.012 0.767992 174.151 0.755184 174.29 0.744496C174.985 0.688917 175.68 0.631195 176.375 0.579891C176.425 0.575616 176.489 0.618376 176.547 0.639752C176.716 0.701745 176.868 0.755172 177.112 0.731657C177.735 0.669665 178.363 0.624774 178.986 0.571332C179.26 0.547818 179.26 0.54782 179.74 0.680355C179.795 0.695319 179.866 0.712422 179.925 0.708146C180.553 0.65898 181.176 0.605544 181.804 0.55424C181.938 0.543552 182.069 0.571341 182.166 0.633333C182.204 0.658985 182.195 0.70173 182.355 1.05231C182.852 1.33662 183.193 1.3067 183.539 1.28105C183.686 1.27036 183.817 1.25967 183.914 1.21691C183.964 1.1934 184.027 1.15919 184.027 1.1314C184.027 1.11002 183.935 1.07581 183.876 1.07154C183.459 1.02879 183.063 1.11858 182.654 1.13782C182.465 1.14637 182.301 1.07155 182.267 0.949704C182.258 0.915501 182.246 0.879163 182.233 0.84496C182.221 0.810757 182.212 0.774419 182.2 0.740216C182.035 0.729528 181.938 0.768 181.867 0.840681C181.808 0.900535 181.724 0.968941 181.61 1.00101C181.496 1.03521 181.34 1.02881 181.201 1.0395C181.067 1.05018 180.919 1.07797 180.793 1.06301C180.666 1.04591 180.565 0.983902 180.447 0.945424C180.393 0.926185 180.325 0.898406 180.271 0.902681C179.786 0.939022 179.306 0.975348 178.826 1.02238C178.573 1.04803 178.447 0.958261 178.287 0.902681C178.161 0.859928 178.034 0.870603 178.013 0.968935C177.958 1.20408 178.152 1.30241 178.582 1.25752C178.936 1.21904 179.256 1.21264 179.534 1.35801C179.571 1.37724 179.66 1.38579 179.715 1.38152C180.06 1.35586 180.401 1.3238 180.746 1.29814C180.81 1.29387 180.877 1.30241 180.936 1.31096C181.795 1.42639 181.795 1.42854 182.086 1.40289C182.225 1.39006 182.36 1.37937 182.347 1.05445C182.612 0.706007 183.033 0.682497 183.442 0.631193C183.707 0.599128 183.821 0.69319 183.994 0.742356C184.053 0.759458 184.116 0.793654 184.171 0.789379C185.076 0.718836 185.977 0.644007 186.879 0.564913C187.03 0.552087 187.14 0.564915 187.258 0.620494C187.409 0.691038 187.578 0.735938 187.818 0.710286C188.298 0.658982 188.786 0.626924 189.275 0.584171C189.524 0.562794 189.524 0.562772 190.025 0.695308C190.079 0.710271 190.151 0.727374 190.21 0.723098C190.699 0.686758 191.183 0.641881 191.667 0.603403C191.802 0.592714 191.924 0.622638 192.029 0.680355C192.135 0.738073 192.261 0.767997 192.392 0.757308C192.88 0.71883 193.365 0.676091 193.849 0.637613C193.908 0.633337 193.979 0.6483 194.034 0.663264C194.548 0.795799 194.548 0.795777 194.784 0.7744C195.129 0.742335 195.483 0.727388 195.824 0.684635C196.157 0.641882 196.33 0.765856 196.557 0.834261C197.18 0.785095 197.808 0.74449 198.427 0.684635C198.68 0.658983 198.814 0.72952 198.983 0.785099C199.042 0.804338 199.101 0.844958 199.156 0.84282C199.366 0.83427 199.573 0.810759 199.779 0.793658C199.985 0.776557 200.196 0.759458 200.402 0.742356C200.638 0.804349 200.794 0.949708 201.131 0.900542C201.333 0.870614 201.548 0.864201 201.754 0.8471C201.961 0.829999 202.171 0.812899 202.377 0.795798C202.516 0.78511 202.66 0.778687 202.794 0.759448C203.043 0.727383 203.165 0.832141 203.342 0.87917C203.401 0.894134 203.468 0.919769 203.523 0.915494C203.94 0.885566 204.361 0.859916 204.77 0.81075C205.086 0.772272 205.3 0.83641 205.524 0.926193C205.57 0.945432 205.65 0.956119 205.709 0.951844C206.197 0.915503 206.682 0.8706 207.166 0.832122C207.297 0.821433 207.423 0.855635 207.528 0.911214C207.638 0.968931 207.76 0.996742 207.895 0.986054C208.379 0.947575 208.868 0.90481 209.352 0.866332C209.411 0.862056 209.482 0.879161 209.537 0.896262C210.009 1.0288 210.009 1.03094 210.287 1.00529C210.354 0.998872 210.426 0.99458 210.493 0.988167C210.839 0.95824 211.197 0.947566 211.534 0.896262C211.921 0.838545 212.203 0.911229 212.477 1.03308C212.822 1.00742 213.176 0.992457 213.513 0.949704C213.766 0.917639 213.9 0.998866 214.069 1.05231C214.128 1.07155 214.191 1.11002 214.242 1.10575C214.73 1.06941 215.219 1.03736 215.699 0.983914C215.96 0.953986 216.074 1.05016 216.251 1.09933C216.31 1.11643 216.373 1.14637 216.427 1.1421C216.705 1.125 216.983 1.09933 217.261 1.07582C217.586 1.04803 217.586 1.05016 218.015 1.18056C218.217 1.24255 218.42 1.19339 218.618 1.17842C218.828 1.16132 219.026 1.1485 219.194 1.23614C219.3 1.29172 219.426 1.32593 219.557 1.31738C219.835 1.29814 220.117 1.27891 220.391 1.24684C220.61 1.22119 220.799 1.23828 220.959 1.31738C221.073 1.37296 221.191 1.40076 221.33 1.38794C221.953 1.33663 222.581 1.28317 223.204 1.234C223.259 1.22973 223.335 1.24898 223.385 1.26821C223.503 1.30669 223.617 1.34944 223.73 1.39219C224.004 1.37295 224.286 1.36442 224.556 1.33449C224.842 1.30457 225.103 1.29388 225.327 1.41145C225.373 1.4371 225.44 1.47342 225.495 1.47128C225.706 1.46273 225.912 1.44136 226.118 1.42426C226.325 1.40716 226.535 1.39006 226.742 1.37296C226.982 1.4264 227.133 1.58031 227.47 1.53114C227.673 1.50122 227.887 1.4948 228.094 1.4777C228.3 1.4606 228.511 1.44136 228.717 1.4264C228.784 1.42212 228.86 1.41143 228.919 1.41998C228.982 1.42853 229.037 1.45846 229.092 1.47984C229.26 1.54183 229.416 1.60383 229.656 1.56749C229.858 1.53757 230.073 1.53115 230.28 1.51191C230.562 1.4884 230.562 1.4884 231.029 1.62307C231.219 1.67865 231.434 1.60598 231.615 1.65301C231.737 1.68507 231.842 1.7385 231.96 1.77484C232.011 1.7898 232.091 1.79621 232.149 1.79193C232.427 1.77269 232.71 1.75346 232.983 1.7214C233.207 1.69575 233.392 1.7214 233.548 1.79835C233.661 1.85393 233.775 1.87746 233.918 1.86463C234.613 1.80478 235.308 1.75346 235.999 1.68719C236.235 1.66367 236.424 1.70002 236.555 1.77698C236.778 1.90952 237.094 1.75347 237.326 1.86035C237.469 1.92662 237.612 2.00358 237.873 1.97152C238.353 1.91594 238.842 1.88599 239.326 1.84751C239.499 1.90523 239.671 1.96296 239.848 2.02068C240.126 1.99716 240.404 1.97363 240.682 1.95226C240.889 1.93516 241.099 1.91592 241.306 1.90096C241.373 1.89668 241.445 1.88813 241.508 1.89882C241.571 1.9095 241.622 1.9373 241.68 1.95868C241.971 2.06342 241.971 2.06557 242.451 2.02282C242.658 2.00358 242.855 1.99075 243.028 2.07626C243.188 2.15535 243.378 2.17031 243.597 2.14679C244.009 2.10404 244.426 2.07198 244.848 2.04205C244.978 2.03136 245.1 2.0677 245.21 2.12328C245.374 2.21093 245.576 2.20238 245.783 2.17886C246.056 2.14894 246.326 2.11901 246.557 2.23872C246.604 2.26438 246.675 2.3007 246.726 2.29856C247.071 2.28146 247.421 2.26864 247.758 2.22803C248.095 2.18741 248.259 2.31994 248.491 2.38407C248.836 2.35628 249.186 2.32849 249.531 2.3007C249.598 2.29429 249.678 2.27506 249.737 2.28575C249.986 2.33064 250.129 2.49096 250.47 2.44179C250.668 2.414 250.883 2.40546 251.089 2.39905C251.144 2.39691 251.216 2.43323 251.254 2.46102C251.275 2.47599 251.253 2.5166 251.228 2.53798C251.152 2.59783 251.06 2.65343 250.992 2.71542C250.984 2.72397 251.064 2.76243 251.11 2.77953C251.224 2.81801 251.355 2.81161 251.506 2.79451C251.637 2.77955 251.772 2.80948 251.864 2.87361C251.902 2.89926 251.889 2.94201 251.809 3.08309C251.809 3.18784 251.898 3.1408 251.927 3.07239C251.974 2.97406 251.885 2.942 251.717 2.99544C251.599 3.03392 251.54 3.0895 251.569 3.13439C251.586 3.15791 251.666 3.18784 251.809 3.08309C252.18 2.95483 252.458 2.93133 252.736 2.90782C252.808 2.9014 252.892 2.88001 252.942 2.89284C253.123 2.94414 253.292 3.00614 253.469 3.06386C253.671 3.05103 253.86 3.01896 254.058 3.10232C254.336 3.2199 254.349 3.20921 254.619 3.1857C254.758 3.17287 254.897 3.1622 255.036 3.15151C255.175 3.14082 255.284 3.17288 255.406 3.22205C255.655 3.32252 255.676 3.32251 255.84 3.1857C255.937 3.10233 256.004 3.07455 256.126 3.11302C256.531 3.24342 256.535 3.25197 256.88 3.21349C257.167 3.18142 257.436 3.17287 257.647 3.29472C257.79 3.38023 257.836 3.36099 257.95 3.27121C258.253 3.03393 258.392 3.03819 258.961 3.20921C259.226 3.29044 259.5 3.2028 259.769 3.19212C259.997 3.18357 260.157 3.23486 260.174 3.36953C260.186 3.4529 260.224 3.51277 260.376 3.54056C260.435 3.55125 260.506 3.5662 260.565 3.56193C260.915 3.53628 261.26 3.50634 261.61 3.47642C261.787 3.46145 261.884 3.361 261.85 3.22847C261.812 3.08738 261.879 3.03606 262.132 2.99544C262.284 2.97193 262.406 2.97622 262.528 3.0147C262.663 3.05745 262.625 3.09593 262.507 3.17288C262.225 3.361 262.258 3.47641 262.621 3.60681C262.747 3.6517 262.848 3.69234 262.878 3.7586C262.894 3.79281 262.878 3.83769 262.915 3.86335C263.122 4.00657 263.408 4.0985 263.728 4.16691C264.036 4.10919 264.246 4.20537 264.482 4.28232C264.668 4.34218 264.887 4.29089 265.084 4.26951C265.308 4.24599 265.493 4.26309 265.653 4.34218C265.767 4.39776 265.885 4.4234 266.024 4.41272C266.302 4.3892 266.584 4.37425 266.858 4.34004C267.093 4.31012 267.27 4.35287 267.418 4.42555C267.603 4.51747 267.809 4.45547 268.003 4.4683C268.264 4.48326 268.395 4.67351 268.736 4.6222C268.938 4.59228 269.149 4.58159 269.359 4.57304C269.414 4.5709 269.481 4.60725 269.528 4.6329C269.751 4.75047 270.012 4.74406 270.298 4.70986C270.496 4.68634 270.69 4.66497 270.884 4.7462C271.204 4.88302 271.558 5.00273 271.895 5.12886C271.941 5.22719 271.907 5.3426 272.147 5.40032C272.274 5.43025 272.392 5.47515 272.489 5.52432C272.606 5.58204 272.716 5.597 272.868 5.58204C273.141 5.55211 273.428 5.54568 273.697 5.5072C273.946 5.473 274.102 5.54356 274.253 5.60983C274.375 5.66327 274.489 5.68891 274.637 5.65043C274.788 5.61409 274.898 5.6376 275.02 5.69532C275.192 5.77441 275.205 5.76587 275.778 5.78939C275.837 5.79153 275.908 5.82357 275.942 5.85136C275.959 5.86633 275.921 5.9091 275.892 5.93048C275.854 5.95613 275.795 5.98604 275.74 5.99246C275.117 6.04804 274.489 6.0972 273.866 6.15278C273.803 6.15919 273.735 6.17417 273.689 6.19555C273.638 6.21906 273.575 6.25111 273.575 6.28104C273.575 6.30241 273.659 6.32807 273.718 6.34304C273.904 6.3922 274.123 6.31739 274.304 6.37297C274.426 6.40931 274.527 6.4606 274.649 6.4948C274.7 6.50977 274.78 6.50764 274.843 6.50336C275.053 6.4884 275.26 6.46703 275.47 6.4542C275.529 6.45206 275.597 6.47345 275.651 6.49055C276.056 6.61881 276.056 6.6188 276.405 6.59101C276.544 6.58033 276.692 6.54826 276.822 6.56108C276.949 6.57391 277.058 6.63163 277.172 6.66797C277.408 6.74492 277.631 6.81974 277.648 6.98648C277.656 7.05061 277.795 7.10618 277.934 7.11045C278.069 7.11473 278.212 7.09123 278.351 7.07841C278.68 7.05276 278.68 7.05275 279.105 7.18315C279.223 7.21949 279.349 7.22376 279.501 7.20238C279.56 7.19383 279.632 7.20239 279.695 7.21308C279.901 7.24515 279.901 7.28575 279.766 7.36271C279.577 7.47601 279.594 7.4867 280.124 7.5829C280.326 7.61924 280.482 7.68764 280.651 7.7475C280.924 7.8437 280.92 7.84368 280.739 7.9698C280.697 7.99759 280.659 8.02752 280.617 8.05745C280.495 8.14082 280.398 8.2306 280.145 8.23915C279.867 8.2477 279.589 8.28191 279.311 8.30543C279.042 8.32894 278.97 8.38023 278.995 8.52559C279.025 8.70088 279.08 8.72012 279.564 8.71798C279.703 8.71798 279.825 8.73508 279.93 8.7928C279.88 8.8612 279.787 8.91465 279.653 8.92747C279.307 8.95954 278.958 8.98733 278.612 9.01512C278.334 9.03864 278.056 9.06214 277.778 9.08566C277.606 9.10062 277.496 9.21179 277.542 9.33577C277.568 9.40632 277.589 9.47686 277.61 9.5474C277.656 9.68849 277.745 9.72484 278.027 9.71842C278.098 9.71629 278.166 9.69917 278.233 9.70345C278.507 9.71841 278.637 9.89583 278.966 9.85949C279.24 9.82956 279.526 9.82316 279.796 9.78468C280.044 9.75047 280.183 9.82745 280.356 9.88517C280.415 9.90441 280.478 9.945 280.529 9.94286C280.878 9.91935 281.228 9.89585 281.569 9.85524C281.729 9.83814 281.826 9.85096 281.952 9.90226C282.255 10.0262 282.264 10.0198 282.714 9.98135C283.043 9.95143 283.047 9.9557 283.468 10.0861C283.586 10.1224 283.713 10.1224 283.864 10.1053C284.062 10.084 284.268 10.0498 284.475 10.0818C284.538 10.0904 284.618 10.116 284.639 10.1438C284.652 10.1631 284.593 10.2101 284.542 10.225C284.172 10.3362 283.738 10.317 283.333 10.3619C283.207 10.3747 283.081 10.3341 282.975 10.2764C282.866 10.2186 282.748 10.1951 282.605 10.2058C282.327 10.2293 282.045 10.2443 281.771 10.2785C281.535 10.3084 281.371 10.2592 281.207 10.193C281.152 10.1716 281.089 10.131 281.034 10.1331C280.411 10.1759 279.783 10.2186 279.164 10.2785C278.916 10.3041 278.772 10.2357 278.604 10.178C278.545 10.1588 278.486 10.1182 278.431 10.1203C278.221 10.1289 278.014 10.1524 277.804 10.1695C277.037 10.2336 276.275 10.2977 275.508 10.3576C275.458 10.3619 275.395 10.317 275.336 10.2977C275.222 10.2592 275.104 10.2229 274.986 10.1866C274.775 10.2037 274.569 10.225 274.358 10.2379C274.207 10.2464 274.072 10.2764 274.051 10.3576C274.038 10.411 274.177 10.4602 274.325 10.4559C274.468 10.4516 274.611 10.426 274.729 10.4538C275.315 10.5906 275.315 10.5927 275.681 10.5649C276.001 10.5393 275.967 10.5179 276.249 10.6355C276.372 10.6868 276.481 10.7167 276.62 10.7039C276.966 10.674 277.315 10.644 277.665 10.6184C277.719 10.6141 277.791 10.6355 277.846 10.6526C278.258 10.7808 278.258 10.7851 278.6 10.753C279.046 10.7146 279.063 10.7039 279.362 10.8343C279.568 10.9241 279.758 10.8621 279.956 10.8578C280.183 10.9412 280.432 11.016 280.638 11.11C280.882 11.2212 281.139 11.2019 281.417 11.1699C281.624 11.1464 281.826 11.1378 281.994 11.2255C282.154 11.3067 282.348 11.3153 282.567 11.2939C282.765 11.2746 282.967 11.234 283.173 11.281C283.228 11.2939 283.312 11.3259 283.308 11.3452C283.304 11.3751 283.249 11.4179 283.194 11.4307C282.807 11.5183 282.382 11.5162 281.973 11.5568C281.918 11.5632 281.847 11.5397 281.792 11.5226C281.674 11.4841 281.56 11.4392 281.447 11.3986C281.24 11.4115 281.03 11.4157 280.828 11.4414C280.672 11.4606 280.554 11.4585 280.44 11.4072C280.335 11.3602 280.221 11.3024 280.095 11.2875C279.968 11.2725 279.821 11.3046 279.682 11.3174C279.543 11.3302 279.383 11.3238 279.274 11.358C279.164 11.3922 279.097 11.467 279.025 11.5269C278.945 11.5932 278.835 11.6145 278.675 11.621C278.528 11.6274 278.41 11.6188 278.301 11.559C278.254 11.5333 278.191 11.5141 278.128 11.497C278.069 11.482 278.002 11.4585 277.947 11.4627C277.319 11.5119 276.696 11.5654 276.068 11.6167C275.757 11.6423 275.761 11.6423 275.112 11.5162C275.053 11.5055 274.982 11.4905 274.923 11.4948C274.573 11.5205 274.228 11.5504 273.878 11.5803C273.525 11.6103 273.529 11.606 272.927 11.4713C272.817 11.4456 272.657 11.4799 272.526 11.4756C272.253 11.4649 272.118 11.2853 271.798 11.3195C271.524 11.3495 271.238 11.3559 270.964 11.3943C270.715 11.4286 270.572 11.3537 270.404 11.296C270.345 11.2768 270.282 11.234 270.231 11.2383C269.604 11.2853 268.98 11.3388 268.146 11.3452C267.94 11.3452 268.033 11.3901 268.167 11.405C268.361 11.4286 268.424 11.3837 268.319 11.2982C268.243 11.2383 268.134 11.2084 268.045 11.2233C267.999 11.2319 267.94 11.2725 268.146 11.3452C268.365 11.4264 268.353 11.4713 268.391 11.497C268.483 11.5589 268.614 11.5846 268.749 11.576C268.959 11.5611 269.166 11.5397 269.376 11.5269C269.435 11.5226 269.507 11.5376 269.561 11.5547C270.025 11.6872 270.029 11.6958 270.522 11.6445C270.678 11.6295 270.791 11.6295 270.913 11.6701C271.082 11.7257 271.204 11.8197 271.461 11.7898C271.802 11.7492 272.152 11.7257 272.501 11.7022C272.556 11.6979 272.615 11.7364 272.678 11.7535C272.851 11.8048 272.977 11.901 273.234 11.8604C273.432 11.8283 273.647 11.8197 273.857 11.8133C273.912 11.8112 273.996 11.8454 274.022 11.8732C274.072 11.9224 274.009 11.9801 273.866 12.0207C273.807 12.0378 273.727 12.0335 273.659 12.0399C273.381 12.0634 273.103 12.0891 272.825 12.1083C272.678 12.119 272.539 12.1511 272.522 12.2302C272.51 12.2836 272.661 12.3306 272.804 12.3264C273.015 12.32 273.226 12.3029 273.428 12.2751C273.786 12.228 274.097 12.2409 274.388 12.3755C274.594 12.4696 274.582 12.4354 274.801 12.7133C274.855 12.7838 275.02 12.7902 275.163 12.786C275.508 12.7753 275.668 12.8074 275.639 12.8736C275.601 12.9549 275.479 12.9805 275.323 12.9912C275.045 13.0083 274.767 13.0361 274.489 13.0596C274.422 13.066 274.346 13.0788 274.283 13.0746C274.22 13.0703 274.161 13.0446 274.106 13.0254C273.988 12.9848 273.887 12.9228 273.76 12.9078C273.634 12.8928 273.487 12.9249 273.348 12.9377C273.209 12.9484 273.061 12.9805 272.935 12.9655C272.809 12.9506 272.703 12.8865 272.59 12.848C272.535 12.8287 272.467 12.7988 272.413 12.8009C272.135 12.818 271.857 12.8458 271.579 12.8672C271.238 12.895 271.238 12.895 270.825 12.7625C270.707 12.724 270.585 12.7261 270.429 12.7432C270.092 12.7774 270.088 12.771 269.473 12.647C269.414 12.6342 269.342 12.6192 269.283 12.6256C268.656 12.6748 268.033 12.7282 267.409 12.7796C266.874 12.8244 266.874 12.8245 266.58 13.0382C266.361 13.1964 266.356 13.1964 266.571 13.2691C266.744 13.3289 266.9 13.4166 267.089 13.4486C267.266 13.4786 267.485 13.3824 267.679 13.4807C267.776 13.5299 267.902 13.5833 268.024 13.5919C268.218 13.6026 268.424 13.5406 268.61 13.6346C268.702 13.6817 268.841 13.7308 268.959 13.733C269.166 13.7372 269.376 13.703 269.583 13.6881C269.646 13.6838 269.717 13.6838 269.776 13.6945C269.839 13.7073 269.894 13.733 269.949 13.7543C270.117 13.827 270.299 13.8612 270.518 13.8249C270.875 13.765 271.196 13.7949 271.474 13.9318C271.511 13.951 271.604 13.9531 271.663 13.9446C271.815 13.9232 271.945 13.9211 272.059 13.9617C272.105 13.9788 272.173 14.0087 272.164 14.0279C272.152 14.06 272.101 14.1028 272.046 14.1135C271.65 14.1861 271.225 14.1947 270.817 14.2332C270.762 14.2375 270.694 14.2096 270.64 14.1904C270.522 14.1519 270.421 14.0878 270.294 14.0729C270.168 14.0579 270.021 14.0857 269.882 14.0964C269.743 14.1071 269.595 14.1391 269.469 14.1263C269.342 14.1113 269.225 14.0579 269.123 14.0109C269.006 13.9574 268.892 13.951 268.736 13.9724C268.534 14.0002 268.323 14.0044 268.117 14.0194C268.003 13.9788 267.889 13.9339 267.772 13.8954C267.717 13.8762 267.649 13.8527 267.59 13.8548C267.312 13.8719 267.034 13.8975 266.756 13.9211C266.478 13.9446 266.479 13.9446 266.007 13.8121C265.952 13.7971 265.88 13.78 265.821 13.7843C265.472 13.8099 265.127 13.842 264.777 13.8676C264.642 13.8783 264.52 13.8484 264.411 13.7907C264.305 13.7329 264.179 13.7009 264.048 13.7116C263.492 13.7565 262.937 13.7992 262.381 13.8527C262.157 13.874 261.968 13.8548 261.816 13.7779C261.639 13.6902 261.441 13.7116 261.235 13.7287C260.768 13.7714 260.763 13.7693 260.464 13.6603C260.405 13.6389 260.346 13.5983 260.292 13.6004C259.807 13.6325 259.319 13.6624 258.839 13.7137C258.586 13.7415 258.451 13.6667 258.283 13.6111C258.224 13.5919 258.161 13.5513 258.11 13.5555C257.76 13.579 257.411 13.6004 257.07 13.6432C256.729 13.6859 256.598 13.4871 256.341 13.4893C255.992 13.4914 255.646 13.5406 255.301 13.5705C255.023 13.594 254.745 13.6175 254.467 13.641C254.189 13.6646 253.911 13.6838 253.633 13.7116C253.486 13.7265 253.376 13.7073 253.254 13.6539C253.098 13.5833 252.913 13.5278 252.744 13.4636C252.488 13.3717 252.487 13.3717 252.176 13.3973C252.108 13.4038 252.037 13.408 251.969 13.4144C251.46 13.4615 251.46 13.4572 250.811 13.3225C250.782 13.3161 250.706 13.3396 250.676 13.3567C250.588 13.4123 250.508 13.4722 250.428 13.5299C250.314 13.4957 250.175 13.4764 250.1 13.4273C249.885 13.2883 249.548 13.4786 249.329 13.3418C249.249 13.2905 249.11 13.2456 248.983 13.2327C248.853 13.2199 248.705 13.2498 248.571 13.2627C248.221 13.2947 248.221 13.2926 247.922 13.4829C247.77 13.5769 247.551 13.5598 247.354 13.5812C247.147 13.6047 246.949 13.6175 246.776 13.5299C246.621 13.4508 246.431 13.4316 246.208 13.4572C245.934 13.4893 245.652 13.5085 245.374 13.5277C245.315 13.532 245.243 13.5213 245.184 13.5085C244.54 13.3824 244.54 13.3803 244.228 13.408C244.089 13.4209 243.946 13.4251 243.811 13.4444C243.584 13.4786 243.411 13.4337 243.247 13.3653C243.192 13.3439 243.129 13.3033 243.074 13.3054C242.796 13.3161 242.523 13.3354 242.249 13.3546C242.038 13.3696 241.828 13.3781 241.626 13.408C241.289 13.4572 241.124 13.3182 240.893 13.2541C240.547 13.2819 240.198 13.3011 239.853 13.3396C239.693 13.3567 239.587 13.3503 239.465 13.299C239.309 13.2349 239.166 13.1622 238.913 13.1943C238.576 13.237 238.223 13.252 237.877 13.2776C237.646 13.2114 237.477 13.0767 237.145 13.1259C236.942 13.1558 236.728 13.1622 236.521 13.1793C236.243 13.2028 235.965 13.2242 235.687 13.2499C235.388 13.2755 235.392 13.2691 234.933 13.143C234.668 13.0682 234.394 13.1515 234.125 13.1643C233.914 13.175 233.809 13.2734 233.859 13.3995C233.91 13.5256 233.796 13.6239 233.602 13.641C233.118 13.6817 232.63 13.7244 232.145 13.7607C232.086 13.765 232.015 13.75 231.96 13.7351C231.442 13.6004 231.442 13.6026 231.21 13.6218C230.865 13.6539 230.511 13.671 230.17 13.7116C229.934 13.7394 229.761 13.6945 229.61 13.6218C229.492 13.5662 229.382 13.5534 229.231 13.5662C227.563 13.7095 225.895 13.842 224.232 13.9895C223.983 14.0109 223.84 13.9489 223.672 13.8912C223.613 13.8719 223.558 13.8313 223.499 13.8313C223.36 13.8313 223.221 13.8505 223.082 13.8634C222.458 13.9147 221.835 13.9767 221.208 14.0151C220.942 14.0322 220.871 14.1306 220.757 14.2118C220.669 14.2738 220.568 14.2994 220.412 14.308C220.26 14.3165 220.151 14.3058 220.033 14.2503C219.881 14.1776 219.708 14.1327 219.473 14.1626C219.199 14.1968 218.921 14.2118 218.639 14.2353C218.495 14.246 218.386 14.2845 218.34 14.3614C218.331 14.3743 218.42 14.4063 218.47 14.4256C218.639 14.4897 218.799 14.5645 218.988 14.6094C219.182 14.6543 219.392 14.603 219.595 14.5902C219.666 14.5859 219.734 14.5731 219.801 14.5752C219.864 14.5773 219.94 14.588 219.986 14.6073C220.205 14.7035 220.437 14.7697 220.74 14.712C221.001 14.7398 221.136 14.9172 221.469 14.8702C221.671 14.8424 221.882 14.8296 222.092 14.8189C222.147 14.8168 222.206 14.8552 222.265 14.8745C222.433 14.9279 222.568 15.0134 222.821 14.9771C223.09 14.9386 223.377 14.9322 223.65 14.9023C223.802 14.8852 223.912 14.9001 224.029 14.9557C224.181 15.0263 224.354 15.0797 224.59 15.0455C224.792 15.0155 225.007 15.0091 225.213 14.9899C225.482 14.9664 225.482 14.9685 225.963 15.1011C226.017 15.116 226.089 15.1331 226.148 15.1288C226.497 15.1032 226.843 15.0711 227.192 15.0455C227.327 15.0348 227.458 15.0626 227.55 15.1246C227.588 15.1502 227.576 15.193 227.588 15.2293C226.893 15.2871 226.198 15.3362 225.508 15.4068C225.247 15.4345 225.129 15.3469 224.956 15.2977C224.897 15.2806 224.834 15.2443 224.779 15.2486C224.291 15.2849 223.806 15.3234 223.322 15.3704C223.17 15.3854 223.057 15.3768 222.943 15.3148C222.652 15.1502 222.299 15.24 221.97 15.2635C221.717 15.2806 221.637 15.3469 221.667 15.488C221.705 15.6547 221.856 15.706 222.244 15.6761C222.383 15.6654 222.522 15.6504 222.661 15.6419C222.795 15.6333 222.918 15.6611 223.027 15.7188C223.132 15.7766 223.259 15.8065 223.389 15.7979C223.667 15.7787 223.949 15.7595 224.219 15.7274C224.442 15.7018 224.628 15.7231 224.783 15.8022C224.956 15.8899 225.158 15.8706 225.36 15.8514C225.832 15.8086 225.836 15.8108 226.131 15.9177C226.19 15.939 226.249 15.9797 226.304 15.9775C226.788 15.9455 227.277 15.9177 227.753 15.8664C228.001 15.8407 228.144 15.9091 228.309 15.9647C228.367 15.9839 228.426 16.0267 228.481 16.0224C228.831 15.9989 229.18 15.9754 229.521 15.9348C229.681 15.9155 229.778 15.9283 229.909 15.9796C230.221 16.1058 230.229 16.1015 230.671 16.0609C230.806 16.048 230.953 16.0245 231.08 16.0416C231.206 16.0587 231.307 16.1207 231.425 16.1592C231.48 16.1763 231.547 16.1998 231.606 16.1955C231.884 16.1784 232.162 16.1528 232.44 16.1293C232.701 16.1058 232.701 16.1079 233.19 16.2405C233.388 16.296 233.594 16.249 233.792 16.2319C234.007 16.2127 234.201 16.2127 234.365 16.296C234.529 16.3794 234.727 16.3751 234.938 16.358C235.136 16.3409 235.338 16.2939 235.54 16.3516C236.003 16.4841 236.003 16.4863 236.29 16.4606C236.706 16.4243 237.119 16.3901 237.54 16.358C237.595 16.3537 237.667 16.3794 237.721 16.3965C237.839 16.435 237.941 16.4991 238.067 16.5141C238.193 16.5312 238.341 16.5055 238.475 16.4927C238.909 16.4521 238.939 16.4371 239.229 16.5782C239.474 16.6936 239.777 16.5269 240.004 16.6594C240.135 16.7342 240.312 16.7941 240.556 16.7578C240.758 16.7278 240.969 16.7193 241.179 16.7022C241.512 16.6744 241.512 16.6765 241.933 16.8048C241.988 16.8219 242.059 16.8433 242.114 16.839C242.392 16.8219 242.674 16.8069 242.944 16.7684C243.26 16.7236 243.462 16.8048 243.698 16.8839C243.883 16.9459 244.102 16.8946 244.3 16.8732C244.515 16.8518 244.709 16.8582 244.869 16.9416C245.037 17.0271 245.235 17.0164 245.446 16.9993C245.644 16.9843 245.846 16.9352 246.048 16.995C246.482 17.1276 246.482 17.1276 246.798 17.1019C247.076 17.0784 247.353 17.0528 247.631 17.0357C247.686 17.0314 247.754 17.0592 247.808 17.0784C247.926 17.1169 248.027 17.181 248.154 17.196C248.28 17.2109 248.427 17.1832 248.566 17.1725C248.705 17.1618 248.853 17.1297 248.979 17.1425C249.105 17.1554 249.223 17.2088 249.325 17.2558C249.442 17.3114 249.552 17.3178 249.712 17.2964C249.914 17.2687 250.125 17.2622 250.331 17.2473C250.445 17.2879 250.563 17.3285 250.672 17.3734C250.786 17.4204 250.908 17.4162 251.064 17.4012C251.582 17.3499 251.586 17.3563 252.02 17.4888C252.218 17.5487 252.424 17.4995 252.622 17.4846C252.833 17.4675 253.031 17.4589 253.195 17.5444C253.355 17.6257 253.553 17.6363 253.764 17.6107C253.898 17.5936 254.042 17.5829 254.181 17.5765C254.244 17.5744 254.32 17.5829 254.366 17.6C254.589 17.6898 254.808 17.771 255.116 17.7133C255.385 17.7304 255.52 17.9057 255.844 17.8715C256.118 17.8416 256.404 17.8351 256.674 17.7967C256.922 17.7625 257.099 17.8223 257.226 17.8971C257.453 18.0297 257.773 17.8501 258.001 17.9805C258.131 18.0553 258.299 18.1152 258.552 18.0831C258.83 18.0489 258.919 18.0938 258.999 18.2285C259.045 18.3054 259.037 18.3674 258.952 18.4273C258.868 18.4893 258.776 18.4786 258.641 18.4081C258.485 18.329 258.3 18.314 258.076 18.3311C257.857 18.3482 257.723 18.237 257.541 18.1943C257.36 18.1494 257.146 18.2242 256.956 18.1665C256.51 18.0318 256.51 18.0318 256.206 18.0575C256 18.0746 255.785 18.0831 255.583 18.1131C255.343 18.1494 255.187 18.0831 255.023 18.0233C254.964 18.0019 254.905 17.9613 254.854 17.9634C254.37 17.9955 253.882 18.0254 253.401 18.0788C253.149 18.1066 253.014 18.0297 252.846 17.9762C252.787 17.957 252.723 17.9185 252.673 17.9228C252.256 17.9527 251.843 17.9912 251.426 18.0275C251.346 18.0853 251.258 18.1408 251.182 18.2028C251.102 18.2669 250.992 18.2947 250.832 18.2926C250.567 18.2926 250.306 18.3824 250.04 18.2691C249.767 18.1537 249.746 18.1601 249.48 18.1879C249.143 18.2242 248.785 18.2157 248.47 18.299C248.415 18.314 248.356 18.3546 248.356 18.3845C248.352 18.4038 248.44 18.4316 248.495 18.4487C248.68 18.5 248.895 18.4251 249.08 18.4786C249.202 18.5128 249.303 18.5641 249.426 18.6004C249.476 18.6154 249.552 18.6133 249.619 18.6111C249.691 18.609 249.758 18.594 249.826 18.5962C249.889 18.5983 249.956 18.6111 250.007 18.6304C250.239 18.7116 250.483 18.7864 250.689 18.8826C250.891 18.9767 251.081 18.9125 251.283 18.9083C252.092 19.0579 252.092 19.06 252.635 19.013C252.77 19.0023 252.909 18.9895 253.048 18.9916C253.107 18.9916 253.161 19.0301 253.22 19.0515C253.389 19.1156 253.549 19.1733 253.785 19.1391C253.987 19.1092 254.202 19.1028 254.408 19.0835C254.686 19.06 254.686 19.06 255.158 19.1947C255.276 19.2289 255.402 19.2246 255.554 19.2075C255.684 19.1926 255.819 19.2246 255.911 19.2866C255.949 19.3123 255.937 19.355 255.949 19.3914C255.532 19.4256 255.111 19.4491 254.707 19.5004C254.446 19.5325 254.328 19.4405 254.155 19.3914C254.096 19.3743 254.033 19.3379 253.978 19.3422C253.566 19.3743 253.153 19.4106 252.74 19.4533C252.69 19.4576 252.626 19.5068 252.622 19.5367C252.614 19.5923 252.719 19.6457 252.871 19.6436C253.073 19.6415 253.271 19.6051 253.452 19.6928C253.604 19.7697 253.793 19.8039 254.016 19.7697C254.151 19.7505 254.294 19.7505 254.429 19.7334C254.787 19.6821 255.111 19.6928 255.381 19.8381C255.587 19.8766 255.789 19.8403 255.987 19.821C256.135 19.8061 256.278 19.7911 256.383 19.8317C256.606 19.9172 256.825 20.0027 257.133 19.945C257.466 20.0049 257.718 20.131 257.996 20.2336C258.127 20.2828 258.228 20.3106 258.38 20.2785C258.443 20.2657 258.519 20.2657 258.586 20.2593C258.725 20.2486 258.872 20.2165 258.999 20.2293C259.125 20.2443 259.23 20.3063 259.344 20.3448C259.399 20.364 259.462 20.3961 259.517 20.3939C259.727 20.3832 259.934 20.3619 260.14 20.3448C260.346 20.3298 260.553 20.3148 260.759 20.2999C260.932 20.3555 261.109 20.411 261.281 20.4666C261.559 20.4431 261.837 20.4196 262.111 20.3982C262.419 20.3726 262.418 20.3747 262.861 20.5072C263.059 20.5671 263.269 20.5286 263.459 20.5008C263.775 20.4559 263.985 20.5372 264.208 20.6227C264.255 20.6398 264.339 20.6505 264.394 20.6419C264.613 20.612 264.802 20.6355 264.962 20.7146C265.076 20.7702 265.19 20.7958 265.329 20.7851C265.813 20.7445 266.297 20.7018 266.782 20.6654C266.841 20.6611 266.908 20.6804 266.963 20.6975C267.392 20.8279 267.397 20.8343 267.712 20.8001C267.995 20.7702 268.256 20.7573 268.479 20.8749C268.525 20.9006 268.597 20.9369 268.647 20.9348C268.993 20.9134 269.342 20.8899 269.684 20.8535C269.839 20.8364 269.949 20.8429 270.071 20.892C270.227 20.954 270.366 21.0288 270.623 21.001C271.335 20.9219 271.339 20.9347 272.181 21.0823C272.24 21.0929 272.32 21.0758 272.387 21.0673C272.531 21.0459 272.636 21.0759 272.762 21.125C273.044 21.2362 273.053 21.2298 273.322 21.2063C273.529 21.187 273.744 21.1827 273.946 21.1507C274.257 21.1036 274.464 21.187 274.695 21.2661C274.881 21.3281 275.095 21.2768 275.293 21.2576C275.508 21.2362 275.702 21.2426 275.862 21.3238C275.972 21.3794 276.089 21.4093 276.228 21.3986C276.713 21.3602 277.197 21.3174 277.682 21.2789C277.74 21.2746 277.812 21.2918 277.867 21.3067C278.347 21.4393 278.347 21.4457 278.823 21.3965C278.974 21.3815 279.101 21.3773 279.215 21.4222C279.324 21.4649 279.442 21.5055 279.556 21.5461C279.762 21.5312 279.973 21.5269 280.175 21.5013C280.331 21.482 280.44 21.4906 280.562 21.5355C280.722 21.5932 280.857 21.6936 281.11 21.6445C281.24 21.6209 281.392 21.6274 281.522 21.606C281.678 21.5782 281.784 21.5953 281.906 21.6509C282.057 21.7171 282.213 21.7855 282.457 21.7513C282.727 21.7129 283.013 21.7065 283.287 21.6765C283.439 21.6594 283.544 21.6765 283.666 21.7321C283.818 21.8027 283.991 21.8476 284.226 21.8198C284.707 21.7663 284.711 21.777 285.178 21.9117C285.296 21.9459 285.422 21.9416 285.574 21.9245C285.705 21.9095 285.839 21.9416 285.932 22.0036C286.02 22.072 286.012 22.1147 286.02 22.1511ZM248.491 2.87147C248.352 2.88215 248.213 2.89498 248.01 2.709C247.998 2.67694 248.006 2.63847 247.977 2.61068C247.909 2.55296 247.804 2.51235 247.678 2.50593C247.45 2.49738 247.177 2.57005 247.181 2.62563C247.185 2.67266 247.257 2.71327 247.396 2.75174C247.455 2.76671 247.501 2.79236 247.556 2.80946C247.716 2.85863 247.842 2.95484 248.074 2.90568C248.032 2.77314 248.053 2.83941 248.074 2.90568C248.053 2.98691 248.116 3.04463 248.267 3.06814C248.31 3.07455 248.373 3.07027 248.406 3.05744C248.537 3.01041 248.558 2.9463 248.461 2.77742C248.444 2.80521 248.457 2.85436 248.495 2.86719C248.533 2.88001 248.625 2.86934 248.672 2.85437C248.79 2.81376 248.849 2.76031 248.819 2.71542C248.802 2.69191 248.722 2.66198 248.672 2.66198C248.583 2.66198 248.503 2.709 248.491 2.87147ZM282.546 27.662C282.238 27.7026 281.885 27.6877 281.577 27.771C281.523 27.786 281.468 27.8245 281.464 27.8544C281.459 27.8736 281.544 27.9014 281.594 27.9164C281.708 27.9506 281.834 27.9399 281.982 27.9292C282.205 27.9142 282.335 28.0126 282.508 28.0617C282.563 28.0767 282.634 28.0874 282.693 28.0831C283.034 28.0575 283.371 28.0297 283.712 27.9998C283.771 27.9934 283.835 27.9784 283.885 27.9591C284.054 27.8971 284.037 27.8565 283.873 27.8095C283.691 27.7582 283.548 27.6727 283.363 27.6321C283.098 27.5744 282.828 27.6513 282.546 27.662ZM258.628 29.2225C258.422 29.2396 258.219 29.2567 258.013 29.2738C257.946 29.2802 257.874 29.2824 257.811 29.2909C257.68 29.3059 257.584 29.3508 257.52 29.4213C257.617 29.4769 257.735 29.5089 257.866 29.5025C258.072 29.4897 258.274 29.4619 258.481 29.4555C258.704 29.447 258.834 29.5432 259.007 29.5923C259.062 29.6073 259.129 29.6094 259.192 29.6116C259.504 29.6201 259.694 29.509 259.635 29.3529C259.592 29.2311 259.432 29.1584 259.239 29.1733C259.037 29.1883 258.83 29.2054 258.628 29.2225ZM283.986 24.5025C284.037 24.4662 284.092 24.4405 284.117 24.4085C284.193 24.2995 284.163 24.2182 284.024 24.1327C283.856 24.028 283.649 24.0985 283.46 24.1092C283.414 24.1113 283.363 24.1562 283.338 24.184C283.321 24.2032 283.321 24.2439 283.346 24.2546C283.553 24.3401 283.772 24.4191 283.986 24.5025ZM247.45 18.1879C247.248 18.205 247.042 18.2178 246.84 18.2413C246.789 18.2477 246.743 18.2883 246.713 18.3161C246.659 18.3674 246.718 18.438 246.89 18.4444C247.088 18.4529 247.294 18.4166 247.501 18.3995C247.762 18.3781 247.918 18.299 247.821 18.2306C247.728 18.1643 247.602 18.1515 247.45 18.1879ZM25.7541 13.6197C25.8889 13.609 26.0278 13.6004 26.1626 13.5855C26.289 13.5705 26.3859 13.5235 26.4491 13.4529C26.3438 13.3973 26.2258 13.3674 26.0953 13.3738C25.8889 13.3867 25.6868 13.4038 25.4846 13.4251C25.3583 13.438 25.2362 13.485 25.2067 13.5577C25.1772 13.6132 25.4593 13.6453 25.7541 13.6197ZM229.639 13.2905C229.694 13.3097 229.749 13.3482 229.804 13.3482C229.938 13.3482 230.077 13.3353 230.204 13.314C230.259 13.3054 230.301 13.2669 230.326 13.237C230.343 13.2178 230.339 13.1836 230.313 13.1665C230.191 13.0639 229.703 13.1002 229.622 13.2178C229.614 13.2392 229.635 13.2669 229.639 13.2905ZM216.352 1.58459C216.364 1.61879 216.369 1.65299 216.385 1.68719C216.419 1.75132 216.512 1.79836 216.646 1.83042C216.752 1.77698 216.807 1.71714 216.802 1.65301C216.798 1.6188 216.785 1.58458 216.769 1.55038C216.735 1.48625 216.642 1.43923 216.508 1.40717C216.402 1.45847 216.352 1.51832 216.352 1.58459ZM293.719 29.5945C293.681 29.6222 293.644 29.65 293.601 29.6757C293.715 29.7377 293.82 29.7569 293.901 29.7227C293.951 29.7013 293.981 29.6693 294.018 29.6415C293.905 29.5795 293.804 29.5624 293.719 29.5945ZM291.1 29.8852C291.154 29.9044 291.205 29.9301 291.264 29.9429C291.361 29.9643 291.449 29.9279 291.517 29.851C291.462 29.8317 291.411 29.8061 291.352 29.7932C291.256 29.7719 291.167 29.8082 291.1 29.8852ZM292.759 29.494C292.73 29.5453 292.789 29.5881 292.944 29.6244C292.982 29.5966 293.033 29.5709 293.058 29.541C293.1 29.4919 293.029 29.447 292.877 29.4128C292.835 29.4384 292.797 29.4662 292.759 29.494ZM283.868 27.1896C283.839 27.2409 283.898 27.2836 284.054 27.32C284.092 27.2922 284.142 27.2665 284.167 27.2366C284.21 27.1874 284.138 27.1426 283.986 27.1084C283.944 27.134 283.906 27.1618 283.868 27.1896ZM271.756 12.0634C271.718 12.0912 271.68 12.119 271.638 12.1447C271.751 12.2067 271.857 12.2259 271.937 12.1917C271.987 12.1703 272.017 12.1383 272.055 12.1105C271.941 12.0485 271.84 12.0314 271.756 12.0634ZM260.153 4.03862C260.254 4.05359 260.338 4.02367 260.41 3.94458C260.355 3.92534 260.304 3.89968 260.245 3.88686C260.148 3.86548 260.06 3.90183 259.993 3.97879C260.047 4.00017 260.102 4.01939 260.153 4.03862ZM253.991 3.53628C253.953 3.56407 253.915 3.59186 253.873 3.61751C253.987 3.6795 254.092 3.69873 254.172 3.66453C254.223 3.64316 254.252 3.61109 254.29 3.5833C254.176 3.52131 254.075 3.50635 253.991 3.53628ZM212.207 1.58245C212.17 1.61023 212.132 1.63803 212.09 1.66368C212.203 1.72567 212.309 1.7449 212.389 1.7107C212.439 1.68932 212.469 1.65726 212.506 1.62947C212.393 1.56748 212.292 1.55252 212.207 1.58245ZM4.15683 18.9745C4.10208 18.9553 4.04738 18.9361 3.99684 18.9147C3.8747 18.9724 3.83681 19.0258 3.90419 19.0664C3.94631 19.0921 4.00943 19.1071 4.06419 19.1263C4.19054 19.0686 4.22 19.0173 4.15683 18.9745Z" fill="#4F9CF9"/>
</svg>
