<svg width="274" height="32" viewBox="0 0 274 32" fill="none" xmlns="http://www.w3.org/2000/svg">
<path d="M257.795 16.9845C257.419 17.0104 257.039 17.0283 256.671 17.0672C256.432 17.0915 256.33 17.0202 256.17 16.9829C256.117 16.9699 256.06 16.944 256.011 16.9472C255.639 16.9732 255.267 17.0023 254.895 17.0315C254.781 17.0948 254.709 17.1791 254.534 17.2099C254.363 17.2391 254.162 17.2391 253.972 17.2537C253.722 17.2715 253.471 17.2893 253.221 17.3055C253.095 17.3137 252.993 17.3445 252.951 17.4028C252.944 17.4125 253.027 17.4369 253.073 17.4514C253.224 17.5001 253.372 17.5552 253.539 17.5925C253.699 17.6282 253.896 17.5698 254.067 17.6152C254.451 17.7173 254.454 17.7157 254.747 17.6963C254.997 17.6784 255.248 17.659 255.498 17.646C255.548 17.6428 255.604 17.6671 255.658 17.6801C255.817 17.7157 255.92 17.7968 256.155 17.766C256.333 17.7417 256.531 17.7368 256.717 17.7238C256.872 17.7709 257.017 17.8244 257.184 17.8617C257.339 17.8973 257.385 17.9249 257.301 17.9719C257.225 18.0157 257.119 18.0335 256.979 18.0368C256.853 18.0384 256.728 18.053 256.603 18.0611C256.538 18.0659 256.478 18.0692 256.417 18.0741C256.178 18.0919 256.178 18.0919 255.741 17.9881C255.57 17.9476 255.377 18.0043 255.214 17.9654C255.103 17.9395 255.009 17.9006 254.902 17.873C254.857 17.8617 254.785 17.86 254.728 17.8633C254.538 17.8746 254.348 17.8827 254.166 17.9038C254.037 17.9184 253.961 17.9638 253.976 18.0092C253.98 18.027 254.071 18.053 254.124 18.0546C254.245 18.0578 254.375 18.0351 254.492 18.0465C254.606 18.0578 254.724 18.0903 254.807 18.1259C254.978 18.2005 255.172 18.134 255.335 18.1535C255.506 18.1746 255.646 18.2394 255.809 18.2783C255.851 18.2881 255.931 18.2718 255.995 18.267C256.181 18.2556 256.368 18.2459 256.554 18.2346C256.709 18.2816 256.876 18.3237 257.017 18.3772C257.271 18.4745 257.544 18.5118 257.875 18.4648C258.061 18.4388 258.243 18.4486 258.391 18.5118C258.543 18.5767 258.717 18.5702 258.911 18.5572C259.089 18.5442 259.271 18.5086 259.454 18.554C259.848 18.6545 259.852 18.6594 260.319 18.6204C260.46 18.6091 260.566 18.6059 260.672 18.6431C260.771 18.6772 260.877 18.7064 260.98 18.7388C261.166 18.7274 261.355 18.7161 261.541 18.7031C261.781 18.6853 261.913 18.708 261.97 18.7988C262.005 18.8539 262.02 18.9042 262.103 18.9415C262.202 18.9869 262.308 18.9852 262.452 18.9723C262.589 18.9609 262.688 18.9431 262.745 18.8847C262.768 18.8604 262.813 18.8377 262.855 18.8182C262.889 18.8036 262.942 18.781 262.973 18.7842C263.03 18.7907 263.105 18.8085 263.124 18.8296C263.31 19.0258 263.31 19.0274 263.5 19.0841C263.709 19.1474 263.925 19.2041 264.115 19.2754C264.286 19.3387 264.457 19.3111 264.643 19.3111C264.783 19.3111 264.874 19.3533 264.863 19.3954C264.855 19.4198 264.802 19.4554 264.757 19.4587C264.385 19.4911 264.009 19.5186 263.633 19.5413C263.587 19.5446 263.531 19.5154 263.477 19.5008C263.371 19.4716 263.276 19.4262 263.162 19.4165C263.048 19.4068 262.916 19.4311 262.79 19.4392C262.665 19.4473 262.532 19.4684 262.418 19.4554C262.304 19.4425 262.213 19.3954 262.107 19.3646C262.058 19.35 261.989 19.329 261.948 19.3338C261.671 19.3727 261.466 19.3192 261.268 19.2479C261.226 19.2333 261.154 19.2236 261.101 19.2268C260.661 19.2544 260.224 19.2868 259.784 19.3176C259.606 19.3306 259.461 19.2738 259.423 19.1782C259.404 19.1247 259.366 19.0712 259.366 19.0177C259.366 18.9204 259.158 18.8669 259.006 18.8782C258.755 18.8944 258.501 18.9074 258.254 18.9317C258.053 18.9512 257.882 18.9317 257.745 18.8734C257.586 18.8069 257.404 18.8199 257.222 18.8377C257.085 18.8507 257.047 18.9042 257.055 19.0387C257.062 19.1474 256.998 19.1814 256.751 19.1992C256.44 19.2219 256.125 19.2446 255.809 19.2625C255.76 19.2657 255.703 19.2382 255.654 19.2236C255.548 19.1944 255.453 19.1474 255.339 19.1376C255.225 19.1263 255.092 19.1506 254.967 19.1603C254.841 19.1684 254.709 19.1911 254.595 19.1798C254.481 19.1684 254.386 19.1198 254.283 19.089C254.234 19.0744 254.173 19.0533 254.124 19.0566C253.873 19.0695 253.623 19.089 253.372 19.1068C253.092 19.1263 253.092 19.1263 252.693 19.0258C252.511 18.9804 252.329 19.016 252.15 19.029C251.96 19.042 251.782 19.0485 251.634 18.9836C251.535 18.9415 251.425 18.9155 251.307 18.9236C250.992 18.9431 250.681 18.9674 250.366 18.9869C250.313 18.9901 250.241 18.982 250.199 18.9674C249.998 18.8993 249.8 18.8458 249.52 18.8798C249.277 18.909 249.015 18.9107 248.772 18.9382C248.639 18.9528 248.578 19.0047 248.605 19.0452C248.62 19.0663 248.7 19.0906 248.753 19.0906C248.874 19.0923 249.007 19.0679 249.121 19.0776C249.356 19.0971 249.474 19.2333 249.781 19.196C249.964 19.1733 250.153 19.1652 250.343 19.1587C250.393 19.1571 250.446 19.1879 250.499 19.2041C250.651 19.2479 250.784 19.3046 251.004 19.2754C251.186 19.2527 251.38 19.2463 251.566 19.2333C251.862 19.2122 251.862 19.2139 252.245 19.3128C252.427 19.3598 252.609 19.3225 252.788 19.3111C252.921 19.303 253.046 19.2868 253.152 19.3095C253.315 19.3436 253.433 19.4214 253.634 19.4165C253.824 19.4116 254.01 19.3889 254.2 19.3808C254.318 19.376 254.428 19.4019 254.523 19.4457C254.621 19.4895 254.728 19.5089 254.857 19.4992C255.043 19.4862 255.232 19.47 255.422 19.4619C255.475 19.4603 255.536 19.4749 255.586 19.4878C255.692 19.517 255.794 19.5511 255.897 19.5819C256.083 19.5721 256.273 19.5689 256.455 19.5495C256.595 19.5349 256.694 19.5414 256.808 19.5738C256.952 19.6176 257.07 19.6954 257.305 19.6581C257.423 19.6403 257.559 19.6451 257.677 19.6289C257.821 19.6078 257.92 19.6159 258.023 19.6646C258.216 19.757 258.459 19.7586 258.71 19.7229C258.983 19.684 259.188 19.7294 259.393 19.8008C259.609 19.8754 259.609 19.8737 259.776 20.0537C259.826 20.1056 259.966 20.1299 260.084 20.1202C260.281 20.104 260.452 20.1121 260.596 20.1737C260.748 20.2401 260.93 20.232 261.116 20.2142C261.363 20.1899 261.61 20.1688 261.811 20.2628C261.91 20.3082 262.016 20.3196 262.149 20.3082C262.525 20.279 262.904 20.2612 263.272 20.2256C263.496 20.2029 263.625 20.2547 263.777 20.2985C263.982 20.3585 264.206 20.412 264.206 20.5401C264.206 20.5612 264.259 20.5855 264.305 20.6017C264.404 20.6357 264.51 20.6649 264.612 20.6974C264.764 20.746 264.912 20.7865 265.121 20.7606C265.303 20.7395 265.497 20.733 265.683 20.7184C265.869 20.7038 266.04 20.6957 266.207 20.7573C266.4 20.8271 266.605 20.8935 266.825 20.9454C266.981 20.9827 267.186 20.9195 267.353 20.9697C267.456 21.0005 267.554 21.0362 267.664 21.0622C267.71 21.0735 267.782 21.0654 267.843 21.0622C267.968 21.0557 268.097 21.0508 268.219 21.0346C268.359 21.0168 268.465 21.02 268.572 21.0573C268.67 21.0914 268.769 21.1384 268.883 21.1481C269.054 21.1627 269.244 21.0978 269.414 21.1724C269.502 21.2097 269.612 21.2454 269.726 21.2567C269.84 21.2681 269.972 21.2437 270.094 21.2454C270.147 21.2454 270.212 21.2713 270.242 21.2924C270.261 21.3037 270.234 21.3345 270.208 21.3508C270.174 21.3702 270.124 21.3962 270.075 21.3994C269.699 21.4286 269.323 21.4529 268.947 21.4805C268.724 21.4967 268.724 21.4967 268.272 21.3945C268.165 21.3702 268.048 21.3751 267.915 21.3864C267.737 21.401 267.554 21.4286 267.368 21.3994C267.125 21.2892 266.826 21.2794 266.507 21.3216C266.374 21.3394 266.252 21.3394 266.154 21.3086C265.945 21.247 265.725 21.1903 265.539 21.1173C265.394 21.0605 265.326 21.0557 265.265 21.1335C265.246 21.1578 265.227 21.1838 265.231 21.2065C265.254 21.2875 265.296 21.367 265.318 21.448C265.326 21.4707 265.296 21.4967 265.277 21.521C265.216 21.5891 265.136 21.5842 265.003 21.5275C264.871 21.4707 264.711 21.4334 264.499 21.4594C264.316 21.4821 264.119 21.4788 263.937 21.5032C263.656 21.5388 263.458 21.4869 263.257 21.4172C263.216 21.4026 263.143 21.3945 263.09 21.3978C262.525 21.4351 261.963 21.4772 261.397 21.5145C261.276 21.5226 261.166 21.4983 261.071 21.4545C260.972 21.4107 260.862 21.388 260.74 21.3962C260.239 21.4302 259.738 21.461 259.237 21.5032C259.032 21.521 258.869 21.4999 258.729 21.4432C258.622 21.401 258.524 21.388 258.391 21.3929C258.246 21.3978 258.144 21.414 258.072 21.461C258.004 21.5064 258.053 21.534 258.205 21.5696C258.368 21.6085 258.52 21.6588 258.675 21.7042C258.801 21.6977 258.926 21.6847 259.047 21.6864C259.101 21.6864 259.15 21.7155 259.203 21.7318C259.355 21.7788 259.495 21.8258 259.712 21.7999C259.894 21.7772 260.088 21.7723 260.274 21.7577C260.532 21.7399 260.532 21.7399 260.949 21.842C261.056 21.868 261.169 21.8663 261.306 21.8517C261.424 21.8404 261.545 21.8631 261.629 21.9117C261.663 21.9312 261.652 21.9636 261.579 22.0706C261.579 22.1501 261.659 22.1144 261.686 22.0625C261.727 21.9879 261.648 21.9636 261.496 22.0042C261.39 22.0333 261.336 22.0755 261.363 22.1095C261.378 22.1274 261.45 22.1501 261.579 22.0706C261.914 21.9734 262.168 21.962 262.411 21.9361C262.555 21.9215 262.646 21.9279 262.76 21.9701C262.897 22.0204 263.033 22.0739 263.257 22.0479C263.5 22.0187 263.758 22.0155 264.005 21.9912C264.233 21.9685 264.351 22.0398 264.495 22.082C264.669 22.1322 264.863 22.0755 265.022 22.1047C265.189 22.1339 265.307 22.2052 265.501 22.2182C265.782 22.1744 265.96 22.2555 266.173 22.309C266.34 22.3495 266.537 22.3138 266.715 22.296C266.917 22.2765 267.084 22.2944 267.224 22.3527C267.384 22.4192 267.562 22.4046 267.744 22.39C268.169 22.3576 268.184 22.3527 268.431 22.4419C268.61 22.5068 268.78 22.4776 268.959 22.4695C269.115 22.5132 269.266 22.5603 269.43 22.5992C269.471 22.6089 269.551 22.5927 269.616 22.5878C269.802 22.5749 269.991 22.5619 270.177 22.5489C270.303 22.5408 270.436 22.5165 270.549 22.5262C270.663 22.5376 270.758 22.5846 270.861 22.6154C270.963 22.6462 271.069 22.677 271.168 22.7094C271.32 22.7581 271.464 22.7986 271.677 22.7743C271.859 22.7532 272.049 22.7467 272.239 22.7321C272.478 22.7143 272.47 22.7192 272.914 22.8164C273.153 22.8699 273.4 22.8051 273.643 22.7986C273.765 22.7954 273.882 22.8132 273.966 22.8602C274 22.8797 273.989 22.9121 274 22.9397C273.374 22.9834 272.743 23.0207 272.125 23.0742C271.886 23.0953 271.76 23.0369 271.631 22.9883C271.419 22.9105 271.138 23.024 270.937 22.9234C270.815 22.8634 270.64 22.8294 270.432 22.8586C270.31 22.8748 270.181 22.8732 270.056 22.8878C269.737 22.9234 269.445 22.9251 269.19 22.8132C269.103 22.7743 268.978 22.7532 268.887 22.7159C268.78 22.6754 268.678 22.6527 268.553 22.6608C267.987 22.6997 267.425 22.7386 266.863 22.7808C266.814 22.784 266.765 22.8083 266.723 22.8262C266.617 22.8716 266.651 22.9072 266.822 22.9364C266.879 22.9461 266.924 22.9672 266.977 22.9834C267.08 23.0142 267.175 23.0629 267.289 23.0742C267.402 23.0856 267.535 23.0629 267.661 23.0548C267.786 23.0467 267.919 23.0223 268.033 23.0321C268.147 23.0434 268.241 23.0904 268.348 23.1196C268.397 23.1342 268.458 23.1585 268.507 23.1569C268.758 23.1472 269.004 23.1294 269.255 23.1148C269.411 23.1585 269.543 23.2218 269.729 23.2364C269.847 23.2461 269.972 23.2282 270.094 23.2315C270.147 23.2331 270.215 23.2574 270.242 23.2785C270.257 23.2915 270.208 23.3239 270.17 23.3401C270.026 23.4017 269.828 23.3904 269.65 23.4098C269.456 23.4309 269.282 23.4244 269.133 23.3612C269.035 23.319 268.925 23.2964 268.803 23.3045C268.488 23.3255 268.177 23.3499 267.862 23.3677C267.809 23.3709 267.744 23.3563 267.695 23.345C267.296 23.2461 267.296 23.2429 267.015 23.2639C266.602 23.2947 266.602 23.2947 266.324 23.2088C266.271 23.1926 266.214 23.1618 266.169 23.1634C265.728 23.1893 265.292 23.2153 264.855 23.2526C264.711 23.2639 264.612 23.2639 264.506 23.2218C264.415 23.1861 264.309 23.1456 264.195 23.1358C264.077 23.1261 263.948 23.1504 263.823 23.1585C263.698 23.1666 263.565 23.1877 263.455 23.1747C263.341 23.1618 263.242 23.1164 263.143 23.084C263.041 23.0499 262.931 23.0515 262.79 23.0645C262.358 23.1018 262.354 23.0969 261.925 22.9964C261.876 22.9851 261.811 22.9721 261.758 22.9753C261.443 22.9948 261.132 23.0191 260.816 23.0386C260.695 23.0467 260.577 23.0256 260.494 22.9786C260.46 22.9591 260.471 22.9267 260.448 22.8634C260.422 22.8489 260.452 22.8748 260.46 22.8991C260.516 22.8959 260.585 22.8991 260.627 22.8861C260.733 22.8553 260.786 22.8148 260.759 22.7808C260.744 22.7629 260.672 22.7402 260.627 22.7402C260.543 22.7402 260.471 22.7759 260.448 22.8634C260.209 22.9169 259.955 22.9283 259.708 22.9542C259.564 22.9705 259.473 22.9624 259.359 22.9202C259.222 22.8683 259.082 22.818 258.858 22.844C258.615 22.8732 258.357 22.8781 258.106 22.9008C257.818 22.9267 257.692 22.7808 257.449 22.784C257.199 22.7872 256.948 22.8148 256.698 22.8343C256.478 22.8505 256.478 22.8505 256.022 22.7451C255.855 22.7062 255.658 22.7629 255.494 22.7224C255.384 22.6964 255.289 22.6575 255.183 22.63C255.138 22.6186 255.065 22.6186 255.009 22.6219C254.693 22.6413 254.375 22.6543 254.071 22.69C253.725 22.7321 253.464 22.6867 253.217 22.5911C252.906 22.6089 252.59 22.6186 252.283 22.6494C252.059 22.6721 251.93 22.6186 251.778 22.5749C251.725 22.5603 251.679 22.5359 251.623 22.5295C251.566 22.523 251.497 22.5359 251.436 22.5408C251.186 22.5586 250.928 22.5668 250.685 22.5959C250.385 22.6332 250.271 22.5003 250.04 22.4841C249.884 22.5635 249.8 22.6721 249.493 22.6802C249.242 22.6867 248.992 22.7127 248.741 22.7305C248.616 22.7386 248.491 22.7483 248.366 22.7565C248.164 22.771 248.069 22.8343 248.111 22.9315C248.134 22.9851 248.153 23.0386 248.172 23.0921C248.21 23.1877 248.115 23.2688 247.956 23.2801C247.515 23.3109 247.079 23.3434 246.638 23.3709C246.521 23.379 246.407 23.3515 246.312 23.3077C246.213 23.2639 246.103 23.2445 245.982 23.2526C245.541 23.2834 245.105 23.3158 244.664 23.3434C244.615 23.3466 244.551 23.3304 244.501 23.3174C244.395 23.2882 244.292 23.2542 244.19 23.2234C243.939 23.238 243.693 23.2477 243.446 23.2672C243.047 23.2963 243.047 23.298 242.755 23.2088C242.702 23.1926 242.649 23.1618 242.599 23.1634C242.41 23.1699 242.224 23.1861 242.034 23.2007C241.476 23.2428 241.476 23.2428 241.312 23.1942C241.164 23.1488 241.032 23.0937 240.808 23.1196C240.565 23.1488 240.307 23.1585 240.056 23.1747C239.87 23.1861 239.684 23.1991 239.498 23.2023C239.449 23.2039 239.396 23.1731 239.342 23.1569C239.191 23.1067 239.042 23.0661 238.834 23.0937C238.712 23.1099 238.583 23.1131 238.458 23.1213C238.131 23.1439 238.131 23.1439 237.596 23.0467C237.543 23.0369 237.479 23.0256 237.425 23.0304C236.985 23.0596 236.549 23.0921 236.108 23.1196C236.055 23.1229 235.991 23.1131 235.937 23.105C235.338 23.011 235.338 23.011 234.7 23.0564C234.457 23.0726 234.449 23.0791 234.195 22.9932C234.081 22.9559 233.986 22.938 233.853 22.9494C233.352 22.9883 232.847 23.0142 232.35 23.0596C232.126 23.0791 231.997 23.0304 231.845 22.9867C231.792 22.9721 231.735 22.9397 231.69 22.9413C231.189 22.9721 230.687 23.0094 230.186 23.0402C230.141 23.0434 230.084 23.011 230.031 22.9964C229.928 22.9672 229.83 22.9234 229.716 22.9137C229.598 22.904 229.469 22.9283 229.34 22.9364C229.025 22.9575 229.025 22.9559 228.66 22.8602C228.611 22.8472 228.546 22.8294 228.497 22.8326C227.996 22.8651 227.491 22.8926 226.994 22.9397C226.709 22.9656 226.516 22.9186 226.314 22.8505C226.273 22.8359 226.201 22.8294 226.147 22.8326C225.582 22.8699 225.02 22.9121 224.454 22.9494C224.337 22.9575 224.223 22.9299 224.128 22.8878C223.976 22.8213 223.798 22.8294 223.608 22.844C223.171 22.878 223.168 22.8764 222.909 22.7986C222.856 22.7824 222.811 22.7613 222.754 22.7532C222.701 22.7451 222.632 22.75 222.575 22.7532C222.325 22.7694 222.074 22.7872 221.824 22.8051C221.573 22.8229 221.319 22.8327 221.072 22.8602C220.768 22.8943 220.624 22.7889 220.412 22.7402C220.1 22.7613 219.781 22.7743 219.474 22.8083C219.239 22.8343 219.129 22.7629 218.973 22.7256C218.92 22.7127 218.863 22.6851 218.814 22.6883C218.248 22.724 217.682 22.7629 217.121 22.8067C216.984 22.8164 216.893 22.8035 216.779 22.7645C216.525 22.677 216.513 22.6802 216.088 22.7127C215.902 22.7273 215.724 22.7402 215.564 22.6738C215.424 22.6138 215.253 22.5992 215.052 22.6186C214.805 22.6429 214.551 22.6559 214.3 22.6721C214.05 22.69 213.799 22.7143 213.548 22.7224C213.347 22.7305 213.226 22.6543 213.066 22.6154C213.017 22.604 212.949 22.6024 212.892 22.6057C212.641 22.6203 212.383 22.6316 212.14 22.6592C211.844 22.6932 211.681 22.604 211.472 22.5522C211.427 22.5408 211.351 22.5473 211.294 22.5522C210.853 22.5813 210.417 22.6138 209.976 22.6446C209.821 22.6008 209.661 22.5587 209.506 22.5149C209.255 22.5311 209.005 22.5489 208.754 22.5651C208.564 22.5781 208.371 22.583 208.192 22.6073C207.961 22.6397 207.847 22.5635 207.691 22.5262C207.638 22.5132 207.581 22.4857 207.532 22.4889C207.217 22.5068 206.902 22.5262 206.59 22.5538C206.294 22.5813 206.177 22.4354 205.934 22.437C205.683 22.4387 205.425 22.4597 205.182 22.4889C204.901 22.523 204.704 22.4711 204.503 22.4014C204.461 22.3868 204.389 22.3787 204.336 22.3819C204.02 22.4014 203.709 22.4257 203.394 22.4451C203.341 22.4484 203.277 22.4403 203.223 22.4306C202.624 22.3349 202.624 22.3333 202.362 22.3527C202.176 22.3657 201.986 22.3819 201.796 22.39C201.743 22.3933 201.678 22.3787 201.629 22.3657C201.234 22.2668 201.234 22.2652 200.949 22.2846C200.699 22.3025 200.448 22.3203 200.198 22.3381C200.042 22.2944 199.883 22.2522 199.727 22.2084C199.416 22.2295 199.097 22.2457 198.79 22.2749C198.645 22.2879 198.55 22.283 198.44 22.2425C198.304 22.1938 198.167 22.1371 197.939 22.1647C197.696 22.1938 197.438 22.1971 197.191 22.2214C196.895 22.2506 196.774 22.1031 196.535 22.1047C196.284 22.1063 196.026 22.1274 195.783 22.1565C195.502 22.1906 195.305 22.1387 195.104 22.069C195.062 22.0544 194.99 22.0463 194.937 22.0496C194.246 22.0966 193.559 22.1436 192.868 22.1938C192.443 22.2246 192.443 22.2263 191.634 22.1371C191.577 22.1306 191.516 22.1241 191.459 22.1274C191.209 22.142 190.951 22.1533 190.708 22.1809C190.412 22.2149 190.249 22.1274 190.04 22.0739C189.994 22.0625 189.922 22.069 189.861 22.0722C189.672 22.0836 189.486 22.0982 189.296 22.1112C189.045 22.129 188.795 22.1468 188.544 22.1647C188.388 22.1225 188.229 22.0787 188.073 22.0366C187.762 22.0576 187.443 22.069 187.136 22.1031C186.9 22.129 186.79 22.0609 186.635 22.022C186.582 22.009 186.525 21.9815 186.475 21.9831C185.91 22.0187 185.344 22.056 184.782 22.1014C184.551 22.1209 184.444 22.0479 184.289 22.0106C184.236 21.9993 184.175 21.9782 184.126 21.9815C183.75 22.0042 183.374 22.0317 182.998 22.0593C182.786 22.0755 182.786 22.0755 182.322 21.975C182.269 21.9636 182.209 21.9523 182.155 21.9555C180.964 22.0366 179.775 22.1225 178.583 22.2036C178.462 22.2117 178.352 22.1874 178.257 22.1436C178.158 22.0998 178.048 22.0771 177.927 22.0852C177.426 22.1193 176.921 22.1501 176.423 22.1922C176.218 22.2101 176.055 22.189 175.915 22.1322C175.808 22.0901 175.71 22.0739 175.577 22.0836C175.326 22.1031 175.076 22.1193 174.825 22.1371C174.575 22.1549 174.324 22.1728 174.074 22.1906C173.823 22.2084 173.569 22.2182 173.322 22.2457C173.018 22.2798 172.87 22.1793 172.662 22.129C172.286 22.1533 171.91 22.1776 171.538 22.2036C171.037 22.2376 170.536 22.2749 170.035 22.3073C169.989 22.3106 169.932 22.2814 169.879 22.2668C169.724 22.2263 169.61 22.1695 169.378 22.1874C168.254 22.2733 167.123 22.3463 165.996 22.4306C165.76 22.4484 165.658 22.3787 165.499 22.3414C165.445 22.33 165.385 22.3073 165.335 22.3106C164.709 22.3511 164.083 22.3965 163.456 22.4403C163.202 22.4581 163.202 22.4581 162.777 22.3576C162.727 22.3462 162.663 22.3316 162.61 22.3349C161.794 22.39 160.981 22.4484 160.165 22.5051C160.044 22.5132 159.934 22.4905 159.835 22.4468C159.74 22.403 159.626 22.3787 159.508 22.3868C158.757 22.4387 158.001 22.4889 157.254 22.5457C157.052 22.5619 156.885 22.5473 156.741 22.4889C156.639 22.4468 156.536 22.4289 156.407 22.4387C155.28 22.5181 154.152 22.5943 153.025 22.6786C152.808 22.6948 152.657 22.664 152.52 22.6105C152.41 22.5684 152.315 22.5603 152.178 22.5667C152.034 22.5749 151.947 22.5927 151.867 22.6413C151.765 22.7046 151.7 22.784 151.457 22.7889C151.207 22.7937 150.952 22.8132 150.705 22.8408C150.47 22.8683 150.36 22.7954 150.212 22.7516C150.102 22.7208 149.999 22.7159 149.859 22.7305C149.73 22.7435 149.65 22.771 149.574 22.8229C149.407 22.9332 149.392 22.9332 149.187 22.8634C149.077 22.8262 148.978 22.797 148.857 22.8035C148.356 22.8359 147.855 22.8716 147.354 22.9088C147.065 22.9299 147.061 22.9332 146.845 22.8521C146.739 22.8116 146.636 22.7921 146.511 22.8018C145.133 22.8991 143.755 22.9932 142.377 23.0953C142.164 23.1115 142.02 23.0775 141.868 23.0288C141.819 23.0126 141.77 22.9899 141.713 22.9834C141.656 22.9769 141.591 22.9834 141.531 22.9867C140.528 23.0564 139.522 23.1229 138.524 23.2007C138.296 23.2185 138.175 23.1667 138.019 23.1245C137.966 23.1099 137.92 23.0872 137.864 23.0807C137.807 23.0759 137.738 23.0872 137.678 23.0921C136.675 23.1618 135.669 23.2283 134.671 23.3061C134.432 23.3239 134.329 23.2558 134.174 23.2201C134.121 23.2072 134.064 23.1828 134.014 23.1861C133.699 23.2039 133.388 23.2282 133.073 23.2493C132.321 23.3028 131.57 23.3531 130.818 23.4082C130.53 23.4293 130.404 23.285 130.161 23.2915C129.846 23.2996 129.535 23.332 129.22 23.3547C128.969 23.3725 128.719 23.3888 128.468 23.4082C128.222 23.4261 128.222 23.426 127.607 23.332C127.554 23.3239 127.489 23.3126 127.436 23.3158C126.559 23.3758 125.678 23.4358 124.805 23.5006C124.604 23.5152 124.437 23.5071 124.293 23.4471C124.19 23.405 124.084 23.3839 123.959 23.3936C122.642 23.486 121.328 23.5785 120.011 23.6693C119.962 23.6725 119.897 23.6563 119.848 23.6433C119.741 23.6141 119.639 23.5801 119.536 23.5493C119.46 23.5866 119.362 23.6206 119.312 23.6628C119.244 23.7195 119.153 23.7357 119.009 23.7455C118.865 23.7552 118.773 23.7519 118.66 23.7098C118.523 23.6579 118.382 23.6174 118.158 23.6336C116.781 23.7357 115.403 23.8281 114.025 23.9287C113.797 23.9449 113.691 23.8735 113.531 23.8362C113.478 23.8249 113.417 23.8071 113.368 23.8103C112.802 23.8476 112.24 23.8881 111.675 23.927C110.107 24.0373 108.539 24.1427 106.975 24.2594C106.691 24.2805 106.497 24.24 106.296 24.1702C106.254 24.1557 106.182 24.1475 106.129 24.1508C103.935 24.3032 101.741 24.4572 99.5504 24.6112C99.4327 24.6193 99.3188 24.5934 99.2239 24.5513C99.1252 24.5075 99.0152 24.4864 98.8937 24.4945C97.8916 24.5642 96.8895 24.634 95.8873 24.7053C95.6368 24.7231 95.6329 24.7247 95.3748 24.6469C95.3217 24.6307 95.2648 24.5999 95.223 24.6031C95.1357 24.6113 95.0521 24.6518 94.9914 24.7069C94.9307 24.7653 94.8358 24.7815 94.6953 24.7928C94.5511 24.8042 94.4562 24.7993 94.3461 24.7604C94.2057 24.7118 94.0766 24.6648 93.8488 24.681C90.9676 24.8885 88.0865 25.0879 85.2053 25.2938C84.9737 25.31 84.8674 25.2419 84.708 25.2047C84.6548 25.1933 84.6017 25.1771 84.5448 25.1738C84.484 25.1706 84.4195 25.1803 84.3588 25.1852C79.6593 25.5143 74.9599 25.8451 70.2604 26.1742C69.9795 26.1937 69.9833 26.1937 69.6758 26.3428C69.6379 26.3607 69.5885 26.385 69.5353 26.3882C68.0966 26.492 66.6542 26.5925 65.2117 26.693C64.5854 26.7368 63.959 26.7822 63.3327 26.8244C63.1087 26.839 63.1087 26.839 62.5735 27.0141C62.528 27.0287 62.4748 27.0481 62.4216 27.0513C59.9162 27.2281 57.4108 27.4048 54.9017 27.5783C54.7043 27.5913 54.5449 27.6204 54.4538 27.6983C54.3892 27.7534 54.3057 27.7858 54.1805 27.7955C52.4267 27.9188 50.673 28.0436 48.9155 28.1636C48.7067 28.1782 48.5814 28.2236 48.4789 28.2917C48.4447 28.3144 48.4143 28.3403 48.365 28.3565C48.3194 28.3711 48.2511 28.376 48.1942 28.3808C46.6909 28.4862 45.1878 28.5949 43.6807 28.6954C43.4568 28.71 43.3656 28.77 43.2555 28.8332C43.2176 28.8543 43.191 28.8835 43.1416 28.898C43.0923 28.911 43.0202 28.911 42.9594 28.9143C41.7068 29.0018 40.4541 29.091 39.2014 29.1785C38.9585 29.1704 38.9053 29.2645 38.7876 29.3212C38.7459 29.3407 38.7156 29.3666 38.6662 29.3796C38.6131 29.3925 38.5447 29.3909 38.4801 29.3942C37.478 29.4639 36.4759 29.5385 35.4699 29.6033C35.2384 29.6179 35.1928 29.7006 35.0675 29.7573C35.0258 29.7752 34.9841 29.8027 34.9347 29.8076C34.3084 29.8546 33.682 29.8984 33.0557 29.9405C32.8469 29.9551 32.8469 29.9535 32.4787 30.114C32.4369 30.1319 32.3876 30.1513 32.3344 30.1562C31.3968 30.2243 30.4554 30.2891 29.514 30.3556C29.3925 30.3637 29.309 30.4026 29.2483 30.4578C29.1876 30.5129 29.1003 30.5486 28.9788 30.5567C28.2272 30.6102 27.4755 30.6653 26.7239 30.7139C26.5151 30.7269 26.3785 30.7674 26.2874 30.8404C26.2191 30.8955 26.1355 30.9231 26.0027 30.9328C25.2511 30.9847 24.4995 31.0414 23.7441 31.0868C23.5239 31.0998 23.41 31.1549 23.3189 31.223C23.2468 31.2782 23.1632 31.2976 23.0228 31.3073C21.6448 31.4014 20.2631 31.4954 18.889 31.5992C18.6574 31.617 18.5397 31.5603 18.3879 31.5197C18.1715 31.463 17.9704 31.4014 17.9704 31.2749C17.9704 31.2554 17.9058 31.2327 17.8603 31.2165C17.5224 31.0949 17.5224 31.0949 17.4693 30.9652C17.4389 30.8858 17.4047 30.8047 17.3782 30.7237C17.3288 30.5907 17.2073 30.5567 16.8581 30.581C16.7328 30.5891 16.6075 30.6004 16.4823 30.6069C16.2963 30.6183 16.1558 30.5648 16.1217 30.4675C16.1027 30.414 16.0799 30.3605 16.061 30.307C16.2508 30.294 16.2469 30.2924 16.581 30.0962C16.7214 30.0135 16.7215 30.0135 16.452 29.9308C16.3495 29.9 16.2507 29.866 16.1407 29.8368C16.0913 29.8238 16.0268 29.8157 15.9736 29.8189C15.6586 29.8384 15.3473 29.8611 15.036 29.8838C14.535 29.9195 14.5349 29.9195 14.0262 29.7541C13.9845 29.7411 13.92 29.7168 13.9275 29.7038C13.9693 29.6439 14.0718 29.6179 14.2008 29.6114C14.3906 29.6017 14.5766 29.5855 14.7627 29.5725C14.8879 29.5644 15.0132 29.5547 15.1385 29.5466C15.2561 29.485 15.3777 29.425 15.4877 29.3617C15.6624 29.2645 15.6623 29.2612 15.4232 29.1931C15.2713 29.1477 15.1081 29.1072 14.9525 29.065C14.7664 29.078 14.5767 29.0926 14.3906 29.1039C14.1553 29.1185 14.0604 29.0877 13.9996 28.9823C13.9465 28.8899 14.011 28.8105 14.1932 28.791C14.3793 28.7716 14.5539 28.7586 14.6488 28.6759C14.7399 28.5965 14.8994 28.5657 15.0967 28.5592C15.222 28.5543 15.3473 28.543 15.4726 28.5332C15.6358 28.5203 15.7231 28.4376 15.6889 28.3452C15.67 28.2852 15.632 28.2349 15.4839 28.2219C14.8272 28.1652 14.8196 28.1668 14.4931 28.0566C14.4628 28.0468 14.4401 28.0177 14.4514 28.0031C14.4704 27.9787 14.5122 27.9431 14.5577 27.9382C14.9943 27.9025 15.4308 27.8701 15.8674 27.8458C16.0116 27.8377 16.1179 27.8263 16.1672 27.7663C16.2356 27.6837 16.2052 27.6075 16.0723 27.5507C16.0306 27.5329 15.9622 27.5102 15.9167 27.5118C15.4156 27.541 14.9183 27.5783 14.4172 27.6075C14.3717 27.6107 14.2882 27.5831 14.2692 27.5621C14.2313 27.5232 14.2882 27.4713 14.421 27.4534C14.5957 27.4291 14.7741 27.4275 14.8917 27.3464C15.055 27.2313 15.2561 27.1259 15.4384 27.0157C15.4687 26.9962 15.5181 26.9589 15.5067 26.9557C15.4118 26.92 15.3017 26.8924 15.203 26.8584C15.036 26.8017 15.036 26.7222 15.074 26.646C15.1043 26.5844 15.2182 26.5601 15.3587 26.5601C15.4194 26.5601 15.4953 26.5601 15.5447 26.5455C15.6737 26.5098 15.7155 26.4644 15.651 26.4304C15.613 26.4109 15.5447 26.3834 15.4991 26.3866C14.6868 26.4401 13.8706 26.492 13.062 26.5585C12.8229 26.5779 12.7129 26.5163 12.5686 26.4725C12.4586 26.4385 12.356 26.4255 12.2193 26.4498C12.0903 26.4725 11.9651 26.4596 11.8853 26.4061C11.8208 26.3623 11.9347 26.325 12.2421 26.2828C12.2991 26.2747 12.3636 26.2699 12.4053 26.2536C12.8457 26.0785 12.8457 26.0769 13.1493 26.0542C13.4454 26.0332 13.4455 26.0315 13.6011 25.9375C13.6733 25.8937 13.7529 25.8499 13.8212 25.8045C13.8478 25.7867 13.8934 25.7543 13.8782 25.7445C13.7947 25.6943 13.6808 25.6829 13.5479 25.6943C13.2519 25.7219 12.9027 25.6992 12.747 25.8532C12.6863 25.9116 12.5914 25.9278 12.4547 25.9375C11.0806 26.0315 9.70638 26.1321 8.32843 26.2229C8.10446 26.2374 8.00203 26.2974 7.91472 26.3639C7.8388 26.419 7.75527 26.4352 7.61102 26.445C7.46677 26.4547 7.35284 26.4596 7.26933 26.4061C7.21998 26.3736 7.26175 26.3282 7.37563 26.2828C7.53885 26.218 7.50847 26.1369 7.45533 26.0607C7.41737 26.0105 7.2997 25.9748 7.17443 25.978C6.98842 25.9845 6.81006 26.0024 6.65442 25.9375C6.56332 25.9002 6.44941 25.8743 6.34692 25.8418C6.14953 25.7754 5.95213 25.7073 5.67502 25.751C5.48522 25.7348 5.35236 25.6765 5.20052 25.6311C4.94619 25.5565 4.92341 25.5451 5.10562 25.4657C5.3106 25.3765 5.15114 25.2598 5.26502 25.1722C5.38649 25.0782 5.55357 24.9955 5.70162 24.908C5.73958 24.8853 5.77376 24.8642 5.81172 24.8415C5.72441 24.8091 5.64471 24.7685 5.54222 24.7458C5.40935 24.7166 5.34102 24.681 5.34861 24.5804C5.32204 24.5659 5.33335 24.6031 5.36372 24.6129C5.39789 24.6226 5.48146 24.6145 5.52322 24.6031C5.62951 24.5723 5.68259 24.5318 5.65602 24.4978C5.64084 24.4799 5.56877 24.4572 5.52322 24.4572C5.4397 24.4572 5.36759 24.4929 5.34482 24.5804C4.91966 24.6469 4.47925 24.6793 4.03892 24.7053C3.99336 24.7085 3.93646 24.6761 3.88331 24.6599C3.7087 24.6048 3.70867 24.6064 3.19621 24.5902C3.14307 24.5885 3.07098 24.5659 3.04441 24.5432C2.93432 24.4443 2.93815 24.3356 2.88501 24.2302C2.9837 24.1621 3.08232 24.0957 3.18481 24.0292C3.3898 23.8946 3.65558 23.7763 3.81501 23.6287C3.78085 23.5493 3.73529 23.4698 3.90231 23.405C4.37681 23.3239 4.37305 23.3239 4.50211 23.2461C4.87032 23.0256 5.23472 22.8035 5.61812 22.5862C5.72061 22.5295 5.72062 22.4987 5.53842 22.4743C5.48148 22.4679 5.42066 22.4662 5.35992 22.4695C5.17012 22.4808 4.98032 22.51 4.79432 22.5035C4.60831 22.4987 4.47166 22.4273 4.31982 22.3835C4.16418 22.3381 4.00855 22.2911 3.85292 22.2441C3.6745 22.249 3.49612 22.2944 3.31771 22.2214C3.18105 22.1647 3.01025 22.1241 2.85461 22.0771C2.97229 21.9539 3.19249 21.8598 3.36331 21.7512C3.51894 21.6523 3.52266 21.6539 3.94022 21.5777C4.13761 21.5421 4.20594 21.3589 4.03892 21.3054C3.83773 21.2405 3.6252 21.1805 3.42021 21.1189C3.2418 21.1238 3.05963 21.1675 2.88881 21.0946C2.75595 21.0395 2.60408 21.0022 2.38391 21.0232C2.0119 21.0589 1.63231 21.0767 1.2565 21.1059C1.12744 21.1157 0.986945 21.1092 0.930004 21.0541C0.892044 21.0151 1.00214 20.9616 1.1274 20.9503C1.31721 20.9341 1.48801 20.9146 1.58291 20.8336C1.67401 20.7525 1.84102 20.7282 2.03841 20.7168C2.09155 20.7136 2.15234 20.6941 2.17891 20.6747C2.31556 20.5806 2.46742 20.4996 2.75971 20.5028C2.88118 20.4704 2.94567 20.4298 2.90771 20.3909C2.88494 20.3698 2.80526 20.3423 2.75971 20.3455C2.44464 20.3617 2.12958 20.378 1.8221 20.4071C1.67786 20.4201 1.56771 20.4233 1.47661 20.3747C1.41208 20.3423 1.44624 20.2985 1.56771 20.2515C1.674 20.211 1.7044 20.1639 1.69681 20.1088C1.67783 19.9807 1.56392 19.9434 1.19951 19.9515C0.937582 19.958 0.873046 19.937 0.816106 19.8267C0.800922 19.8008 0.763028 19.7651 0.7896 19.7473C0.952829 19.637 1.05912 19.5008 1.3666 19.4489C1.48807 19.4295 1.61709 19.4295 1.69301 19.3873C1.76893 19.3452 1.83729 19.2965 1.917 19.256C2.0157 19.2073 2.08396 19.162 2.03841 19.1312C1.96249 19.076 1.84106 19.0712 1.70061 19.0906C1.57913 19.1068 1.45007 19.1085 1.3248 19.1182C1.10084 19.136 0.918672 19.0939 0.8921 19.0225C0.819976 18.8345 0.744033 18.648 0.679501 18.4599C0.671909 18.4372 0.690837 18.408 0.721205 18.3886C0.827494 18.3205 0.941418 18.2556 1.0515 18.1892C1.18057 18.113 1.38559 18.1276 1.5602 18.113C1.80694 18.0919 1.80686 18.0935 2.13711 17.9378C2.26618 17.8762 2.49015 17.9006 2.62301 17.8454C2.66477 17.8276 2.7293 17.7984 2.71791 17.7822C2.70273 17.7611 2.62685 17.7449 2.56991 17.7352C2.51676 17.7255 2.45225 17.7206 2.39531 17.7255C1.70443 17.7725 1.01737 17.8227 0.326498 17.8681C0.208821 17.8762 0.0797533 17.8406 0.0379972 17.7903C-0.00375894 17.7433 0.00759202 17.6865 0 17.633C0.110084 17.5666 0.235305 17.505 0.330205 17.4336C0.402329 17.3785 0.485856 17.3542 0.630105 17.3509C0.819905 17.3461 1.00593 17.3266 1.21851 17.312C1.61329 17.0753 2.00046 16.8272 2.42561 16.5905C2.59643 16.4949 2.55474 16.3976 2.58891 16.2954C2.62307 16.2014 2.87739 16.216 3.04821 16.1884C3.18487 16.1657 3.23036 16.1139 3.17721 16.0782C3.14685 16.0571 3.07855 16.0328 3.02541 16.0328C2.90014 16.0328 2.77488 16.0474 2.64961 16.0555C2.52434 16.0636 2.3801 16.0587 2.27761 16.0863C2.17891 16.1122 2.11434 16.1674 2.04981 16.2144C1.97769 16.2663 1.88285 16.2841 1.7386 16.2873C1.5526 16.2906 1.36661 16.3052 1.1806 16.3165C0.975616 16.2533 0.762995 16.1917 0.565602 16.1252C0.527642 16.1122 0.520009 16.075 0.523805 16.0506C0.531397 15.9874 0.474472 15.9485 0.349203 15.9177C0.242915 15.8917 0.155599 15.8545 0.0569031 15.822C0.132823 15.7782 0.216365 15.7361 0.277101 15.6891C0.409962 15.5902 0.577005 15.5188 0.865502 15.5221C0.979382 15.4589 1.07046 15.381 1.21851 15.3372C1.35896 15.2951 1.59812 15.3372 1.70441 15.2416C1.75755 15.1946 1.83731 15.1411 1.9398 15.1216C2.10303 15.0908 2.3156 15.107 2.41051 15.0162C2.46745 14.9643 2.55092 14.9173 2.66101 14.9043C2.78628 14.8898 2.91531 14.8865 3.00641 14.8557C3.05576 14.8395 3.10891 14.8136 3.10891 14.7909C3.10891 14.7763 3.03305 14.7536 2.97991 14.7438C2.93056 14.7325 2.86595 14.7244 2.80901 14.7276C2.61921 14.7374 2.43321 14.7552 2.24341 14.7649C2.19027 14.7682 2.12955 14.7568 2.07261 14.7471C1.90558 14.7211 1.91695 14.6887 2.04981 14.6304C2.18267 14.5736 2.27762 14.5006 2.38771 14.4342C2.50918 14.4228 2.661 14.4277 2.74451 14.3969C2.88496 14.3466 2.98363 14.2736 3.09751 14.2104C3.22278 14.2007 3.35184 14.1975 3.46951 14.1796C3.51886 14.1731 3.54166 14.1375 3.58341 14.1164C3.65933 14.0759 3.72392 14.0175 3.82641 13.998C3.99343 13.9688 4.19842 13.9802 4.29711 13.891C4.35405 13.8391 4.44133 13.784 4.54762 13.7808C4.8437 13.7743 4.96898 13.6851 5.12082 13.6008C5.2347 13.5376 5.47765 13.57 5.60292 13.5068C5.68643 13.4662 5.7472 13.416 5.83072 13.377C5.86488 13.3608 5.93698 13.3527 5.99392 13.3479C6.30519 13.3236 6.62025 13.3057 6.93152 13.2798C6.98087 13.2749 7.02646 13.2506 7.06442 13.2311C7.14414 13.189 7.19343 13.1306 7.29213 13.1031C7.39082 13.0755 7.53126 13.0755 7.65273 13.0674C8.04372 13.0431 8.07411 13.0495 8.25253 12.9117C8.39678 12.7999 8.74985 12.8793 8.86753 12.7561C8.93585 12.6847 9.06107 12.6264 9.28503 12.6183C9.6001 12.6069 9.91137 12.5761 10.2264 12.555C10.5073 12.5356 10.5036 12.5356 10.8072 12.3848C10.9439 12.3167 11.1451 12.3264 11.3235 12.3135C11.5133 12.3005 11.6879 12.281 11.779 12.2C11.8701 12.1205 12.0371 12.0946 12.2307 12.0832C12.4092 12.0719 12.6104 12.08 12.7508 12.0151C13.0925 11.8595 13.0887 11.8579 13.3278 11.8417C13.7036 11.8157 14.0794 11.7898 14.4552 11.7622C14.7058 11.7444 14.9677 11.7411 15.203 11.7055C15.3739 11.6795 15.4498 11.5887 15.5599 11.5255C15.8711 11.5012 16.1824 11.4769 16.4937 11.4542C16.9302 11.4217 17.3705 11.3926 17.8109 11.3617C18.0007 11.3001 18.0273 11.1639 18.3462 11.1575C18.536 11.1542 18.722 11.1331 18.9118 11.1202C19.2268 11.0975 19.5381 11.0683 19.8532 11.0569C20.0923 11.0488 20.134 10.9613 20.2593 10.9061C20.301 10.8867 20.339 10.8591 20.3884 10.8543C20.8818 10.8089 21.3905 10.7991 21.8726 10.7327C21.9219 10.7262 21.9675 10.6921 21.9789 10.6678C21.9865 10.6548 21.9219 10.6305 21.8802 10.6192C21.8308 10.6062 21.7663 10.5932 21.7132 10.5965C20.1454 10.7051 18.5777 10.8154 17.01 10.924C16.7898 10.9402 16.7898 10.9386 16.2546 11.1169C16.209 11.1315 16.1558 11.1477 16.0989 11.1526C15.8483 11.172 15.594 11.1834 15.3473 11.2077C15.1461 11.2272 14.9791 11.2077 14.8348 11.1493C14.7324 11.1072 14.626 11.0942 14.4969 11.0975C14.3527 11.1023 14.2579 11.1202 14.1743 11.164C14.0643 11.2239 14.0073 11.3018 13.7757 11.318C12.7091 11.3877 11.6423 11.4655 10.5794 11.5401C10.4314 11.5174 10.3593 11.4833 10.3972 11.4428C10.42 11.4185 10.4656 11.3861 10.5111 11.3828C10.9477 11.3488 11.388 11.3196 11.8245 11.2872C11.8853 11.2823 11.9688 11.2855 12.0029 11.2693C12.17 11.1964 12.2308 11.078 12.5458 11.0699C12.728 11.065 12.914 11.0407 13.0886 11.018C13.138 11.0115 13.1836 10.9775 13.1949 10.9532C13.1987 10.9402 13.138 10.9159 13.0924 10.9045C12.9254 10.8575 12.7319 10.9143 12.5648 10.8818C12.5079 10.8705 12.4281 10.8543 12.4167 10.8348C12.4092 10.817 12.4737 10.7878 12.5192 10.77C12.561 10.7537 12.6179 10.7392 12.6748 10.7343C13.1759 10.697 13.6771 10.6581 14.1781 10.6289C14.3831 10.6176 14.5273 10.577 14.6184 10.5024C14.6868 10.4473 14.7703 10.4181 14.8993 10.41C15.7762 10.35 16.6531 10.2836 17.5338 10.2284C17.7539 10.2155 17.8679 10.162 17.959 10.0923C18.0311 10.0371 18.1146 10.0177 18.2551 10.0079C19.5115 9.92363 20.7604 9.8296 22.0169 9.74854C22.2484 9.73394 22.3168 9.66422 22.4345 9.60423C22.4762 9.58316 22.5027 9.55722 22.5559 9.54425C22.609 9.53127 22.6773 9.53288 22.7419 9.52964C23.744 9.45992 24.7462 9.38535 25.7522 9.3205C25.9875 9.30591 26.033 9.22483 26.1545 9.16809C26.1962 9.15025 26.2342 9.12108 26.2836 9.11621C27.0352 9.06109 27.7868 9.00921 28.5384 8.9557C29.0395 8.92003 29.5405 8.88436 30.0416 8.85031C30.2883 8.8341 30.2884 8.83247 30.6224 8.67844C30.6604 8.66061 30.7136 8.63953 30.7629 8.63466C32.2054 8.5309 33.644 8.43202 35.0865 8.32987C35.208 8.32177 35.2953 8.28446 35.356 8.22933C35.4168 8.17421 35.5041 8.13692 35.6218 8.12881C36.7492 8.04774 37.8766 7.9683 39.0078 7.8921C39.2128 7.87913 39.357 7.84022 39.4481 7.76726C39.5165 7.71213 39.6 7.68296 39.729 7.67485C40.8564 7.59703 41.9839 7.51433 43.1151 7.43974C43.3315 7.42515 43.4378 7.37003 43.544 7.30518C43.582 7.28248 43.6124 7.24519 43.6579 7.24195C44.2198 7.19655 44.7777 7.14953 45.3433 7.11872C45.5787 7.10575 45.6584 7.03765 45.7533 6.9728C45.8293 6.92092 45.9166 6.90309 46.0608 6.8966C46.3759 6.88201 46.6872 6.85446 46.9947 6.8269C47.0402 6.82203 47.0972 6.78636 47.101 6.76366C47.1085 6.72151 47.0212 6.69232 46.877 6.67773C45.3737 6.78311 43.8668 6.88849 42.3635 6.99388C42.1168 7.01171 42.1168 7.01172 41.7827 7.16575C41.7448 7.18358 41.6916 7.20466 41.6384 7.20953C40.196 7.31167 38.7573 7.4122 37.3148 7.51434C37.1933 7.52245 37.1061 7.55974 37.0453 7.61486C36.9846 7.66999 36.8972 7.70728 36.7795 7.71538C35.4016 7.81266 34.0237 7.91157 32.6419 8.00398C32.4369 8.01695 32.2927 8.05423 32.2016 8.12881C32.1333 8.18393 32.0498 8.21313 31.9207 8.22124C30.6035 8.31203 29.29 8.40768 27.969 8.49523C27.8361 8.50334 27.7375 8.45632 27.7451 8.41254C27.7489 8.38984 27.8057 8.35257 27.8513 8.34933C28.5384 8.29582 29.2217 8.24069 29.9126 8.20016C30.1442 8.18719 30.2124 8.11585 30.3301 8.05586C30.3681 8.03478 30.3985 8.00722 30.4478 7.99587C30.5009 7.9829 30.5693 7.98453 30.6338 7.98128C32.2623 7.86617 33.8908 7.74944 35.5231 7.64081C35.7585 7.62459 35.8039 7.54514 35.9254 7.48839C35.9672 7.46894 36.0052 7.43976 36.0545 7.43652C36.5556 7.39761 37.0567 7.36355 37.5577 7.32951C38.4346 7.26789 39.3115 7.20628 40.1921 7.14467C40.4465 7.12684 40.4465 7.12683 40.7729 6.97442C40.8109 6.95659 40.8641 6.93391 40.9134 6.93066C43.2328 6.76691 45.5522 6.60315 47.8716 6.44102C47.993 6.43291 48.0803 6.39562 48.1411 6.3405C48.2018 6.28699 48.2891 6.24808 48.4068 6.23835C51.5423 6.01785 54.674 5.79734 57.8095 5.58009C58.0145 5.56549 58.1587 5.53144 58.2498 5.45524C58.3143 5.40011 58.4016 5.37094 58.5307 5.36121C61.9775 5.11963 65.4242 4.87806 68.8748 4.63486C71.1942 4.47272 73.5136 4.30735 75.8329 4.14846C76.0455 4.13387 76.1594 4.0836 76.2657 4.01712C76.2998 3.99442 76.334 3.95713 76.3795 3.95389C76.8768 3.91335 77.3741 3.87607 77.8714 3.83878C78.027 3.88256 78.1826 3.92472 78.3383 3.96849C78.4559 3.90688 78.5699 3.84365 78.6876 3.78204C79.4392 3.73502 80.1794 3.66206 80.9386 3.63936C80.9879 3.63774 81.041 3.66855 81.0942 3.68476C81.4472 3.78691 81.6484 3.7788 81.8724 3.64261C81.9521 3.59397 82.0204 3.55019 82.1419 3.54208C82.5177 3.5129 82.8974 3.49344 83.2694 3.45939C83.4706 3.44156 83.6375 3.45777 83.7818 3.51614C83.8843 3.55829 83.9906 3.57614 84.1159 3.56641C84.8067 3.51777 85.4938 3.47074 86.1847 3.41886C86.234 3.41562 86.2795 3.38805 86.3175 3.36859C86.3972 3.32644 86.4656 3.28105 86.5415 3.23727C86.644 3.26484 86.7579 3.28592 86.8414 3.32159C86.9477 3.36374 87.0463 3.36373 87.1906 3.35238C89.9465 3.1562 92.7062 2.96489 95.4621 2.76708C95.6975 2.75087 95.8 2.81897 95.9594 2.85464C96.0126 2.86761 96.0657 2.88382 96.1226 2.88706C96.1833 2.8903 96.2479 2.88058 96.3086 2.87572C98.3774 2.7298 100.446 2.58549 102.515 2.43957C102.788 2.42012 102.788 2.42012 103.195 2.52064C103.244 2.53361 103.308 2.5482 103.362 2.54334C104.303 2.48011 105.244 2.41202 106.182 2.34717C106.304 2.33906 106.406 2.36499 106.516 2.40228C106.733 2.47524 106.748 2.47525 106.907 2.36824C106.983 2.31798 107.063 2.28716 107.188 2.27257C107.325 2.25636 107.435 2.26124 107.541 2.29042C107.693 2.33096 107.803 2.39904 108.035 2.38121C109.037 2.305 110.043 2.24178 111.041 2.16395C111.269 2.14612 111.39 2.20124 111.542 2.24177C111.595 2.25637 111.645 2.27907 111.701 2.28393C111.758 2.28879 111.827 2.27743 111.887 2.27257C113.14 2.18502 114.397 2.0991 115.645 2.00507C115.881 1.98723 115.983 2.05694 116.143 2.09261C116.196 2.10558 116.257 2.12829 116.306 2.12504C117.058 2.07478 117.813 2.02126 118.565 1.96776C118.834 1.9483 118.834 1.94993 119.244 2.04883C119.293 2.0618 119.358 2.07477 119.411 2.07153C120.288 2.01154 121.169 1.94993 122.046 1.88832C122.315 1.86886 122.315 1.86886 123.093 1.95317C123.15 1.95966 123.211 1.9694 123.268 1.96616C124.27 1.89644 125.276 1.82833 126.278 1.75375C126.479 1.73916 126.646 1.75213 126.791 1.8105C126.893 1.85265 126.999 1.87049 127.125 1.86077C128.252 1.78132 129.383 1.70512 130.507 1.62081C130.723 1.6046 130.864 1.64025 131.016 1.68727C131.065 1.70349 131.114 1.72619 131.171 1.73268C131.228 1.73916 131.293 1.73267 131.353 1.72781C132.481 1.64836 133.612 1.57378 134.736 1.48785C134.963 1.47002 135.085 1.52514 135.237 1.56567C135.29 1.58027 135.347 1.60945 135.392 1.60783C135.833 1.58027 136.273 1.55596 136.71 1.51542C136.945 1.49272 137.047 1.56729 137.207 1.60296C137.26 1.61431 137.321 1.63864 137.37 1.6354C138.311 1.57217 139.253 1.5057 140.191 1.4376C140.323 1.42787 140.422 1.44245 140.528 1.48461C140.669 1.54135 140.832 1.56405 141.037 1.54622C141.474 1.50893 141.914 1.48299 142.354 1.45219C142.612 1.43435 142.612 1.43436 143.402 1.51867C143.459 1.52515 143.52 1.53487 143.577 1.53163C144.328 1.47975 145.084 1.42949 145.831 1.37275C146.033 1.35653 146.2 1.37112 146.344 1.42949C146.446 1.47164 146.549 1.48949 146.678 1.47976C147.369 1.43112 148.056 1.38247 148.747 1.33383C148.997 1.316 149.248 1.28519 149.498 1.28519C149.681 1.28681 149.813 1.36463 149.977 1.40354C150.022 1.41489 150.098 1.40193 150.159 1.39869C151.036 1.33708 151.916 1.28033 152.79 1.21061C153.017 1.19278 153.139 1.2479 153.291 1.28843C153.344 1.30302 153.401 1.33221 153.446 1.33059C153.761 1.31275 154.073 1.28843 154.388 1.26735C154.763 1.24141 155.143 1.22196 155.515 1.18629C155.819 1.1571 155.933 1.29816 156.176 1.30302C156.362 1.30788 156.551 1.28033 156.737 1.26735C157.113 1.24141 157.489 1.21223 157.865 1.18953C157.998 1.18143 158.1 1.15548 158.142 1.09711C158.15 1.08576 158.085 1.06145 158.043 1.04686C157.538 0.881481 157.538 0.881473 157.03 0.917142C156.715 0.939841 156.403 0.962543 156.088 0.981999C156.035 0.985242 155.974 0.972272 155.921 0.962544C155.769 0.934981 155.785 0.902558 155.914 0.84419C156.043 0.785822 156.141 0.71449 156.251 0.648016C156.407 0.69017 156.559 0.73231 156.715 0.774464C156.84 0.766358 156.965 0.756644 157.09 0.748537C157.717 0.706383 158.343 0.662604 158.969 0.623692C159.015 0.620449 159.072 0.652881 159.125 0.669094C159.277 0.716112 159.414 0.756635 159.634 0.7388C160.196 0.691781 160.761 0.657734 161.323 0.6172C161.57 0.599366 161.57 0.599367 162.002 0.69989C162.052 0.711239 162.116 0.72421 162.169 0.720968C162.735 0.683677 163.297 0.643149 163.862 0.604237C163.984 0.59613 164.102 0.617207 164.189 0.664225C164.223 0.683681 164.215 0.716101 164.36 0.981999C164.808 1.19764 165.115 1.17495 165.426 1.15549C165.559 1.14739 165.677 1.13927 165.764 1.10684C165.81 1.08901 165.867 1.06306 165.867 1.04199C165.867 1.02577 165.783 0.999828 165.73 0.996586C165.354 0.964159 164.997 1.03226 164.629 1.04686C164.458 1.05334 164.31 0.996594 164.28 0.904179C164.272 0.878237 164.261 0.850676 164.25 0.824735C164.238 0.798794 164.231 0.771233 164.219 0.745292C164.071 0.737185 163.984 0.766364 163.919 0.821489C163.866 0.866886 163.79 0.918769 163.688 0.943089C163.585 0.96903 163.445 0.964175 163.32 0.972282C163.198 0.980388 163.065 1.00146 162.951 0.990114C162.838 0.977143 162.746 0.930117 162.64 0.900933C162.591 0.886341 162.53 0.865271 162.481 0.868514C162.044 0.896077 161.611 0.923629 161.179 0.959298C160.951 0.978754 160.837 0.910669 160.693 0.868514C160.579 0.836088 160.465 0.844184 160.446 0.918765C160.397 1.09711 160.571 1.17169 160.959 1.13764C161.277 1.10846 161.566 1.10361 161.816 1.21386C161.851 1.22845 161.93 1.23493 161.98 1.23169C162.291 1.21223 162.598 1.18791 162.91 1.16846C162.967 1.16521 163.027 1.17169 163.081 1.17817C163.855 1.26573 163.855 1.26736 164.117 1.2479C164.242 1.23817 164.364 1.23006 164.352 0.983622C164.591 0.719346 164.971 0.701514 165.339 0.662602C165.578 0.638282 165.681 0.709624 165.836 0.746915C165.889 0.759885 165.946 0.785822 165.996 0.782579C166.812 0.729075 167.624 0.672321 168.437 0.612332C168.573 0.602604 168.672 0.612333 168.778 0.654488C168.915 0.707992 169.067 0.742047 169.283 0.722591C169.716 0.683679 170.156 0.659364 170.597 0.626938C170.821 0.610724 170.821 0.610708 171.272 0.71123C171.322 0.72258 171.386 0.735551 171.439 0.732308C171.88 0.704746 172.316 0.670708 172.753 0.641524C172.874 0.633418 172.984 0.656114 173.079 0.69989C173.174 0.743666 173.288 0.766362 173.406 0.758255C173.846 0.729071 174.283 0.696655 174.719 0.667471C174.772 0.664228 174.837 0.675577 174.886 0.686926C175.349 0.787449 175.349 0.787432 175.562 0.771219C175.873 0.746899 176.192 0.735562 176.499 0.703135C176.799 0.670709 176.955 0.764738 177.16 0.816621C177.722 0.77933 178.287 0.748533 178.845 0.703135C179.073 0.68368 179.195 0.737179 179.346 0.779333C179.4 0.793925 179.453 0.824734 179.502 0.823112C179.692 0.816627 179.878 0.798795 180.064 0.785825C180.25 0.772854 180.44 0.759885 180.626 0.746915C180.838 0.793933 180.979 0.904182 181.282 0.866891C181.465 0.844193 181.658 0.839329 181.844 0.826358C182.03 0.813387 182.22 0.800418 182.406 0.787448C182.531 0.779341 182.66 0.77447 182.782 0.759878C183.006 0.735558 183.116 0.815013 183.275 0.850682C183.328 0.862031 183.389 0.881474 183.439 0.878232C183.814 0.855533 184.194 0.836079 184.562 0.798788C184.847 0.769604 185.04 0.818251 185.242 0.886346C185.283 0.900938 185.355 0.909044 185.409 0.905802C185.849 0.878239 186.285 0.844182 186.722 0.814998C186.84 0.806891 186.954 0.832831 187.049 0.874986C187.147 0.918762 187.257 0.939855 187.379 0.931748C187.815 0.902564 188.256 0.870128 188.692 0.840944C188.745 0.837702 188.81 0.850675 188.859 0.863645C189.284 0.964168 189.284 0.965791 189.535 0.946335C189.596 0.941471 189.66 0.938215 189.721 0.933351C190.032 0.910653 190.355 0.902557 190.659 0.863645C191.008 0.81987 191.262 0.874997 191.509 0.967413C191.82 0.947957 192.139 0.936605 192.443 0.904179C192.67 0.879859 192.792 0.941466 192.944 0.981999C192.997 0.996591 193.054 1.02578 193.099 1.02253C193.54 0.99497 193.98 0.970659 194.413 0.930125C194.648 0.907427 194.751 0.980373 194.91 1.01766C194.963 1.03063 195.02 1.05334 195.069 1.0501C195.32 1.03713 195.571 1.01767 195.821 0.999831C196.113 0.978754 196.113 0.980374 196.501 1.07928C196.683 1.12629 196.865 1.089 197.043 1.07765C197.233 1.06468 197.412 1.05496 197.563 1.12143C197.658 1.16359 197.772 1.18953 197.89 1.18304C198.14 1.16845 198.395 1.15387 198.642 1.12955C198.839 1.11009 199.01 1.12305 199.154 1.18304C199.256 1.2252 199.363 1.24629 199.488 1.23656C200.05 1.19765 200.615 1.1571 201.177 1.11981C201.227 1.11657 201.295 1.13116 201.34 1.14576C201.447 1.17494 201.549 1.20736 201.652 1.23978C201.898 1.22519 202.153 1.21872 202.396 1.19603C202.654 1.17333 202.889 1.16522 203.09 1.25439C203.132 1.27385 203.193 1.30139 203.242 1.29977C203.432 1.29329 203.618 1.27708 203.804 1.26411C203.99 1.25114 204.18 1.23817 204.366 1.2252C204.582 1.26573 204.719 1.38247 205.023 1.34518C205.205 1.32248 205.398 1.31761 205.584 1.30464C205.77 1.29167 205.96 1.27708 206.146 1.26573C206.207 1.26249 206.275 1.25438 206.328 1.26086C206.385 1.26735 206.435 1.29005 206.484 1.30627C206.636 1.35328 206.776 1.40031 206.993 1.37275C207.175 1.35005 207.369 1.34518 207.555 1.33059C207.809 1.31275 207.809 1.31276 208.23 1.4149C208.401 1.45706 208.595 1.40193 208.758 1.4376C208.868 1.46192 208.963 1.50245 209.069 1.53001C209.115 1.54136 209.187 1.54622 209.24 1.54297C209.491 1.52838 209.745 1.5138 209.992 1.48948C210.193 1.47002 210.36 1.48947 210.5 1.54784C210.603 1.59 210.705 1.60784 210.834 1.59811C211.461 1.55271 212.087 1.51379 212.71 1.46353C212.922 1.44569 213.093 1.47326 213.211 1.53163C213.412 1.63215 213.697 1.5138 213.905 1.59487C214.034 1.64513 214.163 1.7035 214.399 1.67918C214.832 1.63702 215.272 1.61431 215.708 1.58513C215.864 1.6289 216.02 1.67269 216.179 1.71647C216.43 1.69863 216.68 1.68079 216.931 1.66457C217.117 1.6516 217.307 1.63701 217.493 1.62566C217.553 1.62242 217.618 1.61593 217.675 1.62404C217.732 1.63215 217.777 1.65323 217.83 1.66944C218.092 1.74889 218.092 1.75052 218.525 1.71809C218.711 1.7035 218.889 1.69377 219.045 1.75862C219.189 1.81861 219.36 1.82995 219.558 1.81212C219.93 1.77969 220.305 1.75537 220.685 1.73268C220.803 1.72457 220.913 1.75213 221.011 1.79429C221.159 1.86076 221.342 1.85428 221.528 1.83644C221.774 1.81374 222.017 1.79105 222.226 1.88184C222.268 1.9013 222.332 1.92885 222.378 1.92723C222.689 1.91426 223.004 1.90454 223.308 1.87373C223.612 1.84292 223.76 1.94344 223.969 1.99208C224.28 1.97101 224.595 1.94993 224.906 1.92885C224.967 1.92399 225.039 1.9094 225.092 1.91751C225.316 1.95156 225.445 2.07315 225.753 2.03586C225.931 2.01479 226.125 2.00831 226.311 2.00344C226.36 2.00182 226.425 2.02937 226.459 2.05045C226.478 2.0618 226.459 2.0926 226.436 2.10881C226.368 2.15421 226.284 2.19638 226.223 2.2434C226.216 2.24988 226.288 2.27906 226.33 2.29203C226.432 2.32121 226.55 2.31636 226.686 2.30339C226.804 2.29204 226.926 2.31473 227.009 2.36337C227.043 2.38283 227.032 2.41525 226.96 2.52226C226.96 2.60171 227.039 2.56603 227.066 2.51415C227.108 2.43957 227.028 2.41525 226.876 2.45578C226.77 2.48497 226.717 2.52712 226.743 2.56117C226.759 2.57901 226.831 2.60171 226.96 2.52226C227.294 2.42498 227.544 2.40716 227.795 2.38932C227.859 2.38446 227.935 2.36823 227.981 2.37796C228.144 2.41687 228.296 2.4639 228.455 2.50768C228.638 2.49795 228.808 2.47362 228.987 2.53685C229.237 2.62602 229.249 2.61792 229.492 2.60008C229.617 2.59035 229.742 2.58226 229.868 2.57416C229.993 2.56605 230.091 2.59036 230.202 2.62765C230.426 2.70385 230.445 2.70385 230.593 2.60008C230.68 2.53685 230.741 2.51578 230.851 2.54496C231.215 2.64386 231.219 2.65034 231.53 2.62116C231.788 2.59684 232.031 2.59036 232.221 2.68277C232.35 2.74762 232.392 2.73304 232.494 2.66494C232.768 2.48497 232.893 2.48821 233.405 2.61791C233.645 2.67952 233.891 2.61306 234.134 2.60495C234.339 2.59847 234.483 2.63737 234.499 2.73951C234.51 2.80275 234.544 2.84815 234.681 2.86923C234.734 2.87734 234.799 2.88868 234.852 2.88544C235.167 2.86598 235.478 2.84328 235.793 2.82058C235.952 2.80923 236.04 2.73304 236.009 2.63252C235.975 2.52551 236.036 2.48659 236.264 2.45578C236.4 2.43795 236.511 2.4412 236.621 2.47039C236.742 2.50281 236.708 2.532 236.602 2.59036C236.347 2.73304 236.378 2.82058 236.704 2.91948C236.818 2.95353 236.909 2.98435 236.936 3.03461C236.951 3.06055 236.936 3.09459 236.97 3.11405C237.156 3.22268 237.414 3.2924 237.702 3.34429C237.98 3.30051 238.169 3.37346 238.382 3.43182C238.549 3.47722 238.746 3.43832 238.925 3.42211C239.126 3.40427 239.293 3.41724 239.437 3.47723C239.54 3.51938 239.646 3.53883 239.771 3.53072C240.022 3.51289 240.276 3.50154 240.523 3.4756C240.735 3.45291 240.895 3.48534 241.028 3.54046C241.195 3.61018 241.381 3.56315 241.555 3.57288C241.791 3.58423 241.909 3.72852 242.216 3.68961C242.398 3.66691 242.588 3.65881 242.778 3.65232C242.827 3.6507 242.888 3.67827 242.93 3.69772C243.131 3.7869 243.366 3.78203 243.624 3.75609C243.803 3.73826 243.977 3.72205 244.152 3.78366C244.44 3.88743 244.759 3.97823 245.063 4.07388C245.105 4.14847 245.074 4.236 245.291 4.27978C245.405 4.30247 245.511 4.33654 245.598 4.37383C245.704 4.4176 245.803 4.42895 245.94 4.41761C246.187 4.39491 246.445 4.39003 246.688 4.36084C246.912 4.3349 247.052 4.38842 247.189 4.43868C247.299 4.47922 247.401 4.49866 247.534 4.46948C247.671 4.44192 247.77 4.45974 247.88 4.50352C248.035 4.56351 248.047 4.55703 248.563 4.57487C248.616 4.57649 248.681 4.6008 248.711 4.62187C248.726 4.63322 248.692 4.66567 248.665 4.68188C248.631 4.70134 248.578 4.72402 248.529 4.72889C247.967 4.77104 247.401 4.80833 246.84 4.85049C246.783 4.85535 246.722 4.86671 246.68 4.88293C246.635 4.90076 246.578 4.92506 246.578 4.94776C246.578 4.96398 246.653 4.98344 246.707 4.99479C246.874 5.03208 247.071 4.97533 247.234 5.01749C247.344 5.04505 247.435 5.08395 247.546 5.1099C247.591 5.12125 247.663 5.11963 247.72 5.11639C247.91 5.10504 248.096 5.08883 248.286 5.0791C248.339 5.07748 248.4 5.0937 248.449 5.10667C248.813 5.20395 248.813 5.20394 249.129 5.18287C249.254 5.17476 249.387 5.15044 249.504 5.16017C249.618 5.16989 249.717 5.21367 249.819 5.24123C250.032 5.2996 250.233 5.35635 250.248 5.48281C250.256 5.53145 250.381 5.5736 250.506 5.57684C250.628 5.58008 250.757 5.56226 250.882 5.55254C251.178 5.53308 251.178 5.53308 251.562 5.63198C251.668 5.65954 251.782 5.66278 251.919 5.64657C251.972 5.64008 252.036 5.64657 252.093 5.65468C252.279 5.679 252.279 5.7098 252.158 5.76817C251.987 5.8541 252.002 5.86221 252.48 5.93517C252.663 5.96273 252.803 6.01461 252.955 6.06001C253.202 6.13297 253.198 6.13296 253.035 6.22862C252.997 6.24969 252.962 6.2724 252.925 6.2951C252.814 6.35833 252.727 6.42642 252.499 6.43291C252.249 6.43939 251.998 6.46534 251.748 6.48318C251.505 6.50101 251.44 6.53991 251.463 6.65016C251.49 6.78311 251.539 6.7977 251.976 6.79608C252.101 6.79608 252.211 6.80905 252.306 6.85282C252.26 6.90471 252.177 6.94524 252.055 6.95497C251.744 6.97929 251.429 7.00037 251.118 7.02145C250.867 7.03928 250.617 7.05711 250.366 7.07495C250.21 7.08629 250.112 7.17061 250.153 7.26465C250.176 7.31815 250.195 7.37165 250.214 7.42516C250.256 7.53217 250.336 7.55974 250.59 7.55487C250.654 7.55325 250.715 7.54027 250.776 7.54351C251.023 7.55486 251.14 7.68943 251.436 7.66187C251.683 7.63917 251.941 7.63431 252.184 7.60512C252.408 7.57918 252.533 7.63756 252.689 7.68134C252.742 7.69593 252.799 7.72672 252.845 7.7251C253.16 7.70727 253.475 7.68945 253.782 7.65864C253.927 7.64567 254.014 7.65539 254.128 7.6943C254.401 7.78834 254.409 7.78348 254.815 7.75429C255.111 7.73159 255.115 7.73484 255.494 7.83374C255.601 7.8613 255.715 7.86129 255.851 7.84832C256.03 7.83211 256.216 7.80617 256.402 7.83049C256.459 7.83698 256.531 7.85644 256.55 7.87752C256.561 7.89211 256.508 7.92778 256.462 7.93913C256.128 8.02344 255.737 8.00885 255.373 8.04289C255.259 8.05262 255.145 8.02181 255.05 7.97804C254.952 7.93426 254.845 7.91643 254.716 7.92454C254.466 7.94237 254.211 7.95372 253.965 7.97966C253.752 8.00236 253.604 7.96506 253.456 7.9148C253.407 7.89859 253.35 7.86778 253.3 7.8694C252.739 7.90183 252.173 7.93426 251.615 7.97966C251.391 7.99912 251.262 7.94724 251.11 7.90346C251.057 7.88887 251.004 7.85806 250.954 7.85968C250.765 7.86617 250.579 7.884 250.389 7.89697C249.698 7.94561 249.011 7.99425 248.32 8.03965C248.274 8.04289 248.217 8.00884 248.164 7.99425C248.062 7.96506 247.956 7.9375 247.849 7.90993C247.659 7.9229 247.473 7.93912 247.284 7.94884C247.147 7.95533 247.025 7.97804 247.007 8.03965C246.995 8.08018 247.12 8.11747 247.253 8.11422C247.382 8.11098 247.511 8.09152 247.618 8.1126C248.145 8.21636 248.145 8.21799 248.476 8.19691C248.764 8.17746 248.734 8.16124 248.988 8.25041C249.098 8.28932 249.197 8.31203 249.322 8.3023C249.633 8.2796 249.948 8.2569 250.264 8.23745C250.313 8.2342 250.377 8.25042 250.427 8.26339C250.799 8.36067 250.799 8.36391 251.106 8.33959C251.509 8.31041 251.524 8.3023 251.793 8.4012C251.979 8.4693 252.15 8.42228 252.329 8.41903C252.534 8.48227 252.758 8.53902 252.944 8.61036C253.164 8.69467 253.395 8.68006 253.646 8.65574C253.832 8.63791 254.014 8.63142 254.166 8.6979C254.31 8.75951 254.485 8.766 254.682 8.74979C254.86 8.7352 255.043 8.70438 255.229 8.74005C255.278 8.74978 255.354 8.77411 255.35 8.7887C255.346 8.8114 255.297 8.84383 255.248 8.85356C254.898 8.92003 254.515 8.91841 254.147 8.94921C254.097 8.95407 254.033 8.93623 253.984 8.92326C253.877 8.89408 253.775 8.86004 253.672 8.82923C253.486 8.83896 253.297 8.8422 253.114 8.86165C252.974 8.87624 252.868 8.87464 252.765 8.83573C252.67 8.80006 252.568 8.75627 252.454 8.74492C252.34 8.73357 252.207 8.7579 252.082 8.76762C251.957 8.77735 251.812 8.77248 251.714 8.79842C251.615 8.82436 251.554 8.88111 251.49 8.92651C251.417 8.97677 251.319 8.993 251.175 8.99786C251.042 9.00272 250.935 8.99623 250.837 8.95083C250.795 8.93138 250.738 8.91678 250.681 8.90381C250.628 8.89246 250.567 8.87462 250.518 8.87786C249.952 8.91515 249.39 8.9557 248.825 8.99461C248.544 9.01407 248.548 9.01405 247.963 8.9184C247.91 8.91029 247.845 8.89894 247.792 8.90219C247.477 8.92164 247.166 8.94434 246.851 8.96704C246.532 8.98974 246.536 8.9865 245.993 8.88435C245.894 8.8649 245.75 8.89084 245.632 8.8876C245.386 8.87949 245.264 8.7433 244.976 8.76925C244.729 8.79194 244.471 8.7968 244.224 8.82599C244 8.85193 243.871 8.79519 243.719 8.75141C243.666 8.73682 243.609 8.70439 243.563 8.70763C242.998 8.7433 242.436 8.78384 241.684 8.7887C241.498 8.7887 241.582 8.82275 241.703 8.8341C241.878 8.85194 241.935 8.81789 241.84 8.75304C241.772 8.70764 241.673 8.68493 241.593 8.69627C241.552 8.70276 241.498 8.73358 241.684 8.7887C241.882 8.85031 241.871 8.88435 241.905 8.90381C241.988 8.95083 242.106 8.97028 242.227 8.9638C242.417 8.95245 242.603 8.93624 242.793 8.92651C242.846 8.92327 242.911 8.93462 242.96 8.94759C243.378 9.04811 243.381 9.0546 243.826 9.01569C243.966 9.00434 244.068 9.00434 244.178 9.03515C244.33 9.0773 244.44 9.14863 244.672 9.12593C244.979 9.09513 245.295 9.0773 245.61 9.05947C245.659 9.05623 245.712 9.08541 245.769 9.09838C245.925 9.13729 246.039 9.21025 246.27 9.17945C246.449 9.15513 246.642 9.14863 246.832 9.14376C246.881 9.14214 246.957 9.16809 246.98 9.18916C247.025 9.22645 246.969 9.27024 246.84 9.30105C246.786 9.31402 246.714 9.31077 246.654 9.31563C246.403 9.33347 246.152 9.35291 245.902 9.36751C245.769 9.37561 245.644 9.39994 245.629 9.45993C245.617 9.50047 245.754 9.53613 245.883 9.53289C246.073 9.52802 246.262 9.51505 246.445 9.49398C246.767 9.45831 247.048 9.46803 247.31 9.57017C247.496 9.64151 247.485 9.61558 247.682 9.82636C247.732 9.87986 247.88 9.88472 248.009 9.88148C248.32 9.87337 248.464 9.89769 248.438 9.94796C248.403 10.0096 248.293 10.029 248.153 10.0371C247.902 10.0501 247.652 10.0712 247.401 10.089C247.341 10.0939 247.272 10.1036 247.215 10.1004C247.158 10.0971 247.105 10.0777 247.056 10.0631C246.95 10.0323 246.858 9.98523 246.745 9.97388C246.631 9.96253 246.498 9.98686 246.373 9.99658C246.247 10.0047 246.114 10.029 246.001 10.0177C245.887 10.0063 245.792 9.95768 245.689 9.9285C245.64 9.91391 245.579 9.89119 245.53 9.89282C245.279 9.90579 245.029 9.92687 244.778 9.94309C244.471 9.96416 244.471 9.96417 244.099 9.86364C243.993 9.83446 243.882 9.83609 243.742 9.84906C243.438 9.875 243.435 9.87012 242.88 9.77608C242.827 9.76636 242.763 9.75501 242.709 9.75988C242.144 9.79717 241.582 9.83769 241.02 9.87661C240.538 9.91065 240.538 9.91067 240.272 10.0728C240.075 10.1928 240.071 10.1928 240.265 10.2479C240.42 10.2933 240.561 10.3598 240.732 10.3841C240.891 10.4068 241.089 10.3338 241.263 10.4084C241.35 10.4457 241.464 10.4862 241.574 10.4927C241.749 10.5008 241.935 10.4538 242.102 10.5251C242.186 10.5608 242.311 10.5981 242.417 10.5997C242.603 10.603 242.793 10.577 242.979 10.5657C243.036 10.5624 243.1 10.5624 243.154 10.5705C243.211 10.5803 243.26 10.5997 243.309 10.6159C243.461 10.6711 243.624 10.697 243.822 10.6694C244.144 10.624 244.433 10.6467 244.683 10.7505C244.718 10.7651 244.801 10.7667 244.854 10.7602C244.991 10.744 245.109 10.7424 245.211 10.7732C245.253 10.7862 245.313 10.8089 245.306 10.8235C245.295 10.8478 245.249 10.8802 245.2 10.8883C244.843 10.9434 244.459 10.9499 244.091 10.9791C244.042 10.9824 243.981 10.9613 243.932 10.9467C243.826 10.9175 243.734 10.8689 243.62 10.8575C243.507 10.8462 243.374 10.8672 243.248 10.8753C243.123 10.8835 242.99 10.9078 242.876 10.8981C242.763 10.8867 242.656 10.8462 242.565 10.8105C242.459 10.77 242.356 10.7651 242.216 10.7813C242.034 10.8024 241.844 10.8056 241.658 10.817C241.555 10.7862 241.453 10.7521 241.347 10.7229C241.297 10.7083 241.237 10.6905 241.183 10.6921C240.933 10.7051 240.682 10.7246 240.432 10.7424C240.181 10.7602 240.181 10.7602 239.756 10.6597C239.707 10.6484 239.642 10.6354 239.589 10.6386C239.274 10.6581 238.963 10.6824 238.648 10.7019C238.526 10.71 238.416 10.6873 238.317 10.6435C238.223 10.5997 238.109 10.5754 237.991 10.5835C237.49 10.6176 236.989 10.65 236.488 10.6905C236.287 10.7067 236.116 10.6921 235.979 10.6338C235.82 10.5673 235.641 10.5835 235.455 10.5965C235.034 10.6289 235.03 10.6273 234.761 10.5446C234.707 10.5284 234.654 10.4976 234.605 10.4992C234.168 10.5235 233.728 10.5462 233.295 10.5851C233.068 10.6062 232.946 10.5495 232.794 10.5073C232.741 10.4927 232.684 10.4619 232.639 10.4651C232.324 10.483 232.008 10.4992 231.701 10.5316C231.393 10.5641 231.276 10.4133 231.044 10.4149C230.729 10.4165 230.418 10.4538 230.107 10.4765C229.856 10.4943 229.606 10.5122 229.355 10.53C229.105 10.5478 228.854 10.5624 228.603 10.5835C228.471 10.5949 228.372 10.5803 228.262 10.5397C228.121 10.4862 227.954 10.4441 227.803 10.3954C227.571 10.3257 227.571 10.3257 227.29 10.3452C227.229 10.35 227.165 10.3533 227.104 10.3581C226.645 10.3938 226.645 10.3906 226.06 10.2884C226.034 10.2836 225.965 10.3014 225.939 10.3144C225.859 10.3565 225.787 10.4019 225.715 10.4457C225.612 10.4198 225.487 10.4052 225.419 10.3679C225.225 10.2625 224.921 10.4068 224.724 10.303C224.652 10.2641 224.527 10.2301 224.413 10.2203C224.295 10.2106 224.162 10.2333 224.041 10.243C223.726 10.2673 223.726 10.2657 223.456 10.41C223.319 10.4814 223.122 10.4684 222.944 10.4846C222.758 10.5024 222.579 10.5122 222.424 10.4457C222.283 10.3857 222.112 10.3711 221.911 10.3906C221.664 10.4149 221.41 10.4295 221.16 10.4441C221.106 10.4473 221.042 10.4392 220.989 10.4295C220.408 10.3338 220.408 10.3322 220.127 10.3533C220.002 10.363 219.873 10.3662 219.751 10.3808C219.546 10.4068 219.391 10.3727 219.243 10.3208C219.193 10.3046 219.136 10.2738 219.087 10.2755C218.836 10.2836 218.59 10.2982 218.343 10.3128C218.153 10.3241 217.963 10.3306 217.781 10.3533C217.477 10.3906 217.329 10.2852 217.121 10.2365C216.809 10.2576 216.494 10.2722 216.183 10.3014C216.039 10.3144 215.944 10.3095 215.834 10.2706C215.693 10.222 215.564 10.1668 215.336 10.1912C215.033 10.2236 214.714 10.2349 214.403 10.2544C214.194 10.2041 214.042 10.102 213.742 10.1393C213.56 10.162 213.366 10.1668 213.18 10.1798C212.93 10.1976 212.679 10.2139 212.429 10.2333C212.159 10.2528 212.163 10.2479 211.749 10.1522C211.51 10.0955 211.263 10.1587 211.02 10.1685C210.83 10.1766 210.736 10.2511 210.781 10.3468C210.827 10.4425 210.724 10.517 210.55 10.53C210.113 10.5608 209.673 10.5932 209.236 10.6208C209.183 10.624 209.119 10.6127 209.069 10.6013C208.602 10.4992 208.602 10.5008 208.393 10.5154C208.082 10.5397 207.763 10.5527 207.456 10.5835C207.243 10.6046 207.088 10.5705 206.951 10.5154C206.845 10.4733 206.746 10.4635 206.609 10.4733C205.106 10.5819 203.603 10.6824 202.103 10.7943C201.88 10.8105 201.751 10.7635 201.599 10.7197C201.546 10.7051 201.496 10.6743 201.443 10.6743C201.318 10.6743 201.192 10.6889 201.067 10.6986C200.505 10.7375 199.944 10.7846 199.378 10.8137C199.139 10.8267 199.074 10.9013 198.972 10.9629C198.892 11.0099 198.801 11.0294 198.661 11.0359C198.524 11.0423 198.425 11.0342 198.319 10.9921C198.182 10.937 198.027 10.9029 197.814 10.9256C197.567 10.9515 197.317 10.9629 197.062 10.9807C196.933 10.9888 196.835 11.018 196.793 11.0764C196.785 11.0861 196.865 11.1104 196.911 11.125C197.062 11.1737 197.207 11.2304 197.377 11.2645C197.552 11.2985 197.742 11.2596 197.924 11.2499C197.989 11.2466 198.049 11.2369 198.11 11.2385C198.167 11.2401 198.235 11.2483 198.277 11.2628C198.475 11.3358 198.683 11.3861 198.957 11.3423C199.192 11.3634 199.313 11.4979 199.613 11.4623C199.796 11.4412 199.985 11.4315 200.175 11.4234C200.225 11.4217 200.278 11.4509 200.331 11.4655C200.483 11.506 200.604 11.5709 200.832 11.5433C201.075 11.5142 201.333 11.5093 201.58 11.4866C201.716 11.4736 201.815 11.485 201.921 11.5271C202.058 11.5806 202.214 11.6212 202.426 11.5952C202.608 11.5725 202.802 11.5676 202.988 11.5531C203.231 11.5352 203.231 11.5368 203.664 11.6374C203.713 11.6487 203.778 11.6617 203.831 11.6584C204.146 11.639 204.457 11.6147 204.772 11.5952C204.894 11.5871 205.011 11.6082 205.095 11.6552C205.129 11.6747 205.117 11.7071 205.129 11.7347C204.503 11.7784 203.876 11.8157 203.254 11.8692C203.018 11.8903 202.912 11.8238 202.756 11.7865C202.703 11.7736 202.646 11.746 202.597 11.7492C202.157 11.7768 201.72 11.806 201.284 11.8417C201.147 11.853 201.044 11.8465 200.942 11.7995C200.68 11.6747 200.361 11.7428 200.065 11.7606C199.837 11.7736 199.765 11.8238 199.792 11.9308C199.826 12.0573 199.963 12.0962 200.312 12.0735C200.437 12.0654 200.562 12.0541 200.688 12.0476C200.809 12.0411 200.919 12.0622 201.018 12.1059C201.113 12.1497 201.227 12.1724 201.344 12.1659C201.595 12.1513 201.849 12.1367 202.092 12.1124C202.293 12.093 202.46 12.1092 202.601 12.1692C202.756 12.2356 202.939 12.221 203.121 12.2065C203.546 12.174 203.55 12.1757 203.815 12.2567C203.869 12.2729 203.922 12.3037 203.971 12.3021C204.408 12.2778 204.848 12.2567 205.277 12.2178C205.501 12.1984 205.63 12.2502 205.778 12.2924C205.831 12.307 205.884 12.3394 205.934 12.3362C206.249 12.3183 206.564 12.3005 206.871 12.2697C207.016 12.2551 207.103 12.2648 207.22 12.3037C207.501 12.3994 207.509 12.3961 207.908 12.3653C208.029 12.3556 208.162 12.3378 208.276 12.3508C208.39 12.3637 208.481 12.4108 208.587 12.4399C208.636 12.4529 208.697 12.4707 208.75 12.4675C209.001 12.4545 209.251 12.4351 209.502 12.4172C209.737 12.3994 209.737 12.401 210.178 12.5015C210.356 12.5437 210.542 12.508 210.72 12.4951C210.914 12.4805 211.089 12.4805 211.237 12.5437C211.385 12.6069 211.563 12.6037 211.753 12.5907C211.931 12.5777 212.114 12.5421 212.296 12.5859C212.713 12.6864 212.713 12.688 212.971 12.6685C213.347 12.641 213.719 12.615 214.099 12.5907C214.148 12.5875 214.213 12.6069 214.262 12.6199C214.368 12.6491 214.46 12.6977 214.573 12.7091C214.687 12.722 214.82 12.7026 214.942 12.6929C215.333 12.662 215.359 12.6507 215.621 12.7577C215.841 12.8453 216.115 12.7188 216.32 12.8193C216.437 12.8761 216.597 12.9215 216.817 12.8939C216.999 12.8712 217.189 12.8647 217.379 12.8517C217.678 12.8307 217.679 12.8323 218.058 12.9296C218.107 12.9426 218.172 12.9587 218.221 12.9555C218.472 12.9425 218.726 12.9312 218.969 12.902C219.254 12.868 219.436 12.9296 219.649 12.9896C219.816 13.0366 220.013 12.9977 220.192 12.9815C220.385 12.9652 220.56 12.9701 220.704 13.0333C220.856 13.0982 221.034 13.0901 221.224 13.0771C221.402 13.0658 221.585 13.0285 221.767 13.0739C222.158 13.1744 222.158 13.1744 222.443 13.1549C222.693 13.1371 222.944 13.1176 223.194 13.1047C223.243 13.1014 223.304 13.1225 223.354 13.1371C223.46 13.1663 223.551 13.2149 223.665 13.2263C223.779 13.2376 223.912 13.2166 224.037 13.2084C224.162 13.2003 224.295 13.176 224.409 13.1857C224.523 13.1955 224.629 13.236 224.72 13.2717C224.826 13.3138 224.925 13.3187 225.069 13.3025C225.252 13.2814 225.441 13.2765 225.627 13.2652C225.73 13.296 225.836 13.3268 225.935 13.3608C226.037 13.3965 226.147 13.3933 226.288 13.3819C226.755 13.343 226.759 13.3479 227.15 13.4484C227.328 13.4938 227.514 13.4565 227.692 13.4452C227.882 13.4322 228.061 13.4257 228.209 13.4906C228.353 13.5522 228.531 13.5603 228.721 13.5408C228.843 13.5278 228.972 13.5197 229.097 13.5149C229.154 13.5133 229.222 13.5197 229.264 13.5327C229.465 13.6008 229.663 13.6624 229.94 13.6186C230.183 13.6316 230.304 13.7646 230.596 13.7386C230.843 13.7159 231.101 13.711 231.344 13.6819C231.568 13.6559 231.728 13.7013 231.841 13.7581C232.046 13.8586 232.335 13.7224 232.54 13.8213C232.658 13.8781 232.809 13.9235 233.037 13.8991C233.288 13.8732 233.367 13.9072 233.44 14.0094C233.481 14.0677 233.474 14.1148 233.398 14.1602C233.322 14.2072 233.238 14.1991 233.117 14.1456C232.977 14.0856 232.809 14.0742 232.608 14.0872C232.411 14.1002 232.289 14.0159 232.126 13.9834C231.963 13.9494 231.769 14.0061 231.599 13.9624C231.196 13.8602 231.196 13.8602 230.923 13.8797C230.737 13.8926 230.543 13.8991 230.361 13.9218C230.145 13.9494 230.004 13.8991 229.856 13.8537C229.803 13.8375 229.75 13.8067 229.704 13.8083C229.268 13.8326 228.827 13.8554 228.395 13.8959C228.167 13.917 228.045 13.8586 227.894 13.8181C227.84 13.8035 227.783 13.7743 227.738 13.7775C227.362 13.8002 226.99 13.8294 226.614 13.857C226.542 13.9008 226.462 13.9429 226.394 13.9899C226.322 14.0386 226.223 14.0596 226.079 14.058C225.84 14.058 225.605 14.1261 225.365 14.0402C225.119 13.9526 225.1 13.9575 224.861 13.9786C224.557 14.0061 224.234 13.9997 223.95 14.0629C223.9 14.0742 223.847 14.105 223.847 14.1277C223.843 14.1423 223.923 14.1634 223.972 14.1764C224.139 14.2153 224.333 14.1585 224.5 14.1991C224.61 14.225 224.701 14.2639 224.811 14.2915C224.857 14.3028 224.925 14.3012 224.986 14.2996C225.05 14.298 225.111 14.2866 225.172 14.2883C225.229 14.2899 225.29 14.2996 225.335 14.3142C225.544 14.3758 225.764 14.4325 225.95 14.5055C226.132 14.5768 226.303 14.5282 226.485 14.525C227.214 14.6385 227.214 14.6401 227.704 14.6044C227.825 14.5963 227.951 14.5866 228.076 14.5882C228.129 14.5882 228.178 14.6174 228.231 14.6336C228.383 14.6822 228.528 14.726 228.74 14.7001C228.922 14.6774 229.116 14.6725 229.302 14.6579C229.552 14.6401 229.552 14.6401 229.978 14.7422C230.084 14.7682 230.198 14.7649 230.334 14.752C230.452 14.7406 230.574 14.7649 230.657 14.8119C230.691 14.8314 230.68 14.8638 230.691 14.8914C230.315 14.9173 229.936 14.9352 229.571 14.9741C229.336 14.9984 229.23 14.9287 229.074 14.8914C229.021 14.8784 228.964 14.8509 228.915 14.8541C228.543 14.8784 228.171 14.906 227.799 14.9384C227.753 14.9416 227.696 14.9789 227.692 15.0016C227.685 15.0438 227.78 15.0843 227.916 15.0827C228.099 15.0811 228.277 15.0535 228.44 15.12C228.577 15.1783 228.748 15.2043 228.949 15.1784C229.07 15.1638 229.199 15.1638 229.321 15.1508C229.644 15.1119 229.936 15.12 230.179 15.2302C230.365 15.2594 230.547 15.2319 230.725 15.2173C230.858 15.2059 230.987 15.1946 231.082 15.2254C231.283 15.2902 231.481 15.3551 231.758 15.3113C232.058 15.3567 232.286 15.4524 232.536 15.5302C232.654 15.5675 232.745 15.5886 232.882 15.5642C232.939 15.5545 233.007 15.5545 233.068 15.5496C233.193 15.5415 233.326 15.5172 233.44 15.5269C233.553 15.5383 233.648 15.5853 233.751 15.6145C233.8 15.6291 233.857 15.6534 233.906 15.6518C234.096 15.6437 234.282 15.6275 234.468 15.6145C234.654 15.6031 234.84 15.5918 235.026 15.5804C235.182 15.6226 235.341 15.6648 235.497 15.7069C235.748 15.6891 235.998 15.6712 236.245 15.655C236.522 15.6356 236.522 15.6372 236.92 15.7377C237.099 15.7831 237.289 15.7539 237.46 15.7328C237.744 15.6988 237.934 15.7604 238.135 15.8253C238.177 15.8382 238.253 15.8463 238.302 15.8399C238.5 15.8172 238.67 15.835 238.815 15.895C238.917 15.9371 239.02 15.9566 239.145 15.9485C239.582 15.9177 240.018 15.8853 240.455 15.8577C240.508 15.8544 240.568 15.869 240.618 15.882C241.005 15.9809 241.009 15.9858 241.293 15.9598C241.548 15.9371 241.783 15.9274 241.984 16.0166C242.026 16.036 242.091 16.0636 242.136 16.062C242.447 16.0458 242.763 16.0279 243.07 16.0004C243.211 15.9874 243.309 15.9923 243.419 16.0296C243.56 16.0766 243.685 16.1333 243.917 16.1122C244.558 16.0523 244.562 16.062 245.321 16.1738C245.374 16.1819 245.446 16.169 245.507 16.1625C245.636 16.1463 245.731 16.169 245.845 16.2063C246.099 16.2906 246.107 16.2857 246.35 16.2679C246.536 16.2533 246.729 16.2501 246.912 16.2257C247.193 16.1901 247.379 16.2533 247.587 16.3133C247.754 16.3603 247.948 16.3214 248.126 16.3068C248.32 16.2906 248.495 16.2954 248.639 16.3571C248.738 16.3992 248.844 16.4219 248.969 16.4138C249.406 16.3846 249.842 16.3522 250.279 16.323C250.332 16.3198 250.396 16.3327 250.446 16.3441C250.878 16.4446 250.878 16.4495 251.307 16.4122C251.444 16.4008 251.558 16.3976 251.66 16.4316C251.759 16.4641 251.865 16.4949 251.968 16.5257C252.154 16.5143 252.344 16.5111 252.526 16.4916C252.666 16.477 252.765 16.4835 252.875 16.5176C253.019 16.5614 253.141 16.6375 253.369 16.6003C253.486 16.5824 253.623 16.5873 253.741 16.5711C253.881 16.55 253.976 16.563 254.086 16.6051C254.223 16.6554 254.363 16.7073 254.583 16.6813C254.826 16.6521 255.084 16.6473 255.331 16.6246C255.468 16.6116 255.563 16.6246 255.673 16.6667C255.809 16.7202 255.965 16.7543 256.178 16.7332C256.61 16.6927 256.614 16.7008 257.036 16.8029C257.142 16.8289 257.256 16.8256 257.392 16.8127C257.51 16.8013 257.632 16.8256 257.715 16.8726C257.795 16.9245 257.787 16.9569 257.795 16.9845ZM223.969 2.36175C223.843 2.36986 223.718 2.37958 223.536 2.23853C223.524 2.21421 223.532 2.18503 223.505 2.16395C223.445 2.12018 223.35 2.08937 223.236 2.08451C223.031 2.07803 222.784 2.13314 222.788 2.17529C222.792 2.21096 222.856 2.24176 222.982 2.27095C223.035 2.2823 223.076 2.30176 223.126 2.31473C223.27 2.35202 223.384 2.42499 223.593 2.3877C223.555 2.28718 223.574 2.33744 223.593 2.3877C223.574 2.44931 223.631 2.49309 223.767 2.51092C223.805 2.51578 223.862 2.51253 223.893 2.50281C224.01 2.46714 224.029 2.41851 223.942 2.29042C223.927 2.3115 223.938 2.34878 223.972 2.35851C224.007 2.36823 224.09 2.36014 224.132 2.34879C224.238 2.31798 224.291 2.27745 224.265 2.2434C224.249 2.22556 224.177 2.20286 224.132 2.20286C224.052 2.20286 223.98 2.23853 223.969 2.36175ZM254.663 21.1643C254.386 21.1951 254.067 21.1838 253.79 21.247C253.741 21.2583 253.691 21.2875 253.688 21.3102C253.684 21.3248 253.76 21.3459 253.805 21.3572C253.908 21.3832 254.022 21.3751 254.154 21.367C254.356 21.3556 254.473 21.4302 254.629 21.4675C254.678 21.4788 254.743 21.4869 254.796 21.4837C255.103 21.4642 255.407 21.4432 255.715 21.4205C255.768 21.4156 255.825 21.4043 255.87 21.3897C256.022 21.3426 256.007 21.3118 255.859 21.2762C255.696 21.2373 255.567 21.1724 255.4 21.1416C255.16 21.0978 254.917 21.1562 254.663 21.1643ZM233.106 22.3479C232.92 22.3608 232.737 22.3738 232.551 22.3868C232.491 22.3916 232.426 22.3933 232.369 22.3997C232.251 22.4111 232.164 22.4451 232.107 22.4986C232.194 22.5408 232.301 22.5651 232.418 22.5603C232.604 22.5505 232.787 22.5295 232.973 22.5246C233.174 22.5181 233.292 22.5911 233.447 22.6284C233.497 22.6397 233.557 22.6413 233.614 22.6429C233.895 22.6494 234.066 22.5651 234.013 22.4468C233.975 22.3544 233.831 22.2992 233.656 22.3106C233.474 22.3219 233.288 22.3349 233.106 22.3479ZM255.961 18.768C256.007 18.7404 256.056 18.721 256.079 18.6966C256.147 18.614 256.121 18.5523 255.995 18.4875C255.844 18.408 255.658 18.4615 255.487 18.4696C255.445 18.4713 255.4 18.5053 255.377 18.5264C255.362 18.541 255.362 18.5718 255.384 18.5799C255.57 18.6448 255.768 18.7047 255.961 18.768ZM223.031 13.9786C222.849 13.9915 222.663 14.0013 222.481 14.0191C222.435 14.024 222.393 14.0548 222.367 14.0759C222.317 14.1148 222.37 14.1683 222.526 14.1731C222.704 14.1796 222.89 14.1521 223.076 14.1391C223.312 14.1229 223.452 14.0629 223.365 14.011C223.281 13.9607 223.168 13.951 223.031 13.9786ZM23.2126 10.5138C23.3341 10.5057 23.4593 10.4992 23.5808 10.4879C23.6947 10.4765 23.782 10.4408 23.839 10.3873C23.7441 10.3452 23.6378 10.3225 23.5201 10.3273C23.3341 10.3371 23.1519 10.35 22.9697 10.3663C22.8558 10.376 22.7457 10.4116 22.7192 10.4668C22.6926 10.5089 22.9469 10.5333 23.2126 10.5138ZM206.978 10.2641C207.027 10.2787 207.076 10.3079 207.126 10.3079C207.247 10.3079 207.372 10.2982 207.486 10.2819C207.536 10.2755 207.574 10.2463 207.596 10.2236C207.611 10.209 207.608 10.183 207.585 10.1701C207.475 10.0923 207.035 10.1198 206.962 10.209C206.955 10.2252 206.974 10.2463 206.978 10.2641ZM195.001 1.38571C195.013 1.41165 195.016 1.43759 195.032 1.46353C195.062 1.51217 195.145 1.54785 195.267 1.57217C195.362 1.53163 195.411 1.48624 195.407 1.4376C195.404 1.41166 195.392 1.3857 195.377 1.35976C195.347 1.31112 195.263 1.27547 195.142 1.25115C195.047 1.29006 195.001 1.33545 195.001 1.38571ZM264.734 22.63C264.7 22.6511 264.666 22.6721 264.628 22.6916C264.73 22.7386 264.825 22.7532 264.897 22.7273C264.943 22.711 264.969 22.6867 265.003 22.6656C264.901 22.6186 264.81 22.6057 264.734 22.63ZM262.373 22.8505C262.422 22.8651 262.468 22.8845 262.521 22.8943C262.608 22.9105 262.688 22.8829 262.749 22.8245C262.699 22.8099 262.654 22.7905 262.601 22.7808C262.513 22.7645 262.434 22.7921 262.373 22.8505ZM263.868 22.5538C263.842 22.5927 263.895 22.6251 264.035 22.6527C264.07 22.6316 264.115 22.6121 264.138 22.5895C264.176 22.5522 264.111 22.5181 263.975 22.4922C263.937 22.5116 263.903 22.5327 263.868 22.5538ZM255.855 20.806C255.828 20.8449 255.882 20.8773 256.022 20.9049C256.056 20.8838 256.102 20.8644 256.125 20.8417C256.163 20.8044 256.098 20.7703 255.961 20.7444C255.923 20.7638 255.889 20.7849 255.855 20.806ZM244.938 9.33347C244.904 9.35454 244.869 9.37562 244.831 9.39508C244.934 9.44209 245.029 9.45668 245.101 9.43074C245.146 9.41453 245.173 9.39021 245.207 9.36913C245.105 9.32211 245.014 9.30914 244.938 9.33347ZM234.48 3.24699C234.571 3.25834 234.647 3.23565 234.711 3.17566C234.662 3.16107 234.616 3.14161 234.563 3.13188C234.476 3.11567 234.396 3.14324 234.335 3.20161C234.385 3.21782 234.434 3.2324 234.48 3.24699ZM228.926 2.86598C228.892 2.88706 228.858 2.90814 228.82 2.92759C228.922 2.97461 229.017 2.9892 229.089 2.96326C229.135 2.94704 229.161 2.92272 229.196 2.90165C229.093 2.85463 229.002 2.84328 228.926 2.86598ZM191.266 1.38409C191.232 1.40516 191.198 1.42624 191.16 1.4457C191.262 1.49272 191.357 1.5073 191.429 1.48136C191.475 1.46515 191.501 1.44083 191.535 1.41975C191.433 1.37273 191.342 1.36139 191.266 1.38409ZM3.74662 14.5752C3.69727 14.5606 3.64796 14.546 3.60241 14.5298C3.49233 14.5736 3.45817 14.6141 3.51891 14.6449C3.55687 14.6644 3.61377 14.6757 3.66311 14.6903C3.777 14.6466 3.80356 14.6076 3.74662 14.5752Z" fill="#4F9CF9"/>
</svg>
