<svg width="219" height="441" viewBox="0 0 219 441" fill="none" xmlns="http://www.w3.org/2000/svg">
<g style="mix-blend-mode:multiply" opacity="0.2">
<path d="M-56.1653 440.965C-61.3438 440.965 -67.5303 439.609 -75.7673 436.536C-97.6283 428.205 -120.045 403.184 -143.714 376.724C-156.747 362.193 -170.197 347.164 -183.717 334.847C-203.458 312.594 -236.927 297.26 -269.319 282.397C-292.988 271.547 -315.335 261.279 -332.643 248.602L-332.678 248.574C-345.677 238.721 -351.759 229.2 -351.272 219.485C-350.334 200.525 -324.372 183.642 -294.274 164.101L-291.389 162.219C-269.076 147.66 -241.063 128.175 -200.504 99.0852L-197.063 96.7049C-160.779 71.5732 -115.597 40.2969 -57.0689 21.3375C60.1606 -22.5877 162.758 11.4287 195.15 48.2959C228.932 91.3907 226.013 137.143 184.028 223.249C140.063 313.009 42.6786 382.398 2.84909 408.056C-13.4511 416.525 -23.6691 424.026 -31.1068 429.506C-40.5602 436.426 -46.7119 440.965 -56.1653 440.965ZM-329.585 245.945C-312.659 258.345 -290.52 268.503 -267.095 279.27C-234.321 294.299 -200.4 309.854 -180.242 332.605C-166.687 344.922 -153.167 360.034 -140.099 374.62C-116.744 400.693 -94.6741 425.327 -73.8904 433.27C-53.3501 440.882 -48.5191 437.339 -34.1652 426.821C-26.5886 421.258 -16.1967 413.619 0.207733 405.094C39.5507 379.713 136.24 310.85 179.823 221.893C221.216 137.032 224.24 92.1103 191.396 50.2334C159.943 14.4733 59.7435 -18.519 -55.2616 24.5758C-113.199 43.3692 -158.068 74.424 -194.109 99.3619L-197.515 101.742C-238.109 130.86 -266.157 150.373 -288.539 164.959L-291.424 166.841C-320.688 185.828 -345.92 202.241 -346.789 219.568C-347.206 228.231 -341.575 236.839 -329.585 245.945Z" fill="#CCCCCC"/>
<path d="M-62.9109 415.888C-70.0705 415.888 -77.6471 414.061 -88.0737 410.823L-88.2822 410.768C-108.301 402.769 -124.15 383.477 -140.902 363.078C-152.336 349.128 -164.188 334.736 -178.437 322.198C-198.526 301.854 -223.793 286.022 -248.191 270.716C-264.596 260.448 -280.096 250.733 -293.616 239.994L-293.86 239.772C-321.386 209.908 -301.645 196.733 -265.847 172.791C-261.954 170.19 -257.853 167.45 -253.578 164.516C-245.167 159.561 -236.201 154.026 -226.678 148.158C-184.38 122.057 -126.409 86.3251 -44.6296 57.3185C55.3265 26.8449 132.553 48.8767 164.806 84.2216C197.128 121.061 184.581 165.401 148.262 239.468C108.467 314.365 35.8288 362.857 -3.20132 388.902L-7.54575 391.808C-36.5664 408.968 -49.0088 415.888 -62.9109 415.888ZM-86.336 407.502C-57.8714 416.303 -53.0404 414.2 -10.3262 389.013L-6.08603 386.189C32.6313 360.338 104.714 312.206 144.091 238.167C179.82 165.346 192.297 121.836 161.156 86.3528C129.946 52.1427 54.7356 30.9136 -42.8919 60.6675C-124.08 89.4527 -181.774 125.047 -223.932 151.009C-233.455 156.877 -242.422 162.412 -250.763 167.339C-254.934 170.19 -259.035 172.93 -262.927 175.559C-298.76 199.528 -315.165 210.489 -290.315 237.558C-277.003 248.103 -261.641 257.708 -245.411 267.893C-220.769 283.31 -195.328 299.28 -174.997 319.873C-160.608 332.522 -148.652 347.053 -137.113 361.113C-120.744 381.041 -105.243 399.89 -86.336 407.502Z" fill="#CCCCCC"/>
<path d="M-68.7396 394.964C-77.8802 394.964 -86.3605 392.363 -96.9261 387.934C-114.582 379.465 -128.762 361.944 -143.776 343.428C-152.674 332.412 -161.918 321.036 -172.484 310.602C-187.255 294.216 -204.772 280.211 -221.663 266.649C-235.53 255.522 -248.633 245.032 -258.955 234.21L-259.094 234.044C-280.017 205.978 -258.399 192.887 -219.126 169.111L-218.674 168.834L-211.41 164.876C-170.051 142.43 -113.4 111.679 -35.7916 89.3983C55.8232 66.1211 114.143 89.8412 136.282 117.187C159.95 146.36 154.146 185.524 116.263 252.367C88.667 298.949 43.6242 340.826 -17.5798 376.835C-41.2482 389.622 -55.6716 394.964 -68.7396 394.964ZM-255.306 232.079C-245.157 242.68 -232.194 253.087 -218.465 264.075C-201.435 277.72 -183.814 291.863 -168.904 308.387C-158.234 318.877 -148.955 330.364 -139.988 341.463C-125.286 359.647 -111.384 376.808 -94.7018 384.806C-70.6511 394.937 -58.6606 394.743 -20.1865 373.901C40.3572 338.252 84.9134 296.846 112.162 250.845C149.315 185.275 155.223 147.107 132.493 119.097C109.52 90.7269 49.046 71.5736 -34.3666 92.7474C-111.35 114.862 -167.723 145.446 -208.873 167.81L-216.415 171.934C-255.966 195.876 -274.074 206.836 -255.306 232.079Z" fill="#CCCCCC"/>
<path d="M-72.0045 375.923C-82.2225 375.923 -91.815 373.127 -102.52 367.647L-102.589 367.619C-118.716 358.818 -131.714 342.266 -145.477 324.774C-151.837 316.664 -158.441 308.305 -165.6 300.334C-175.158 288.654 -185.758 277.859 -196.011 267.452C-208.593 254.665 -220.514 242.57 -228.299 230.834C-241.888 206.062 -222.008 193.109 -187.67 174.648C-152.289 157.21 -97.6191 132.356 -30.6109 117.686C33.3735 107.196 81.301 115.61 104.483 141.351C129.507 169.084 123.285 213.065 87.4179 262.027C49.8474 319.653 -9.54926 353.448 -26.8574 362.416C-45.2777 371.494 -59.145 375.923 -72.0045 375.923ZM-100.087 364.63C-80.0677 374.843 -64.3583 376.67 -29.2903 359.371C-12.2602 350.542 46.3719 317.19 83.4558 260.284C118.42 212.539 124.745 169.97 100.799 143.454C78.6943 118.932 32.4003 111.043 -29.6031 121.201C-95.9161 135.732 -150.204 160.393 -185.272 177.692C-220.618 196.679 -236.015 207.972 -224.302 229.312C-216.76 240.632 -204.978 252.589 -192.501 265.266C-182.179 275.756 -171.509 286.578 -161.916 298.341C-154.722 306.312 -148.118 314.754 -141.724 322.891C-128.169 340.024 -115.414 356.244 -100.087 364.63Z" fill="#CCCCCC"/>
<path d="M-74.1619 358.539C-85.0056 358.539 -94.9803 355.577 -105.337 349.654L-105.615 349.46C-145.271 317.492 -192.156 244.284 -201.158 229.946L-201.297 229.614C-208.317 209.077 -192.469 197.01 -160.807 181.925C-130.987 168.584 -83.8934 150.981 -28.702 142.76C22.1102 136.395 60.1671 144.975 78.5179 166.923C98.8845 191.308 92.6633 228.369 61.4879 268.613C34.0312 307.417 -6.42393 335.345 -35.1318 348.519C-50.1461 355.217 -62.6579 358.539 -74.1619 358.539ZM-102.557 346.831C-82.7117 358.096 -65.0213 357.709 -37.3909 345.392C-9.20433 332.466 30.521 305.009 57.5953 266.786C87.4153 228.286 93.8102 191.723 74.7643 168.916C57.4562 148.185 20.9632 140.131 -27.9374 146.303C-82.4684 154.441 -129.04 171.878 -158.548 185.053C-188.854 199.473 -203.139 210.184 -197.022 228.535C-171.164 269.72 -132.829 322.364 -102.557 346.831Z" fill="#CCCCCC"/>
<path d="M-75.7486 342.515C-87.3569 342.515 -97.4012 339.443 -105.013 333.492C-135.458 309.994 -167.155 260.422 -176.504 230.613C-178.033 223.721 -175.844 216.995 -170.074 210.574C-152.28 190.784 -99.5559 173.707 -29.0028 164.905C10.792 161.833 40.4729 170.33 54.6531 188.847C70.71 209.827 64.9406 240.356 38.8394 272.573C4.88353 313.343 -35.7453 339.36 -69.8402 342.239C-71.856 342.432 -73.8371 342.515 -75.7486 342.515ZM-13.502 167.867C-18.2982 167.867 -23.2682 168.06 -28.412 168.476C-97.6444 177.111 -149.291 193.635 -166.356 212.678C-171.43 218.324 -173.341 224.109 -172.055 229.893C-162.88 259.094 -131.739 307.862 -101.815 330.946C-93.9256 337.09 -83.0125 339.775 -70.292 338.696C-37.5179 335.928 1.89458 310.492 35.0858 270.635C59.8316 240.079 65.74 210.214 50.83 190.729C39.3955 175.81 16.8394 167.867 -13.502 167.867Z" fill="#CCCCCC"/>
<path d="M-74.8202 327.29C-85.5944 327.29 -95.0826 324.522 -102.485 319.153C-128.899 300.083 -153.332 259.756 -154.723 232.88V232.825C-154.896 208.053 -103.181 187.71 -31.7932 184.499C-1.38239 183.918 21.1738 192 31.7742 207.333C43.9385 224.909 38.9337 249.293 18.0458 274.259C-7.77737 304.594 -40.0998 324.301 -68.4601 326.986C-70.6496 327.18 -72.7697 327.29 -74.8202 327.29ZM-150.204 232.77C-148.814 258.842 -125.111 297.979 -99.427 316.496C-91.607 322.17 -81.1109 324.55 -69.0161 323.415C-41.9417 320.841 -10.801 301.716 14.2923 272.239C34.207 248.435 39.1423 225.38 27.8121 209.022C18.0458 194.934 -3.01588 187.461 -31.6195 188.042C-99.3227 191.114 -150.343 210.35 -150.204 232.77Z" fill="#CCCCCC"/>
<path d="M-74.044 312.871C-83.4627 312.871 -91.8735 310.574 -98.6508 306.062C-122.458 290.314 -139.384 258.429 -135.665 236.397C-131.634 215.251 -88.2937 200.083 -37.134 201.827C-14.6821 202.851 1.86142 210.213 9.50758 222.53C18.2659 236.646 14.2691 255.384 -1.50983 273.901C-20.1386 295.572 -44.7106 309.993 -67.232 312.484C-69.5606 312.761 -71.8197 312.871 -74.044 312.871ZM-45.2319 205.287C-90.6223 205.287 -127.706 218.655 -131.182 236.923C-134.657 257.487 -118.114 288.515 -95.7661 303.322C-88.398 308.194 -78.7708 310.131 -67.8576 308.941C-46.5526 306.588 -23.1623 292.722 -5.22861 271.88C9.61188 254.471 13.5044 237.061 5.47597 224.108C-1.40558 213.009 -16.6284 206.366 -37.3425 205.397C-39.9839 205.342 -42.6253 205.287 -45.2319 205.287Z" fill="#CCCCCC"/>
</g>
</svg>
