<svg width="146" height="273" viewBox="0 0 146 273" fill="none" xmlns="http://www.w3.org/2000/svg">
<g style="mix-blend-mode:multiply" opacity="0.2">
<path d="M27.1876 272.332C24.9559 272.332 22.2899 271.495 18.7402 269.599C9.31916 264.458 -0.341484 249.019 -10.5413 232.692C-16.158 223.726 -21.9544 214.453 -27.7807 206.853C-36.288 193.122 -50.7116 183.66 -64.6709 174.489C-74.8707 167.794 -84.5014 161.458 -91.9603 153.637L-91.9753 153.619C-97.5769 147.539 -100.198 141.665 -99.9884 135.67C-99.584 123.971 -88.3956 113.553 -75.4249 101.496L-74.1817 100.335C-64.566 91.3515 -52.494 79.3283 -35.0149 61.3789L-33.5321 59.9101C-17.8954 44.4029 1.57568 25.1043 26.7982 13.4056C77.3181 -13.6978 121.532 7.29154 135.492 30.04C150.05 56.6311 148.792 84.8617 130.699 137.993C111.752 193.378 69.7843 236.194 52.6198 252.025C45.5952 257.251 41.1918 261.88 37.9866 265.261C33.9126 269.531 31.2615 272.332 27.1876 272.332ZM-90.6423 151.997C-83.3481 159.648 -73.8073 165.916 -63.7123 172.559C-49.5883 181.833 -34.97 191.431 -26.2829 205.469C-20.4416 213.069 -14.6153 222.394 -8.98363 231.395C1.08141 247.482 10.5923 262.682 19.549 267.584C28.4008 272.28 30.4827 270.094 36.6685 263.604C39.9337 260.172 44.412 255.458 51.4815 250.198C68.4363 234.537 110.104 192.046 128.886 137.156C146.725 84.7934 148.028 57.0751 133.874 31.2355C120.319 9.17016 77.1384 -11.1873 27.577 15.4038C2.60915 27 -16.7271 46.162 -32.259 61.5497L-33.7269 63.0184C-51.2208 80.9849 -63.3079 93.0252 -72.9536 102.026L-74.1967 103.187C-86.8079 114.903 -97.6818 125.03 -98.0562 135.721C-98.236 141.067 -95.8096 146.378 -90.6423 151.997Z" fill="#CCCCCC"/>
<path d="M24.2807 256.858C21.1953 256.858 17.9301 255.731 13.4368 253.733L13.3469 253.699C4.71974 248.763 -2.1101 236.859 -9.32937 224.272C-14.257 215.665 -19.3645 206.784 -25.5053 199.048C-34.1625 186.495 -45.0513 176.726 -55.5656 167.282C-62.6351 160.946 -69.3152 154.951 -75.1415 148.325L-75.2464 148.188C-87.1088 129.76 -78.6014 121.631 -63.1743 106.858C-61.4968 105.253 -59.7295 103.562 -57.8872 101.752C-54.2626 98.6948 -50.3983 95.2791 -46.2944 91.6585C-28.0665 75.5536 -3.08366 53.5053 32.159 35.6071C75.2349 16.8038 108.515 30.3982 122.415 52.2074C136.344 74.9387 130.937 102.298 115.285 148C98.1359 194.214 66.8324 224.136 50.0124 240.207L48.1402 242C35.6338 252.588 30.2718 256.858 24.2807 256.858ZM14.1857 251.683C26.4524 257.114 28.5344 255.816 46.942 240.275L48.7693 238.533C65.4545 222.582 96.5183 192.882 113.488 147.198C128.885 102.264 134.262 75.4169 120.842 53.5224C107.392 32.4135 74.9803 19.3143 32.9078 37.6736C-2.08015 55.4352 -26.9432 77.398 -45.1112 93.4176C-49.2151 97.0382 -53.0793 100.454 -56.674 103.494C-58.4713 105.253 -60.2387 106.944 -61.9162 108.566C-77.3583 123.356 -84.4277 130.119 -73.7187 146.822C-67.9822 153.329 -61.362 159.255 -54.3674 165.54C-43.7482 175.052 -32.7845 184.907 -24.0225 197.613C-17.8217 205.418 -12.6694 214.384 -7.69681 223.06C-0.642288 235.356 6.03778 246.987 14.1857 251.683Z" fill="#CCCCCC"/>
<path d="M21.7687 243.947C17.8296 243.947 14.175 242.342 9.62176 239.609C2.01307 234.383 -4.09787 223.572 -10.5682 212.147C-14.4025 205.35 -18.3866 198.331 -22.9399 191.892C-29.3054 181.782 -36.8542 173.14 -44.1333 164.772C-50.1095 157.906 -55.7561 151.433 -60.2045 144.756L-60.2644 144.653C-69.281 127.336 -59.9648 119.258 -43.04 104.587L-42.8453 104.416L-39.7149 101.974C-21.8914 88.1236 2.52231 69.1495 35.9676 55.4013C75.4489 41.0384 100.582 55.6746 110.122 72.5481C120.322 90.5487 117.821 114.715 101.495 155.959C89.6029 184.702 70.1917 210.542 43.8159 232.761C33.6161 240.651 27.4003 243.947 21.7687 243.947ZM-58.6318 143.441C-54.2583 149.982 -48.6716 156.403 -42.7554 163.183C-35.4163 171.603 -27.8226 180.33 -21.3971 190.526C-16.799 196.998 -12.7999 204.086 -8.93566 210.934C-2.60007 222.155 3.39102 232.744 10.5803 237.679C20.9449 243.93 26.1123 243.81 42.6926 230.95C68.7838 208.953 87.9853 183.404 99.7278 155.02C115.739 114.561 118.285 91.0098 108.49 73.7265C98.5895 56.2211 72.5282 44.4028 36.5817 57.4678C3.406 71.1135 -20.8879 89.9851 -38.6215 103.784L-41.8717 106.329C-58.9164 121.102 -66.7198 127.865 -58.6318 143.441Z" fill="#CCCCCC"/>
<path d="M20.3619 232.198C15.9585 232.198 11.8246 230.473 7.21148 227.091L7.18152 227.074C0.23185 221.643 -5.36982 211.43 -11.301 200.637C-14.0419 195.633 -16.8877 190.475 -19.9731 185.557C-24.092 178.349 -28.6602 171.689 -33.0786 165.267C-38.5006 157.377 -43.6379 149.914 -46.993 142.673C-52.8492 127.387 -44.282 119.395 -29.484 108.003C-14.2366 97.2441 9.32335 81.9076 38.2004 72.8561C65.7744 66.3834 86.4287 71.5752 96.4189 87.4581C107.203 104.571 104.522 131.708 89.0648 161.92C72.8739 197.477 47.2769 218.33 39.818 223.863C31.8798 229.465 25.9037 232.198 20.3619 232.198ZM8.25992 225.23C16.8871 231.532 23.657 232.659 38.7696 221.985C46.1087 216.537 71.3761 195.957 87.3573 160.844C102.425 131.384 105.151 105.117 94.8313 88.7561C85.3054 73.6246 65.355 68.7573 38.6348 75.025C10.0572 83.9912 -13.338 99.2081 -28.4505 109.882C-43.6829 121.598 -50.318 128.566 -45.2705 141.733C-42.0204 148.718 -36.9429 156.096 -31.5659 163.918C-27.1175 170.391 -22.5193 177.069 -18.3855 184.327C-15.2851 189.246 -12.4393 194.454 -9.6834 199.475C-3.84208 210.047 1.65474 220.055 8.25992 225.23Z" fill="#CCCCCC"/>
<path d="M19.4321 221.472C14.7591 221.472 10.4605 219.644 5.99709 215.99L5.87727 215.87C-11.2123 196.144 -31.4173 150.972 -35.2965 142.125L-35.3564 141.92C-38.3819 129.248 -31.5521 121.802 -17.9074 112.494C-5.05649 104.262 15.2384 93.4006 39.023 88.3283C60.9205 84.4003 77.3211 89.6946 85.2293 103.238C94.0063 118.284 91.3253 141.152 77.8902 165.984C66.0578 189.928 48.6237 207.16 36.2521 215.289C29.7817 219.422 24.3898 221.472 19.4321 221.472ZM7.19531 214.247C15.7476 221.198 23.3713 220.959 35.2786 213.359C47.4255 205.384 64.5451 188.442 76.2127 164.857C89.0636 141.101 91.8195 118.54 83.6117 104.467C76.1528 91.6757 60.4262 86.7059 39.3525 90.5144C15.8524 95.5354 -4.21772 106.295 -16.9338 114.424C-29.9944 123.322 -36.1503 129.931 -33.5142 141.254C-22.3708 166.667 -5.8503 199.15 7.19531 214.247Z" fill="#CCCCCC"/>
<path d="M18.7482 211.585C13.7456 211.585 9.41708 209.689 6.13695 206.017C-6.98354 191.518 -20.6432 160.93 -24.6722 142.537C-25.3313 138.284 -24.3877 134.134 -21.9014 130.172C-14.2328 117.961 8.48848 107.424 38.8933 101.993C56.0428 100.097 68.8338 105.34 74.9447 116.765C81.8644 129.711 79.3781 148.548 68.1298 168.428C53.4965 193.584 35.9876 209.638 21.2944 211.414C20.4257 211.534 19.572 211.585 18.7482 211.585ZM45.5733 103.82C43.5064 103.82 41.3646 103.94 39.1479 104.196C9.31224 109.524 -12.9447 119.72 -20.2987 131.47C-22.4855 134.954 -23.3093 138.523 -22.7551 142.093C-18.801 160.11 -5.38093 190.203 7.5149 204.446C10.9148 208.237 15.6179 209.894 21.0997 209.228C35.2237 207.52 52.2085 191.825 66.5122 167.232C77.1763 148.378 79.7226 129.95 73.2971 117.927C68.3694 108.722 58.6489 103.82 45.5733 103.82Z" fill="#CCCCCC"/>
<path d="M19.1484 202.191C14.5053 202.191 10.4163 200.483 7.22608 197.17C-4.157 185.402 -14.6863 160.519 -15.2855 143.936V143.902C-15.3603 128.617 6.92652 116.064 37.6908 114.083C50.7963 113.724 60.5169 118.711 65.0851 128.173C70.3273 139.018 68.1705 154.064 59.1689 169.468C48.0404 188.186 34.1111 200.346 21.8893 202.003C20.9457 202.122 20.0321 202.191 19.1484 202.191ZM-13.3383 143.868C-12.7392 159.956 -2.52442 184.105 8.54413 195.53C11.9141 199.031 16.4374 200.5 21.6496 199.8C33.3173 198.211 46.7374 186.41 57.5513 168.222C66.1335 153.534 68.2604 139.308 63.3776 129.215C59.1689 120.522 50.0924 115.91 37.7657 116.269C8.58905 118.165 -13.3983 130.034 -13.3383 143.868Z" fill="#CCCCCC"/>
<path d="M19.4827 193.292C15.4237 193.292 11.7991 191.875 8.87841 189.091C-1.38134 179.373 -8.67551 159.699 -7.07289 146.105C-5.33547 133.057 13.3418 123.698 35.389 124.774C45.0646 125.406 52.194 129.948 55.4891 137.548C59.2635 146.258 57.5411 157.82 50.7412 169.246C42.7131 182.618 32.1239 191.516 22.4183 193.053C21.4148 193.224 20.4412 193.292 19.4827 193.292ZM31.8992 126.908C12.3383 126.908 -3.64297 135.157 -5.14075 146.429C-6.63852 159.118 0.490885 178.263 10.1216 187.4C13.2969 190.406 17.4457 191.601 22.1487 190.867C31.33 189.415 41.4101 180.859 49.1386 167.999C55.5341 157.257 57.2116 146.514 53.7517 138.522C50.7861 131.673 44.2259 127.574 35.2991 126.977C34.1608 126.943 33.0225 126.908 31.8992 126.908Z" fill="#CCCCCC"/>
<path d="M20.3993 184.788C17.1342 184.788 14.1686 183.712 11.6823 181.611C3.0701 174.319 -1.7677 159.649 0.898337 148.906C3.60931 138.283 17.6884 131.896 32.9207 134.355C39.6757 135.5 44.6333 139.325 46.88 145.132C49.4262 151.707 48.1681 160.041 43.4351 168C37.9982 177.086 30.704 183.097 23.4248 184.481C22.4064 184.686 21.3879 184.788 20.3993 184.788ZM2.77055 149.521C0.34416 159.273 4.9573 173.158 12.8356 179.835C15.6364 182.209 19.1862 183.063 23.1103 182.312C29.7754 181.031 36.785 175.224 41.8475 166.77C46.191 159.461 47.3742 151.912 45.1126 146.037C43.1505 140.948 38.7171 137.583 32.6511 136.559C18.587 134.27 5.18197 140.094 2.77055 149.521Z" fill="#CCCCCC"/>
<path d="M21.1514 176.556C18.8898 176.556 16.7031 175.89 14.7859 174.455C8.37544 169.724 5.37989 159.682 8.09086 152.082C10.8168 144.517 20.5374 140.435 29.7786 142.997C34.0473 144.175 37.1627 147.061 38.5556 151.092C40.0833 155.532 39.3045 160.929 36.4287 165.882C32.4596 172.679 26.5734 176.556 21.1514 176.556ZM15.8343 172.611C21.3611 176.692 29.8685 173.14 34.8112 164.669C37.3274 160.331 38.0463 155.669 36.7433 151.912C35.59 148.564 32.9539 146.156 29.3143 145.149C20.9717 142.843 12.2547 146.327 9.88821 152.919C7.50675 159.597 10.1728 168.426 15.8343 172.611Z" fill="#CCCCCC"/>
<path d="M21.7151 168.477C20.4869 168.477 19.2887 168.153 18.1953 167.47C14.4509 165.13 12.9382 159.75 14.8403 155.464C16.7126 151.228 21.8499 149.196 26.2683 150.938C28.3952 151.775 29.9529 153.448 30.6269 155.669C31.3458 158.008 31.0013 160.741 29.6683 163.149C27.7661 166.547 24.6957 168.477 21.7151 168.477ZM22.9133 152.526C20.2024 152.526 17.6412 154.012 16.5478 156.471C15.1249 159.699 16.2632 163.764 19.109 165.523C21.9398 167.299 25.9388 165.694 28.0058 161.953C29.0392 160.092 29.3088 158.128 28.7696 156.386C28.2903 154.815 27.167 153.619 25.6093 153.004C24.7256 152.68 23.812 152.526 22.9133 152.526Z" fill="#CCCCCC"/>
</g>
</svg>
